%TF.GenerationSoftware,KiCad,Pcbnew,(5.0.1-3-g963ef8bb5)*%
%TF.CreationDate,2018-11-27T10:46:30+01:00*%
%TF.ProjectId,sensores,73656E736F7265732E6B696361645F70,rev?*%
%TF.SameCoordinates,Original*%
%TF.FileFunction,Copper,L1,Top,Signal*%
%TF.FilePolarity,Positive*%
%FSLAX46Y46*%
G04 Gerber Fmt 4.6, Leading zero omitted, Abs format (unit mm)*
G04 Created by KiCad (PCBNEW (5.0.1-3-g963ef8bb5)) date 2018 November 27, Tuesday 10:46:30*
%MOMM*%
%LPD*%
G01*
G04 APERTURE LIST*
%ADD10C,0.150000*%
%ADD11C,0.200000*%
%ADD12R,1.000000X1.000000*%
%ADD13O,1.000000X1.000000*%
%ADD14C,1.600000*%
%ADD15C,0.100000*%
%ADD16R,1.600000X2.400000*%
%ADD17O,1.600000X2.400000*%
%ADD18C,0.800000*%
%ADD19C,0.250000*%
%ADD20C,0.254000*%
G04 APERTURE END LIST*
D10*
X134620000Y-95504000D02*
X134620000Y-97282000D01*
X124968000Y-95504000D02*
X124968000Y-97282000D01*
X124968000Y-95504000D02*
X134620000Y-95504000D01*
X139700000Y-97282000D02*
G75*
G02X134620000Y-97282000I-2540000J0D01*
G01*
X124968000Y-97282000D02*
G75*
G02X119888000Y-97282000I-2540000J0D01*
G01*
X141478000Y-82296000D02*
X141478000Y-92964000D01*
X118110000Y-82296000D02*
X118110000Y-92964000D01*
X100076000Y-78994000D02*
X114808000Y-78994000D01*
X98044000Y-66548000D02*
X98044000Y-76962000D01*
X159512000Y-64516000D02*
X100076000Y-64516000D01*
X161544000Y-76962000D02*
X161544000Y-66548000D01*
X144780000Y-78994000D02*
X159512000Y-78994000D01*
D11*
X141478000Y-82296000D02*
G75*
G02X144780000Y-78994000I3302000J0D01*
G01*
X114808000Y-78994000D02*
G75*
G02X118110000Y-82296000I0J-3302000D01*
G01*
X100076000Y-78994000D02*
G75*
G02X98044000Y-76962000I0J2032000D01*
G01*
X161544000Y-76962000D02*
G75*
G02X159512000Y-78994000I-2032000J0D01*
G01*
D10*
X159512000Y-64516000D02*
G75*
G02X161544000Y-66548000I0J-2032000D01*
G01*
X98044000Y-66548000D02*
G75*
G02X100076000Y-64516000I2032000J0D01*
G01*
X118110000Y-92964000D02*
X119888000Y-94234000D01*
X139700000Y-94234000D02*
X141478000Y-92964000D01*
X139700000Y-94234000D02*
X139700000Y-97282000D01*
X119888000Y-94234000D02*
X119888000Y-97282000D01*
D12*
X126746000Y-91694000D03*
D13*
X128016000Y-91694000D03*
X129286000Y-91694000D03*
X130556000Y-91694000D03*
X131826000Y-91694000D03*
X133096000Y-91694000D03*
D14*
X105162000Y-69088000D03*
X105162000Y-71628000D03*
X102362000Y-71628000D03*
D15*
G36*
X102936865Y-68289202D02*
X102961095Y-68292796D01*
X102984855Y-68298748D01*
X103007918Y-68307000D01*
X103030061Y-68317472D01*
X103051070Y-68330065D01*
X103070745Y-68344657D01*
X103088894Y-68361106D01*
X103105343Y-68379255D01*
X103119935Y-68398930D01*
X103132528Y-68419939D01*
X103143000Y-68442082D01*
X103151252Y-68465145D01*
X103157204Y-68488905D01*
X103160798Y-68513135D01*
X103162000Y-68537600D01*
X103162000Y-69638400D01*
X103160798Y-69662865D01*
X103157204Y-69687095D01*
X103151252Y-69710855D01*
X103143000Y-69733918D01*
X103132528Y-69756061D01*
X103119935Y-69777070D01*
X103105343Y-69796745D01*
X103088894Y-69814894D01*
X103070745Y-69831343D01*
X103051070Y-69845935D01*
X103030061Y-69858528D01*
X103007918Y-69869000D01*
X102984855Y-69877252D01*
X102961095Y-69883204D01*
X102936865Y-69886798D01*
X102912400Y-69888000D01*
X101811600Y-69888000D01*
X101787135Y-69886798D01*
X101762905Y-69883204D01*
X101739145Y-69877252D01*
X101716082Y-69869000D01*
X101693939Y-69858528D01*
X101672930Y-69845935D01*
X101653255Y-69831343D01*
X101635106Y-69814894D01*
X101618657Y-69796745D01*
X101604065Y-69777070D01*
X101591472Y-69756061D01*
X101581000Y-69733918D01*
X101572748Y-69710855D01*
X101566796Y-69687095D01*
X101563202Y-69662865D01*
X101562000Y-69638400D01*
X101562000Y-68537600D01*
X101563202Y-68513135D01*
X101566796Y-68488905D01*
X101572748Y-68465145D01*
X101581000Y-68442082D01*
X101591472Y-68419939D01*
X101604065Y-68398930D01*
X101618657Y-68379255D01*
X101635106Y-68361106D01*
X101653255Y-68344657D01*
X101672930Y-68330065D01*
X101693939Y-68317472D01*
X101716082Y-68307000D01*
X101739145Y-68298748D01*
X101762905Y-68292796D01*
X101787135Y-68289202D01*
X101811600Y-68288000D01*
X102912400Y-68288000D01*
X102936865Y-68289202D01*
X102936865Y-68289202D01*
G37*
D14*
X102362000Y-69088000D03*
D15*
G36*
X113350865Y-68289202D02*
X113375095Y-68292796D01*
X113398855Y-68298748D01*
X113421918Y-68307000D01*
X113444061Y-68317472D01*
X113465070Y-68330065D01*
X113484745Y-68344657D01*
X113502894Y-68361106D01*
X113519343Y-68379255D01*
X113533935Y-68398930D01*
X113546528Y-68419939D01*
X113557000Y-68442082D01*
X113565252Y-68465145D01*
X113571204Y-68488905D01*
X113574798Y-68513135D01*
X113576000Y-68537600D01*
X113576000Y-69638400D01*
X113574798Y-69662865D01*
X113571204Y-69687095D01*
X113565252Y-69710855D01*
X113557000Y-69733918D01*
X113546528Y-69756061D01*
X113533935Y-69777070D01*
X113519343Y-69796745D01*
X113502894Y-69814894D01*
X113484745Y-69831343D01*
X113465070Y-69845935D01*
X113444061Y-69858528D01*
X113421918Y-69869000D01*
X113398855Y-69877252D01*
X113375095Y-69883204D01*
X113350865Y-69886798D01*
X113326400Y-69888000D01*
X112225600Y-69888000D01*
X112201135Y-69886798D01*
X112176905Y-69883204D01*
X112153145Y-69877252D01*
X112130082Y-69869000D01*
X112107939Y-69858528D01*
X112086930Y-69845935D01*
X112067255Y-69831343D01*
X112049106Y-69814894D01*
X112032657Y-69796745D01*
X112018065Y-69777070D01*
X112005472Y-69756061D01*
X111995000Y-69733918D01*
X111986748Y-69710855D01*
X111980796Y-69687095D01*
X111977202Y-69662865D01*
X111976000Y-69638400D01*
X111976000Y-68537600D01*
X111977202Y-68513135D01*
X111980796Y-68488905D01*
X111986748Y-68465145D01*
X111995000Y-68442082D01*
X112005472Y-68419939D01*
X112018065Y-68398930D01*
X112032657Y-68379255D01*
X112049106Y-68361106D01*
X112067255Y-68344657D01*
X112086930Y-68330065D01*
X112107939Y-68317472D01*
X112130082Y-68307000D01*
X112153145Y-68298748D01*
X112176905Y-68292796D01*
X112201135Y-68289202D01*
X112225600Y-68288000D01*
X113326400Y-68288000D01*
X113350865Y-68289202D01*
X113350865Y-68289202D01*
G37*
D14*
X112776000Y-69088000D03*
X112776000Y-71628000D03*
X115576000Y-71628000D03*
X115576000Y-69088000D03*
X125990000Y-69088000D03*
X125990000Y-71628000D03*
X123190000Y-71628000D03*
D15*
G36*
X123764865Y-68289202D02*
X123789095Y-68292796D01*
X123812855Y-68298748D01*
X123835918Y-68307000D01*
X123858061Y-68317472D01*
X123879070Y-68330065D01*
X123898745Y-68344657D01*
X123916894Y-68361106D01*
X123933343Y-68379255D01*
X123947935Y-68398930D01*
X123960528Y-68419939D01*
X123971000Y-68442082D01*
X123979252Y-68465145D01*
X123985204Y-68488905D01*
X123988798Y-68513135D01*
X123990000Y-68537600D01*
X123990000Y-69638400D01*
X123988798Y-69662865D01*
X123985204Y-69687095D01*
X123979252Y-69710855D01*
X123971000Y-69733918D01*
X123960528Y-69756061D01*
X123947935Y-69777070D01*
X123933343Y-69796745D01*
X123916894Y-69814894D01*
X123898745Y-69831343D01*
X123879070Y-69845935D01*
X123858061Y-69858528D01*
X123835918Y-69869000D01*
X123812855Y-69877252D01*
X123789095Y-69883204D01*
X123764865Y-69886798D01*
X123740400Y-69888000D01*
X122639600Y-69888000D01*
X122615135Y-69886798D01*
X122590905Y-69883204D01*
X122567145Y-69877252D01*
X122544082Y-69869000D01*
X122521939Y-69858528D01*
X122500930Y-69845935D01*
X122481255Y-69831343D01*
X122463106Y-69814894D01*
X122446657Y-69796745D01*
X122432065Y-69777070D01*
X122419472Y-69756061D01*
X122409000Y-69733918D01*
X122400748Y-69710855D01*
X122394796Y-69687095D01*
X122391202Y-69662865D01*
X122390000Y-69638400D01*
X122390000Y-68537600D01*
X122391202Y-68513135D01*
X122394796Y-68488905D01*
X122400748Y-68465145D01*
X122409000Y-68442082D01*
X122419472Y-68419939D01*
X122432065Y-68398930D01*
X122446657Y-68379255D01*
X122463106Y-68361106D01*
X122481255Y-68344657D01*
X122500930Y-68330065D01*
X122521939Y-68317472D01*
X122544082Y-68307000D01*
X122567145Y-68298748D01*
X122590905Y-68292796D01*
X122615135Y-68289202D01*
X122639600Y-68288000D01*
X123740400Y-68288000D01*
X123764865Y-68289202D01*
X123764865Y-68289202D01*
G37*
D14*
X123190000Y-69088000D03*
D15*
G36*
X134178865Y-68289202D02*
X134203095Y-68292796D01*
X134226855Y-68298748D01*
X134249918Y-68307000D01*
X134272061Y-68317472D01*
X134293070Y-68330065D01*
X134312745Y-68344657D01*
X134330894Y-68361106D01*
X134347343Y-68379255D01*
X134361935Y-68398930D01*
X134374528Y-68419939D01*
X134385000Y-68442082D01*
X134393252Y-68465145D01*
X134399204Y-68488905D01*
X134402798Y-68513135D01*
X134404000Y-68537600D01*
X134404000Y-69638400D01*
X134402798Y-69662865D01*
X134399204Y-69687095D01*
X134393252Y-69710855D01*
X134385000Y-69733918D01*
X134374528Y-69756061D01*
X134361935Y-69777070D01*
X134347343Y-69796745D01*
X134330894Y-69814894D01*
X134312745Y-69831343D01*
X134293070Y-69845935D01*
X134272061Y-69858528D01*
X134249918Y-69869000D01*
X134226855Y-69877252D01*
X134203095Y-69883204D01*
X134178865Y-69886798D01*
X134154400Y-69888000D01*
X133053600Y-69888000D01*
X133029135Y-69886798D01*
X133004905Y-69883204D01*
X132981145Y-69877252D01*
X132958082Y-69869000D01*
X132935939Y-69858528D01*
X132914930Y-69845935D01*
X132895255Y-69831343D01*
X132877106Y-69814894D01*
X132860657Y-69796745D01*
X132846065Y-69777070D01*
X132833472Y-69756061D01*
X132823000Y-69733918D01*
X132814748Y-69710855D01*
X132808796Y-69687095D01*
X132805202Y-69662865D01*
X132804000Y-69638400D01*
X132804000Y-68537600D01*
X132805202Y-68513135D01*
X132808796Y-68488905D01*
X132814748Y-68465145D01*
X132823000Y-68442082D01*
X132833472Y-68419939D01*
X132846065Y-68398930D01*
X132860657Y-68379255D01*
X132877106Y-68361106D01*
X132895255Y-68344657D01*
X132914930Y-68330065D01*
X132935939Y-68317472D01*
X132958082Y-68307000D01*
X132981145Y-68298748D01*
X133004905Y-68292796D01*
X133029135Y-68289202D01*
X133053600Y-68288000D01*
X134154400Y-68288000D01*
X134178865Y-68289202D01*
X134178865Y-68289202D01*
G37*
D14*
X133604000Y-69088000D03*
X133604000Y-71628000D03*
X136404000Y-71628000D03*
X136404000Y-69088000D03*
X146818000Y-69088000D03*
X146818000Y-71628000D03*
X144018000Y-71628000D03*
D15*
G36*
X144592865Y-68289202D02*
X144617095Y-68292796D01*
X144640855Y-68298748D01*
X144663918Y-68307000D01*
X144686061Y-68317472D01*
X144707070Y-68330065D01*
X144726745Y-68344657D01*
X144744894Y-68361106D01*
X144761343Y-68379255D01*
X144775935Y-68398930D01*
X144788528Y-68419939D01*
X144799000Y-68442082D01*
X144807252Y-68465145D01*
X144813204Y-68488905D01*
X144816798Y-68513135D01*
X144818000Y-68537600D01*
X144818000Y-69638400D01*
X144816798Y-69662865D01*
X144813204Y-69687095D01*
X144807252Y-69710855D01*
X144799000Y-69733918D01*
X144788528Y-69756061D01*
X144775935Y-69777070D01*
X144761343Y-69796745D01*
X144744894Y-69814894D01*
X144726745Y-69831343D01*
X144707070Y-69845935D01*
X144686061Y-69858528D01*
X144663918Y-69869000D01*
X144640855Y-69877252D01*
X144617095Y-69883204D01*
X144592865Y-69886798D01*
X144568400Y-69888000D01*
X143467600Y-69888000D01*
X143443135Y-69886798D01*
X143418905Y-69883204D01*
X143395145Y-69877252D01*
X143372082Y-69869000D01*
X143349939Y-69858528D01*
X143328930Y-69845935D01*
X143309255Y-69831343D01*
X143291106Y-69814894D01*
X143274657Y-69796745D01*
X143260065Y-69777070D01*
X143247472Y-69756061D01*
X143237000Y-69733918D01*
X143228748Y-69710855D01*
X143222796Y-69687095D01*
X143219202Y-69662865D01*
X143218000Y-69638400D01*
X143218000Y-68537600D01*
X143219202Y-68513135D01*
X143222796Y-68488905D01*
X143228748Y-68465145D01*
X143237000Y-68442082D01*
X143247472Y-68419939D01*
X143260065Y-68398930D01*
X143274657Y-68379255D01*
X143291106Y-68361106D01*
X143309255Y-68344657D01*
X143328930Y-68330065D01*
X143349939Y-68317472D01*
X143372082Y-68307000D01*
X143395145Y-68298748D01*
X143418905Y-68292796D01*
X143443135Y-68289202D01*
X143467600Y-68288000D01*
X144568400Y-68288000D01*
X144592865Y-68289202D01*
X144592865Y-68289202D01*
G37*
D14*
X144018000Y-69088000D03*
D15*
G36*
X155006865Y-68289202D02*
X155031095Y-68292796D01*
X155054855Y-68298748D01*
X155077918Y-68307000D01*
X155100061Y-68317472D01*
X155121070Y-68330065D01*
X155140745Y-68344657D01*
X155158894Y-68361106D01*
X155175343Y-68379255D01*
X155189935Y-68398930D01*
X155202528Y-68419939D01*
X155213000Y-68442082D01*
X155221252Y-68465145D01*
X155227204Y-68488905D01*
X155230798Y-68513135D01*
X155232000Y-68537600D01*
X155232000Y-69638400D01*
X155230798Y-69662865D01*
X155227204Y-69687095D01*
X155221252Y-69710855D01*
X155213000Y-69733918D01*
X155202528Y-69756061D01*
X155189935Y-69777070D01*
X155175343Y-69796745D01*
X155158894Y-69814894D01*
X155140745Y-69831343D01*
X155121070Y-69845935D01*
X155100061Y-69858528D01*
X155077918Y-69869000D01*
X155054855Y-69877252D01*
X155031095Y-69883204D01*
X155006865Y-69886798D01*
X154982400Y-69888000D01*
X153881600Y-69888000D01*
X153857135Y-69886798D01*
X153832905Y-69883204D01*
X153809145Y-69877252D01*
X153786082Y-69869000D01*
X153763939Y-69858528D01*
X153742930Y-69845935D01*
X153723255Y-69831343D01*
X153705106Y-69814894D01*
X153688657Y-69796745D01*
X153674065Y-69777070D01*
X153661472Y-69756061D01*
X153651000Y-69733918D01*
X153642748Y-69710855D01*
X153636796Y-69687095D01*
X153633202Y-69662865D01*
X153632000Y-69638400D01*
X153632000Y-68537600D01*
X153633202Y-68513135D01*
X153636796Y-68488905D01*
X153642748Y-68465145D01*
X153651000Y-68442082D01*
X153661472Y-68419939D01*
X153674065Y-68398930D01*
X153688657Y-68379255D01*
X153705106Y-68361106D01*
X153723255Y-68344657D01*
X153742930Y-68330065D01*
X153763939Y-68317472D01*
X153786082Y-68307000D01*
X153809145Y-68298748D01*
X153832905Y-68292796D01*
X153857135Y-68289202D01*
X153881600Y-68288000D01*
X154982400Y-68288000D01*
X155006865Y-68289202D01*
X155006865Y-68289202D01*
G37*
D14*
X154432000Y-69088000D03*
X154432000Y-71628000D03*
X157232000Y-71628000D03*
X157232000Y-69088000D03*
D16*
X138684000Y-88138000D03*
D17*
X120904000Y-80518000D03*
X136144000Y-88138000D03*
X123444000Y-80518000D03*
X133604000Y-88138000D03*
X125984000Y-80518000D03*
X131064000Y-88138000D03*
X128524000Y-80518000D03*
X128524000Y-88138000D03*
X131064000Y-80518000D03*
X125984000Y-88138000D03*
X133604000Y-80518000D03*
X123444000Y-88138000D03*
X136144000Y-80518000D03*
X120904000Y-88138000D03*
X138684000Y-80518000D03*
D18*
X118364000Y-79248000D03*
X119380000Y-78232000D03*
X108712000Y-76708000D03*
X140208000Y-77216000D03*
X131820000Y-77210000D03*
X132334000Y-82804000D03*
X133604000Y-85090000D03*
X131576653Y-85856653D03*
D19*
X118872000Y-89662000D02*
X118872000Y-79756000D01*
X118872000Y-79756000D02*
X118364000Y-79248000D01*
X120904000Y-91694000D02*
X118872000Y-89662000D01*
X126746000Y-91694000D02*
X120904000Y-91694000D01*
X120904000Y-88138000D02*
X123444000Y-88138000D01*
X123444000Y-88138000D02*
X125984000Y-88138000D01*
X128016000Y-90986894D02*
X128016000Y-91694000D01*
X125984000Y-88538000D02*
X128016000Y-90570000D01*
X128016000Y-90570000D02*
X128016000Y-90986894D01*
X125984000Y-88138000D02*
X125984000Y-88538000D01*
X120904000Y-85598000D02*
X120904000Y-88138000D01*
X119380000Y-84074000D02*
X120904000Y-85598000D01*
X119380000Y-78232000D02*
X119380000Y-84074000D01*
X129794000Y-86614000D02*
X133604000Y-82804000D01*
X129794000Y-89662000D02*
X129794000Y-86614000D01*
X129286000Y-90170000D02*
X129794000Y-89662000D01*
X133604000Y-82804000D02*
X133604000Y-80518000D01*
X129286000Y-91694000D02*
X129286000Y-90170000D01*
X131826000Y-88900000D02*
X131064000Y-88138000D01*
X131826000Y-91694000D02*
X131826000Y-88900000D01*
X125984000Y-80518000D02*
X123444000Y-80518000D01*
X123444000Y-80518000D02*
X120904000Y-80518000D01*
X115576000Y-71628000D02*
X118878000Y-74930000D01*
X118878000Y-74930000D02*
X128016000Y-74930000D01*
X131064000Y-77978000D02*
X131064000Y-80518000D01*
X128016000Y-74930000D02*
X131064000Y-77978000D01*
X110490000Y-76708000D02*
X108712000Y-76708000D01*
X110998000Y-76200000D02*
X110490000Y-76708000D01*
X125656000Y-76200000D02*
X110998000Y-76200000D01*
X128524000Y-79068000D02*
X125656000Y-76200000D01*
X128524000Y-80518000D02*
X128524000Y-79068000D01*
X139734000Y-88138000D02*
X138684000Y-88138000D01*
X140462000Y-87410000D02*
X139734000Y-88138000D01*
X140462000Y-78035685D02*
X140462000Y-87410000D01*
X140208000Y-77781685D02*
X140462000Y-78035685D01*
X140208000Y-77216000D02*
X140208000Y-77781685D01*
X131820000Y-77210000D02*
X132334000Y-77724000D01*
X132334000Y-77724000D02*
X132334000Y-82804000D01*
X133604000Y-85090000D02*
X132334000Y-86360000D01*
X132334000Y-86360000D02*
X132334000Y-89662000D01*
X132334000Y-89662000D02*
X132842000Y-90170000D01*
X136144000Y-88538000D02*
X136144000Y-88138000D01*
X134512000Y-90170000D02*
X136144000Y-88538000D01*
X132842000Y-90170000D02*
X134512000Y-90170000D01*
X131572000Y-85852000D02*
X131576653Y-85856653D01*
X134874000Y-82550000D02*
X132334000Y-85090000D01*
X132334000Y-85090000D02*
X131576653Y-85856653D01*
X134874000Y-78994000D02*
X134874000Y-82550000D01*
X144139370Y-75438000D02*
X138430000Y-75438000D01*
X138430000Y-75438000D02*
X134874000Y-78994000D01*
X146818000Y-72759370D02*
X144139370Y-75438000D01*
X146818000Y-71628000D02*
X146818000Y-72759370D01*
X133604000Y-86360000D02*
X133604000Y-88138000D01*
X137414000Y-82550000D02*
X133604000Y-86360000D01*
X137414000Y-78740000D02*
X137414000Y-82550000D01*
X151892000Y-76200000D02*
X139954000Y-76200000D01*
X139954000Y-76200000D02*
X137414000Y-78740000D01*
X154432000Y-73666000D02*
X154426000Y-73666000D01*
X154426000Y-73666000D02*
X151892000Y-76200000D01*
X156470000Y-71628000D02*
X154432000Y-73666000D01*
D20*
G36*
X119869424Y-81952577D02*
X120344092Y-82269740D01*
X120904000Y-82381113D01*
X121463909Y-82269740D01*
X121938577Y-81952577D01*
X122174000Y-81600241D01*
X122409424Y-81952577D01*
X122884092Y-82269740D01*
X123444000Y-82381113D01*
X124003909Y-82269740D01*
X124478577Y-81952577D01*
X124714000Y-81600241D01*
X124949424Y-81952577D01*
X125424092Y-82269740D01*
X125984000Y-82381113D01*
X126543909Y-82269740D01*
X127018577Y-81952577D01*
X127254000Y-81600241D01*
X127489424Y-81952577D01*
X127964092Y-82269740D01*
X128524000Y-82381113D01*
X129083909Y-82269740D01*
X129558577Y-81952577D01*
X129794000Y-81600241D01*
X130029424Y-81952577D01*
X130504092Y-82269740D01*
X131064000Y-82381113D01*
X131418061Y-82310686D01*
X131299000Y-82598126D01*
X131299000Y-83009874D01*
X131456569Y-83390280D01*
X131699744Y-83633455D01*
X129309528Y-86023671D01*
X129246072Y-86066071D01*
X129203672Y-86129527D01*
X129203671Y-86129528D01*
X129078097Y-86317463D01*
X129065154Y-86382530D01*
X128524000Y-86274887D01*
X127964091Y-86386260D01*
X127489423Y-86703424D01*
X127251501Y-87059499D01*
X126908896Y-86633500D01*
X126415819Y-86363633D01*
X126333039Y-86346096D01*
X126111000Y-86468085D01*
X126111000Y-88011000D01*
X126131000Y-88011000D01*
X126131000Y-88265000D01*
X126111000Y-88265000D01*
X126111000Y-89807915D01*
X126333039Y-89929904D01*
X126415819Y-89912367D01*
X126908896Y-89642500D01*
X127251501Y-89216501D01*
X127489424Y-89572577D01*
X127964092Y-89889740D01*
X128524000Y-90001113D01*
X128545559Y-89996825D01*
X128511112Y-90170000D01*
X128526001Y-90244851D01*
X128526001Y-90686079D01*
X128317874Y-90599881D01*
X128143000Y-90726046D01*
X128143000Y-91567000D01*
X128154027Y-91567000D01*
X128128765Y-91694000D01*
X128154027Y-91821000D01*
X128143000Y-91821000D01*
X128143000Y-92661954D01*
X128317874Y-92788119D01*
X128576209Y-92681127D01*
X128639090Y-92626801D01*
X128843145Y-92763146D01*
X129174217Y-92829000D01*
X129397783Y-92829000D01*
X129728855Y-92763146D01*
X129921000Y-92634759D01*
X130113145Y-92763146D01*
X130444217Y-92829000D01*
X130667783Y-92829000D01*
X130998855Y-92763146D01*
X131191000Y-92634759D01*
X131383145Y-92763146D01*
X131714217Y-92829000D01*
X131937783Y-92829000D01*
X132268855Y-92763146D01*
X132461000Y-92634759D01*
X132653145Y-92763146D01*
X132984217Y-92829000D01*
X133207783Y-92829000D01*
X133538855Y-92763146D01*
X133914289Y-92512289D01*
X134165146Y-92136855D01*
X134253235Y-91694000D01*
X134165146Y-91251145D01*
X133950564Y-90930000D01*
X134437153Y-90930000D01*
X134512000Y-90944888D01*
X134586847Y-90930000D01*
X134586852Y-90930000D01*
X134808537Y-90885904D01*
X135059929Y-90717929D01*
X135102331Y-90654470D01*
X135820114Y-89936688D01*
X136144000Y-90001113D01*
X136703909Y-89889740D01*
X137178577Y-89572577D01*
X137259215Y-89451894D01*
X137285843Y-89585765D01*
X137426191Y-89795809D01*
X137636235Y-89936157D01*
X137884000Y-89985440D01*
X139484000Y-89985440D01*
X139731765Y-89936157D01*
X139941809Y-89795809D01*
X140082157Y-89585765D01*
X140131440Y-89338000D01*
X140131440Y-88786483D01*
X140281929Y-88685929D01*
X140324331Y-88622471D01*
X140768001Y-88178802D01*
X140768001Y-92598621D01*
X139296314Y-93649826D01*
X139188119Y-93722120D01*
X139142303Y-93790688D01*
X139085839Y-93850791D01*
X139064585Y-93907001D01*
X139031195Y-93956973D01*
X139015106Y-94037859D01*
X138985941Y-94114991D01*
X138990000Y-94245048D01*
X138990001Y-97237326D01*
X138927042Y-97735699D01*
X138758697Y-98160889D01*
X138489899Y-98530859D01*
X138137541Y-98822355D01*
X137723756Y-99017067D01*
X137274553Y-99102757D01*
X136818149Y-99074043D01*
X136383228Y-98932728D01*
X135997110Y-98687691D01*
X135684065Y-98354332D01*
X135463756Y-97953590D01*
X135344414Y-97488783D01*
X135330000Y-97259686D01*
X135330000Y-96936887D01*
X135425000Y-96936887D01*
X135425000Y-97627113D01*
X135689138Y-98264799D01*
X136177201Y-98752862D01*
X136814887Y-99017000D01*
X137505113Y-99017000D01*
X138142799Y-98752862D01*
X138630862Y-98264799D01*
X138895000Y-97627113D01*
X138895000Y-96936887D01*
X138630862Y-96299201D01*
X138142799Y-95811138D01*
X137505113Y-95547000D01*
X136814887Y-95547000D01*
X136177201Y-95811138D01*
X135689138Y-96299201D01*
X135425000Y-96936887D01*
X135330000Y-96936887D01*
X135330000Y-95573926D01*
X135343909Y-95504000D01*
X135288805Y-95226972D01*
X135131881Y-94992119D01*
X134897028Y-94835195D01*
X134689926Y-94794000D01*
X134689925Y-94794000D01*
X134620000Y-94780091D01*
X134550074Y-94794000D01*
X125037925Y-94794000D01*
X124968000Y-94780091D01*
X124898074Y-94794000D01*
X124690972Y-94835195D01*
X124456119Y-94992119D01*
X124299195Y-95226972D01*
X124244091Y-95504000D01*
X124258000Y-95573926D01*
X124258001Y-97237326D01*
X124195042Y-97735699D01*
X124026697Y-98160889D01*
X123757899Y-98530859D01*
X123405541Y-98822355D01*
X122991756Y-99017067D01*
X122542553Y-99102757D01*
X122086149Y-99074043D01*
X121651228Y-98932728D01*
X121265110Y-98687691D01*
X120952065Y-98354332D01*
X120731756Y-97953590D01*
X120612414Y-97488783D01*
X120598000Y-97259686D01*
X120598000Y-96936887D01*
X120693000Y-96936887D01*
X120693000Y-97627113D01*
X120957138Y-98264799D01*
X121445201Y-98752862D01*
X122082887Y-99017000D01*
X122773113Y-99017000D01*
X123410799Y-98752862D01*
X123898862Y-98264799D01*
X124163000Y-97627113D01*
X124163000Y-96936887D01*
X123898862Y-96299201D01*
X123410799Y-95811138D01*
X122773113Y-95547000D01*
X122082887Y-95547000D01*
X121445201Y-95811138D01*
X120957138Y-96299201D01*
X120693000Y-96936887D01*
X120598000Y-96936887D01*
X120598000Y-94245047D01*
X120602059Y-94114990D01*
X120572894Y-94037856D01*
X120556805Y-93956972D01*
X120523417Y-93907004D01*
X120502162Y-93850790D01*
X120445694Y-93790684D01*
X120399880Y-93722119D01*
X120291688Y-93649827D01*
X118820000Y-92598622D01*
X118820000Y-90684801D01*
X120313671Y-92178473D01*
X120356071Y-92241929D01*
X120607463Y-92409904D01*
X120829148Y-92454000D01*
X120829153Y-92454000D01*
X120904000Y-92468888D01*
X120978847Y-92454000D01*
X125656018Y-92454000D01*
X125788191Y-92651809D01*
X125998235Y-92792157D01*
X126246000Y-92841440D01*
X127246000Y-92841440D01*
X127493765Y-92792157D01*
X127581817Y-92733322D01*
X127714126Y-92788119D01*
X127889000Y-92661954D01*
X127889000Y-92216322D01*
X127893440Y-92194000D01*
X127893440Y-91194000D01*
X127889000Y-91171678D01*
X127889000Y-90726046D01*
X127714126Y-90599881D01*
X127581817Y-90654678D01*
X127493765Y-90595843D01*
X127246000Y-90546560D01*
X126246000Y-90546560D01*
X125998235Y-90595843D01*
X125788191Y-90736191D01*
X125656018Y-90934000D01*
X121218802Y-90934000D01*
X119632000Y-89347199D01*
X119632000Y-89210906D01*
X119979104Y-89642500D01*
X120472181Y-89912367D01*
X120554961Y-89929904D01*
X120777000Y-89807915D01*
X120777000Y-88265000D01*
X121031000Y-88265000D01*
X121031000Y-89807915D01*
X121253039Y-89929904D01*
X121335819Y-89912367D01*
X121828896Y-89642500D01*
X122174000Y-89213393D01*
X122519104Y-89642500D01*
X123012181Y-89912367D01*
X123094961Y-89929904D01*
X123317000Y-89807915D01*
X123317000Y-88265000D01*
X123571000Y-88265000D01*
X123571000Y-89807915D01*
X123793039Y-89929904D01*
X123875819Y-89912367D01*
X124368896Y-89642500D01*
X124714000Y-89213393D01*
X125059104Y-89642500D01*
X125552181Y-89912367D01*
X125634961Y-89929904D01*
X125857000Y-89807915D01*
X125857000Y-88265000D01*
X123571000Y-88265000D01*
X123317000Y-88265000D01*
X121031000Y-88265000D01*
X120777000Y-88265000D01*
X120757000Y-88265000D01*
X120757000Y-88011000D01*
X120777000Y-88011000D01*
X120777000Y-86468085D01*
X121031000Y-86468085D01*
X121031000Y-88011000D01*
X123317000Y-88011000D01*
X123317000Y-86468085D01*
X123571000Y-86468085D01*
X123571000Y-88011000D01*
X125857000Y-88011000D01*
X125857000Y-86468085D01*
X125634961Y-86346096D01*
X125552181Y-86363633D01*
X125059104Y-86633500D01*
X124714000Y-87062607D01*
X124368896Y-86633500D01*
X123875819Y-86363633D01*
X123793039Y-86346096D01*
X123571000Y-86468085D01*
X123317000Y-86468085D01*
X123094961Y-86346096D01*
X123012181Y-86363633D01*
X122519104Y-86633500D01*
X122174000Y-87062607D01*
X121828896Y-86633500D01*
X121335819Y-86363633D01*
X121253039Y-86346096D01*
X121031000Y-86468085D01*
X120777000Y-86468085D01*
X120554961Y-86346096D01*
X120472181Y-86363633D01*
X119979104Y-86633500D01*
X119632000Y-87065094D01*
X119632000Y-81597248D01*
X119869424Y-81952577D01*
X119869424Y-81952577D01*
G37*
X119869424Y-81952577D02*
X120344092Y-82269740D01*
X120904000Y-82381113D01*
X121463909Y-82269740D01*
X121938577Y-81952577D01*
X122174000Y-81600241D01*
X122409424Y-81952577D01*
X122884092Y-82269740D01*
X123444000Y-82381113D01*
X124003909Y-82269740D01*
X124478577Y-81952577D01*
X124714000Y-81600241D01*
X124949424Y-81952577D01*
X125424092Y-82269740D01*
X125984000Y-82381113D01*
X126543909Y-82269740D01*
X127018577Y-81952577D01*
X127254000Y-81600241D01*
X127489424Y-81952577D01*
X127964092Y-82269740D01*
X128524000Y-82381113D01*
X129083909Y-82269740D01*
X129558577Y-81952577D01*
X129794000Y-81600241D01*
X130029424Y-81952577D01*
X130504092Y-82269740D01*
X131064000Y-82381113D01*
X131418061Y-82310686D01*
X131299000Y-82598126D01*
X131299000Y-83009874D01*
X131456569Y-83390280D01*
X131699744Y-83633455D01*
X129309528Y-86023671D01*
X129246072Y-86066071D01*
X129203672Y-86129527D01*
X129203671Y-86129528D01*
X129078097Y-86317463D01*
X129065154Y-86382530D01*
X128524000Y-86274887D01*
X127964091Y-86386260D01*
X127489423Y-86703424D01*
X127251501Y-87059499D01*
X126908896Y-86633500D01*
X126415819Y-86363633D01*
X126333039Y-86346096D01*
X126111000Y-86468085D01*
X126111000Y-88011000D01*
X126131000Y-88011000D01*
X126131000Y-88265000D01*
X126111000Y-88265000D01*
X126111000Y-89807915D01*
X126333039Y-89929904D01*
X126415819Y-89912367D01*
X126908896Y-89642500D01*
X127251501Y-89216501D01*
X127489424Y-89572577D01*
X127964092Y-89889740D01*
X128524000Y-90001113D01*
X128545559Y-89996825D01*
X128511112Y-90170000D01*
X128526001Y-90244851D01*
X128526001Y-90686079D01*
X128317874Y-90599881D01*
X128143000Y-90726046D01*
X128143000Y-91567000D01*
X128154027Y-91567000D01*
X128128765Y-91694000D01*
X128154027Y-91821000D01*
X128143000Y-91821000D01*
X128143000Y-92661954D01*
X128317874Y-92788119D01*
X128576209Y-92681127D01*
X128639090Y-92626801D01*
X128843145Y-92763146D01*
X129174217Y-92829000D01*
X129397783Y-92829000D01*
X129728855Y-92763146D01*
X129921000Y-92634759D01*
X130113145Y-92763146D01*
X130444217Y-92829000D01*
X130667783Y-92829000D01*
X130998855Y-92763146D01*
X131191000Y-92634759D01*
X131383145Y-92763146D01*
X131714217Y-92829000D01*
X131937783Y-92829000D01*
X132268855Y-92763146D01*
X132461000Y-92634759D01*
X132653145Y-92763146D01*
X132984217Y-92829000D01*
X133207783Y-92829000D01*
X133538855Y-92763146D01*
X133914289Y-92512289D01*
X134165146Y-92136855D01*
X134253235Y-91694000D01*
X134165146Y-91251145D01*
X133950564Y-90930000D01*
X134437153Y-90930000D01*
X134512000Y-90944888D01*
X134586847Y-90930000D01*
X134586852Y-90930000D01*
X134808537Y-90885904D01*
X135059929Y-90717929D01*
X135102331Y-90654470D01*
X135820114Y-89936688D01*
X136144000Y-90001113D01*
X136703909Y-89889740D01*
X137178577Y-89572577D01*
X137259215Y-89451894D01*
X137285843Y-89585765D01*
X137426191Y-89795809D01*
X137636235Y-89936157D01*
X137884000Y-89985440D01*
X139484000Y-89985440D01*
X139731765Y-89936157D01*
X139941809Y-89795809D01*
X140082157Y-89585765D01*
X140131440Y-89338000D01*
X140131440Y-88786483D01*
X140281929Y-88685929D01*
X140324331Y-88622471D01*
X140768001Y-88178802D01*
X140768001Y-92598621D01*
X139296314Y-93649826D01*
X139188119Y-93722120D01*
X139142303Y-93790688D01*
X139085839Y-93850791D01*
X139064585Y-93907001D01*
X139031195Y-93956973D01*
X139015106Y-94037859D01*
X138985941Y-94114991D01*
X138990000Y-94245048D01*
X138990001Y-97237326D01*
X138927042Y-97735699D01*
X138758697Y-98160889D01*
X138489899Y-98530859D01*
X138137541Y-98822355D01*
X137723756Y-99017067D01*
X137274553Y-99102757D01*
X136818149Y-99074043D01*
X136383228Y-98932728D01*
X135997110Y-98687691D01*
X135684065Y-98354332D01*
X135463756Y-97953590D01*
X135344414Y-97488783D01*
X135330000Y-97259686D01*
X135330000Y-96936887D01*
X135425000Y-96936887D01*
X135425000Y-97627113D01*
X135689138Y-98264799D01*
X136177201Y-98752862D01*
X136814887Y-99017000D01*
X137505113Y-99017000D01*
X138142799Y-98752862D01*
X138630862Y-98264799D01*
X138895000Y-97627113D01*
X138895000Y-96936887D01*
X138630862Y-96299201D01*
X138142799Y-95811138D01*
X137505113Y-95547000D01*
X136814887Y-95547000D01*
X136177201Y-95811138D01*
X135689138Y-96299201D01*
X135425000Y-96936887D01*
X135330000Y-96936887D01*
X135330000Y-95573926D01*
X135343909Y-95504000D01*
X135288805Y-95226972D01*
X135131881Y-94992119D01*
X134897028Y-94835195D01*
X134689926Y-94794000D01*
X134689925Y-94794000D01*
X134620000Y-94780091D01*
X134550074Y-94794000D01*
X125037925Y-94794000D01*
X124968000Y-94780091D01*
X124898074Y-94794000D01*
X124690972Y-94835195D01*
X124456119Y-94992119D01*
X124299195Y-95226972D01*
X124244091Y-95504000D01*
X124258000Y-95573926D01*
X124258001Y-97237326D01*
X124195042Y-97735699D01*
X124026697Y-98160889D01*
X123757899Y-98530859D01*
X123405541Y-98822355D01*
X122991756Y-99017067D01*
X122542553Y-99102757D01*
X122086149Y-99074043D01*
X121651228Y-98932728D01*
X121265110Y-98687691D01*
X120952065Y-98354332D01*
X120731756Y-97953590D01*
X120612414Y-97488783D01*
X120598000Y-97259686D01*
X120598000Y-96936887D01*
X120693000Y-96936887D01*
X120693000Y-97627113D01*
X120957138Y-98264799D01*
X121445201Y-98752862D01*
X122082887Y-99017000D01*
X122773113Y-99017000D01*
X123410799Y-98752862D01*
X123898862Y-98264799D01*
X124163000Y-97627113D01*
X124163000Y-96936887D01*
X123898862Y-96299201D01*
X123410799Y-95811138D01*
X122773113Y-95547000D01*
X122082887Y-95547000D01*
X121445201Y-95811138D01*
X120957138Y-96299201D01*
X120693000Y-96936887D01*
X120598000Y-96936887D01*
X120598000Y-94245047D01*
X120602059Y-94114990D01*
X120572894Y-94037856D01*
X120556805Y-93956972D01*
X120523417Y-93907004D01*
X120502162Y-93850790D01*
X120445694Y-93790684D01*
X120399880Y-93722119D01*
X120291688Y-93649827D01*
X118820000Y-92598622D01*
X118820000Y-90684801D01*
X120313671Y-92178473D01*
X120356071Y-92241929D01*
X120607463Y-92409904D01*
X120829148Y-92454000D01*
X120829153Y-92454000D01*
X120904000Y-92468888D01*
X120978847Y-92454000D01*
X125656018Y-92454000D01*
X125788191Y-92651809D01*
X125998235Y-92792157D01*
X126246000Y-92841440D01*
X127246000Y-92841440D01*
X127493765Y-92792157D01*
X127581817Y-92733322D01*
X127714126Y-92788119D01*
X127889000Y-92661954D01*
X127889000Y-92216322D01*
X127893440Y-92194000D01*
X127893440Y-91194000D01*
X127889000Y-91171678D01*
X127889000Y-90726046D01*
X127714126Y-90599881D01*
X127581817Y-90654678D01*
X127493765Y-90595843D01*
X127246000Y-90546560D01*
X126246000Y-90546560D01*
X125998235Y-90595843D01*
X125788191Y-90736191D01*
X125656018Y-90934000D01*
X121218802Y-90934000D01*
X119632000Y-89347199D01*
X119632000Y-89210906D01*
X119979104Y-89642500D01*
X120472181Y-89912367D01*
X120554961Y-89929904D01*
X120777000Y-89807915D01*
X120777000Y-88265000D01*
X121031000Y-88265000D01*
X121031000Y-89807915D01*
X121253039Y-89929904D01*
X121335819Y-89912367D01*
X121828896Y-89642500D01*
X122174000Y-89213393D01*
X122519104Y-89642500D01*
X123012181Y-89912367D01*
X123094961Y-89929904D01*
X123317000Y-89807915D01*
X123317000Y-88265000D01*
X123571000Y-88265000D01*
X123571000Y-89807915D01*
X123793039Y-89929904D01*
X123875819Y-89912367D01*
X124368896Y-89642500D01*
X124714000Y-89213393D01*
X125059104Y-89642500D01*
X125552181Y-89912367D01*
X125634961Y-89929904D01*
X125857000Y-89807915D01*
X125857000Y-88265000D01*
X123571000Y-88265000D01*
X123317000Y-88265000D01*
X121031000Y-88265000D01*
X120777000Y-88265000D01*
X120757000Y-88265000D01*
X120757000Y-88011000D01*
X120777000Y-88011000D01*
X120777000Y-86468085D01*
X121031000Y-86468085D01*
X121031000Y-88011000D01*
X123317000Y-88011000D01*
X123317000Y-86468085D01*
X123571000Y-86468085D01*
X123571000Y-88011000D01*
X125857000Y-88011000D01*
X125857000Y-86468085D01*
X125634961Y-86346096D01*
X125552181Y-86363633D01*
X125059104Y-86633500D01*
X124714000Y-87062607D01*
X124368896Y-86633500D01*
X123875819Y-86363633D01*
X123793039Y-86346096D01*
X123571000Y-86468085D01*
X123317000Y-86468085D01*
X123094961Y-86346096D01*
X123012181Y-86363633D01*
X122519104Y-86633500D01*
X122174000Y-87062607D01*
X121828896Y-86633500D01*
X121335819Y-86363633D01*
X121253039Y-86346096D01*
X121031000Y-86468085D01*
X120777000Y-86468085D01*
X120554961Y-86346096D01*
X120472181Y-86363633D01*
X119979104Y-86633500D01*
X119632000Y-87065094D01*
X119632000Y-81597248D01*
X119869424Y-81952577D01*
G36*
X159881009Y-65286090D02*
X160220352Y-65440381D01*
X160502752Y-65683712D01*
X160705506Y-65996523D01*
X160819348Y-66377184D01*
X160834001Y-66574363D01*
X160834000Y-76795773D01*
X160817751Y-76848922D01*
X160816423Y-76857802D01*
X160749669Y-77323922D01*
X160598343Y-77656746D01*
X160359687Y-77933720D01*
X160052885Y-78132579D01*
X159678252Y-78244618D01*
X159457530Y-78261021D01*
X159353016Y-78284000D01*
X144956856Y-78284000D01*
X144841502Y-78261578D01*
X144759476Y-78259287D01*
X144575153Y-78264436D01*
X144566215Y-78265660D01*
X144557211Y-78265157D01*
X144475633Y-78274018D01*
X143771983Y-78390506D01*
X143734871Y-78400868D01*
X143696844Y-78407027D01*
X143619072Y-78433200D01*
X142956850Y-78698070D01*
X142922834Y-78716157D01*
X142887011Y-78730340D01*
X142816673Y-78772603D01*
X142226776Y-79173497D01*
X142197432Y-79198471D01*
X142165498Y-79220011D01*
X142105876Y-79276391D01*
X141615826Y-79794605D01*
X141592533Y-79825292D01*
X141565964Y-79853193D01*
X141519840Y-79921061D01*
X141222000Y-80416750D01*
X141222000Y-78110531D01*
X141236888Y-78035684D01*
X141222000Y-77960837D01*
X141222000Y-77960833D01*
X141177904Y-77739148D01*
X141136962Y-77677874D01*
X141243000Y-77421874D01*
X141243000Y-77010126D01*
X141222237Y-76960000D01*
X151817153Y-76960000D01*
X151892000Y-76974888D01*
X151966847Y-76960000D01*
X151966852Y-76960000D01*
X152188537Y-76915904D01*
X152439929Y-76747929D01*
X152482331Y-76684470D01*
X154898391Y-74268411D01*
X154979929Y-74213929D01*
X155022331Y-74150470D01*
X156373703Y-72799099D01*
X156419138Y-72844534D01*
X156946561Y-73063000D01*
X157517439Y-73063000D01*
X158044862Y-72844534D01*
X158448534Y-72440862D01*
X158667000Y-71913439D01*
X158667000Y-71342561D01*
X158448534Y-70815138D01*
X158044862Y-70411466D01*
X157931417Y-70364475D01*
X157986005Y-70341864D01*
X158060139Y-70095745D01*
X157232000Y-69267605D01*
X156403861Y-70095745D01*
X156477995Y-70341864D01*
X156536448Y-70362874D01*
X156419138Y-70411466D01*
X156015466Y-70815138D01*
X155879281Y-71143917D01*
X155821573Y-71201625D01*
X155685864Y-70873995D01*
X155439745Y-70799861D01*
X154611605Y-71628000D01*
X154625748Y-71642142D01*
X154446143Y-71821748D01*
X154432000Y-71807605D01*
X153603861Y-72635745D01*
X153677995Y-72881864D01*
X154018827Y-73004372D01*
X153959612Y-73063587D01*
X153878071Y-73118071D01*
X153835671Y-73181527D01*
X151577199Y-75440000D01*
X145212171Y-75440000D01*
X147302473Y-73349699D01*
X147365929Y-73307299D01*
X147533904Y-73055907D01*
X147571018Y-72869322D01*
X147630862Y-72844534D01*
X148034534Y-72440862D01*
X148253000Y-71913439D01*
X148253000Y-71411223D01*
X152985035Y-71411223D01*
X153012222Y-71981454D01*
X153178136Y-72382005D01*
X153424255Y-72456139D01*
X154252395Y-71628000D01*
X153424255Y-70799861D01*
X153178136Y-70873995D01*
X152985035Y-71411223D01*
X148253000Y-71411223D01*
X148253000Y-71342561D01*
X148034534Y-70815138D01*
X147630862Y-70411466D01*
X147517417Y-70364475D01*
X147572005Y-70341864D01*
X147646139Y-70095745D01*
X146818000Y-69267605D01*
X145989861Y-70095745D01*
X146063995Y-70341864D01*
X146122448Y-70362874D01*
X146005138Y-70411466D01*
X145601466Y-70815138D01*
X145418000Y-71258064D01*
X145234534Y-70815138D01*
X144890722Y-70471326D01*
X144911682Y-70467157D01*
X145202703Y-70272703D01*
X145397157Y-69981682D01*
X145465440Y-69638400D01*
X145465440Y-69603732D01*
X145564136Y-69842005D01*
X145810255Y-69916139D01*
X146638395Y-69088000D01*
X146997605Y-69088000D01*
X147825745Y-69916139D01*
X148071864Y-69842005D01*
X148264965Y-69304777D01*
X148237778Y-68734546D01*
X148156201Y-68537600D01*
X152984560Y-68537600D01*
X152984560Y-69638400D01*
X153052843Y-69981682D01*
X153247297Y-70272703D01*
X153538318Y-70467157D01*
X153643664Y-70488112D01*
X153603861Y-70620255D01*
X154432000Y-71448395D01*
X155260139Y-70620255D01*
X155220336Y-70488112D01*
X155325682Y-70467157D01*
X155616703Y-70272703D01*
X155811157Y-69981682D01*
X155879440Y-69638400D01*
X155879440Y-69603732D01*
X155978136Y-69842005D01*
X156224255Y-69916139D01*
X157052395Y-69088000D01*
X157411605Y-69088000D01*
X158239745Y-69916139D01*
X158485864Y-69842005D01*
X158678965Y-69304777D01*
X158651778Y-68734546D01*
X158485864Y-68333995D01*
X158239745Y-68259861D01*
X157411605Y-69088000D01*
X157052395Y-69088000D01*
X156224255Y-68259861D01*
X155978136Y-68333995D01*
X155879440Y-68608578D01*
X155879440Y-68537600D01*
X155811157Y-68194318D01*
X155734943Y-68080255D01*
X156403861Y-68080255D01*
X157232000Y-68908395D01*
X158060139Y-68080255D01*
X157986005Y-67834136D01*
X157448777Y-67641035D01*
X156878546Y-67668222D01*
X156477995Y-67834136D01*
X156403861Y-68080255D01*
X155734943Y-68080255D01*
X155616703Y-67903297D01*
X155325682Y-67708843D01*
X154982400Y-67640560D01*
X153881600Y-67640560D01*
X153538318Y-67708843D01*
X153247297Y-67903297D01*
X153052843Y-68194318D01*
X152984560Y-68537600D01*
X148156201Y-68537600D01*
X148071864Y-68333995D01*
X147825745Y-68259861D01*
X146997605Y-69088000D01*
X146638395Y-69088000D01*
X145810255Y-68259861D01*
X145564136Y-68333995D01*
X145465440Y-68608578D01*
X145465440Y-68537600D01*
X145397157Y-68194318D01*
X145320943Y-68080255D01*
X145989861Y-68080255D01*
X146818000Y-68908395D01*
X147646139Y-68080255D01*
X147572005Y-67834136D01*
X147034777Y-67641035D01*
X146464546Y-67668222D01*
X146063995Y-67834136D01*
X145989861Y-68080255D01*
X145320943Y-68080255D01*
X145202703Y-67903297D01*
X144911682Y-67708843D01*
X144568400Y-67640560D01*
X143467600Y-67640560D01*
X143124318Y-67708843D01*
X142833297Y-67903297D01*
X142638843Y-68194318D01*
X142570560Y-68537600D01*
X142570560Y-69638400D01*
X142638843Y-69981682D01*
X142833297Y-70272703D01*
X143124318Y-70467157D01*
X143145278Y-70471326D01*
X142801466Y-70815138D01*
X142583000Y-71342561D01*
X142583000Y-71913439D01*
X142801466Y-72440862D01*
X143205138Y-72844534D01*
X143732561Y-73063000D01*
X144303439Y-73063000D01*
X144830862Y-72844534D01*
X145234534Y-72440862D01*
X145418000Y-71997936D01*
X145601466Y-72440862D01*
X145831586Y-72670982D01*
X143824569Y-74678000D01*
X138504846Y-74678000D01*
X138429999Y-74663112D01*
X138355152Y-74678000D01*
X138355148Y-74678000D01*
X138133463Y-74722096D01*
X138133461Y-74722097D01*
X138133462Y-74722097D01*
X137945526Y-74847671D01*
X137945524Y-74847673D01*
X137882071Y-74890071D01*
X137839673Y-74953524D01*
X134389530Y-78403669D01*
X134326071Y-78446071D01*
X134158096Y-78697464D01*
X134145154Y-78762530D01*
X133604000Y-78654887D01*
X133094000Y-78756332D01*
X133094000Y-77798848D01*
X133108888Y-77724000D01*
X133094000Y-77649152D01*
X133094000Y-77649148D01*
X133052400Y-77440010D01*
X133049904Y-77427462D01*
X132924329Y-77239527D01*
X132881929Y-77176071D01*
X132855000Y-77158078D01*
X132855000Y-77004126D01*
X132697431Y-76623720D01*
X132406280Y-76332569D01*
X132025874Y-76175000D01*
X131614126Y-76175000D01*
X131233720Y-76332569D01*
X130942569Y-76623720D01*
X130896278Y-76735476D01*
X128606331Y-74445530D01*
X128563929Y-74382071D01*
X128312537Y-74214096D01*
X128090852Y-74170000D01*
X128090847Y-74170000D01*
X128016000Y-74155112D01*
X127941153Y-74170000D01*
X119192802Y-74170000D01*
X116989103Y-71966302D01*
X117011000Y-71913439D01*
X117011000Y-71342561D01*
X116792534Y-70815138D01*
X116388862Y-70411466D01*
X116275417Y-70364475D01*
X116330005Y-70341864D01*
X116404139Y-70095745D01*
X115576000Y-69267605D01*
X114747861Y-70095745D01*
X114821995Y-70341864D01*
X114880448Y-70362874D01*
X114763138Y-70411466D01*
X114359466Y-70815138D01*
X114182475Y-71242431D01*
X114029864Y-70873995D01*
X113783745Y-70799861D01*
X112955605Y-71628000D01*
X113783745Y-72456139D01*
X114029864Y-72382005D01*
X114171670Y-71987484D01*
X114359466Y-72440862D01*
X114763138Y-72844534D01*
X115290561Y-73063000D01*
X115861439Y-73063000D01*
X115914302Y-73041103D01*
X118287670Y-75414472D01*
X118304728Y-75440000D01*
X111072846Y-75440000D01*
X110997999Y-75425112D01*
X110923152Y-75440000D01*
X110923148Y-75440000D01*
X110701463Y-75484096D01*
X110701461Y-75484097D01*
X110701462Y-75484097D01*
X110513526Y-75609671D01*
X110513524Y-75609673D01*
X110450071Y-75652071D01*
X110407672Y-75715525D01*
X110175198Y-75948000D01*
X109415711Y-75948000D01*
X109298280Y-75830569D01*
X108917874Y-75673000D01*
X108506126Y-75673000D01*
X108125720Y-75830569D01*
X107834569Y-76121720D01*
X107677000Y-76502126D01*
X107677000Y-76913874D01*
X107834569Y-77294280D01*
X108125720Y-77585431D01*
X108506126Y-77743000D01*
X108917874Y-77743000D01*
X109298280Y-77585431D01*
X109415711Y-77468000D01*
X110415153Y-77468000D01*
X110490000Y-77482888D01*
X110564847Y-77468000D01*
X110564852Y-77468000D01*
X110786537Y-77423904D01*
X111037929Y-77255929D01*
X111080330Y-77192471D01*
X111312802Y-76960000D01*
X125341199Y-76960000D01*
X127479489Y-79098291D01*
X127254000Y-79435759D01*
X127018576Y-79083423D01*
X126543908Y-78766260D01*
X125984000Y-78654887D01*
X125424091Y-78766260D01*
X124949423Y-79083424D01*
X124714000Y-79435759D01*
X124478576Y-79083423D01*
X124003908Y-78766260D01*
X123444000Y-78654887D01*
X122884091Y-78766260D01*
X122409423Y-79083424D01*
X122174000Y-79435759D01*
X121938576Y-79083423D01*
X121463908Y-78766260D01*
X120904000Y-78654887D01*
X120344091Y-78766260D01*
X119869423Y-79083424D01*
X119594845Y-79494359D01*
X119587904Y-79459463D01*
X119510099Y-79343020D01*
X119462329Y-79271526D01*
X119462327Y-79271524D01*
X119419929Y-79208071D01*
X119399000Y-79194087D01*
X119399000Y-79042126D01*
X119241431Y-78661720D01*
X118950280Y-78370569D01*
X118569874Y-78213000D01*
X118158126Y-78213000D01*
X117777720Y-78370569D01*
X117486569Y-78661720D01*
X117329000Y-79042126D01*
X117329000Y-79150366D01*
X117309395Y-79131826D01*
X117278708Y-79108533D01*
X117250807Y-79081964D01*
X117182939Y-79035840D01*
X116571584Y-78668501D01*
X116536612Y-78652342D01*
X116503656Y-78632383D01*
X116427466Y-78601909D01*
X115751491Y-78374418D01*
X115713857Y-78366144D01*
X115677392Y-78353730D01*
X115596436Y-78340327D01*
X114887379Y-78263299D01*
X114728621Y-78263299D01*
X114634469Y-78284000D01*
X100242227Y-78284000D01*
X100189078Y-78267751D01*
X100180198Y-78266423D01*
X99714078Y-78199669D01*
X99381254Y-78048343D01*
X99104280Y-77809687D01*
X98905421Y-77502885D01*
X98793382Y-77128252D01*
X98776979Y-76907530D01*
X98754000Y-76803016D01*
X98754000Y-68537600D01*
X100914560Y-68537600D01*
X100914560Y-69638400D01*
X100982843Y-69981682D01*
X101177297Y-70272703D01*
X101468318Y-70467157D01*
X101489278Y-70471326D01*
X101145466Y-70815138D01*
X100927000Y-71342561D01*
X100927000Y-71913439D01*
X101145466Y-72440862D01*
X101549138Y-72844534D01*
X102076561Y-73063000D01*
X102647439Y-73063000D01*
X103174862Y-72844534D01*
X103578534Y-72440862D01*
X103762000Y-71997936D01*
X103945466Y-72440862D01*
X104349138Y-72844534D01*
X104876561Y-73063000D01*
X105447439Y-73063000D01*
X105974862Y-72844534D01*
X106183651Y-72635745D01*
X111947861Y-72635745D01*
X112021995Y-72881864D01*
X112559223Y-73074965D01*
X113129454Y-73047778D01*
X113530005Y-72881864D01*
X113604139Y-72635745D01*
X112776000Y-71807605D01*
X111947861Y-72635745D01*
X106183651Y-72635745D01*
X106378534Y-72440862D01*
X106597000Y-71913439D01*
X106597000Y-71411223D01*
X111329035Y-71411223D01*
X111356222Y-71981454D01*
X111522136Y-72382005D01*
X111768255Y-72456139D01*
X112596395Y-71628000D01*
X111768255Y-70799861D01*
X111522136Y-70873995D01*
X111329035Y-71411223D01*
X106597000Y-71411223D01*
X106597000Y-71342561D01*
X106378534Y-70815138D01*
X105974862Y-70411466D01*
X105861417Y-70364475D01*
X105916005Y-70341864D01*
X105990139Y-70095745D01*
X105162000Y-69267605D01*
X104333861Y-70095745D01*
X104407995Y-70341864D01*
X104466448Y-70362874D01*
X104349138Y-70411466D01*
X103945466Y-70815138D01*
X103762000Y-71258064D01*
X103578534Y-70815138D01*
X103234722Y-70471326D01*
X103255682Y-70467157D01*
X103546703Y-70272703D01*
X103741157Y-69981682D01*
X103809440Y-69638400D01*
X103809440Y-69603732D01*
X103908136Y-69842005D01*
X104154255Y-69916139D01*
X104982395Y-69088000D01*
X105341605Y-69088000D01*
X106169745Y-69916139D01*
X106415864Y-69842005D01*
X106608965Y-69304777D01*
X106581778Y-68734546D01*
X106500201Y-68537600D01*
X111328560Y-68537600D01*
X111328560Y-69638400D01*
X111396843Y-69981682D01*
X111591297Y-70272703D01*
X111882318Y-70467157D01*
X111987664Y-70488112D01*
X111947861Y-70620255D01*
X112776000Y-71448395D01*
X113604139Y-70620255D01*
X113564336Y-70488112D01*
X113669682Y-70467157D01*
X113960703Y-70272703D01*
X114155157Y-69981682D01*
X114223440Y-69638400D01*
X114223440Y-69603732D01*
X114322136Y-69842005D01*
X114568255Y-69916139D01*
X115396395Y-69088000D01*
X115755605Y-69088000D01*
X116583745Y-69916139D01*
X116829864Y-69842005D01*
X117022965Y-69304777D01*
X116995778Y-68734546D01*
X116914201Y-68537600D01*
X121742560Y-68537600D01*
X121742560Y-69638400D01*
X121810843Y-69981682D01*
X122005297Y-70272703D01*
X122296318Y-70467157D01*
X122317278Y-70471326D01*
X121973466Y-70815138D01*
X121755000Y-71342561D01*
X121755000Y-71913439D01*
X121973466Y-72440862D01*
X122377138Y-72844534D01*
X122904561Y-73063000D01*
X123475439Y-73063000D01*
X124002862Y-72844534D01*
X124406534Y-72440862D01*
X124590000Y-71997936D01*
X124773466Y-72440862D01*
X125177138Y-72844534D01*
X125704561Y-73063000D01*
X126275439Y-73063000D01*
X126802862Y-72844534D01*
X127011651Y-72635745D01*
X132775861Y-72635745D01*
X132849995Y-72881864D01*
X133387223Y-73074965D01*
X133957454Y-73047778D01*
X134358005Y-72881864D01*
X134432139Y-72635745D01*
X133604000Y-71807605D01*
X132775861Y-72635745D01*
X127011651Y-72635745D01*
X127206534Y-72440862D01*
X127425000Y-71913439D01*
X127425000Y-71411223D01*
X132157035Y-71411223D01*
X132184222Y-71981454D01*
X132350136Y-72382005D01*
X132596255Y-72456139D01*
X133424395Y-71628000D01*
X133783605Y-71628000D01*
X134611745Y-72456139D01*
X134857864Y-72382005D01*
X134999670Y-71987484D01*
X135187466Y-72440862D01*
X135591138Y-72844534D01*
X136118561Y-73063000D01*
X136689439Y-73063000D01*
X137216862Y-72844534D01*
X137620534Y-72440862D01*
X137839000Y-71913439D01*
X137839000Y-71342561D01*
X137620534Y-70815138D01*
X137216862Y-70411466D01*
X137103417Y-70364475D01*
X137158005Y-70341864D01*
X137232139Y-70095745D01*
X136404000Y-69267605D01*
X135575861Y-70095745D01*
X135649995Y-70341864D01*
X135708448Y-70362874D01*
X135591138Y-70411466D01*
X135187466Y-70815138D01*
X135010475Y-71242431D01*
X134857864Y-70873995D01*
X134611745Y-70799861D01*
X133783605Y-71628000D01*
X133424395Y-71628000D01*
X132596255Y-70799861D01*
X132350136Y-70873995D01*
X132157035Y-71411223D01*
X127425000Y-71411223D01*
X127425000Y-71342561D01*
X127206534Y-70815138D01*
X126802862Y-70411466D01*
X126689417Y-70364475D01*
X126744005Y-70341864D01*
X126818139Y-70095745D01*
X125990000Y-69267605D01*
X125161861Y-70095745D01*
X125235995Y-70341864D01*
X125294448Y-70362874D01*
X125177138Y-70411466D01*
X124773466Y-70815138D01*
X124590000Y-71258064D01*
X124406534Y-70815138D01*
X124062722Y-70471326D01*
X124083682Y-70467157D01*
X124374703Y-70272703D01*
X124569157Y-69981682D01*
X124637440Y-69638400D01*
X124637440Y-69603732D01*
X124736136Y-69842005D01*
X124982255Y-69916139D01*
X125810395Y-69088000D01*
X126169605Y-69088000D01*
X126997745Y-69916139D01*
X127243864Y-69842005D01*
X127436965Y-69304777D01*
X127409778Y-68734546D01*
X127328201Y-68537600D01*
X132156560Y-68537600D01*
X132156560Y-69638400D01*
X132224843Y-69981682D01*
X132419297Y-70272703D01*
X132710318Y-70467157D01*
X132815664Y-70488112D01*
X132775861Y-70620255D01*
X133604000Y-71448395D01*
X134432139Y-70620255D01*
X134392336Y-70488112D01*
X134497682Y-70467157D01*
X134788703Y-70272703D01*
X134983157Y-69981682D01*
X135051440Y-69638400D01*
X135051440Y-69603732D01*
X135150136Y-69842005D01*
X135396255Y-69916139D01*
X136224395Y-69088000D01*
X136583605Y-69088000D01*
X137411745Y-69916139D01*
X137657864Y-69842005D01*
X137850965Y-69304777D01*
X137823778Y-68734546D01*
X137657864Y-68333995D01*
X137411745Y-68259861D01*
X136583605Y-69088000D01*
X136224395Y-69088000D01*
X135396255Y-68259861D01*
X135150136Y-68333995D01*
X135051440Y-68608578D01*
X135051440Y-68537600D01*
X134983157Y-68194318D01*
X134906943Y-68080255D01*
X135575861Y-68080255D01*
X136404000Y-68908395D01*
X137232139Y-68080255D01*
X137158005Y-67834136D01*
X136620777Y-67641035D01*
X136050546Y-67668222D01*
X135649995Y-67834136D01*
X135575861Y-68080255D01*
X134906943Y-68080255D01*
X134788703Y-67903297D01*
X134497682Y-67708843D01*
X134154400Y-67640560D01*
X133053600Y-67640560D01*
X132710318Y-67708843D01*
X132419297Y-67903297D01*
X132224843Y-68194318D01*
X132156560Y-68537600D01*
X127328201Y-68537600D01*
X127243864Y-68333995D01*
X126997745Y-68259861D01*
X126169605Y-69088000D01*
X125810395Y-69088000D01*
X124982255Y-68259861D01*
X124736136Y-68333995D01*
X124637440Y-68608578D01*
X124637440Y-68537600D01*
X124569157Y-68194318D01*
X124492943Y-68080255D01*
X125161861Y-68080255D01*
X125990000Y-68908395D01*
X126818139Y-68080255D01*
X126744005Y-67834136D01*
X126206777Y-67641035D01*
X125636546Y-67668222D01*
X125235995Y-67834136D01*
X125161861Y-68080255D01*
X124492943Y-68080255D01*
X124374703Y-67903297D01*
X124083682Y-67708843D01*
X123740400Y-67640560D01*
X122639600Y-67640560D01*
X122296318Y-67708843D01*
X122005297Y-67903297D01*
X121810843Y-68194318D01*
X121742560Y-68537600D01*
X116914201Y-68537600D01*
X116829864Y-68333995D01*
X116583745Y-68259861D01*
X115755605Y-69088000D01*
X115396395Y-69088000D01*
X114568255Y-68259861D01*
X114322136Y-68333995D01*
X114223440Y-68608578D01*
X114223440Y-68537600D01*
X114155157Y-68194318D01*
X114078943Y-68080255D01*
X114747861Y-68080255D01*
X115576000Y-68908395D01*
X116404139Y-68080255D01*
X116330005Y-67834136D01*
X115792777Y-67641035D01*
X115222546Y-67668222D01*
X114821995Y-67834136D01*
X114747861Y-68080255D01*
X114078943Y-68080255D01*
X113960703Y-67903297D01*
X113669682Y-67708843D01*
X113326400Y-67640560D01*
X112225600Y-67640560D01*
X111882318Y-67708843D01*
X111591297Y-67903297D01*
X111396843Y-68194318D01*
X111328560Y-68537600D01*
X106500201Y-68537600D01*
X106415864Y-68333995D01*
X106169745Y-68259861D01*
X105341605Y-69088000D01*
X104982395Y-69088000D01*
X104154255Y-68259861D01*
X103908136Y-68333995D01*
X103809440Y-68608578D01*
X103809440Y-68537600D01*
X103741157Y-68194318D01*
X103664943Y-68080255D01*
X104333861Y-68080255D01*
X105162000Y-68908395D01*
X105990139Y-68080255D01*
X105916005Y-67834136D01*
X105378777Y-67641035D01*
X104808546Y-67668222D01*
X104407995Y-67834136D01*
X104333861Y-68080255D01*
X103664943Y-68080255D01*
X103546703Y-67903297D01*
X103255682Y-67708843D01*
X102912400Y-67640560D01*
X101811600Y-67640560D01*
X101468318Y-67708843D01*
X101177297Y-67903297D01*
X100982843Y-68194318D01*
X100914560Y-68537600D01*
X98754000Y-68537600D01*
X98754000Y-66598581D01*
X98814090Y-66178991D01*
X98968381Y-65839648D01*
X99211712Y-65557248D01*
X99524523Y-65354494D01*
X99905184Y-65240652D01*
X100102350Y-65226000D01*
X159461419Y-65226000D01*
X159881009Y-65286090D01*
X159881009Y-65286090D01*
G37*
X159881009Y-65286090D02*
X160220352Y-65440381D01*
X160502752Y-65683712D01*
X160705506Y-65996523D01*
X160819348Y-66377184D01*
X160834001Y-66574363D01*
X160834000Y-76795773D01*
X160817751Y-76848922D01*
X160816423Y-76857802D01*
X160749669Y-77323922D01*
X160598343Y-77656746D01*
X160359687Y-77933720D01*
X160052885Y-78132579D01*
X159678252Y-78244618D01*
X159457530Y-78261021D01*
X159353016Y-78284000D01*
X144956856Y-78284000D01*
X144841502Y-78261578D01*
X144759476Y-78259287D01*
X144575153Y-78264436D01*
X144566215Y-78265660D01*
X144557211Y-78265157D01*
X144475633Y-78274018D01*
X143771983Y-78390506D01*
X143734871Y-78400868D01*
X143696844Y-78407027D01*
X143619072Y-78433200D01*
X142956850Y-78698070D01*
X142922834Y-78716157D01*
X142887011Y-78730340D01*
X142816673Y-78772603D01*
X142226776Y-79173497D01*
X142197432Y-79198471D01*
X142165498Y-79220011D01*
X142105876Y-79276391D01*
X141615826Y-79794605D01*
X141592533Y-79825292D01*
X141565964Y-79853193D01*
X141519840Y-79921061D01*
X141222000Y-80416750D01*
X141222000Y-78110531D01*
X141236888Y-78035684D01*
X141222000Y-77960837D01*
X141222000Y-77960833D01*
X141177904Y-77739148D01*
X141136962Y-77677874D01*
X141243000Y-77421874D01*
X141243000Y-77010126D01*
X141222237Y-76960000D01*
X151817153Y-76960000D01*
X151892000Y-76974888D01*
X151966847Y-76960000D01*
X151966852Y-76960000D01*
X152188537Y-76915904D01*
X152439929Y-76747929D01*
X152482331Y-76684470D01*
X154898391Y-74268411D01*
X154979929Y-74213929D01*
X155022331Y-74150470D01*
X156373703Y-72799099D01*
X156419138Y-72844534D01*
X156946561Y-73063000D01*
X157517439Y-73063000D01*
X158044862Y-72844534D01*
X158448534Y-72440862D01*
X158667000Y-71913439D01*
X158667000Y-71342561D01*
X158448534Y-70815138D01*
X158044862Y-70411466D01*
X157931417Y-70364475D01*
X157986005Y-70341864D01*
X158060139Y-70095745D01*
X157232000Y-69267605D01*
X156403861Y-70095745D01*
X156477995Y-70341864D01*
X156536448Y-70362874D01*
X156419138Y-70411466D01*
X156015466Y-70815138D01*
X155879281Y-71143917D01*
X155821573Y-71201625D01*
X155685864Y-70873995D01*
X155439745Y-70799861D01*
X154611605Y-71628000D01*
X154625748Y-71642142D01*
X154446143Y-71821748D01*
X154432000Y-71807605D01*
X153603861Y-72635745D01*
X153677995Y-72881864D01*
X154018827Y-73004372D01*
X153959612Y-73063587D01*
X153878071Y-73118071D01*
X153835671Y-73181527D01*
X151577199Y-75440000D01*
X145212171Y-75440000D01*
X147302473Y-73349699D01*
X147365929Y-73307299D01*
X147533904Y-73055907D01*
X147571018Y-72869322D01*
X147630862Y-72844534D01*
X148034534Y-72440862D01*
X148253000Y-71913439D01*
X148253000Y-71411223D01*
X152985035Y-71411223D01*
X153012222Y-71981454D01*
X153178136Y-72382005D01*
X153424255Y-72456139D01*
X154252395Y-71628000D01*
X153424255Y-70799861D01*
X153178136Y-70873995D01*
X152985035Y-71411223D01*
X148253000Y-71411223D01*
X148253000Y-71342561D01*
X148034534Y-70815138D01*
X147630862Y-70411466D01*
X147517417Y-70364475D01*
X147572005Y-70341864D01*
X147646139Y-70095745D01*
X146818000Y-69267605D01*
X145989861Y-70095745D01*
X146063995Y-70341864D01*
X146122448Y-70362874D01*
X146005138Y-70411466D01*
X145601466Y-70815138D01*
X145418000Y-71258064D01*
X145234534Y-70815138D01*
X144890722Y-70471326D01*
X144911682Y-70467157D01*
X145202703Y-70272703D01*
X145397157Y-69981682D01*
X145465440Y-69638400D01*
X145465440Y-69603732D01*
X145564136Y-69842005D01*
X145810255Y-69916139D01*
X146638395Y-69088000D01*
X146997605Y-69088000D01*
X147825745Y-69916139D01*
X148071864Y-69842005D01*
X148264965Y-69304777D01*
X148237778Y-68734546D01*
X148156201Y-68537600D01*
X152984560Y-68537600D01*
X152984560Y-69638400D01*
X153052843Y-69981682D01*
X153247297Y-70272703D01*
X153538318Y-70467157D01*
X153643664Y-70488112D01*
X153603861Y-70620255D01*
X154432000Y-71448395D01*
X155260139Y-70620255D01*
X155220336Y-70488112D01*
X155325682Y-70467157D01*
X155616703Y-70272703D01*
X155811157Y-69981682D01*
X155879440Y-69638400D01*
X155879440Y-69603732D01*
X155978136Y-69842005D01*
X156224255Y-69916139D01*
X157052395Y-69088000D01*
X157411605Y-69088000D01*
X158239745Y-69916139D01*
X158485864Y-69842005D01*
X158678965Y-69304777D01*
X158651778Y-68734546D01*
X158485864Y-68333995D01*
X158239745Y-68259861D01*
X157411605Y-69088000D01*
X157052395Y-69088000D01*
X156224255Y-68259861D01*
X155978136Y-68333995D01*
X155879440Y-68608578D01*
X155879440Y-68537600D01*
X155811157Y-68194318D01*
X155734943Y-68080255D01*
X156403861Y-68080255D01*
X157232000Y-68908395D01*
X158060139Y-68080255D01*
X157986005Y-67834136D01*
X157448777Y-67641035D01*
X156878546Y-67668222D01*
X156477995Y-67834136D01*
X156403861Y-68080255D01*
X155734943Y-68080255D01*
X155616703Y-67903297D01*
X155325682Y-67708843D01*
X154982400Y-67640560D01*
X153881600Y-67640560D01*
X153538318Y-67708843D01*
X153247297Y-67903297D01*
X153052843Y-68194318D01*
X152984560Y-68537600D01*
X148156201Y-68537600D01*
X148071864Y-68333995D01*
X147825745Y-68259861D01*
X146997605Y-69088000D01*
X146638395Y-69088000D01*
X145810255Y-68259861D01*
X145564136Y-68333995D01*
X145465440Y-68608578D01*
X145465440Y-68537600D01*
X145397157Y-68194318D01*
X145320943Y-68080255D01*
X145989861Y-68080255D01*
X146818000Y-68908395D01*
X147646139Y-68080255D01*
X147572005Y-67834136D01*
X147034777Y-67641035D01*
X146464546Y-67668222D01*
X146063995Y-67834136D01*
X145989861Y-68080255D01*
X145320943Y-68080255D01*
X145202703Y-67903297D01*
X144911682Y-67708843D01*
X144568400Y-67640560D01*
X143467600Y-67640560D01*
X143124318Y-67708843D01*
X142833297Y-67903297D01*
X142638843Y-68194318D01*
X142570560Y-68537600D01*
X142570560Y-69638400D01*
X142638843Y-69981682D01*
X142833297Y-70272703D01*
X143124318Y-70467157D01*
X143145278Y-70471326D01*
X142801466Y-70815138D01*
X142583000Y-71342561D01*
X142583000Y-71913439D01*
X142801466Y-72440862D01*
X143205138Y-72844534D01*
X143732561Y-73063000D01*
X144303439Y-73063000D01*
X144830862Y-72844534D01*
X145234534Y-72440862D01*
X145418000Y-71997936D01*
X145601466Y-72440862D01*
X145831586Y-72670982D01*
X143824569Y-74678000D01*
X138504846Y-74678000D01*
X138429999Y-74663112D01*
X138355152Y-74678000D01*
X138355148Y-74678000D01*
X138133463Y-74722096D01*
X138133461Y-74722097D01*
X138133462Y-74722097D01*
X137945526Y-74847671D01*
X137945524Y-74847673D01*
X137882071Y-74890071D01*
X137839673Y-74953524D01*
X134389530Y-78403669D01*
X134326071Y-78446071D01*
X134158096Y-78697464D01*
X134145154Y-78762530D01*
X133604000Y-78654887D01*
X133094000Y-78756332D01*
X133094000Y-77798848D01*
X133108888Y-77724000D01*
X133094000Y-77649152D01*
X133094000Y-77649148D01*
X133052400Y-77440010D01*
X133049904Y-77427462D01*
X132924329Y-77239527D01*
X132881929Y-77176071D01*
X132855000Y-77158078D01*
X132855000Y-77004126D01*
X132697431Y-76623720D01*
X132406280Y-76332569D01*
X132025874Y-76175000D01*
X131614126Y-76175000D01*
X131233720Y-76332569D01*
X130942569Y-76623720D01*
X130896278Y-76735476D01*
X128606331Y-74445530D01*
X128563929Y-74382071D01*
X128312537Y-74214096D01*
X128090852Y-74170000D01*
X128090847Y-74170000D01*
X128016000Y-74155112D01*
X127941153Y-74170000D01*
X119192802Y-74170000D01*
X116989103Y-71966302D01*
X117011000Y-71913439D01*
X117011000Y-71342561D01*
X116792534Y-70815138D01*
X116388862Y-70411466D01*
X116275417Y-70364475D01*
X116330005Y-70341864D01*
X116404139Y-70095745D01*
X115576000Y-69267605D01*
X114747861Y-70095745D01*
X114821995Y-70341864D01*
X114880448Y-70362874D01*
X114763138Y-70411466D01*
X114359466Y-70815138D01*
X114182475Y-71242431D01*
X114029864Y-70873995D01*
X113783745Y-70799861D01*
X112955605Y-71628000D01*
X113783745Y-72456139D01*
X114029864Y-72382005D01*
X114171670Y-71987484D01*
X114359466Y-72440862D01*
X114763138Y-72844534D01*
X115290561Y-73063000D01*
X115861439Y-73063000D01*
X115914302Y-73041103D01*
X118287670Y-75414472D01*
X118304728Y-75440000D01*
X111072846Y-75440000D01*
X110997999Y-75425112D01*
X110923152Y-75440000D01*
X110923148Y-75440000D01*
X110701463Y-75484096D01*
X110701461Y-75484097D01*
X110701462Y-75484097D01*
X110513526Y-75609671D01*
X110513524Y-75609673D01*
X110450071Y-75652071D01*
X110407672Y-75715525D01*
X110175198Y-75948000D01*
X109415711Y-75948000D01*
X109298280Y-75830569D01*
X108917874Y-75673000D01*
X108506126Y-75673000D01*
X108125720Y-75830569D01*
X107834569Y-76121720D01*
X107677000Y-76502126D01*
X107677000Y-76913874D01*
X107834569Y-77294280D01*
X108125720Y-77585431D01*
X108506126Y-77743000D01*
X108917874Y-77743000D01*
X109298280Y-77585431D01*
X109415711Y-77468000D01*
X110415153Y-77468000D01*
X110490000Y-77482888D01*
X110564847Y-77468000D01*
X110564852Y-77468000D01*
X110786537Y-77423904D01*
X111037929Y-77255929D01*
X111080330Y-77192471D01*
X111312802Y-76960000D01*
X125341199Y-76960000D01*
X127479489Y-79098291D01*
X127254000Y-79435759D01*
X127018576Y-79083423D01*
X126543908Y-78766260D01*
X125984000Y-78654887D01*
X125424091Y-78766260D01*
X124949423Y-79083424D01*
X124714000Y-79435759D01*
X124478576Y-79083423D01*
X124003908Y-78766260D01*
X123444000Y-78654887D01*
X122884091Y-78766260D01*
X122409423Y-79083424D01*
X122174000Y-79435759D01*
X121938576Y-79083423D01*
X121463908Y-78766260D01*
X120904000Y-78654887D01*
X120344091Y-78766260D01*
X119869423Y-79083424D01*
X119594845Y-79494359D01*
X119587904Y-79459463D01*
X119510099Y-79343020D01*
X119462329Y-79271526D01*
X119462327Y-79271524D01*
X119419929Y-79208071D01*
X119399000Y-79194087D01*
X119399000Y-79042126D01*
X119241431Y-78661720D01*
X118950280Y-78370569D01*
X118569874Y-78213000D01*
X118158126Y-78213000D01*
X117777720Y-78370569D01*
X117486569Y-78661720D01*
X117329000Y-79042126D01*
X117329000Y-79150366D01*
X117309395Y-79131826D01*
X117278708Y-79108533D01*
X117250807Y-79081964D01*
X117182939Y-79035840D01*
X116571584Y-78668501D01*
X116536612Y-78652342D01*
X116503656Y-78632383D01*
X116427466Y-78601909D01*
X115751491Y-78374418D01*
X115713857Y-78366144D01*
X115677392Y-78353730D01*
X115596436Y-78340327D01*
X114887379Y-78263299D01*
X114728621Y-78263299D01*
X114634469Y-78284000D01*
X100242227Y-78284000D01*
X100189078Y-78267751D01*
X100180198Y-78266423D01*
X99714078Y-78199669D01*
X99381254Y-78048343D01*
X99104280Y-77809687D01*
X98905421Y-77502885D01*
X98793382Y-77128252D01*
X98776979Y-76907530D01*
X98754000Y-76803016D01*
X98754000Y-68537600D01*
X100914560Y-68537600D01*
X100914560Y-69638400D01*
X100982843Y-69981682D01*
X101177297Y-70272703D01*
X101468318Y-70467157D01*
X101489278Y-70471326D01*
X101145466Y-70815138D01*
X100927000Y-71342561D01*
X100927000Y-71913439D01*
X101145466Y-72440862D01*
X101549138Y-72844534D01*
X102076561Y-73063000D01*
X102647439Y-73063000D01*
X103174862Y-72844534D01*
X103578534Y-72440862D01*
X103762000Y-71997936D01*
X103945466Y-72440862D01*
X104349138Y-72844534D01*
X104876561Y-73063000D01*
X105447439Y-73063000D01*
X105974862Y-72844534D01*
X106183651Y-72635745D01*
X111947861Y-72635745D01*
X112021995Y-72881864D01*
X112559223Y-73074965D01*
X113129454Y-73047778D01*
X113530005Y-72881864D01*
X113604139Y-72635745D01*
X112776000Y-71807605D01*
X111947861Y-72635745D01*
X106183651Y-72635745D01*
X106378534Y-72440862D01*
X106597000Y-71913439D01*
X106597000Y-71411223D01*
X111329035Y-71411223D01*
X111356222Y-71981454D01*
X111522136Y-72382005D01*
X111768255Y-72456139D01*
X112596395Y-71628000D01*
X111768255Y-70799861D01*
X111522136Y-70873995D01*
X111329035Y-71411223D01*
X106597000Y-71411223D01*
X106597000Y-71342561D01*
X106378534Y-70815138D01*
X105974862Y-70411466D01*
X105861417Y-70364475D01*
X105916005Y-70341864D01*
X105990139Y-70095745D01*
X105162000Y-69267605D01*
X104333861Y-70095745D01*
X104407995Y-70341864D01*
X104466448Y-70362874D01*
X104349138Y-70411466D01*
X103945466Y-70815138D01*
X103762000Y-71258064D01*
X103578534Y-70815138D01*
X103234722Y-70471326D01*
X103255682Y-70467157D01*
X103546703Y-70272703D01*
X103741157Y-69981682D01*
X103809440Y-69638400D01*
X103809440Y-69603732D01*
X103908136Y-69842005D01*
X104154255Y-69916139D01*
X104982395Y-69088000D01*
X105341605Y-69088000D01*
X106169745Y-69916139D01*
X106415864Y-69842005D01*
X106608965Y-69304777D01*
X106581778Y-68734546D01*
X106500201Y-68537600D01*
X111328560Y-68537600D01*
X111328560Y-69638400D01*
X111396843Y-69981682D01*
X111591297Y-70272703D01*
X111882318Y-70467157D01*
X111987664Y-70488112D01*
X111947861Y-70620255D01*
X112776000Y-71448395D01*
X113604139Y-70620255D01*
X113564336Y-70488112D01*
X113669682Y-70467157D01*
X113960703Y-70272703D01*
X114155157Y-69981682D01*
X114223440Y-69638400D01*
X114223440Y-69603732D01*
X114322136Y-69842005D01*
X114568255Y-69916139D01*
X115396395Y-69088000D01*
X115755605Y-69088000D01*
X116583745Y-69916139D01*
X116829864Y-69842005D01*
X117022965Y-69304777D01*
X116995778Y-68734546D01*
X116914201Y-68537600D01*
X121742560Y-68537600D01*
X121742560Y-69638400D01*
X121810843Y-69981682D01*
X122005297Y-70272703D01*
X122296318Y-70467157D01*
X122317278Y-70471326D01*
X121973466Y-70815138D01*
X121755000Y-71342561D01*
X121755000Y-71913439D01*
X121973466Y-72440862D01*
X122377138Y-72844534D01*
X122904561Y-73063000D01*
X123475439Y-73063000D01*
X124002862Y-72844534D01*
X124406534Y-72440862D01*
X124590000Y-71997936D01*
X124773466Y-72440862D01*
X125177138Y-72844534D01*
X125704561Y-73063000D01*
X126275439Y-73063000D01*
X126802862Y-72844534D01*
X127011651Y-72635745D01*
X132775861Y-72635745D01*
X132849995Y-72881864D01*
X133387223Y-73074965D01*
X133957454Y-73047778D01*
X134358005Y-72881864D01*
X134432139Y-72635745D01*
X133604000Y-71807605D01*
X132775861Y-72635745D01*
X127011651Y-72635745D01*
X127206534Y-72440862D01*
X127425000Y-71913439D01*
X127425000Y-71411223D01*
X132157035Y-71411223D01*
X132184222Y-71981454D01*
X132350136Y-72382005D01*
X132596255Y-72456139D01*
X133424395Y-71628000D01*
X133783605Y-71628000D01*
X134611745Y-72456139D01*
X134857864Y-72382005D01*
X134999670Y-71987484D01*
X135187466Y-72440862D01*
X135591138Y-72844534D01*
X136118561Y-73063000D01*
X136689439Y-73063000D01*
X137216862Y-72844534D01*
X137620534Y-72440862D01*
X137839000Y-71913439D01*
X137839000Y-71342561D01*
X137620534Y-70815138D01*
X137216862Y-70411466D01*
X137103417Y-70364475D01*
X137158005Y-70341864D01*
X137232139Y-70095745D01*
X136404000Y-69267605D01*
X135575861Y-70095745D01*
X135649995Y-70341864D01*
X135708448Y-70362874D01*
X135591138Y-70411466D01*
X135187466Y-70815138D01*
X135010475Y-71242431D01*
X134857864Y-70873995D01*
X134611745Y-70799861D01*
X133783605Y-71628000D01*
X133424395Y-71628000D01*
X132596255Y-70799861D01*
X132350136Y-70873995D01*
X132157035Y-71411223D01*
X127425000Y-71411223D01*
X127425000Y-71342561D01*
X127206534Y-70815138D01*
X126802862Y-70411466D01*
X126689417Y-70364475D01*
X126744005Y-70341864D01*
X126818139Y-70095745D01*
X125990000Y-69267605D01*
X125161861Y-70095745D01*
X125235995Y-70341864D01*
X125294448Y-70362874D01*
X125177138Y-70411466D01*
X124773466Y-70815138D01*
X124590000Y-71258064D01*
X124406534Y-70815138D01*
X124062722Y-70471326D01*
X124083682Y-70467157D01*
X124374703Y-70272703D01*
X124569157Y-69981682D01*
X124637440Y-69638400D01*
X124637440Y-69603732D01*
X124736136Y-69842005D01*
X124982255Y-69916139D01*
X125810395Y-69088000D01*
X126169605Y-69088000D01*
X126997745Y-69916139D01*
X127243864Y-69842005D01*
X127436965Y-69304777D01*
X127409778Y-68734546D01*
X127328201Y-68537600D01*
X132156560Y-68537600D01*
X132156560Y-69638400D01*
X132224843Y-69981682D01*
X132419297Y-70272703D01*
X132710318Y-70467157D01*
X132815664Y-70488112D01*
X132775861Y-70620255D01*
X133604000Y-71448395D01*
X134432139Y-70620255D01*
X134392336Y-70488112D01*
X134497682Y-70467157D01*
X134788703Y-70272703D01*
X134983157Y-69981682D01*
X135051440Y-69638400D01*
X135051440Y-69603732D01*
X135150136Y-69842005D01*
X135396255Y-69916139D01*
X136224395Y-69088000D01*
X136583605Y-69088000D01*
X137411745Y-69916139D01*
X137657864Y-69842005D01*
X137850965Y-69304777D01*
X137823778Y-68734546D01*
X137657864Y-68333995D01*
X137411745Y-68259861D01*
X136583605Y-69088000D01*
X136224395Y-69088000D01*
X135396255Y-68259861D01*
X135150136Y-68333995D01*
X135051440Y-68608578D01*
X135051440Y-68537600D01*
X134983157Y-68194318D01*
X134906943Y-68080255D01*
X135575861Y-68080255D01*
X136404000Y-68908395D01*
X137232139Y-68080255D01*
X137158005Y-67834136D01*
X136620777Y-67641035D01*
X136050546Y-67668222D01*
X135649995Y-67834136D01*
X135575861Y-68080255D01*
X134906943Y-68080255D01*
X134788703Y-67903297D01*
X134497682Y-67708843D01*
X134154400Y-67640560D01*
X133053600Y-67640560D01*
X132710318Y-67708843D01*
X132419297Y-67903297D01*
X132224843Y-68194318D01*
X132156560Y-68537600D01*
X127328201Y-68537600D01*
X127243864Y-68333995D01*
X126997745Y-68259861D01*
X126169605Y-69088000D01*
X125810395Y-69088000D01*
X124982255Y-68259861D01*
X124736136Y-68333995D01*
X124637440Y-68608578D01*
X124637440Y-68537600D01*
X124569157Y-68194318D01*
X124492943Y-68080255D01*
X125161861Y-68080255D01*
X125990000Y-68908395D01*
X126818139Y-68080255D01*
X126744005Y-67834136D01*
X126206777Y-67641035D01*
X125636546Y-67668222D01*
X125235995Y-67834136D01*
X125161861Y-68080255D01*
X124492943Y-68080255D01*
X124374703Y-67903297D01*
X124083682Y-67708843D01*
X123740400Y-67640560D01*
X122639600Y-67640560D01*
X122296318Y-67708843D01*
X122005297Y-67903297D01*
X121810843Y-68194318D01*
X121742560Y-68537600D01*
X116914201Y-68537600D01*
X116829864Y-68333995D01*
X116583745Y-68259861D01*
X115755605Y-69088000D01*
X115396395Y-69088000D01*
X114568255Y-68259861D01*
X114322136Y-68333995D01*
X114223440Y-68608578D01*
X114223440Y-68537600D01*
X114155157Y-68194318D01*
X114078943Y-68080255D01*
X114747861Y-68080255D01*
X115576000Y-68908395D01*
X116404139Y-68080255D01*
X116330005Y-67834136D01*
X115792777Y-67641035D01*
X115222546Y-67668222D01*
X114821995Y-67834136D01*
X114747861Y-68080255D01*
X114078943Y-68080255D01*
X113960703Y-67903297D01*
X113669682Y-67708843D01*
X113326400Y-67640560D01*
X112225600Y-67640560D01*
X111882318Y-67708843D01*
X111591297Y-67903297D01*
X111396843Y-68194318D01*
X111328560Y-68537600D01*
X106500201Y-68537600D01*
X106415864Y-68333995D01*
X106169745Y-68259861D01*
X105341605Y-69088000D01*
X104982395Y-69088000D01*
X104154255Y-68259861D01*
X103908136Y-68333995D01*
X103809440Y-68608578D01*
X103809440Y-68537600D01*
X103741157Y-68194318D01*
X103664943Y-68080255D01*
X104333861Y-68080255D01*
X105162000Y-68908395D01*
X105990139Y-68080255D01*
X105916005Y-67834136D01*
X105378777Y-67641035D01*
X104808546Y-67668222D01*
X104407995Y-67834136D01*
X104333861Y-68080255D01*
X103664943Y-68080255D01*
X103546703Y-67903297D01*
X103255682Y-67708843D01*
X102912400Y-67640560D01*
X101811600Y-67640560D01*
X101468318Y-67708843D01*
X101177297Y-67903297D01*
X100982843Y-68194318D01*
X100914560Y-68537600D01*
X98754000Y-68537600D01*
X98754000Y-66598581D01*
X98814090Y-66178991D01*
X98968381Y-65839648D01*
X99211712Y-65557248D01*
X99524523Y-65354494D01*
X99905184Y-65240652D01*
X100102350Y-65226000D01*
X159461419Y-65226000D01*
X159881009Y-65286090D01*
M02*
