%TF.GenerationSoftware,KiCad,Pcbnew,(5.0.1-3-g963ef8bb5)*%
%TF.CreationDate,2018-11-27T10:46:30+01:00*%
%TF.ProjectId,sensores,73656E736F7265732E6B696361645F70,rev?*%
%TF.SameCoordinates,Original*%
%TF.FileFunction,Soldermask,Top*%
%TF.FilePolarity,Negative*%
%FSLAX46Y46*%
G04 Gerber Fmt 4.6, Leading zero omitted, Abs format (unit mm)*
G04 Created by KiCad (PCBNEW (5.0.1-3-g963ef8bb5)) date 2018 November 27, Tuesday 10:46:30*
%MOMM*%
%LPD*%
G01*
G04 APERTURE LIST*
%ADD10C,0.150000*%
%ADD11C,0.200000*%
%ADD12C,0.100000*%
G04 APERTURE END LIST*
D10*
X134620000Y-95504000D02*
X134620000Y-97282000D01*
X124968000Y-95504000D02*
X124968000Y-97282000D01*
X124968000Y-95504000D02*
X134620000Y-95504000D01*
X139700000Y-97282000D02*
G75*
G02X134620000Y-97282000I-2540000J0D01*
G01*
X124968000Y-97282000D02*
G75*
G02X119888000Y-97282000I-2540000J0D01*
G01*
X141478000Y-82296000D02*
X141478000Y-92964000D01*
X118110000Y-82296000D02*
X118110000Y-92964000D01*
X100076000Y-78994000D02*
X114808000Y-78994000D01*
X98044000Y-66548000D02*
X98044000Y-76962000D01*
X159512000Y-64516000D02*
X100076000Y-64516000D01*
X161544000Y-76962000D02*
X161544000Y-66548000D01*
X144780000Y-78994000D02*
X159512000Y-78994000D01*
D11*
X141478000Y-82296000D02*
G75*
G02X144780000Y-78994000I3302000J0D01*
G01*
X114808000Y-78994000D02*
G75*
G02X118110000Y-82296000I0J-3302000D01*
G01*
X100076000Y-78994000D02*
G75*
G02X98044000Y-76962000I0J2032000D01*
G01*
X161544000Y-76962000D02*
G75*
G02X159512000Y-78994000I-2032000J0D01*
G01*
D10*
X159512000Y-64516000D02*
G75*
G02X161544000Y-66548000I0J-2032000D01*
G01*
X98044000Y-66548000D02*
G75*
G02X100076000Y-64516000I2032000J0D01*
G01*
X118110000Y-92964000D02*
X119888000Y-94234000D01*
X139700000Y-94234000D02*
X141478000Y-92964000D01*
X139700000Y-94234000D02*
X139700000Y-97282000D01*
X119888000Y-94234000D02*
X119888000Y-97282000D01*
D12*
G36*
X137495734Y-96175232D02*
X137705202Y-96261996D01*
X137893723Y-96387962D01*
X138054038Y-96548277D01*
X138180004Y-96736798D01*
X138266768Y-96946266D01*
X138311000Y-97168635D01*
X138311000Y-97395365D01*
X138266768Y-97617734D01*
X138180004Y-97827202D01*
X138054038Y-98015723D01*
X137893723Y-98176038D01*
X137705202Y-98302004D01*
X137495734Y-98388768D01*
X137273365Y-98433000D01*
X137046635Y-98433000D01*
X136824266Y-98388768D01*
X136614798Y-98302004D01*
X136426277Y-98176038D01*
X136265962Y-98015723D01*
X136139996Y-97827202D01*
X136053232Y-97617734D01*
X136009000Y-97395365D01*
X136009000Y-97168635D01*
X136053232Y-96946266D01*
X136139996Y-96736798D01*
X136265962Y-96548277D01*
X136426277Y-96387962D01*
X136614798Y-96261996D01*
X136824266Y-96175232D01*
X137046635Y-96131000D01*
X137273365Y-96131000D01*
X137495734Y-96175232D01*
X137495734Y-96175232D01*
G37*
G36*
X122763734Y-96175232D02*
X122973202Y-96261996D01*
X123161723Y-96387962D01*
X123322038Y-96548277D01*
X123448004Y-96736798D01*
X123534768Y-96946266D01*
X123579000Y-97168635D01*
X123579000Y-97395365D01*
X123534768Y-97617734D01*
X123448004Y-97827202D01*
X123322038Y-98015723D01*
X123161723Y-98176038D01*
X122973202Y-98302004D01*
X122763734Y-98388768D01*
X122541365Y-98433000D01*
X122314635Y-98433000D01*
X122092266Y-98388768D01*
X121882798Y-98302004D01*
X121694277Y-98176038D01*
X121533962Y-98015723D01*
X121407996Y-97827202D01*
X121321232Y-97617734D01*
X121277000Y-97395365D01*
X121277000Y-97168635D01*
X121321232Y-96946266D01*
X121407996Y-96736798D01*
X121533962Y-96548277D01*
X121694277Y-96387962D01*
X121882798Y-96261996D01*
X122092266Y-96175232D01*
X122314635Y-96131000D01*
X122541365Y-96131000D01*
X122763734Y-96175232D01*
X122763734Y-96175232D01*
G37*
G36*
X127297000Y-91371262D02*
X127299402Y-91395648D01*
X127306515Y-91419097D01*
X127318066Y-91440708D01*
X127333612Y-91459650D01*
X127352554Y-91475196D01*
X127374165Y-91486747D01*
X127397614Y-91493860D01*
X127422000Y-91496262D01*
X127446386Y-91493860D01*
X127469835Y-91486747D01*
X127491446Y-91475196D01*
X127510388Y-91459650D01*
X127532236Y-91430192D01*
X127555644Y-91386400D01*
X127624499Y-91302499D01*
X127708400Y-91233644D01*
X127804121Y-91182479D01*
X127907985Y-91150973D01*
X127988933Y-91143000D01*
X128043067Y-91143000D01*
X128124015Y-91150973D01*
X128227879Y-91182479D01*
X128323600Y-91233644D01*
X128407501Y-91302499D01*
X128476356Y-91386400D01*
X128527521Y-91482121D01*
X128531383Y-91494854D01*
X128540760Y-91517493D01*
X128554374Y-91537867D01*
X128571701Y-91555194D01*
X128592076Y-91568808D01*
X128614715Y-91578186D01*
X128638748Y-91582966D01*
X128663252Y-91582966D01*
X128687286Y-91578185D01*
X128709925Y-91568808D01*
X128730299Y-91555194D01*
X128747626Y-91537867D01*
X128761240Y-91517492D01*
X128770617Y-91494854D01*
X128774479Y-91482121D01*
X128825644Y-91386400D01*
X128894499Y-91302499D01*
X128978400Y-91233644D01*
X129074121Y-91182479D01*
X129177985Y-91150973D01*
X129258933Y-91143000D01*
X129313067Y-91143000D01*
X129394015Y-91150973D01*
X129497879Y-91182479D01*
X129593600Y-91233644D01*
X129677501Y-91302499D01*
X129746356Y-91386400D01*
X129797521Y-91482121D01*
X129801383Y-91494854D01*
X129810760Y-91517493D01*
X129824374Y-91537867D01*
X129841701Y-91555194D01*
X129862076Y-91568808D01*
X129884715Y-91578186D01*
X129908748Y-91582966D01*
X129933252Y-91582966D01*
X129957286Y-91578185D01*
X129979925Y-91568808D01*
X130000299Y-91555194D01*
X130017626Y-91537867D01*
X130031240Y-91517492D01*
X130040617Y-91494854D01*
X130044479Y-91482121D01*
X130095644Y-91386400D01*
X130164499Y-91302499D01*
X130248400Y-91233644D01*
X130344121Y-91182479D01*
X130447985Y-91150973D01*
X130528933Y-91143000D01*
X130583067Y-91143000D01*
X130664015Y-91150973D01*
X130767879Y-91182479D01*
X130863600Y-91233644D01*
X130947501Y-91302499D01*
X131016356Y-91386400D01*
X131067521Y-91482121D01*
X131071383Y-91494854D01*
X131080760Y-91517493D01*
X131094374Y-91537867D01*
X131111701Y-91555194D01*
X131132076Y-91568808D01*
X131154715Y-91578186D01*
X131178748Y-91582966D01*
X131203252Y-91582966D01*
X131227286Y-91578185D01*
X131249925Y-91568808D01*
X131270299Y-91555194D01*
X131287626Y-91537867D01*
X131301240Y-91517492D01*
X131310617Y-91494854D01*
X131314479Y-91482121D01*
X131365644Y-91386400D01*
X131434499Y-91302499D01*
X131518400Y-91233644D01*
X131614121Y-91182479D01*
X131717985Y-91150973D01*
X131798933Y-91143000D01*
X131853067Y-91143000D01*
X131934015Y-91150973D01*
X132037879Y-91182479D01*
X132133600Y-91233644D01*
X132217501Y-91302499D01*
X132286356Y-91386400D01*
X132337521Y-91482121D01*
X132341383Y-91494854D01*
X132350760Y-91517493D01*
X132364374Y-91537867D01*
X132381701Y-91555194D01*
X132402076Y-91568808D01*
X132424715Y-91578186D01*
X132448748Y-91582966D01*
X132473252Y-91582966D01*
X132497286Y-91578185D01*
X132519925Y-91568808D01*
X132540299Y-91555194D01*
X132557626Y-91537867D01*
X132571240Y-91517492D01*
X132580617Y-91494854D01*
X132584479Y-91482121D01*
X132635644Y-91386400D01*
X132704499Y-91302499D01*
X132788400Y-91233644D01*
X132884121Y-91182479D01*
X132987985Y-91150973D01*
X133068933Y-91143000D01*
X133123067Y-91143000D01*
X133204015Y-91150973D01*
X133307879Y-91182479D01*
X133403600Y-91233644D01*
X133487501Y-91302499D01*
X133556356Y-91386400D01*
X133607521Y-91482121D01*
X133639027Y-91585985D01*
X133649666Y-91694000D01*
X133639027Y-91802015D01*
X133607521Y-91905879D01*
X133556356Y-92001600D01*
X133487501Y-92085501D01*
X133403600Y-92154356D01*
X133307879Y-92205521D01*
X133204015Y-92237027D01*
X133123067Y-92245000D01*
X133068933Y-92245000D01*
X132987985Y-92237027D01*
X132884121Y-92205521D01*
X132788400Y-92154356D01*
X132704499Y-92085501D01*
X132635644Y-92001600D01*
X132584479Y-91905879D01*
X132580615Y-91893142D01*
X132571240Y-91870507D01*
X132557626Y-91850133D01*
X132540299Y-91832806D01*
X132519924Y-91819192D01*
X132497285Y-91809814D01*
X132473252Y-91805034D01*
X132448748Y-91805034D01*
X132424714Y-91809815D01*
X132402075Y-91819192D01*
X132381701Y-91832806D01*
X132364374Y-91850133D01*
X132350760Y-91870508D01*
X132341385Y-91893142D01*
X132337521Y-91905879D01*
X132286356Y-92001600D01*
X132217501Y-92085501D01*
X132133600Y-92154356D01*
X132037879Y-92205521D01*
X131934015Y-92237027D01*
X131853067Y-92245000D01*
X131798933Y-92245000D01*
X131717985Y-92237027D01*
X131614121Y-92205521D01*
X131518400Y-92154356D01*
X131434499Y-92085501D01*
X131365644Y-92001600D01*
X131314479Y-91905879D01*
X131310615Y-91893142D01*
X131301240Y-91870507D01*
X131287626Y-91850133D01*
X131270299Y-91832806D01*
X131249924Y-91819192D01*
X131227285Y-91809814D01*
X131203252Y-91805034D01*
X131178748Y-91805034D01*
X131154714Y-91809815D01*
X131132075Y-91819192D01*
X131111701Y-91832806D01*
X131094374Y-91850133D01*
X131080760Y-91870508D01*
X131071385Y-91893142D01*
X131067521Y-91905879D01*
X131016356Y-92001600D01*
X130947501Y-92085501D01*
X130863600Y-92154356D01*
X130767879Y-92205521D01*
X130664015Y-92237027D01*
X130583067Y-92245000D01*
X130528933Y-92245000D01*
X130447985Y-92237027D01*
X130344121Y-92205521D01*
X130248400Y-92154356D01*
X130164499Y-92085501D01*
X130095644Y-92001600D01*
X130044479Y-91905879D01*
X130040615Y-91893142D01*
X130031240Y-91870507D01*
X130017626Y-91850133D01*
X130000299Y-91832806D01*
X129979924Y-91819192D01*
X129957285Y-91809814D01*
X129933252Y-91805034D01*
X129908748Y-91805034D01*
X129884714Y-91809815D01*
X129862075Y-91819192D01*
X129841701Y-91832806D01*
X129824374Y-91850133D01*
X129810760Y-91870508D01*
X129801385Y-91893142D01*
X129797521Y-91905879D01*
X129746356Y-92001600D01*
X129677501Y-92085501D01*
X129593600Y-92154356D01*
X129497879Y-92205521D01*
X129394015Y-92237027D01*
X129313067Y-92245000D01*
X129258933Y-92245000D01*
X129177985Y-92237027D01*
X129074121Y-92205521D01*
X128978400Y-92154356D01*
X128894499Y-92085501D01*
X128825644Y-92001600D01*
X128774479Y-91905879D01*
X128770615Y-91893142D01*
X128761240Y-91870507D01*
X128747626Y-91850133D01*
X128730299Y-91832806D01*
X128709924Y-91819192D01*
X128687285Y-91809814D01*
X128663252Y-91805034D01*
X128638748Y-91805034D01*
X128614714Y-91809815D01*
X128592075Y-91819192D01*
X128571701Y-91832806D01*
X128554374Y-91850133D01*
X128540760Y-91870508D01*
X128531385Y-91893142D01*
X128527521Y-91905879D01*
X128476356Y-92001600D01*
X128407501Y-92085501D01*
X128323600Y-92154356D01*
X128227879Y-92205521D01*
X128124015Y-92237027D01*
X128043067Y-92245000D01*
X127988933Y-92245000D01*
X127907985Y-92237027D01*
X127804121Y-92205521D01*
X127708400Y-92154356D01*
X127624499Y-92085501D01*
X127555644Y-92001600D01*
X127532234Y-91957805D01*
X127518626Y-91937439D01*
X127501299Y-91920111D01*
X127480924Y-91906498D01*
X127458285Y-91897120D01*
X127434252Y-91892340D01*
X127409748Y-91892340D01*
X127385714Y-91897121D01*
X127363075Y-91906498D01*
X127342701Y-91920112D01*
X127325373Y-91937439D01*
X127311760Y-91957814D01*
X127302382Y-91980453D01*
X127297000Y-92016738D01*
X127297000Y-92245000D01*
X126195000Y-92245000D01*
X126195000Y-91143000D01*
X127297000Y-91143000D01*
X127297000Y-91371262D01*
X127297000Y-91371262D01*
G37*
G36*
X131230820Y-86899313D02*
X131230823Y-86899314D01*
X131230824Y-86899314D01*
X131391238Y-86947975D01*
X131391240Y-86947976D01*
X131391243Y-86947977D01*
X131539078Y-87026995D01*
X131668659Y-87133341D01*
X131775005Y-87262922D01*
X131854023Y-87410756D01*
X131902687Y-87571179D01*
X131915000Y-87696196D01*
X131915000Y-88579803D01*
X131902687Y-88704820D01*
X131902686Y-88704822D01*
X131902686Y-88704825D01*
X131854025Y-88865239D01*
X131854023Y-88865244D01*
X131775005Y-89013078D01*
X131668659Y-89142659D01*
X131539078Y-89249005D01*
X131391244Y-89328023D01*
X131391241Y-89328024D01*
X131391239Y-89328025D01*
X131230825Y-89376686D01*
X131230824Y-89376686D01*
X131230821Y-89376687D01*
X131064000Y-89393117D01*
X130897180Y-89376687D01*
X130897177Y-89376686D01*
X130897176Y-89376686D01*
X130736762Y-89328025D01*
X130736760Y-89328024D01*
X130736757Y-89328023D01*
X130588923Y-89249005D01*
X130459342Y-89142659D01*
X130352996Y-89013078D01*
X130273978Y-88865244D01*
X130225314Y-88704821D01*
X130213000Y-88579803D01*
X130213000Y-87696197D01*
X130225313Y-87571180D01*
X130225314Y-87571176D01*
X130273975Y-87410762D01*
X130273976Y-87410760D01*
X130273977Y-87410757D01*
X130352995Y-87262922D01*
X130459341Y-87133341D01*
X130588922Y-87026995D01*
X130736756Y-86947977D01*
X130736759Y-86947976D01*
X130736761Y-86947975D01*
X130897175Y-86899314D01*
X130897176Y-86899314D01*
X130897179Y-86899313D01*
X131064000Y-86882883D01*
X131230820Y-86899313D01*
X131230820Y-86899313D01*
G37*
G36*
X133770820Y-86899313D02*
X133770823Y-86899314D01*
X133770824Y-86899314D01*
X133931238Y-86947975D01*
X133931240Y-86947976D01*
X133931243Y-86947977D01*
X134079078Y-87026995D01*
X134208659Y-87133341D01*
X134315005Y-87262922D01*
X134394023Y-87410756D01*
X134442687Y-87571179D01*
X134455000Y-87696196D01*
X134455000Y-88579803D01*
X134442687Y-88704820D01*
X134442686Y-88704822D01*
X134442686Y-88704825D01*
X134394025Y-88865239D01*
X134394023Y-88865244D01*
X134315005Y-89013078D01*
X134208659Y-89142659D01*
X134079078Y-89249005D01*
X133931244Y-89328023D01*
X133931241Y-89328024D01*
X133931239Y-89328025D01*
X133770825Y-89376686D01*
X133770824Y-89376686D01*
X133770821Y-89376687D01*
X133604000Y-89393117D01*
X133437180Y-89376687D01*
X133437177Y-89376686D01*
X133437176Y-89376686D01*
X133276762Y-89328025D01*
X133276760Y-89328024D01*
X133276757Y-89328023D01*
X133128923Y-89249005D01*
X132999342Y-89142659D01*
X132892996Y-89013078D01*
X132813978Y-88865244D01*
X132765314Y-88704821D01*
X132753000Y-88579803D01*
X132753000Y-87696197D01*
X132765313Y-87571180D01*
X132765314Y-87571176D01*
X132813975Y-87410762D01*
X132813976Y-87410760D01*
X132813977Y-87410757D01*
X132892995Y-87262922D01*
X132999341Y-87133341D01*
X133128922Y-87026995D01*
X133276756Y-86947977D01*
X133276759Y-86947976D01*
X133276761Y-86947975D01*
X133437175Y-86899314D01*
X133437176Y-86899314D01*
X133437179Y-86899313D01*
X133604000Y-86882883D01*
X133770820Y-86899313D01*
X133770820Y-86899313D01*
G37*
G36*
X121070820Y-86899313D02*
X121070823Y-86899314D01*
X121070824Y-86899314D01*
X121231238Y-86947975D01*
X121231240Y-86947976D01*
X121231243Y-86947977D01*
X121379078Y-87026995D01*
X121508659Y-87133341D01*
X121615005Y-87262922D01*
X121694023Y-87410756D01*
X121742687Y-87571179D01*
X121755000Y-87696196D01*
X121755000Y-88579803D01*
X121742687Y-88704820D01*
X121742686Y-88704822D01*
X121742686Y-88704825D01*
X121694025Y-88865239D01*
X121694023Y-88865244D01*
X121615005Y-89013078D01*
X121508659Y-89142659D01*
X121379078Y-89249005D01*
X121231244Y-89328023D01*
X121231241Y-89328024D01*
X121231239Y-89328025D01*
X121070825Y-89376686D01*
X121070824Y-89376686D01*
X121070821Y-89376687D01*
X120904000Y-89393117D01*
X120737180Y-89376687D01*
X120737177Y-89376686D01*
X120737176Y-89376686D01*
X120576762Y-89328025D01*
X120576760Y-89328024D01*
X120576757Y-89328023D01*
X120428923Y-89249005D01*
X120299342Y-89142659D01*
X120192996Y-89013078D01*
X120113978Y-88865244D01*
X120065314Y-88704821D01*
X120053000Y-88579803D01*
X120053000Y-87696197D01*
X120065313Y-87571180D01*
X120065314Y-87571176D01*
X120113975Y-87410762D01*
X120113976Y-87410760D01*
X120113977Y-87410757D01*
X120192995Y-87262922D01*
X120299341Y-87133341D01*
X120428922Y-87026995D01*
X120576756Y-86947977D01*
X120576759Y-86947976D01*
X120576761Y-86947975D01*
X120737175Y-86899314D01*
X120737176Y-86899314D01*
X120737179Y-86899313D01*
X120904000Y-86882883D01*
X121070820Y-86899313D01*
X121070820Y-86899313D01*
G37*
G36*
X128690820Y-86899313D02*
X128690823Y-86899314D01*
X128690824Y-86899314D01*
X128851238Y-86947975D01*
X128851240Y-86947976D01*
X128851243Y-86947977D01*
X128999078Y-87026995D01*
X129128659Y-87133341D01*
X129235005Y-87262922D01*
X129314023Y-87410756D01*
X129362687Y-87571179D01*
X129375000Y-87696196D01*
X129375000Y-88579803D01*
X129362687Y-88704820D01*
X129362686Y-88704822D01*
X129362686Y-88704825D01*
X129314025Y-88865239D01*
X129314023Y-88865244D01*
X129235005Y-89013078D01*
X129128659Y-89142659D01*
X128999078Y-89249005D01*
X128851244Y-89328023D01*
X128851241Y-89328024D01*
X128851239Y-89328025D01*
X128690825Y-89376686D01*
X128690824Y-89376686D01*
X128690821Y-89376687D01*
X128524000Y-89393117D01*
X128357180Y-89376687D01*
X128357177Y-89376686D01*
X128357176Y-89376686D01*
X128196762Y-89328025D01*
X128196760Y-89328024D01*
X128196757Y-89328023D01*
X128048923Y-89249005D01*
X127919342Y-89142659D01*
X127812996Y-89013078D01*
X127733978Y-88865244D01*
X127685314Y-88704821D01*
X127673000Y-88579803D01*
X127673000Y-87696197D01*
X127685313Y-87571180D01*
X127685314Y-87571176D01*
X127733975Y-87410762D01*
X127733976Y-87410760D01*
X127733977Y-87410757D01*
X127812995Y-87262922D01*
X127919341Y-87133341D01*
X128048922Y-87026995D01*
X128196756Y-86947977D01*
X128196759Y-86947976D01*
X128196761Y-86947975D01*
X128357175Y-86899314D01*
X128357176Y-86899314D01*
X128357179Y-86899313D01*
X128524000Y-86882883D01*
X128690820Y-86899313D01*
X128690820Y-86899313D01*
G37*
G36*
X126150820Y-86899313D02*
X126150823Y-86899314D01*
X126150824Y-86899314D01*
X126311238Y-86947975D01*
X126311240Y-86947976D01*
X126311243Y-86947977D01*
X126459078Y-87026995D01*
X126588659Y-87133341D01*
X126695005Y-87262922D01*
X126774023Y-87410756D01*
X126822687Y-87571179D01*
X126835000Y-87696196D01*
X126835000Y-88579803D01*
X126822687Y-88704820D01*
X126822686Y-88704822D01*
X126822686Y-88704825D01*
X126774025Y-88865239D01*
X126774023Y-88865244D01*
X126695005Y-89013078D01*
X126588659Y-89142659D01*
X126459078Y-89249005D01*
X126311244Y-89328023D01*
X126311241Y-89328024D01*
X126311239Y-89328025D01*
X126150825Y-89376686D01*
X126150824Y-89376686D01*
X126150821Y-89376687D01*
X125984000Y-89393117D01*
X125817180Y-89376687D01*
X125817177Y-89376686D01*
X125817176Y-89376686D01*
X125656762Y-89328025D01*
X125656760Y-89328024D01*
X125656757Y-89328023D01*
X125508923Y-89249005D01*
X125379342Y-89142659D01*
X125272996Y-89013078D01*
X125193978Y-88865244D01*
X125145314Y-88704821D01*
X125133000Y-88579803D01*
X125133000Y-87696197D01*
X125145313Y-87571180D01*
X125145314Y-87571176D01*
X125193975Y-87410762D01*
X125193976Y-87410760D01*
X125193977Y-87410757D01*
X125272995Y-87262922D01*
X125379341Y-87133341D01*
X125508922Y-87026995D01*
X125656756Y-86947977D01*
X125656759Y-86947976D01*
X125656761Y-86947975D01*
X125817175Y-86899314D01*
X125817176Y-86899314D01*
X125817179Y-86899313D01*
X125984000Y-86882883D01*
X126150820Y-86899313D01*
X126150820Y-86899313D01*
G37*
G36*
X123610820Y-86899313D02*
X123610823Y-86899314D01*
X123610824Y-86899314D01*
X123771238Y-86947975D01*
X123771240Y-86947976D01*
X123771243Y-86947977D01*
X123919078Y-87026995D01*
X124048659Y-87133341D01*
X124155005Y-87262922D01*
X124234023Y-87410756D01*
X124282687Y-87571179D01*
X124295000Y-87696196D01*
X124295000Y-88579803D01*
X124282687Y-88704820D01*
X124282686Y-88704822D01*
X124282686Y-88704825D01*
X124234025Y-88865239D01*
X124234023Y-88865244D01*
X124155005Y-89013078D01*
X124048659Y-89142659D01*
X123919078Y-89249005D01*
X123771244Y-89328023D01*
X123771241Y-89328024D01*
X123771239Y-89328025D01*
X123610825Y-89376686D01*
X123610824Y-89376686D01*
X123610821Y-89376687D01*
X123444000Y-89393117D01*
X123277180Y-89376687D01*
X123277177Y-89376686D01*
X123277176Y-89376686D01*
X123116762Y-89328025D01*
X123116760Y-89328024D01*
X123116757Y-89328023D01*
X122968923Y-89249005D01*
X122839342Y-89142659D01*
X122732996Y-89013078D01*
X122653978Y-88865244D01*
X122605314Y-88704821D01*
X122593000Y-88579803D01*
X122593000Y-87696197D01*
X122605313Y-87571180D01*
X122605314Y-87571176D01*
X122653975Y-87410762D01*
X122653976Y-87410760D01*
X122653977Y-87410757D01*
X122732995Y-87262922D01*
X122839341Y-87133341D01*
X122968922Y-87026995D01*
X123116756Y-86947977D01*
X123116759Y-86947976D01*
X123116761Y-86947975D01*
X123277175Y-86899314D01*
X123277176Y-86899314D01*
X123277179Y-86899313D01*
X123444000Y-86882883D01*
X123610820Y-86899313D01*
X123610820Y-86899313D01*
G37*
G36*
X136310820Y-86899313D02*
X136310823Y-86899314D01*
X136310824Y-86899314D01*
X136471238Y-86947975D01*
X136471240Y-86947976D01*
X136471243Y-86947977D01*
X136619078Y-87026995D01*
X136748659Y-87133341D01*
X136855005Y-87262922D01*
X136934023Y-87410756D01*
X136982687Y-87571179D01*
X136995000Y-87696196D01*
X136995000Y-88579803D01*
X136982687Y-88704820D01*
X136982686Y-88704822D01*
X136982686Y-88704825D01*
X136934025Y-88865239D01*
X136934023Y-88865244D01*
X136855005Y-89013078D01*
X136748659Y-89142659D01*
X136619078Y-89249005D01*
X136471244Y-89328023D01*
X136471241Y-89328024D01*
X136471239Y-89328025D01*
X136310825Y-89376686D01*
X136310824Y-89376686D01*
X136310821Y-89376687D01*
X136144000Y-89393117D01*
X135977180Y-89376687D01*
X135977177Y-89376686D01*
X135977176Y-89376686D01*
X135816762Y-89328025D01*
X135816760Y-89328024D01*
X135816757Y-89328023D01*
X135668923Y-89249005D01*
X135539342Y-89142659D01*
X135432996Y-89013078D01*
X135353978Y-88865244D01*
X135305314Y-88704821D01*
X135293000Y-88579803D01*
X135293000Y-87696197D01*
X135305313Y-87571180D01*
X135305314Y-87571176D01*
X135353975Y-87410762D01*
X135353976Y-87410760D01*
X135353977Y-87410757D01*
X135432995Y-87262922D01*
X135539341Y-87133341D01*
X135668922Y-87026995D01*
X135816756Y-86947977D01*
X135816759Y-86947976D01*
X135816761Y-86947975D01*
X135977175Y-86899314D01*
X135977176Y-86899314D01*
X135977179Y-86899313D01*
X136144000Y-86882883D01*
X136310820Y-86899313D01*
X136310820Y-86899313D01*
G37*
G36*
X139535000Y-89389000D02*
X137833000Y-89389000D01*
X137833000Y-86887000D01*
X139535000Y-86887000D01*
X139535000Y-89389000D01*
X139535000Y-89389000D01*
G37*
G36*
X123610820Y-79279313D02*
X123610823Y-79279314D01*
X123610824Y-79279314D01*
X123771238Y-79327975D01*
X123771240Y-79327976D01*
X123771243Y-79327977D01*
X123919078Y-79406995D01*
X124048659Y-79513341D01*
X124155005Y-79642922D01*
X124234023Y-79790756D01*
X124282687Y-79951179D01*
X124295000Y-80076196D01*
X124295000Y-80959803D01*
X124282687Y-81084820D01*
X124282686Y-81084822D01*
X124282686Y-81084825D01*
X124234025Y-81245239D01*
X124234023Y-81245244D01*
X124155005Y-81393078D01*
X124048659Y-81522659D01*
X123919078Y-81629005D01*
X123771244Y-81708023D01*
X123771241Y-81708024D01*
X123771239Y-81708025D01*
X123610825Y-81756686D01*
X123610824Y-81756686D01*
X123610821Y-81756687D01*
X123444000Y-81773117D01*
X123277180Y-81756687D01*
X123277177Y-81756686D01*
X123277176Y-81756686D01*
X123116762Y-81708025D01*
X123116760Y-81708024D01*
X123116757Y-81708023D01*
X122968923Y-81629005D01*
X122839342Y-81522659D01*
X122732996Y-81393078D01*
X122653978Y-81245244D01*
X122605314Y-81084821D01*
X122593000Y-80959803D01*
X122593000Y-80076197D01*
X122605313Y-79951180D01*
X122605314Y-79951176D01*
X122653975Y-79790762D01*
X122653976Y-79790760D01*
X122653977Y-79790757D01*
X122732995Y-79642922D01*
X122839341Y-79513341D01*
X122968922Y-79406995D01*
X123116756Y-79327977D01*
X123116759Y-79327976D01*
X123116761Y-79327975D01*
X123277175Y-79279314D01*
X123277176Y-79279314D01*
X123277179Y-79279313D01*
X123444000Y-79262883D01*
X123610820Y-79279313D01*
X123610820Y-79279313D01*
G37*
G36*
X126150820Y-79279313D02*
X126150823Y-79279314D01*
X126150824Y-79279314D01*
X126311238Y-79327975D01*
X126311240Y-79327976D01*
X126311243Y-79327977D01*
X126459078Y-79406995D01*
X126588659Y-79513341D01*
X126695005Y-79642922D01*
X126774023Y-79790756D01*
X126822687Y-79951179D01*
X126835000Y-80076196D01*
X126835000Y-80959803D01*
X126822687Y-81084820D01*
X126822686Y-81084822D01*
X126822686Y-81084825D01*
X126774025Y-81245239D01*
X126774023Y-81245244D01*
X126695005Y-81393078D01*
X126588659Y-81522659D01*
X126459078Y-81629005D01*
X126311244Y-81708023D01*
X126311241Y-81708024D01*
X126311239Y-81708025D01*
X126150825Y-81756686D01*
X126150824Y-81756686D01*
X126150821Y-81756687D01*
X125984000Y-81773117D01*
X125817180Y-81756687D01*
X125817177Y-81756686D01*
X125817176Y-81756686D01*
X125656762Y-81708025D01*
X125656760Y-81708024D01*
X125656757Y-81708023D01*
X125508923Y-81629005D01*
X125379342Y-81522659D01*
X125272996Y-81393078D01*
X125193978Y-81245244D01*
X125145314Y-81084821D01*
X125133000Y-80959803D01*
X125133000Y-80076197D01*
X125145313Y-79951180D01*
X125145314Y-79951176D01*
X125193975Y-79790762D01*
X125193976Y-79790760D01*
X125193977Y-79790757D01*
X125272995Y-79642922D01*
X125379341Y-79513341D01*
X125508922Y-79406995D01*
X125656756Y-79327977D01*
X125656759Y-79327976D01*
X125656761Y-79327975D01*
X125817175Y-79279314D01*
X125817176Y-79279314D01*
X125817179Y-79279313D01*
X125984000Y-79262883D01*
X126150820Y-79279313D01*
X126150820Y-79279313D01*
G37*
G36*
X121070820Y-79279313D02*
X121070823Y-79279314D01*
X121070824Y-79279314D01*
X121231238Y-79327975D01*
X121231240Y-79327976D01*
X121231243Y-79327977D01*
X121379078Y-79406995D01*
X121508659Y-79513341D01*
X121615005Y-79642922D01*
X121694023Y-79790756D01*
X121742687Y-79951179D01*
X121755000Y-80076196D01*
X121755000Y-80959803D01*
X121742687Y-81084820D01*
X121742686Y-81084822D01*
X121742686Y-81084825D01*
X121694025Y-81245239D01*
X121694023Y-81245244D01*
X121615005Y-81393078D01*
X121508659Y-81522659D01*
X121379078Y-81629005D01*
X121231244Y-81708023D01*
X121231241Y-81708024D01*
X121231239Y-81708025D01*
X121070825Y-81756686D01*
X121070824Y-81756686D01*
X121070821Y-81756687D01*
X120904000Y-81773117D01*
X120737180Y-81756687D01*
X120737177Y-81756686D01*
X120737176Y-81756686D01*
X120576762Y-81708025D01*
X120576760Y-81708024D01*
X120576757Y-81708023D01*
X120428923Y-81629005D01*
X120299342Y-81522659D01*
X120192996Y-81393078D01*
X120113978Y-81245244D01*
X120065314Y-81084821D01*
X120053000Y-80959803D01*
X120053000Y-80076197D01*
X120065313Y-79951180D01*
X120065314Y-79951176D01*
X120113975Y-79790762D01*
X120113976Y-79790760D01*
X120113977Y-79790757D01*
X120192995Y-79642922D01*
X120299341Y-79513341D01*
X120428922Y-79406995D01*
X120576756Y-79327977D01*
X120576759Y-79327976D01*
X120576761Y-79327975D01*
X120737175Y-79279314D01*
X120737176Y-79279314D01*
X120737179Y-79279313D01*
X120904000Y-79262883D01*
X121070820Y-79279313D01*
X121070820Y-79279313D01*
G37*
G36*
X138850820Y-79279313D02*
X138850823Y-79279314D01*
X138850824Y-79279314D01*
X139011238Y-79327975D01*
X139011240Y-79327976D01*
X139011243Y-79327977D01*
X139159078Y-79406995D01*
X139288659Y-79513341D01*
X139395005Y-79642922D01*
X139474023Y-79790756D01*
X139522687Y-79951179D01*
X139535000Y-80076196D01*
X139535000Y-80959803D01*
X139522687Y-81084820D01*
X139522686Y-81084822D01*
X139522686Y-81084825D01*
X139474025Y-81245239D01*
X139474023Y-81245244D01*
X139395005Y-81393078D01*
X139288659Y-81522659D01*
X139159078Y-81629005D01*
X139011244Y-81708023D01*
X139011241Y-81708024D01*
X139011239Y-81708025D01*
X138850825Y-81756686D01*
X138850824Y-81756686D01*
X138850821Y-81756687D01*
X138684000Y-81773117D01*
X138517180Y-81756687D01*
X138517177Y-81756686D01*
X138517176Y-81756686D01*
X138356762Y-81708025D01*
X138356760Y-81708024D01*
X138356757Y-81708023D01*
X138208923Y-81629005D01*
X138079342Y-81522659D01*
X137972996Y-81393078D01*
X137893978Y-81245244D01*
X137845314Y-81084821D01*
X137833000Y-80959803D01*
X137833000Y-80076197D01*
X137845313Y-79951180D01*
X137845314Y-79951176D01*
X137893975Y-79790762D01*
X137893976Y-79790760D01*
X137893977Y-79790757D01*
X137972995Y-79642922D01*
X138079341Y-79513341D01*
X138208922Y-79406995D01*
X138356756Y-79327977D01*
X138356759Y-79327976D01*
X138356761Y-79327975D01*
X138517175Y-79279314D01*
X138517176Y-79279314D01*
X138517179Y-79279313D01*
X138684000Y-79262883D01*
X138850820Y-79279313D01*
X138850820Y-79279313D01*
G37*
G36*
X136310820Y-79279313D02*
X136310823Y-79279314D01*
X136310824Y-79279314D01*
X136471238Y-79327975D01*
X136471240Y-79327976D01*
X136471243Y-79327977D01*
X136619078Y-79406995D01*
X136748659Y-79513341D01*
X136855005Y-79642922D01*
X136934023Y-79790756D01*
X136982687Y-79951179D01*
X136995000Y-80076196D01*
X136995000Y-80959803D01*
X136982687Y-81084820D01*
X136982686Y-81084822D01*
X136982686Y-81084825D01*
X136934025Y-81245239D01*
X136934023Y-81245244D01*
X136855005Y-81393078D01*
X136748659Y-81522659D01*
X136619078Y-81629005D01*
X136471244Y-81708023D01*
X136471241Y-81708024D01*
X136471239Y-81708025D01*
X136310825Y-81756686D01*
X136310824Y-81756686D01*
X136310821Y-81756687D01*
X136144000Y-81773117D01*
X135977180Y-81756687D01*
X135977177Y-81756686D01*
X135977176Y-81756686D01*
X135816762Y-81708025D01*
X135816760Y-81708024D01*
X135816757Y-81708023D01*
X135668923Y-81629005D01*
X135539342Y-81522659D01*
X135432996Y-81393078D01*
X135353978Y-81245244D01*
X135305314Y-81084821D01*
X135293000Y-80959803D01*
X135293000Y-80076197D01*
X135305313Y-79951180D01*
X135305314Y-79951176D01*
X135353975Y-79790762D01*
X135353976Y-79790760D01*
X135353977Y-79790757D01*
X135432995Y-79642922D01*
X135539341Y-79513341D01*
X135668922Y-79406995D01*
X135816756Y-79327977D01*
X135816759Y-79327976D01*
X135816761Y-79327975D01*
X135977175Y-79279314D01*
X135977176Y-79279314D01*
X135977179Y-79279313D01*
X136144000Y-79262883D01*
X136310820Y-79279313D01*
X136310820Y-79279313D01*
G37*
G36*
X133770820Y-79279313D02*
X133770823Y-79279314D01*
X133770824Y-79279314D01*
X133931238Y-79327975D01*
X133931240Y-79327976D01*
X133931243Y-79327977D01*
X134079078Y-79406995D01*
X134208659Y-79513341D01*
X134315005Y-79642922D01*
X134394023Y-79790756D01*
X134442687Y-79951179D01*
X134455000Y-80076196D01*
X134455000Y-80959803D01*
X134442687Y-81084820D01*
X134442686Y-81084822D01*
X134442686Y-81084825D01*
X134394025Y-81245239D01*
X134394023Y-81245244D01*
X134315005Y-81393078D01*
X134208659Y-81522659D01*
X134079078Y-81629005D01*
X133931244Y-81708023D01*
X133931241Y-81708024D01*
X133931239Y-81708025D01*
X133770825Y-81756686D01*
X133770824Y-81756686D01*
X133770821Y-81756687D01*
X133604000Y-81773117D01*
X133437180Y-81756687D01*
X133437177Y-81756686D01*
X133437176Y-81756686D01*
X133276762Y-81708025D01*
X133276760Y-81708024D01*
X133276757Y-81708023D01*
X133128923Y-81629005D01*
X132999342Y-81522659D01*
X132892996Y-81393078D01*
X132813978Y-81245244D01*
X132765314Y-81084821D01*
X132753000Y-80959803D01*
X132753000Y-80076197D01*
X132765313Y-79951180D01*
X132765314Y-79951176D01*
X132813975Y-79790762D01*
X132813976Y-79790760D01*
X132813977Y-79790757D01*
X132892995Y-79642922D01*
X132999341Y-79513341D01*
X133128922Y-79406995D01*
X133276756Y-79327977D01*
X133276759Y-79327976D01*
X133276761Y-79327975D01*
X133437175Y-79279314D01*
X133437176Y-79279314D01*
X133437179Y-79279313D01*
X133604000Y-79262883D01*
X133770820Y-79279313D01*
X133770820Y-79279313D01*
G37*
G36*
X131230820Y-79279313D02*
X131230823Y-79279314D01*
X131230824Y-79279314D01*
X131391238Y-79327975D01*
X131391240Y-79327976D01*
X131391243Y-79327977D01*
X131539078Y-79406995D01*
X131668659Y-79513341D01*
X131775005Y-79642922D01*
X131854023Y-79790756D01*
X131902687Y-79951179D01*
X131915000Y-80076196D01*
X131915000Y-80959803D01*
X131902687Y-81084820D01*
X131902686Y-81084822D01*
X131902686Y-81084825D01*
X131854025Y-81245239D01*
X131854023Y-81245244D01*
X131775005Y-81393078D01*
X131668659Y-81522659D01*
X131539078Y-81629005D01*
X131391244Y-81708023D01*
X131391241Y-81708024D01*
X131391239Y-81708025D01*
X131230825Y-81756686D01*
X131230824Y-81756686D01*
X131230821Y-81756687D01*
X131064000Y-81773117D01*
X130897180Y-81756687D01*
X130897177Y-81756686D01*
X130897176Y-81756686D01*
X130736762Y-81708025D01*
X130736760Y-81708024D01*
X130736757Y-81708023D01*
X130588923Y-81629005D01*
X130459342Y-81522659D01*
X130352996Y-81393078D01*
X130273978Y-81245244D01*
X130225314Y-81084821D01*
X130213000Y-80959803D01*
X130213000Y-80076197D01*
X130225313Y-79951180D01*
X130225314Y-79951176D01*
X130273975Y-79790762D01*
X130273976Y-79790760D01*
X130273977Y-79790757D01*
X130352995Y-79642922D01*
X130459341Y-79513341D01*
X130588922Y-79406995D01*
X130736756Y-79327977D01*
X130736759Y-79327976D01*
X130736761Y-79327975D01*
X130897175Y-79279314D01*
X130897176Y-79279314D01*
X130897179Y-79279313D01*
X131064000Y-79262883D01*
X131230820Y-79279313D01*
X131230820Y-79279313D01*
G37*
G36*
X128690820Y-79279313D02*
X128690823Y-79279314D01*
X128690824Y-79279314D01*
X128851238Y-79327975D01*
X128851240Y-79327976D01*
X128851243Y-79327977D01*
X128999078Y-79406995D01*
X129128659Y-79513341D01*
X129235005Y-79642922D01*
X129314023Y-79790756D01*
X129362687Y-79951179D01*
X129375000Y-80076196D01*
X129375000Y-80959803D01*
X129362687Y-81084820D01*
X129362686Y-81084822D01*
X129362686Y-81084825D01*
X129314025Y-81245239D01*
X129314023Y-81245244D01*
X129235005Y-81393078D01*
X129128659Y-81522659D01*
X128999078Y-81629005D01*
X128851244Y-81708023D01*
X128851241Y-81708024D01*
X128851239Y-81708025D01*
X128690825Y-81756686D01*
X128690824Y-81756686D01*
X128690821Y-81756687D01*
X128524000Y-81773117D01*
X128357180Y-81756687D01*
X128357177Y-81756686D01*
X128357176Y-81756686D01*
X128196762Y-81708025D01*
X128196760Y-81708024D01*
X128196757Y-81708023D01*
X128048923Y-81629005D01*
X127919342Y-81522659D01*
X127812996Y-81393078D01*
X127733978Y-81245244D01*
X127685314Y-81084821D01*
X127673000Y-80959803D01*
X127673000Y-80076197D01*
X127685313Y-79951180D01*
X127685314Y-79951176D01*
X127733975Y-79790762D01*
X127733976Y-79790760D01*
X127733977Y-79790757D01*
X127812995Y-79642922D01*
X127919341Y-79513341D01*
X128048922Y-79406995D01*
X128196756Y-79327977D01*
X128196759Y-79327976D01*
X128196761Y-79327975D01*
X128357175Y-79279314D01*
X128357176Y-79279314D01*
X128357179Y-79279313D01*
X128524000Y-79262883D01*
X128690820Y-79279313D01*
X128690820Y-79279313D01*
G37*
G36*
X102610228Y-70809703D02*
X102765100Y-70873853D01*
X102904481Y-70966985D01*
X103023015Y-71085519D01*
X103116147Y-71224900D01*
X103180297Y-71379772D01*
X103213000Y-71544184D01*
X103213000Y-71711816D01*
X103180297Y-71876228D01*
X103116147Y-72031100D01*
X103023015Y-72170481D01*
X102904481Y-72289015D01*
X102765100Y-72382147D01*
X102610228Y-72446297D01*
X102445816Y-72479000D01*
X102278184Y-72479000D01*
X102113772Y-72446297D01*
X101958900Y-72382147D01*
X101819519Y-72289015D01*
X101700985Y-72170481D01*
X101607853Y-72031100D01*
X101543703Y-71876228D01*
X101511000Y-71711816D01*
X101511000Y-71544184D01*
X101543703Y-71379772D01*
X101607853Y-71224900D01*
X101700985Y-71085519D01*
X101819519Y-70966985D01*
X101958900Y-70873853D01*
X102113772Y-70809703D01*
X102278184Y-70777000D01*
X102445816Y-70777000D01*
X102610228Y-70809703D01*
X102610228Y-70809703D01*
G37*
G36*
X105410228Y-70809703D02*
X105565100Y-70873853D01*
X105704481Y-70966985D01*
X105823015Y-71085519D01*
X105916147Y-71224900D01*
X105980297Y-71379772D01*
X106013000Y-71544184D01*
X106013000Y-71711816D01*
X105980297Y-71876228D01*
X105916147Y-72031100D01*
X105823015Y-72170481D01*
X105704481Y-72289015D01*
X105565100Y-72382147D01*
X105410228Y-72446297D01*
X105245816Y-72479000D01*
X105078184Y-72479000D01*
X104913772Y-72446297D01*
X104758900Y-72382147D01*
X104619519Y-72289015D01*
X104500985Y-72170481D01*
X104407853Y-72031100D01*
X104343703Y-71876228D01*
X104311000Y-71711816D01*
X104311000Y-71544184D01*
X104343703Y-71379772D01*
X104407853Y-71224900D01*
X104500985Y-71085519D01*
X104619519Y-70966985D01*
X104758900Y-70873853D01*
X104913772Y-70809703D01*
X105078184Y-70777000D01*
X105245816Y-70777000D01*
X105410228Y-70809703D01*
X105410228Y-70809703D01*
G37*
G36*
X113024228Y-70809703D02*
X113179100Y-70873853D01*
X113318481Y-70966985D01*
X113437015Y-71085519D01*
X113530147Y-71224900D01*
X113594297Y-71379772D01*
X113627000Y-71544184D01*
X113627000Y-71711816D01*
X113594297Y-71876228D01*
X113530147Y-72031100D01*
X113437015Y-72170481D01*
X113318481Y-72289015D01*
X113179100Y-72382147D01*
X113024228Y-72446297D01*
X112859816Y-72479000D01*
X112692184Y-72479000D01*
X112527772Y-72446297D01*
X112372900Y-72382147D01*
X112233519Y-72289015D01*
X112114985Y-72170481D01*
X112021853Y-72031100D01*
X111957703Y-71876228D01*
X111925000Y-71711816D01*
X111925000Y-71544184D01*
X111957703Y-71379772D01*
X112021853Y-71224900D01*
X112114985Y-71085519D01*
X112233519Y-70966985D01*
X112372900Y-70873853D01*
X112527772Y-70809703D01*
X112692184Y-70777000D01*
X112859816Y-70777000D01*
X113024228Y-70809703D01*
X113024228Y-70809703D01*
G37*
G36*
X115824228Y-70809703D02*
X115979100Y-70873853D01*
X116118481Y-70966985D01*
X116237015Y-71085519D01*
X116330147Y-71224900D01*
X116394297Y-71379772D01*
X116427000Y-71544184D01*
X116427000Y-71711816D01*
X116394297Y-71876228D01*
X116330147Y-72031100D01*
X116237015Y-72170481D01*
X116118481Y-72289015D01*
X115979100Y-72382147D01*
X115824228Y-72446297D01*
X115659816Y-72479000D01*
X115492184Y-72479000D01*
X115327772Y-72446297D01*
X115172900Y-72382147D01*
X115033519Y-72289015D01*
X114914985Y-72170481D01*
X114821853Y-72031100D01*
X114757703Y-71876228D01*
X114725000Y-71711816D01*
X114725000Y-71544184D01*
X114757703Y-71379772D01*
X114821853Y-71224900D01*
X114914985Y-71085519D01*
X115033519Y-70966985D01*
X115172900Y-70873853D01*
X115327772Y-70809703D01*
X115492184Y-70777000D01*
X115659816Y-70777000D01*
X115824228Y-70809703D01*
X115824228Y-70809703D01*
G37*
G36*
X123438228Y-70809703D02*
X123593100Y-70873853D01*
X123732481Y-70966985D01*
X123851015Y-71085519D01*
X123944147Y-71224900D01*
X124008297Y-71379772D01*
X124041000Y-71544184D01*
X124041000Y-71711816D01*
X124008297Y-71876228D01*
X123944147Y-72031100D01*
X123851015Y-72170481D01*
X123732481Y-72289015D01*
X123593100Y-72382147D01*
X123438228Y-72446297D01*
X123273816Y-72479000D01*
X123106184Y-72479000D01*
X122941772Y-72446297D01*
X122786900Y-72382147D01*
X122647519Y-72289015D01*
X122528985Y-72170481D01*
X122435853Y-72031100D01*
X122371703Y-71876228D01*
X122339000Y-71711816D01*
X122339000Y-71544184D01*
X122371703Y-71379772D01*
X122435853Y-71224900D01*
X122528985Y-71085519D01*
X122647519Y-70966985D01*
X122786900Y-70873853D01*
X122941772Y-70809703D01*
X123106184Y-70777000D01*
X123273816Y-70777000D01*
X123438228Y-70809703D01*
X123438228Y-70809703D01*
G37*
G36*
X126238228Y-70809703D02*
X126393100Y-70873853D01*
X126532481Y-70966985D01*
X126651015Y-71085519D01*
X126744147Y-71224900D01*
X126808297Y-71379772D01*
X126841000Y-71544184D01*
X126841000Y-71711816D01*
X126808297Y-71876228D01*
X126744147Y-72031100D01*
X126651015Y-72170481D01*
X126532481Y-72289015D01*
X126393100Y-72382147D01*
X126238228Y-72446297D01*
X126073816Y-72479000D01*
X125906184Y-72479000D01*
X125741772Y-72446297D01*
X125586900Y-72382147D01*
X125447519Y-72289015D01*
X125328985Y-72170481D01*
X125235853Y-72031100D01*
X125171703Y-71876228D01*
X125139000Y-71711816D01*
X125139000Y-71544184D01*
X125171703Y-71379772D01*
X125235853Y-71224900D01*
X125328985Y-71085519D01*
X125447519Y-70966985D01*
X125586900Y-70873853D01*
X125741772Y-70809703D01*
X125906184Y-70777000D01*
X126073816Y-70777000D01*
X126238228Y-70809703D01*
X126238228Y-70809703D01*
G37*
G36*
X133852228Y-70809703D02*
X134007100Y-70873853D01*
X134146481Y-70966985D01*
X134265015Y-71085519D01*
X134358147Y-71224900D01*
X134422297Y-71379772D01*
X134455000Y-71544184D01*
X134455000Y-71711816D01*
X134422297Y-71876228D01*
X134358147Y-72031100D01*
X134265015Y-72170481D01*
X134146481Y-72289015D01*
X134007100Y-72382147D01*
X133852228Y-72446297D01*
X133687816Y-72479000D01*
X133520184Y-72479000D01*
X133355772Y-72446297D01*
X133200900Y-72382147D01*
X133061519Y-72289015D01*
X132942985Y-72170481D01*
X132849853Y-72031100D01*
X132785703Y-71876228D01*
X132753000Y-71711816D01*
X132753000Y-71544184D01*
X132785703Y-71379772D01*
X132849853Y-71224900D01*
X132942985Y-71085519D01*
X133061519Y-70966985D01*
X133200900Y-70873853D01*
X133355772Y-70809703D01*
X133520184Y-70777000D01*
X133687816Y-70777000D01*
X133852228Y-70809703D01*
X133852228Y-70809703D01*
G37*
G36*
X136652228Y-70809703D02*
X136807100Y-70873853D01*
X136946481Y-70966985D01*
X137065015Y-71085519D01*
X137158147Y-71224900D01*
X137222297Y-71379772D01*
X137255000Y-71544184D01*
X137255000Y-71711816D01*
X137222297Y-71876228D01*
X137158147Y-72031100D01*
X137065015Y-72170481D01*
X136946481Y-72289015D01*
X136807100Y-72382147D01*
X136652228Y-72446297D01*
X136487816Y-72479000D01*
X136320184Y-72479000D01*
X136155772Y-72446297D01*
X136000900Y-72382147D01*
X135861519Y-72289015D01*
X135742985Y-72170481D01*
X135649853Y-72031100D01*
X135585703Y-71876228D01*
X135553000Y-71711816D01*
X135553000Y-71544184D01*
X135585703Y-71379772D01*
X135649853Y-71224900D01*
X135742985Y-71085519D01*
X135861519Y-70966985D01*
X136000900Y-70873853D01*
X136155772Y-70809703D01*
X136320184Y-70777000D01*
X136487816Y-70777000D01*
X136652228Y-70809703D01*
X136652228Y-70809703D01*
G37*
G36*
X144266228Y-70809703D02*
X144421100Y-70873853D01*
X144560481Y-70966985D01*
X144679015Y-71085519D01*
X144772147Y-71224900D01*
X144836297Y-71379772D01*
X144869000Y-71544184D01*
X144869000Y-71711816D01*
X144836297Y-71876228D01*
X144772147Y-72031100D01*
X144679015Y-72170481D01*
X144560481Y-72289015D01*
X144421100Y-72382147D01*
X144266228Y-72446297D01*
X144101816Y-72479000D01*
X143934184Y-72479000D01*
X143769772Y-72446297D01*
X143614900Y-72382147D01*
X143475519Y-72289015D01*
X143356985Y-72170481D01*
X143263853Y-72031100D01*
X143199703Y-71876228D01*
X143167000Y-71711816D01*
X143167000Y-71544184D01*
X143199703Y-71379772D01*
X143263853Y-71224900D01*
X143356985Y-71085519D01*
X143475519Y-70966985D01*
X143614900Y-70873853D01*
X143769772Y-70809703D01*
X143934184Y-70777000D01*
X144101816Y-70777000D01*
X144266228Y-70809703D01*
X144266228Y-70809703D01*
G37*
G36*
X147066228Y-70809703D02*
X147221100Y-70873853D01*
X147360481Y-70966985D01*
X147479015Y-71085519D01*
X147572147Y-71224900D01*
X147636297Y-71379772D01*
X147669000Y-71544184D01*
X147669000Y-71711816D01*
X147636297Y-71876228D01*
X147572147Y-72031100D01*
X147479015Y-72170481D01*
X147360481Y-72289015D01*
X147221100Y-72382147D01*
X147066228Y-72446297D01*
X146901816Y-72479000D01*
X146734184Y-72479000D01*
X146569772Y-72446297D01*
X146414900Y-72382147D01*
X146275519Y-72289015D01*
X146156985Y-72170481D01*
X146063853Y-72031100D01*
X145999703Y-71876228D01*
X145967000Y-71711816D01*
X145967000Y-71544184D01*
X145999703Y-71379772D01*
X146063853Y-71224900D01*
X146156985Y-71085519D01*
X146275519Y-70966985D01*
X146414900Y-70873853D01*
X146569772Y-70809703D01*
X146734184Y-70777000D01*
X146901816Y-70777000D01*
X147066228Y-70809703D01*
X147066228Y-70809703D01*
G37*
G36*
X154680228Y-70809703D02*
X154835100Y-70873853D01*
X154974481Y-70966985D01*
X155093015Y-71085519D01*
X155186147Y-71224900D01*
X155250297Y-71379772D01*
X155283000Y-71544184D01*
X155283000Y-71711816D01*
X155250297Y-71876228D01*
X155186147Y-72031100D01*
X155093015Y-72170481D01*
X154974481Y-72289015D01*
X154835100Y-72382147D01*
X154680228Y-72446297D01*
X154515816Y-72479000D01*
X154348184Y-72479000D01*
X154183772Y-72446297D01*
X154028900Y-72382147D01*
X153889519Y-72289015D01*
X153770985Y-72170481D01*
X153677853Y-72031100D01*
X153613703Y-71876228D01*
X153581000Y-71711816D01*
X153581000Y-71544184D01*
X153613703Y-71379772D01*
X153677853Y-71224900D01*
X153770985Y-71085519D01*
X153889519Y-70966985D01*
X154028900Y-70873853D01*
X154183772Y-70809703D01*
X154348184Y-70777000D01*
X154515816Y-70777000D01*
X154680228Y-70809703D01*
X154680228Y-70809703D01*
G37*
G36*
X157480228Y-70809703D02*
X157635100Y-70873853D01*
X157774481Y-70966985D01*
X157893015Y-71085519D01*
X157986147Y-71224900D01*
X158050297Y-71379772D01*
X158083000Y-71544184D01*
X158083000Y-71711816D01*
X158050297Y-71876228D01*
X157986147Y-72031100D01*
X157893015Y-72170481D01*
X157774481Y-72289015D01*
X157635100Y-72382147D01*
X157480228Y-72446297D01*
X157315816Y-72479000D01*
X157148184Y-72479000D01*
X156983772Y-72446297D01*
X156828900Y-72382147D01*
X156689519Y-72289015D01*
X156570985Y-72170481D01*
X156477853Y-72031100D01*
X156413703Y-71876228D01*
X156381000Y-71711816D01*
X156381000Y-71544184D01*
X156413703Y-71379772D01*
X156477853Y-71224900D01*
X156570985Y-71085519D01*
X156689519Y-70966985D01*
X156828900Y-70873853D01*
X156983772Y-70809703D01*
X157148184Y-70777000D01*
X157315816Y-70777000D01*
X157480228Y-70809703D01*
X157480228Y-70809703D01*
G37*
G36*
X147066228Y-68269703D02*
X147221100Y-68333853D01*
X147360481Y-68426985D01*
X147479015Y-68545519D01*
X147572147Y-68684900D01*
X147636297Y-68839772D01*
X147669000Y-69004184D01*
X147669000Y-69171816D01*
X147636297Y-69336228D01*
X147572147Y-69491100D01*
X147479015Y-69630481D01*
X147360481Y-69749015D01*
X147221100Y-69842147D01*
X147066228Y-69906297D01*
X146901816Y-69939000D01*
X146734184Y-69939000D01*
X146569772Y-69906297D01*
X146414900Y-69842147D01*
X146275519Y-69749015D01*
X146156985Y-69630481D01*
X146063853Y-69491100D01*
X145999703Y-69336228D01*
X145967000Y-69171816D01*
X145967000Y-69004184D01*
X145999703Y-68839772D01*
X146063853Y-68684900D01*
X146156985Y-68545519D01*
X146275519Y-68426985D01*
X146414900Y-68333853D01*
X146569772Y-68269703D01*
X146734184Y-68237000D01*
X146901816Y-68237000D01*
X147066228Y-68269703D01*
X147066228Y-68269703D01*
G37*
G36*
X144724392Y-68241042D02*
X144757951Y-68251222D01*
X144788882Y-68267756D01*
X144815994Y-68290006D01*
X144838244Y-68317118D01*
X144854778Y-68348049D01*
X144864958Y-68381608D01*
X144869000Y-68422652D01*
X144869000Y-69753348D01*
X144864958Y-69794392D01*
X144854778Y-69827951D01*
X144838244Y-69858882D01*
X144815994Y-69885994D01*
X144788882Y-69908244D01*
X144757951Y-69924778D01*
X144724392Y-69934958D01*
X144683348Y-69939000D01*
X143352652Y-69939000D01*
X143311608Y-69934958D01*
X143278049Y-69924778D01*
X143247118Y-69908244D01*
X143220006Y-69885994D01*
X143197756Y-69858882D01*
X143181222Y-69827951D01*
X143171042Y-69794392D01*
X143167000Y-69753348D01*
X143167000Y-68422652D01*
X143171042Y-68381608D01*
X143181222Y-68348049D01*
X143197756Y-68317118D01*
X143220006Y-68290006D01*
X143247118Y-68267756D01*
X143278049Y-68251222D01*
X143311608Y-68241042D01*
X143352652Y-68237000D01*
X144683348Y-68237000D01*
X144724392Y-68241042D01*
X144724392Y-68241042D01*
G37*
G36*
X155138392Y-68241042D02*
X155171951Y-68251222D01*
X155202882Y-68267756D01*
X155229994Y-68290006D01*
X155252244Y-68317118D01*
X155268778Y-68348049D01*
X155278958Y-68381608D01*
X155283000Y-68422652D01*
X155283000Y-69753348D01*
X155278958Y-69794392D01*
X155268778Y-69827951D01*
X155252244Y-69858882D01*
X155229994Y-69885994D01*
X155202882Y-69908244D01*
X155171951Y-69924778D01*
X155138392Y-69934958D01*
X155097348Y-69939000D01*
X153766652Y-69939000D01*
X153725608Y-69934958D01*
X153692049Y-69924778D01*
X153661118Y-69908244D01*
X153634006Y-69885994D01*
X153611756Y-69858882D01*
X153595222Y-69827951D01*
X153585042Y-69794392D01*
X153581000Y-69753348D01*
X153581000Y-68422652D01*
X153585042Y-68381608D01*
X153595222Y-68348049D01*
X153611756Y-68317118D01*
X153634006Y-68290006D01*
X153661118Y-68267756D01*
X153692049Y-68251222D01*
X153725608Y-68241042D01*
X153766652Y-68237000D01*
X155097348Y-68237000D01*
X155138392Y-68241042D01*
X155138392Y-68241042D01*
G37*
G36*
X136652228Y-68269703D02*
X136807100Y-68333853D01*
X136946481Y-68426985D01*
X137065015Y-68545519D01*
X137158147Y-68684900D01*
X137222297Y-68839772D01*
X137255000Y-69004184D01*
X137255000Y-69171816D01*
X137222297Y-69336228D01*
X137158147Y-69491100D01*
X137065015Y-69630481D01*
X136946481Y-69749015D01*
X136807100Y-69842147D01*
X136652228Y-69906297D01*
X136487816Y-69939000D01*
X136320184Y-69939000D01*
X136155772Y-69906297D01*
X136000900Y-69842147D01*
X135861519Y-69749015D01*
X135742985Y-69630481D01*
X135649853Y-69491100D01*
X135585703Y-69336228D01*
X135553000Y-69171816D01*
X135553000Y-69004184D01*
X135585703Y-68839772D01*
X135649853Y-68684900D01*
X135742985Y-68545519D01*
X135861519Y-68426985D01*
X136000900Y-68333853D01*
X136155772Y-68269703D01*
X136320184Y-68237000D01*
X136487816Y-68237000D01*
X136652228Y-68269703D01*
X136652228Y-68269703D01*
G37*
G36*
X134310392Y-68241042D02*
X134343951Y-68251222D01*
X134374882Y-68267756D01*
X134401994Y-68290006D01*
X134424244Y-68317118D01*
X134440778Y-68348049D01*
X134450958Y-68381608D01*
X134455000Y-68422652D01*
X134455000Y-69753348D01*
X134450958Y-69794392D01*
X134440778Y-69827951D01*
X134424244Y-69858882D01*
X134401994Y-69885994D01*
X134374882Y-69908244D01*
X134343951Y-69924778D01*
X134310392Y-69934958D01*
X134269348Y-69939000D01*
X132938652Y-69939000D01*
X132897608Y-69934958D01*
X132864049Y-69924778D01*
X132833118Y-69908244D01*
X132806006Y-69885994D01*
X132783756Y-69858882D01*
X132767222Y-69827951D01*
X132757042Y-69794392D01*
X132753000Y-69753348D01*
X132753000Y-68422652D01*
X132757042Y-68381608D01*
X132767222Y-68348049D01*
X132783756Y-68317118D01*
X132806006Y-68290006D01*
X132833118Y-68267756D01*
X132864049Y-68251222D01*
X132897608Y-68241042D01*
X132938652Y-68237000D01*
X134269348Y-68237000D01*
X134310392Y-68241042D01*
X134310392Y-68241042D01*
G37*
G36*
X157480228Y-68269703D02*
X157635100Y-68333853D01*
X157774481Y-68426985D01*
X157893015Y-68545519D01*
X157986147Y-68684900D01*
X158050297Y-68839772D01*
X158083000Y-69004184D01*
X158083000Y-69171816D01*
X158050297Y-69336228D01*
X157986147Y-69491100D01*
X157893015Y-69630481D01*
X157774481Y-69749015D01*
X157635100Y-69842147D01*
X157480228Y-69906297D01*
X157315816Y-69939000D01*
X157148184Y-69939000D01*
X156983772Y-69906297D01*
X156828900Y-69842147D01*
X156689519Y-69749015D01*
X156570985Y-69630481D01*
X156477853Y-69491100D01*
X156413703Y-69336228D01*
X156381000Y-69171816D01*
X156381000Y-69004184D01*
X156413703Y-68839772D01*
X156477853Y-68684900D01*
X156570985Y-68545519D01*
X156689519Y-68426985D01*
X156828900Y-68333853D01*
X156983772Y-68269703D01*
X157148184Y-68237000D01*
X157315816Y-68237000D01*
X157480228Y-68269703D01*
X157480228Y-68269703D01*
G37*
G36*
X123896392Y-68241042D02*
X123929951Y-68251222D01*
X123960882Y-68267756D01*
X123987994Y-68290006D01*
X124010244Y-68317118D01*
X124026778Y-68348049D01*
X124036958Y-68381608D01*
X124041000Y-68422652D01*
X124041000Y-69753348D01*
X124036958Y-69794392D01*
X124026778Y-69827951D01*
X124010244Y-69858882D01*
X123987994Y-69885994D01*
X123960882Y-69908244D01*
X123929951Y-69924778D01*
X123896392Y-69934958D01*
X123855348Y-69939000D01*
X122524652Y-69939000D01*
X122483608Y-69934958D01*
X122450049Y-69924778D01*
X122419118Y-69908244D01*
X122392006Y-69885994D01*
X122369756Y-69858882D01*
X122353222Y-69827951D01*
X122343042Y-69794392D01*
X122339000Y-69753348D01*
X122339000Y-68422652D01*
X122343042Y-68381608D01*
X122353222Y-68348049D01*
X122369756Y-68317118D01*
X122392006Y-68290006D01*
X122419118Y-68267756D01*
X122450049Y-68251222D01*
X122483608Y-68241042D01*
X122524652Y-68237000D01*
X123855348Y-68237000D01*
X123896392Y-68241042D01*
X123896392Y-68241042D01*
G37*
G36*
X126238228Y-68269703D02*
X126393100Y-68333853D01*
X126532481Y-68426985D01*
X126651015Y-68545519D01*
X126744147Y-68684900D01*
X126808297Y-68839772D01*
X126841000Y-69004184D01*
X126841000Y-69171816D01*
X126808297Y-69336228D01*
X126744147Y-69491100D01*
X126651015Y-69630481D01*
X126532481Y-69749015D01*
X126393100Y-69842147D01*
X126238228Y-69906297D01*
X126073816Y-69939000D01*
X125906184Y-69939000D01*
X125741772Y-69906297D01*
X125586900Y-69842147D01*
X125447519Y-69749015D01*
X125328985Y-69630481D01*
X125235853Y-69491100D01*
X125171703Y-69336228D01*
X125139000Y-69171816D01*
X125139000Y-69004184D01*
X125171703Y-68839772D01*
X125235853Y-68684900D01*
X125328985Y-68545519D01*
X125447519Y-68426985D01*
X125586900Y-68333853D01*
X125741772Y-68269703D01*
X125906184Y-68237000D01*
X126073816Y-68237000D01*
X126238228Y-68269703D01*
X126238228Y-68269703D01*
G37*
G36*
X115824228Y-68269703D02*
X115979100Y-68333853D01*
X116118481Y-68426985D01*
X116237015Y-68545519D01*
X116330147Y-68684900D01*
X116394297Y-68839772D01*
X116427000Y-69004184D01*
X116427000Y-69171816D01*
X116394297Y-69336228D01*
X116330147Y-69491100D01*
X116237015Y-69630481D01*
X116118481Y-69749015D01*
X115979100Y-69842147D01*
X115824228Y-69906297D01*
X115659816Y-69939000D01*
X115492184Y-69939000D01*
X115327772Y-69906297D01*
X115172900Y-69842147D01*
X115033519Y-69749015D01*
X114914985Y-69630481D01*
X114821853Y-69491100D01*
X114757703Y-69336228D01*
X114725000Y-69171816D01*
X114725000Y-69004184D01*
X114757703Y-68839772D01*
X114821853Y-68684900D01*
X114914985Y-68545519D01*
X115033519Y-68426985D01*
X115172900Y-68333853D01*
X115327772Y-68269703D01*
X115492184Y-68237000D01*
X115659816Y-68237000D01*
X115824228Y-68269703D01*
X115824228Y-68269703D01*
G37*
G36*
X113482392Y-68241042D02*
X113515951Y-68251222D01*
X113546882Y-68267756D01*
X113573994Y-68290006D01*
X113596244Y-68317118D01*
X113612778Y-68348049D01*
X113622958Y-68381608D01*
X113627000Y-68422652D01*
X113627000Y-69753348D01*
X113622958Y-69794392D01*
X113612778Y-69827951D01*
X113596244Y-69858882D01*
X113573994Y-69885994D01*
X113546882Y-69908244D01*
X113515951Y-69924778D01*
X113482392Y-69934958D01*
X113441348Y-69939000D01*
X112110652Y-69939000D01*
X112069608Y-69934958D01*
X112036049Y-69924778D01*
X112005118Y-69908244D01*
X111978006Y-69885994D01*
X111955756Y-69858882D01*
X111939222Y-69827951D01*
X111929042Y-69794392D01*
X111925000Y-69753348D01*
X111925000Y-68422652D01*
X111929042Y-68381608D01*
X111939222Y-68348049D01*
X111955756Y-68317118D01*
X111978006Y-68290006D01*
X112005118Y-68267756D01*
X112036049Y-68251222D01*
X112069608Y-68241042D01*
X112110652Y-68237000D01*
X113441348Y-68237000D01*
X113482392Y-68241042D01*
X113482392Y-68241042D01*
G37*
G36*
X103068392Y-68241042D02*
X103101951Y-68251222D01*
X103132882Y-68267756D01*
X103159994Y-68290006D01*
X103182244Y-68317118D01*
X103198778Y-68348049D01*
X103208958Y-68381608D01*
X103213000Y-68422652D01*
X103213000Y-69753348D01*
X103208958Y-69794392D01*
X103198778Y-69827951D01*
X103182244Y-69858882D01*
X103159994Y-69885994D01*
X103132882Y-69908244D01*
X103101951Y-69924778D01*
X103068392Y-69934958D01*
X103027348Y-69939000D01*
X101696652Y-69939000D01*
X101655608Y-69934958D01*
X101622049Y-69924778D01*
X101591118Y-69908244D01*
X101564006Y-69885994D01*
X101541756Y-69858882D01*
X101525222Y-69827951D01*
X101515042Y-69794392D01*
X101511000Y-69753348D01*
X101511000Y-68422652D01*
X101515042Y-68381608D01*
X101525222Y-68348049D01*
X101541756Y-68317118D01*
X101564006Y-68290006D01*
X101591118Y-68267756D01*
X101622049Y-68251222D01*
X101655608Y-68241042D01*
X101696652Y-68237000D01*
X103027348Y-68237000D01*
X103068392Y-68241042D01*
X103068392Y-68241042D01*
G37*
G36*
X105410228Y-68269703D02*
X105565100Y-68333853D01*
X105704481Y-68426985D01*
X105823015Y-68545519D01*
X105916147Y-68684900D01*
X105980297Y-68839772D01*
X106013000Y-69004184D01*
X106013000Y-69171816D01*
X105980297Y-69336228D01*
X105916147Y-69491100D01*
X105823015Y-69630481D01*
X105704481Y-69749015D01*
X105565100Y-69842147D01*
X105410228Y-69906297D01*
X105245816Y-69939000D01*
X105078184Y-69939000D01*
X104913772Y-69906297D01*
X104758900Y-69842147D01*
X104619519Y-69749015D01*
X104500985Y-69630481D01*
X104407853Y-69491100D01*
X104343703Y-69336228D01*
X104311000Y-69171816D01*
X104311000Y-69004184D01*
X104343703Y-68839772D01*
X104407853Y-68684900D01*
X104500985Y-68545519D01*
X104619519Y-68426985D01*
X104758900Y-68333853D01*
X104913772Y-68269703D01*
X105078184Y-68237000D01*
X105245816Y-68237000D01*
X105410228Y-68269703D01*
X105410228Y-68269703D01*
G37*
M02*
