M48
;DRILL file {KiCad (5.0.1-3-g963ef8bb5)} date 2018 November 27, Tuesday 10:47:27
;FORMAT={-:-/ absolute / inch / decimal}
FMAT,2
INCH,TZ
T1C0.0157
T2C0.0256
T3C0.0315
%
G90
G05
M72
T1
X4.28Y-3.02
X4.66Y-3.12
X4.7Y-3.08
X5.1802Y-3.3802
X5.1898Y-3.0398
X5.21Y-3.26
X5.26Y-3.35
X5.52Y-3.04
T2
X4.99Y-3.61
X5.04Y-3.61
X5.09Y-3.61
X5.14Y-3.61
X5.19Y-3.61
X5.24Y-3.61
T3
X4.44Y-2.72
X4.44Y-2.82
X4.5502Y-2.72
X4.5502Y-2.82
X4.03Y-2.72
X4.03Y-2.82
X4.1402Y-2.72
X4.1402Y-2.82
X4.85Y-2.72
X4.85Y-2.82
X4.9602Y-2.72
X4.9602Y-2.82
X5.26Y-2.72
X5.26Y-2.82
X5.3702Y-2.72
X5.3702Y-2.82
X6.08Y-2.72
X6.08Y-2.82
X6.1902Y-2.72
X6.1902Y-2.82
X4.76Y-3.17
X4.76Y-3.47
X4.86Y-3.17
X4.86Y-3.47
X4.96Y-3.17
X4.96Y-3.47
X5.06Y-3.17
X5.06Y-3.47
X5.16Y-3.17
X5.16Y-3.47
X5.26Y-3.17
X5.26Y-3.47
X5.36Y-3.17
X5.36Y-3.47
X5.46Y-3.17
X5.46Y-3.47
X5.67Y-2.72
X5.67Y-2.82
X5.7802Y-2.72
X5.7802Y-2.82
T0
M30
