%TF.GenerationSoftware,KiCad,Pcbnew,(5.0.1-3-g963ef8bb5)*%
%TF.CreationDate,2018-11-27T10:46:30+01:00*%
%TF.ProjectId,sensores,73656E736F7265732E6B696361645F70,rev?*%
%TF.SameCoordinates,Original*%
%TF.FileFunction,Copper,L2,Bot,Signal*%
%TF.FilePolarity,Positive*%
%FSLAX46Y46*%
G04 Gerber Fmt 4.6, Leading zero omitted, Abs format (unit mm)*
G04 Created by KiCad (PCBNEW (5.0.1-3-g963ef8bb5)) date 2018 November 27, Tuesday 10:46:30*
%MOMM*%
%LPD*%
G01*
G04 APERTURE LIST*
%ADD10C,0.150000*%
%ADD11C,0.200000*%
%ADD12R,1.000000X1.000000*%
%ADD13O,1.000000X1.000000*%
%ADD14C,0.100000*%
%ADD15C,1.150000*%
%ADD16C,1.600000*%
%ADD17R,1.600000X2.400000*%
%ADD18O,1.600000X2.400000*%
%ADD19C,0.800000*%
%ADD20C,0.250000*%
%ADD21C,0.254000*%
G04 APERTURE END LIST*
D10*
X134620000Y-95504000D02*
X134620000Y-97282000D01*
X124968000Y-95504000D02*
X124968000Y-97282000D01*
X124968000Y-95504000D02*
X134620000Y-95504000D01*
X139700000Y-97282000D02*
G75*
G02X134620000Y-97282000I-2540000J0D01*
G01*
X124968000Y-97282000D02*
G75*
G02X119888000Y-97282000I-2540000J0D01*
G01*
X141478000Y-82296000D02*
X141478000Y-92964000D01*
X118110000Y-82296000D02*
X118110000Y-92964000D01*
X100076000Y-78994000D02*
X114808000Y-78994000D01*
X98044000Y-66548000D02*
X98044000Y-76962000D01*
X159512000Y-64516000D02*
X100076000Y-64516000D01*
X161544000Y-76962000D02*
X161544000Y-66548000D01*
X144780000Y-78994000D02*
X159512000Y-78994000D01*
D11*
X141478000Y-82296000D02*
G75*
G02X144780000Y-78994000I3302000J0D01*
G01*
X114808000Y-78994000D02*
G75*
G02X118110000Y-82296000I0J-3302000D01*
G01*
X100076000Y-78994000D02*
G75*
G02X98044000Y-76962000I0J2032000D01*
G01*
X161544000Y-76962000D02*
G75*
G02X159512000Y-78994000I-2032000J0D01*
G01*
D10*
X159512000Y-64516000D02*
G75*
G02X161544000Y-66548000I0J-2032000D01*
G01*
X98044000Y-66548000D02*
G75*
G02X100076000Y-64516000I2032000J0D01*
G01*
X118110000Y-92964000D02*
X119888000Y-94234000D01*
X139700000Y-94234000D02*
X141478000Y-92964000D01*
X139700000Y-94234000D02*
X139700000Y-97282000D01*
X119888000Y-94234000D02*
X119888000Y-97282000D01*
D12*
X126746000Y-91694000D03*
D13*
X128016000Y-91694000D03*
X129286000Y-91694000D03*
X130556000Y-91694000D03*
X131826000Y-91694000D03*
X133096000Y-91694000D03*
D14*
G36*
X109440505Y-68759204D02*
X109464773Y-68762804D01*
X109488572Y-68768765D01*
X109511671Y-68777030D01*
X109533850Y-68787520D01*
X109554893Y-68800132D01*
X109574599Y-68814747D01*
X109592777Y-68831223D01*
X109609253Y-68849401D01*
X109623868Y-68869107D01*
X109636480Y-68890150D01*
X109646970Y-68912329D01*
X109655235Y-68935428D01*
X109661196Y-68959227D01*
X109664796Y-68983495D01*
X109666000Y-69007999D01*
X109666000Y-69658001D01*
X109664796Y-69682505D01*
X109661196Y-69706773D01*
X109655235Y-69730572D01*
X109646970Y-69753671D01*
X109636480Y-69775850D01*
X109623868Y-69796893D01*
X109609253Y-69816599D01*
X109592777Y-69834777D01*
X109574599Y-69851253D01*
X109554893Y-69865868D01*
X109533850Y-69878480D01*
X109511671Y-69888970D01*
X109488572Y-69897235D01*
X109464773Y-69903196D01*
X109440505Y-69906796D01*
X109416001Y-69908000D01*
X108515999Y-69908000D01*
X108491495Y-69906796D01*
X108467227Y-69903196D01*
X108443428Y-69897235D01*
X108420329Y-69888970D01*
X108398150Y-69878480D01*
X108377107Y-69865868D01*
X108357401Y-69851253D01*
X108339223Y-69834777D01*
X108322747Y-69816599D01*
X108308132Y-69796893D01*
X108295520Y-69775850D01*
X108285030Y-69753671D01*
X108276765Y-69730572D01*
X108270804Y-69706773D01*
X108267204Y-69682505D01*
X108266000Y-69658001D01*
X108266000Y-69007999D01*
X108267204Y-68983495D01*
X108270804Y-68959227D01*
X108276765Y-68935428D01*
X108285030Y-68912329D01*
X108295520Y-68890150D01*
X108308132Y-68869107D01*
X108322747Y-68849401D01*
X108339223Y-68831223D01*
X108357401Y-68814747D01*
X108377107Y-68800132D01*
X108398150Y-68787520D01*
X108420329Y-68777030D01*
X108443428Y-68768765D01*
X108467227Y-68762804D01*
X108491495Y-68759204D01*
X108515999Y-68758000D01*
X109416001Y-68758000D01*
X109440505Y-68759204D01*
X109440505Y-68759204D01*
G37*
D15*
X108966000Y-69333000D03*
D14*
G36*
X109440505Y-70809204D02*
X109464773Y-70812804D01*
X109488572Y-70818765D01*
X109511671Y-70827030D01*
X109533850Y-70837520D01*
X109554893Y-70850132D01*
X109574599Y-70864747D01*
X109592777Y-70881223D01*
X109609253Y-70899401D01*
X109623868Y-70919107D01*
X109636480Y-70940150D01*
X109646970Y-70962329D01*
X109655235Y-70985428D01*
X109661196Y-71009227D01*
X109664796Y-71033495D01*
X109666000Y-71057999D01*
X109666000Y-71708001D01*
X109664796Y-71732505D01*
X109661196Y-71756773D01*
X109655235Y-71780572D01*
X109646970Y-71803671D01*
X109636480Y-71825850D01*
X109623868Y-71846893D01*
X109609253Y-71866599D01*
X109592777Y-71884777D01*
X109574599Y-71901253D01*
X109554893Y-71915868D01*
X109533850Y-71928480D01*
X109511671Y-71938970D01*
X109488572Y-71947235D01*
X109464773Y-71953196D01*
X109440505Y-71956796D01*
X109416001Y-71958000D01*
X108515999Y-71958000D01*
X108491495Y-71956796D01*
X108467227Y-71953196D01*
X108443428Y-71947235D01*
X108420329Y-71938970D01*
X108398150Y-71928480D01*
X108377107Y-71915868D01*
X108357401Y-71901253D01*
X108339223Y-71884777D01*
X108322747Y-71866599D01*
X108308132Y-71846893D01*
X108295520Y-71825850D01*
X108285030Y-71803671D01*
X108276765Y-71780572D01*
X108270804Y-71756773D01*
X108267204Y-71732505D01*
X108266000Y-71708001D01*
X108266000Y-71057999D01*
X108267204Y-71033495D01*
X108270804Y-71009227D01*
X108276765Y-70985428D01*
X108285030Y-70962329D01*
X108295520Y-70940150D01*
X108308132Y-70919107D01*
X108322747Y-70899401D01*
X108339223Y-70881223D01*
X108357401Y-70864747D01*
X108377107Y-70850132D01*
X108398150Y-70837520D01*
X108420329Y-70827030D01*
X108443428Y-70818765D01*
X108467227Y-70812804D01*
X108491495Y-70809204D01*
X108515999Y-70808000D01*
X109416001Y-70808000D01*
X109440505Y-70809204D01*
X109440505Y-70809204D01*
G37*
D15*
X108966000Y-71383000D03*
D14*
G36*
X113361505Y-76009204D02*
X113385773Y-76012804D01*
X113409572Y-76018765D01*
X113432671Y-76027030D01*
X113454850Y-76037520D01*
X113475893Y-76050132D01*
X113495599Y-76064747D01*
X113513777Y-76081223D01*
X113530253Y-76099401D01*
X113544868Y-76119107D01*
X113557480Y-76140150D01*
X113567970Y-76162329D01*
X113576235Y-76185428D01*
X113582196Y-76209227D01*
X113585796Y-76233495D01*
X113587000Y-76257999D01*
X113587000Y-77158001D01*
X113585796Y-77182505D01*
X113582196Y-77206773D01*
X113576235Y-77230572D01*
X113567970Y-77253671D01*
X113557480Y-77275850D01*
X113544868Y-77296893D01*
X113530253Y-77316599D01*
X113513777Y-77334777D01*
X113495599Y-77351253D01*
X113475893Y-77365868D01*
X113454850Y-77378480D01*
X113432671Y-77388970D01*
X113409572Y-77397235D01*
X113385773Y-77403196D01*
X113361505Y-77406796D01*
X113337001Y-77408000D01*
X112686999Y-77408000D01*
X112662495Y-77406796D01*
X112638227Y-77403196D01*
X112614428Y-77397235D01*
X112591329Y-77388970D01*
X112569150Y-77378480D01*
X112548107Y-77365868D01*
X112528401Y-77351253D01*
X112510223Y-77334777D01*
X112493747Y-77316599D01*
X112479132Y-77296893D01*
X112466520Y-77275850D01*
X112456030Y-77253671D01*
X112447765Y-77230572D01*
X112441804Y-77206773D01*
X112438204Y-77182505D01*
X112437000Y-77158001D01*
X112437000Y-76257999D01*
X112438204Y-76233495D01*
X112441804Y-76209227D01*
X112447765Y-76185428D01*
X112456030Y-76162329D01*
X112466520Y-76140150D01*
X112479132Y-76119107D01*
X112493747Y-76099401D01*
X112510223Y-76081223D01*
X112528401Y-76064747D01*
X112548107Y-76050132D01*
X112569150Y-76037520D01*
X112591329Y-76027030D01*
X112614428Y-76018765D01*
X112638227Y-76012804D01*
X112662495Y-76009204D01*
X112686999Y-76008000D01*
X113337001Y-76008000D01*
X113361505Y-76009204D01*
X113361505Y-76009204D01*
G37*
D15*
X113012000Y-76708000D03*
D14*
G36*
X115411505Y-76009204D02*
X115435773Y-76012804D01*
X115459572Y-76018765D01*
X115482671Y-76027030D01*
X115504850Y-76037520D01*
X115525893Y-76050132D01*
X115545599Y-76064747D01*
X115563777Y-76081223D01*
X115580253Y-76099401D01*
X115594868Y-76119107D01*
X115607480Y-76140150D01*
X115617970Y-76162329D01*
X115626235Y-76185428D01*
X115632196Y-76209227D01*
X115635796Y-76233495D01*
X115637000Y-76257999D01*
X115637000Y-77158001D01*
X115635796Y-77182505D01*
X115632196Y-77206773D01*
X115626235Y-77230572D01*
X115617970Y-77253671D01*
X115607480Y-77275850D01*
X115594868Y-77296893D01*
X115580253Y-77316599D01*
X115563777Y-77334777D01*
X115545599Y-77351253D01*
X115525893Y-77365868D01*
X115504850Y-77378480D01*
X115482671Y-77388970D01*
X115459572Y-77397235D01*
X115435773Y-77403196D01*
X115411505Y-77406796D01*
X115387001Y-77408000D01*
X114736999Y-77408000D01*
X114712495Y-77406796D01*
X114688227Y-77403196D01*
X114664428Y-77397235D01*
X114641329Y-77388970D01*
X114619150Y-77378480D01*
X114598107Y-77365868D01*
X114578401Y-77351253D01*
X114560223Y-77334777D01*
X114543747Y-77316599D01*
X114529132Y-77296893D01*
X114516520Y-77275850D01*
X114506030Y-77253671D01*
X114497765Y-77230572D01*
X114491804Y-77206773D01*
X114488204Y-77182505D01*
X114487000Y-77158001D01*
X114487000Y-76257999D01*
X114488204Y-76233495D01*
X114491804Y-76209227D01*
X114497765Y-76185428D01*
X114506030Y-76162329D01*
X114516520Y-76140150D01*
X114529132Y-76119107D01*
X114543747Y-76099401D01*
X114560223Y-76081223D01*
X114578401Y-76064747D01*
X114598107Y-76050132D01*
X114619150Y-76037520D01*
X114641329Y-76027030D01*
X114664428Y-76018765D01*
X114688227Y-76012804D01*
X114712495Y-76009204D01*
X114736999Y-76008000D01*
X115387001Y-76008000D01*
X115411505Y-76009204D01*
X115411505Y-76009204D01*
G37*
D15*
X115062000Y-76708000D03*
D14*
G36*
X103201505Y-76009204D02*
X103225773Y-76012804D01*
X103249572Y-76018765D01*
X103272671Y-76027030D01*
X103294850Y-76037520D01*
X103315893Y-76050132D01*
X103335599Y-76064747D01*
X103353777Y-76081223D01*
X103370253Y-76099401D01*
X103384868Y-76119107D01*
X103397480Y-76140150D01*
X103407970Y-76162329D01*
X103416235Y-76185428D01*
X103422196Y-76209227D01*
X103425796Y-76233495D01*
X103427000Y-76257999D01*
X103427000Y-77158001D01*
X103425796Y-77182505D01*
X103422196Y-77206773D01*
X103416235Y-77230572D01*
X103407970Y-77253671D01*
X103397480Y-77275850D01*
X103384868Y-77296893D01*
X103370253Y-77316599D01*
X103353777Y-77334777D01*
X103335599Y-77351253D01*
X103315893Y-77365868D01*
X103294850Y-77378480D01*
X103272671Y-77388970D01*
X103249572Y-77397235D01*
X103225773Y-77403196D01*
X103201505Y-77406796D01*
X103177001Y-77408000D01*
X102526999Y-77408000D01*
X102502495Y-77406796D01*
X102478227Y-77403196D01*
X102454428Y-77397235D01*
X102431329Y-77388970D01*
X102409150Y-77378480D01*
X102388107Y-77365868D01*
X102368401Y-77351253D01*
X102350223Y-77334777D01*
X102333747Y-77316599D01*
X102319132Y-77296893D01*
X102306520Y-77275850D01*
X102296030Y-77253671D01*
X102287765Y-77230572D01*
X102281804Y-77206773D01*
X102278204Y-77182505D01*
X102277000Y-77158001D01*
X102277000Y-76257999D01*
X102278204Y-76233495D01*
X102281804Y-76209227D01*
X102287765Y-76185428D01*
X102296030Y-76162329D01*
X102306520Y-76140150D01*
X102319132Y-76119107D01*
X102333747Y-76099401D01*
X102350223Y-76081223D01*
X102368401Y-76064747D01*
X102388107Y-76050132D01*
X102409150Y-76037520D01*
X102431329Y-76027030D01*
X102454428Y-76018765D01*
X102478227Y-76012804D01*
X102502495Y-76009204D01*
X102526999Y-76008000D01*
X103177001Y-76008000D01*
X103201505Y-76009204D01*
X103201505Y-76009204D01*
G37*
D15*
X102852000Y-76708000D03*
D14*
G36*
X105251505Y-76009204D02*
X105275773Y-76012804D01*
X105299572Y-76018765D01*
X105322671Y-76027030D01*
X105344850Y-76037520D01*
X105365893Y-76050132D01*
X105385599Y-76064747D01*
X105403777Y-76081223D01*
X105420253Y-76099401D01*
X105434868Y-76119107D01*
X105447480Y-76140150D01*
X105457970Y-76162329D01*
X105466235Y-76185428D01*
X105472196Y-76209227D01*
X105475796Y-76233495D01*
X105477000Y-76257999D01*
X105477000Y-77158001D01*
X105475796Y-77182505D01*
X105472196Y-77206773D01*
X105466235Y-77230572D01*
X105457970Y-77253671D01*
X105447480Y-77275850D01*
X105434868Y-77296893D01*
X105420253Y-77316599D01*
X105403777Y-77334777D01*
X105385599Y-77351253D01*
X105365893Y-77365868D01*
X105344850Y-77378480D01*
X105322671Y-77388970D01*
X105299572Y-77397235D01*
X105275773Y-77403196D01*
X105251505Y-77406796D01*
X105227001Y-77408000D01*
X104576999Y-77408000D01*
X104552495Y-77406796D01*
X104528227Y-77403196D01*
X104504428Y-77397235D01*
X104481329Y-77388970D01*
X104459150Y-77378480D01*
X104438107Y-77365868D01*
X104418401Y-77351253D01*
X104400223Y-77334777D01*
X104383747Y-77316599D01*
X104369132Y-77296893D01*
X104356520Y-77275850D01*
X104346030Y-77253671D01*
X104337765Y-77230572D01*
X104331804Y-77206773D01*
X104328204Y-77182505D01*
X104327000Y-77158001D01*
X104327000Y-76257999D01*
X104328204Y-76233495D01*
X104331804Y-76209227D01*
X104337765Y-76185428D01*
X104346030Y-76162329D01*
X104356520Y-76140150D01*
X104369132Y-76119107D01*
X104383747Y-76099401D01*
X104400223Y-76081223D01*
X104418401Y-76064747D01*
X104438107Y-76050132D01*
X104459150Y-76037520D01*
X104481329Y-76027030D01*
X104504428Y-76018765D01*
X104528227Y-76012804D01*
X104552495Y-76009204D01*
X104576999Y-76008000D01*
X105227001Y-76008000D01*
X105251505Y-76009204D01*
X105251505Y-76009204D01*
G37*
D15*
X104902000Y-76708000D03*
D14*
G36*
X130014505Y-70818204D02*
X130038773Y-70821804D01*
X130062572Y-70827765D01*
X130085671Y-70836030D01*
X130107850Y-70846520D01*
X130128893Y-70859132D01*
X130148599Y-70873747D01*
X130166777Y-70890223D01*
X130183253Y-70908401D01*
X130197868Y-70928107D01*
X130210480Y-70949150D01*
X130220970Y-70971329D01*
X130229235Y-70994428D01*
X130235196Y-71018227D01*
X130238796Y-71042495D01*
X130240000Y-71066999D01*
X130240000Y-71717001D01*
X130238796Y-71741505D01*
X130235196Y-71765773D01*
X130229235Y-71789572D01*
X130220970Y-71812671D01*
X130210480Y-71834850D01*
X130197868Y-71855893D01*
X130183253Y-71875599D01*
X130166777Y-71893777D01*
X130148599Y-71910253D01*
X130128893Y-71924868D01*
X130107850Y-71937480D01*
X130085671Y-71947970D01*
X130062572Y-71956235D01*
X130038773Y-71962196D01*
X130014505Y-71965796D01*
X129990001Y-71967000D01*
X129089999Y-71967000D01*
X129065495Y-71965796D01*
X129041227Y-71962196D01*
X129017428Y-71956235D01*
X128994329Y-71947970D01*
X128972150Y-71937480D01*
X128951107Y-71924868D01*
X128931401Y-71910253D01*
X128913223Y-71893777D01*
X128896747Y-71875599D01*
X128882132Y-71855893D01*
X128869520Y-71834850D01*
X128859030Y-71812671D01*
X128850765Y-71789572D01*
X128844804Y-71765773D01*
X128841204Y-71741505D01*
X128840000Y-71717001D01*
X128840000Y-71066999D01*
X128841204Y-71042495D01*
X128844804Y-71018227D01*
X128850765Y-70994428D01*
X128859030Y-70971329D01*
X128869520Y-70949150D01*
X128882132Y-70928107D01*
X128896747Y-70908401D01*
X128913223Y-70890223D01*
X128931401Y-70873747D01*
X128951107Y-70859132D01*
X128972150Y-70846520D01*
X128994329Y-70836030D01*
X129017428Y-70827765D01*
X129041227Y-70821804D01*
X129065495Y-70818204D01*
X129089999Y-70817000D01*
X129990001Y-70817000D01*
X130014505Y-70818204D01*
X130014505Y-70818204D01*
G37*
D15*
X129540000Y-71392000D03*
D14*
G36*
X130014505Y-68768204D02*
X130038773Y-68771804D01*
X130062572Y-68777765D01*
X130085671Y-68786030D01*
X130107850Y-68796520D01*
X130128893Y-68809132D01*
X130148599Y-68823747D01*
X130166777Y-68840223D01*
X130183253Y-68858401D01*
X130197868Y-68878107D01*
X130210480Y-68899150D01*
X130220970Y-68921329D01*
X130229235Y-68944428D01*
X130235196Y-68968227D01*
X130238796Y-68992495D01*
X130240000Y-69016999D01*
X130240000Y-69667001D01*
X130238796Y-69691505D01*
X130235196Y-69715773D01*
X130229235Y-69739572D01*
X130220970Y-69762671D01*
X130210480Y-69784850D01*
X130197868Y-69805893D01*
X130183253Y-69825599D01*
X130166777Y-69843777D01*
X130148599Y-69860253D01*
X130128893Y-69874868D01*
X130107850Y-69887480D01*
X130085671Y-69897970D01*
X130062572Y-69906235D01*
X130038773Y-69912196D01*
X130014505Y-69915796D01*
X129990001Y-69917000D01*
X129089999Y-69917000D01*
X129065495Y-69915796D01*
X129041227Y-69912196D01*
X129017428Y-69906235D01*
X128994329Y-69897970D01*
X128972150Y-69887480D01*
X128951107Y-69874868D01*
X128931401Y-69860253D01*
X128913223Y-69843777D01*
X128896747Y-69825599D01*
X128882132Y-69805893D01*
X128869520Y-69784850D01*
X128859030Y-69762671D01*
X128850765Y-69739572D01*
X128844804Y-69715773D01*
X128841204Y-69691505D01*
X128840000Y-69667001D01*
X128840000Y-69016999D01*
X128841204Y-68992495D01*
X128844804Y-68968227D01*
X128850765Y-68944428D01*
X128859030Y-68921329D01*
X128869520Y-68899150D01*
X128882132Y-68878107D01*
X128896747Y-68858401D01*
X128913223Y-68840223D01*
X128931401Y-68823747D01*
X128951107Y-68809132D01*
X128972150Y-68796520D01*
X128994329Y-68786030D01*
X129017428Y-68777765D01*
X129041227Y-68771804D01*
X129065495Y-68768204D01*
X129089999Y-68767000D01*
X129990001Y-68767000D01*
X130014505Y-68768204D01*
X130014505Y-68768204D01*
G37*
D15*
X129540000Y-69342000D03*
D14*
G36*
X135985505Y-76009204D02*
X136009773Y-76012804D01*
X136033572Y-76018765D01*
X136056671Y-76027030D01*
X136078850Y-76037520D01*
X136099893Y-76050132D01*
X136119599Y-76064747D01*
X136137777Y-76081223D01*
X136154253Y-76099401D01*
X136168868Y-76119107D01*
X136181480Y-76140150D01*
X136191970Y-76162329D01*
X136200235Y-76185428D01*
X136206196Y-76209227D01*
X136209796Y-76233495D01*
X136211000Y-76257999D01*
X136211000Y-77158001D01*
X136209796Y-77182505D01*
X136206196Y-77206773D01*
X136200235Y-77230572D01*
X136191970Y-77253671D01*
X136181480Y-77275850D01*
X136168868Y-77296893D01*
X136154253Y-77316599D01*
X136137777Y-77334777D01*
X136119599Y-77351253D01*
X136099893Y-77365868D01*
X136078850Y-77378480D01*
X136056671Y-77388970D01*
X136033572Y-77397235D01*
X136009773Y-77403196D01*
X135985505Y-77406796D01*
X135961001Y-77408000D01*
X135310999Y-77408000D01*
X135286495Y-77406796D01*
X135262227Y-77403196D01*
X135238428Y-77397235D01*
X135215329Y-77388970D01*
X135193150Y-77378480D01*
X135172107Y-77365868D01*
X135152401Y-77351253D01*
X135134223Y-77334777D01*
X135117747Y-77316599D01*
X135103132Y-77296893D01*
X135090520Y-77275850D01*
X135080030Y-77253671D01*
X135071765Y-77230572D01*
X135065804Y-77206773D01*
X135062204Y-77182505D01*
X135061000Y-77158001D01*
X135061000Y-76257999D01*
X135062204Y-76233495D01*
X135065804Y-76209227D01*
X135071765Y-76185428D01*
X135080030Y-76162329D01*
X135090520Y-76140150D01*
X135103132Y-76119107D01*
X135117747Y-76099401D01*
X135134223Y-76081223D01*
X135152401Y-76064747D01*
X135172107Y-76050132D01*
X135193150Y-76037520D01*
X135215329Y-76027030D01*
X135238428Y-76018765D01*
X135262227Y-76012804D01*
X135286495Y-76009204D01*
X135310999Y-76008000D01*
X135961001Y-76008000D01*
X135985505Y-76009204D01*
X135985505Y-76009204D01*
G37*
D15*
X135636000Y-76708000D03*
D14*
G36*
X133935505Y-76009204D02*
X133959773Y-76012804D01*
X133983572Y-76018765D01*
X134006671Y-76027030D01*
X134028850Y-76037520D01*
X134049893Y-76050132D01*
X134069599Y-76064747D01*
X134087777Y-76081223D01*
X134104253Y-76099401D01*
X134118868Y-76119107D01*
X134131480Y-76140150D01*
X134141970Y-76162329D01*
X134150235Y-76185428D01*
X134156196Y-76209227D01*
X134159796Y-76233495D01*
X134161000Y-76257999D01*
X134161000Y-77158001D01*
X134159796Y-77182505D01*
X134156196Y-77206773D01*
X134150235Y-77230572D01*
X134141970Y-77253671D01*
X134131480Y-77275850D01*
X134118868Y-77296893D01*
X134104253Y-77316599D01*
X134087777Y-77334777D01*
X134069599Y-77351253D01*
X134049893Y-77365868D01*
X134028850Y-77378480D01*
X134006671Y-77388970D01*
X133983572Y-77397235D01*
X133959773Y-77403196D01*
X133935505Y-77406796D01*
X133911001Y-77408000D01*
X133260999Y-77408000D01*
X133236495Y-77406796D01*
X133212227Y-77403196D01*
X133188428Y-77397235D01*
X133165329Y-77388970D01*
X133143150Y-77378480D01*
X133122107Y-77365868D01*
X133102401Y-77351253D01*
X133084223Y-77334777D01*
X133067747Y-77316599D01*
X133053132Y-77296893D01*
X133040520Y-77275850D01*
X133030030Y-77253671D01*
X133021765Y-77230572D01*
X133015804Y-77206773D01*
X133012204Y-77182505D01*
X133011000Y-77158001D01*
X133011000Y-76257999D01*
X133012204Y-76233495D01*
X133015804Y-76209227D01*
X133021765Y-76185428D01*
X133030030Y-76162329D01*
X133040520Y-76140150D01*
X133053132Y-76119107D01*
X133067747Y-76099401D01*
X133084223Y-76081223D01*
X133102401Y-76064747D01*
X133122107Y-76050132D01*
X133143150Y-76037520D01*
X133165329Y-76027030D01*
X133188428Y-76018765D01*
X133212227Y-76012804D01*
X133236495Y-76009204D01*
X133260999Y-76008000D01*
X133911001Y-76008000D01*
X133935505Y-76009204D01*
X133935505Y-76009204D01*
G37*
D15*
X133586000Y-76708000D03*
D14*
G36*
X123775505Y-76009204D02*
X123799773Y-76012804D01*
X123823572Y-76018765D01*
X123846671Y-76027030D01*
X123868850Y-76037520D01*
X123889893Y-76050132D01*
X123909599Y-76064747D01*
X123927777Y-76081223D01*
X123944253Y-76099401D01*
X123958868Y-76119107D01*
X123971480Y-76140150D01*
X123981970Y-76162329D01*
X123990235Y-76185428D01*
X123996196Y-76209227D01*
X123999796Y-76233495D01*
X124001000Y-76257999D01*
X124001000Y-77158001D01*
X123999796Y-77182505D01*
X123996196Y-77206773D01*
X123990235Y-77230572D01*
X123981970Y-77253671D01*
X123971480Y-77275850D01*
X123958868Y-77296893D01*
X123944253Y-77316599D01*
X123927777Y-77334777D01*
X123909599Y-77351253D01*
X123889893Y-77365868D01*
X123868850Y-77378480D01*
X123846671Y-77388970D01*
X123823572Y-77397235D01*
X123799773Y-77403196D01*
X123775505Y-77406796D01*
X123751001Y-77408000D01*
X123100999Y-77408000D01*
X123076495Y-77406796D01*
X123052227Y-77403196D01*
X123028428Y-77397235D01*
X123005329Y-77388970D01*
X122983150Y-77378480D01*
X122962107Y-77365868D01*
X122942401Y-77351253D01*
X122924223Y-77334777D01*
X122907747Y-77316599D01*
X122893132Y-77296893D01*
X122880520Y-77275850D01*
X122870030Y-77253671D01*
X122861765Y-77230572D01*
X122855804Y-77206773D01*
X122852204Y-77182505D01*
X122851000Y-77158001D01*
X122851000Y-76257999D01*
X122852204Y-76233495D01*
X122855804Y-76209227D01*
X122861765Y-76185428D01*
X122870030Y-76162329D01*
X122880520Y-76140150D01*
X122893132Y-76119107D01*
X122907747Y-76099401D01*
X122924223Y-76081223D01*
X122942401Y-76064747D01*
X122962107Y-76050132D01*
X122983150Y-76037520D01*
X123005329Y-76027030D01*
X123028428Y-76018765D01*
X123052227Y-76012804D01*
X123076495Y-76009204D01*
X123100999Y-76008000D01*
X123751001Y-76008000D01*
X123775505Y-76009204D01*
X123775505Y-76009204D01*
G37*
D15*
X123426000Y-76708000D03*
D14*
G36*
X125825505Y-76009204D02*
X125849773Y-76012804D01*
X125873572Y-76018765D01*
X125896671Y-76027030D01*
X125918850Y-76037520D01*
X125939893Y-76050132D01*
X125959599Y-76064747D01*
X125977777Y-76081223D01*
X125994253Y-76099401D01*
X126008868Y-76119107D01*
X126021480Y-76140150D01*
X126031970Y-76162329D01*
X126040235Y-76185428D01*
X126046196Y-76209227D01*
X126049796Y-76233495D01*
X126051000Y-76257999D01*
X126051000Y-77158001D01*
X126049796Y-77182505D01*
X126046196Y-77206773D01*
X126040235Y-77230572D01*
X126031970Y-77253671D01*
X126021480Y-77275850D01*
X126008868Y-77296893D01*
X125994253Y-77316599D01*
X125977777Y-77334777D01*
X125959599Y-77351253D01*
X125939893Y-77365868D01*
X125918850Y-77378480D01*
X125896671Y-77388970D01*
X125873572Y-77397235D01*
X125849773Y-77403196D01*
X125825505Y-77406796D01*
X125801001Y-77408000D01*
X125150999Y-77408000D01*
X125126495Y-77406796D01*
X125102227Y-77403196D01*
X125078428Y-77397235D01*
X125055329Y-77388970D01*
X125033150Y-77378480D01*
X125012107Y-77365868D01*
X124992401Y-77351253D01*
X124974223Y-77334777D01*
X124957747Y-77316599D01*
X124943132Y-77296893D01*
X124930520Y-77275850D01*
X124920030Y-77253671D01*
X124911765Y-77230572D01*
X124905804Y-77206773D01*
X124902204Y-77182505D01*
X124901000Y-77158001D01*
X124901000Y-76257999D01*
X124902204Y-76233495D01*
X124905804Y-76209227D01*
X124911765Y-76185428D01*
X124920030Y-76162329D01*
X124930520Y-76140150D01*
X124943132Y-76119107D01*
X124957747Y-76099401D01*
X124974223Y-76081223D01*
X124992401Y-76064747D01*
X125012107Y-76050132D01*
X125033150Y-76037520D01*
X125055329Y-76027030D01*
X125078428Y-76018765D01*
X125102227Y-76012804D01*
X125126495Y-76009204D01*
X125150999Y-76008000D01*
X125801001Y-76008000D01*
X125825505Y-76009204D01*
X125825505Y-76009204D01*
G37*
D15*
X125476000Y-76708000D03*
D14*
G36*
X150588505Y-68768204D02*
X150612773Y-68771804D01*
X150636572Y-68777765D01*
X150659671Y-68786030D01*
X150681850Y-68796520D01*
X150702893Y-68809132D01*
X150722599Y-68823747D01*
X150740777Y-68840223D01*
X150757253Y-68858401D01*
X150771868Y-68878107D01*
X150784480Y-68899150D01*
X150794970Y-68921329D01*
X150803235Y-68944428D01*
X150809196Y-68968227D01*
X150812796Y-68992495D01*
X150814000Y-69016999D01*
X150814000Y-69667001D01*
X150812796Y-69691505D01*
X150809196Y-69715773D01*
X150803235Y-69739572D01*
X150794970Y-69762671D01*
X150784480Y-69784850D01*
X150771868Y-69805893D01*
X150757253Y-69825599D01*
X150740777Y-69843777D01*
X150722599Y-69860253D01*
X150702893Y-69874868D01*
X150681850Y-69887480D01*
X150659671Y-69897970D01*
X150636572Y-69906235D01*
X150612773Y-69912196D01*
X150588505Y-69915796D01*
X150564001Y-69917000D01*
X149663999Y-69917000D01*
X149639495Y-69915796D01*
X149615227Y-69912196D01*
X149591428Y-69906235D01*
X149568329Y-69897970D01*
X149546150Y-69887480D01*
X149525107Y-69874868D01*
X149505401Y-69860253D01*
X149487223Y-69843777D01*
X149470747Y-69825599D01*
X149456132Y-69805893D01*
X149443520Y-69784850D01*
X149433030Y-69762671D01*
X149424765Y-69739572D01*
X149418804Y-69715773D01*
X149415204Y-69691505D01*
X149414000Y-69667001D01*
X149414000Y-69016999D01*
X149415204Y-68992495D01*
X149418804Y-68968227D01*
X149424765Y-68944428D01*
X149433030Y-68921329D01*
X149443520Y-68899150D01*
X149456132Y-68878107D01*
X149470747Y-68858401D01*
X149487223Y-68840223D01*
X149505401Y-68823747D01*
X149525107Y-68809132D01*
X149546150Y-68796520D01*
X149568329Y-68786030D01*
X149591428Y-68777765D01*
X149615227Y-68771804D01*
X149639495Y-68768204D01*
X149663999Y-68767000D01*
X150564001Y-68767000D01*
X150588505Y-68768204D01*
X150588505Y-68768204D01*
G37*
D15*
X150114000Y-69342000D03*
D14*
G36*
X150588505Y-70818204D02*
X150612773Y-70821804D01*
X150636572Y-70827765D01*
X150659671Y-70836030D01*
X150681850Y-70846520D01*
X150702893Y-70859132D01*
X150722599Y-70873747D01*
X150740777Y-70890223D01*
X150757253Y-70908401D01*
X150771868Y-70928107D01*
X150784480Y-70949150D01*
X150794970Y-70971329D01*
X150803235Y-70994428D01*
X150809196Y-71018227D01*
X150812796Y-71042495D01*
X150814000Y-71066999D01*
X150814000Y-71717001D01*
X150812796Y-71741505D01*
X150809196Y-71765773D01*
X150803235Y-71789572D01*
X150794970Y-71812671D01*
X150784480Y-71834850D01*
X150771868Y-71855893D01*
X150757253Y-71875599D01*
X150740777Y-71893777D01*
X150722599Y-71910253D01*
X150702893Y-71924868D01*
X150681850Y-71937480D01*
X150659671Y-71947970D01*
X150636572Y-71956235D01*
X150612773Y-71962196D01*
X150588505Y-71965796D01*
X150564001Y-71967000D01*
X149663999Y-71967000D01*
X149639495Y-71965796D01*
X149615227Y-71962196D01*
X149591428Y-71956235D01*
X149568329Y-71947970D01*
X149546150Y-71937480D01*
X149525107Y-71924868D01*
X149505401Y-71910253D01*
X149487223Y-71893777D01*
X149470747Y-71875599D01*
X149456132Y-71855893D01*
X149443520Y-71834850D01*
X149433030Y-71812671D01*
X149424765Y-71789572D01*
X149418804Y-71765773D01*
X149415204Y-71741505D01*
X149414000Y-71717001D01*
X149414000Y-71066999D01*
X149415204Y-71042495D01*
X149418804Y-71018227D01*
X149424765Y-70994428D01*
X149433030Y-70971329D01*
X149443520Y-70949150D01*
X149456132Y-70928107D01*
X149470747Y-70908401D01*
X149487223Y-70890223D01*
X149505401Y-70873747D01*
X149525107Y-70859132D01*
X149546150Y-70846520D01*
X149568329Y-70836030D01*
X149591428Y-70827765D01*
X149615227Y-70821804D01*
X149639495Y-70818204D01*
X149663999Y-70817000D01*
X150564001Y-70817000D01*
X150588505Y-70818204D01*
X150588505Y-70818204D01*
G37*
D15*
X150114000Y-71392000D03*
D14*
G36*
X146399505Y-76009204D02*
X146423773Y-76012804D01*
X146447572Y-76018765D01*
X146470671Y-76027030D01*
X146492850Y-76037520D01*
X146513893Y-76050132D01*
X146533599Y-76064747D01*
X146551777Y-76081223D01*
X146568253Y-76099401D01*
X146582868Y-76119107D01*
X146595480Y-76140150D01*
X146605970Y-76162329D01*
X146614235Y-76185428D01*
X146620196Y-76209227D01*
X146623796Y-76233495D01*
X146625000Y-76257999D01*
X146625000Y-77158001D01*
X146623796Y-77182505D01*
X146620196Y-77206773D01*
X146614235Y-77230572D01*
X146605970Y-77253671D01*
X146595480Y-77275850D01*
X146582868Y-77296893D01*
X146568253Y-77316599D01*
X146551777Y-77334777D01*
X146533599Y-77351253D01*
X146513893Y-77365868D01*
X146492850Y-77378480D01*
X146470671Y-77388970D01*
X146447572Y-77397235D01*
X146423773Y-77403196D01*
X146399505Y-77406796D01*
X146375001Y-77408000D01*
X145724999Y-77408000D01*
X145700495Y-77406796D01*
X145676227Y-77403196D01*
X145652428Y-77397235D01*
X145629329Y-77388970D01*
X145607150Y-77378480D01*
X145586107Y-77365868D01*
X145566401Y-77351253D01*
X145548223Y-77334777D01*
X145531747Y-77316599D01*
X145517132Y-77296893D01*
X145504520Y-77275850D01*
X145494030Y-77253671D01*
X145485765Y-77230572D01*
X145479804Y-77206773D01*
X145476204Y-77182505D01*
X145475000Y-77158001D01*
X145475000Y-76257999D01*
X145476204Y-76233495D01*
X145479804Y-76209227D01*
X145485765Y-76185428D01*
X145494030Y-76162329D01*
X145504520Y-76140150D01*
X145517132Y-76119107D01*
X145531747Y-76099401D01*
X145548223Y-76081223D01*
X145566401Y-76064747D01*
X145586107Y-76050132D01*
X145607150Y-76037520D01*
X145629329Y-76027030D01*
X145652428Y-76018765D01*
X145676227Y-76012804D01*
X145700495Y-76009204D01*
X145724999Y-76008000D01*
X146375001Y-76008000D01*
X146399505Y-76009204D01*
X146399505Y-76009204D01*
G37*
D15*
X146050000Y-76708000D03*
D14*
G36*
X144349505Y-76009204D02*
X144373773Y-76012804D01*
X144397572Y-76018765D01*
X144420671Y-76027030D01*
X144442850Y-76037520D01*
X144463893Y-76050132D01*
X144483599Y-76064747D01*
X144501777Y-76081223D01*
X144518253Y-76099401D01*
X144532868Y-76119107D01*
X144545480Y-76140150D01*
X144555970Y-76162329D01*
X144564235Y-76185428D01*
X144570196Y-76209227D01*
X144573796Y-76233495D01*
X144575000Y-76257999D01*
X144575000Y-77158001D01*
X144573796Y-77182505D01*
X144570196Y-77206773D01*
X144564235Y-77230572D01*
X144555970Y-77253671D01*
X144545480Y-77275850D01*
X144532868Y-77296893D01*
X144518253Y-77316599D01*
X144501777Y-77334777D01*
X144483599Y-77351253D01*
X144463893Y-77365868D01*
X144442850Y-77378480D01*
X144420671Y-77388970D01*
X144397572Y-77397235D01*
X144373773Y-77403196D01*
X144349505Y-77406796D01*
X144325001Y-77408000D01*
X143674999Y-77408000D01*
X143650495Y-77406796D01*
X143626227Y-77403196D01*
X143602428Y-77397235D01*
X143579329Y-77388970D01*
X143557150Y-77378480D01*
X143536107Y-77365868D01*
X143516401Y-77351253D01*
X143498223Y-77334777D01*
X143481747Y-77316599D01*
X143467132Y-77296893D01*
X143454520Y-77275850D01*
X143444030Y-77253671D01*
X143435765Y-77230572D01*
X143429804Y-77206773D01*
X143426204Y-77182505D01*
X143425000Y-77158001D01*
X143425000Y-76257999D01*
X143426204Y-76233495D01*
X143429804Y-76209227D01*
X143435765Y-76185428D01*
X143444030Y-76162329D01*
X143454520Y-76140150D01*
X143467132Y-76119107D01*
X143481747Y-76099401D01*
X143498223Y-76081223D01*
X143516401Y-76064747D01*
X143536107Y-76050132D01*
X143557150Y-76037520D01*
X143579329Y-76027030D01*
X143602428Y-76018765D01*
X143626227Y-76012804D01*
X143650495Y-76009204D01*
X143674999Y-76008000D01*
X144325001Y-76008000D01*
X144349505Y-76009204D01*
X144349505Y-76009204D01*
G37*
D15*
X144000000Y-76708000D03*
D14*
G36*
X156305505Y-76009204D02*
X156329773Y-76012804D01*
X156353572Y-76018765D01*
X156376671Y-76027030D01*
X156398850Y-76037520D01*
X156419893Y-76050132D01*
X156439599Y-76064747D01*
X156457777Y-76081223D01*
X156474253Y-76099401D01*
X156488868Y-76119107D01*
X156501480Y-76140150D01*
X156511970Y-76162329D01*
X156520235Y-76185428D01*
X156526196Y-76209227D01*
X156529796Y-76233495D01*
X156531000Y-76257999D01*
X156531000Y-77158001D01*
X156529796Y-77182505D01*
X156526196Y-77206773D01*
X156520235Y-77230572D01*
X156511970Y-77253671D01*
X156501480Y-77275850D01*
X156488868Y-77296893D01*
X156474253Y-77316599D01*
X156457777Y-77334777D01*
X156439599Y-77351253D01*
X156419893Y-77365868D01*
X156398850Y-77378480D01*
X156376671Y-77388970D01*
X156353572Y-77397235D01*
X156329773Y-77403196D01*
X156305505Y-77406796D01*
X156281001Y-77408000D01*
X155630999Y-77408000D01*
X155606495Y-77406796D01*
X155582227Y-77403196D01*
X155558428Y-77397235D01*
X155535329Y-77388970D01*
X155513150Y-77378480D01*
X155492107Y-77365868D01*
X155472401Y-77351253D01*
X155454223Y-77334777D01*
X155437747Y-77316599D01*
X155423132Y-77296893D01*
X155410520Y-77275850D01*
X155400030Y-77253671D01*
X155391765Y-77230572D01*
X155385804Y-77206773D01*
X155382204Y-77182505D01*
X155381000Y-77158001D01*
X155381000Y-76257999D01*
X155382204Y-76233495D01*
X155385804Y-76209227D01*
X155391765Y-76185428D01*
X155400030Y-76162329D01*
X155410520Y-76140150D01*
X155423132Y-76119107D01*
X155437747Y-76099401D01*
X155454223Y-76081223D01*
X155472401Y-76064747D01*
X155492107Y-76050132D01*
X155513150Y-76037520D01*
X155535329Y-76027030D01*
X155558428Y-76018765D01*
X155582227Y-76012804D01*
X155606495Y-76009204D01*
X155630999Y-76008000D01*
X156281001Y-76008000D01*
X156305505Y-76009204D01*
X156305505Y-76009204D01*
G37*
D15*
X155956000Y-76708000D03*
D14*
G36*
X154255505Y-76009204D02*
X154279773Y-76012804D01*
X154303572Y-76018765D01*
X154326671Y-76027030D01*
X154348850Y-76037520D01*
X154369893Y-76050132D01*
X154389599Y-76064747D01*
X154407777Y-76081223D01*
X154424253Y-76099401D01*
X154438868Y-76119107D01*
X154451480Y-76140150D01*
X154461970Y-76162329D01*
X154470235Y-76185428D01*
X154476196Y-76209227D01*
X154479796Y-76233495D01*
X154481000Y-76257999D01*
X154481000Y-77158001D01*
X154479796Y-77182505D01*
X154476196Y-77206773D01*
X154470235Y-77230572D01*
X154461970Y-77253671D01*
X154451480Y-77275850D01*
X154438868Y-77296893D01*
X154424253Y-77316599D01*
X154407777Y-77334777D01*
X154389599Y-77351253D01*
X154369893Y-77365868D01*
X154348850Y-77378480D01*
X154326671Y-77388970D01*
X154303572Y-77397235D01*
X154279773Y-77403196D01*
X154255505Y-77406796D01*
X154231001Y-77408000D01*
X153580999Y-77408000D01*
X153556495Y-77406796D01*
X153532227Y-77403196D01*
X153508428Y-77397235D01*
X153485329Y-77388970D01*
X153463150Y-77378480D01*
X153442107Y-77365868D01*
X153422401Y-77351253D01*
X153404223Y-77334777D01*
X153387747Y-77316599D01*
X153373132Y-77296893D01*
X153360520Y-77275850D01*
X153350030Y-77253671D01*
X153341765Y-77230572D01*
X153335804Y-77206773D01*
X153332204Y-77182505D01*
X153331000Y-77158001D01*
X153331000Y-76257999D01*
X153332204Y-76233495D01*
X153335804Y-76209227D01*
X153341765Y-76185428D01*
X153350030Y-76162329D01*
X153360520Y-76140150D01*
X153373132Y-76119107D01*
X153387747Y-76099401D01*
X153404223Y-76081223D01*
X153422401Y-76064747D01*
X153442107Y-76050132D01*
X153463150Y-76037520D01*
X153485329Y-76027030D01*
X153508428Y-76018765D01*
X153532227Y-76012804D01*
X153556495Y-76009204D01*
X153580999Y-76008000D01*
X154231001Y-76008000D01*
X154255505Y-76009204D01*
X154255505Y-76009204D01*
G37*
D15*
X153906000Y-76708000D03*
D16*
X105162000Y-69088000D03*
X105162000Y-71628000D03*
X102362000Y-71628000D03*
D14*
G36*
X102936865Y-68289202D02*
X102961095Y-68292796D01*
X102984855Y-68298748D01*
X103007918Y-68307000D01*
X103030061Y-68317472D01*
X103051070Y-68330065D01*
X103070745Y-68344657D01*
X103088894Y-68361106D01*
X103105343Y-68379255D01*
X103119935Y-68398930D01*
X103132528Y-68419939D01*
X103143000Y-68442082D01*
X103151252Y-68465145D01*
X103157204Y-68488905D01*
X103160798Y-68513135D01*
X103162000Y-68537600D01*
X103162000Y-69638400D01*
X103160798Y-69662865D01*
X103157204Y-69687095D01*
X103151252Y-69710855D01*
X103143000Y-69733918D01*
X103132528Y-69756061D01*
X103119935Y-69777070D01*
X103105343Y-69796745D01*
X103088894Y-69814894D01*
X103070745Y-69831343D01*
X103051070Y-69845935D01*
X103030061Y-69858528D01*
X103007918Y-69869000D01*
X102984855Y-69877252D01*
X102961095Y-69883204D01*
X102936865Y-69886798D01*
X102912400Y-69888000D01*
X101811600Y-69888000D01*
X101787135Y-69886798D01*
X101762905Y-69883204D01*
X101739145Y-69877252D01*
X101716082Y-69869000D01*
X101693939Y-69858528D01*
X101672930Y-69845935D01*
X101653255Y-69831343D01*
X101635106Y-69814894D01*
X101618657Y-69796745D01*
X101604065Y-69777070D01*
X101591472Y-69756061D01*
X101581000Y-69733918D01*
X101572748Y-69710855D01*
X101566796Y-69687095D01*
X101563202Y-69662865D01*
X101562000Y-69638400D01*
X101562000Y-68537600D01*
X101563202Y-68513135D01*
X101566796Y-68488905D01*
X101572748Y-68465145D01*
X101581000Y-68442082D01*
X101591472Y-68419939D01*
X101604065Y-68398930D01*
X101618657Y-68379255D01*
X101635106Y-68361106D01*
X101653255Y-68344657D01*
X101672930Y-68330065D01*
X101693939Y-68317472D01*
X101716082Y-68307000D01*
X101739145Y-68298748D01*
X101762905Y-68292796D01*
X101787135Y-68289202D01*
X101811600Y-68288000D01*
X102912400Y-68288000D01*
X102936865Y-68289202D01*
X102936865Y-68289202D01*
G37*
D16*
X102362000Y-69088000D03*
D14*
G36*
X113350865Y-68289202D02*
X113375095Y-68292796D01*
X113398855Y-68298748D01*
X113421918Y-68307000D01*
X113444061Y-68317472D01*
X113465070Y-68330065D01*
X113484745Y-68344657D01*
X113502894Y-68361106D01*
X113519343Y-68379255D01*
X113533935Y-68398930D01*
X113546528Y-68419939D01*
X113557000Y-68442082D01*
X113565252Y-68465145D01*
X113571204Y-68488905D01*
X113574798Y-68513135D01*
X113576000Y-68537600D01*
X113576000Y-69638400D01*
X113574798Y-69662865D01*
X113571204Y-69687095D01*
X113565252Y-69710855D01*
X113557000Y-69733918D01*
X113546528Y-69756061D01*
X113533935Y-69777070D01*
X113519343Y-69796745D01*
X113502894Y-69814894D01*
X113484745Y-69831343D01*
X113465070Y-69845935D01*
X113444061Y-69858528D01*
X113421918Y-69869000D01*
X113398855Y-69877252D01*
X113375095Y-69883204D01*
X113350865Y-69886798D01*
X113326400Y-69888000D01*
X112225600Y-69888000D01*
X112201135Y-69886798D01*
X112176905Y-69883204D01*
X112153145Y-69877252D01*
X112130082Y-69869000D01*
X112107939Y-69858528D01*
X112086930Y-69845935D01*
X112067255Y-69831343D01*
X112049106Y-69814894D01*
X112032657Y-69796745D01*
X112018065Y-69777070D01*
X112005472Y-69756061D01*
X111995000Y-69733918D01*
X111986748Y-69710855D01*
X111980796Y-69687095D01*
X111977202Y-69662865D01*
X111976000Y-69638400D01*
X111976000Y-68537600D01*
X111977202Y-68513135D01*
X111980796Y-68488905D01*
X111986748Y-68465145D01*
X111995000Y-68442082D01*
X112005472Y-68419939D01*
X112018065Y-68398930D01*
X112032657Y-68379255D01*
X112049106Y-68361106D01*
X112067255Y-68344657D01*
X112086930Y-68330065D01*
X112107939Y-68317472D01*
X112130082Y-68307000D01*
X112153145Y-68298748D01*
X112176905Y-68292796D01*
X112201135Y-68289202D01*
X112225600Y-68288000D01*
X113326400Y-68288000D01*
X113350865Y-68289202D01*
X113350865Y-68289202D01*
G37*
D16*
X112776000Y-69088000D03*
X112776000Y-71628000D03*
X115576000Y-71628000D03*
X115576000Y-69088000D03*
X125990000Y-69088000D03*
X125990000Y-71628000D03*
X123190000Y-71628000D03*
D14*
G36*
X123764865Y-68289202D02*
X123789095Y-68292796D01*
X123812855Y-68298748D01*
X123835918Y-68307000D01*
X123858061Y-68317472D01*
X123879070Y-68330065D01*
X123898745Y-68344657D01*
X123916894Y-68361106D01*
X123933343Y-68379255D01*
X123947935Y-68398930D01*
X123960528Y-68419939D01*
X123971000Y-68442082D01*
X123979252Y-68465145D01*
X123985204Y-68488905D01*
X123988798Y-68513135D01*
X123990000Y-68537600D01*
X123990000Y-69638400D01*
X123988798Y-69662865D01*
X123985204Y-69687095D01*
X123979252Y-69710855D01*
X123971000Y-69733918D01*
X123960528Y-69756061D01*
X123947935Y-69777070D01*
X123933343Y-69796745D01*
X123916894Y-69814894D01*
X123898745Y-69831343D01*
X123879070Y-69845935D01*
X123858061Y-69858528D01*
X123835918Y-69869000D01*
X123812855Y-69877252D01*
X123789095Y-69883204D01*
X123764865Y-69886798D01*
X123740400Y-69888000D01*
X122639600Y-69888000D01*
X122615135Y-69886798D01*
X122590905Y-69883204D01*
X122567145Y-69877252D01*
X122544082Y-69869000D01*
X122521939Y-69858528D01*
X122500930Y-69845935D01*
X122481255Y-69831343D01*
X122463106Y-69814894D01*
X122446657Y-69796745D01*
X122432065Y-69777070D01*
X122419472Y-69756061D01*
X122409000Y-69733918D01*
X122400748Y-69710855D01*
X122394796Y-69687095D01*
X122391202Y-69662865D01*
X122390000Y-69638400D01*
X122390000Y-68537600D01*
X122391202Y-68513135D01*
X122394796Y-68488905D01*
X122400748Y-68465145D01*
X122409000Y-68442082D01*
X122419472Y-68419939D01*
X122432065Y-68398930D01*
X122446657Y-68379255D01*
X122463106Y-68361106D01*
X122481255Y-68344657D01*
X122500930Y-68330065D01*
X122521939Y-68317472D01*
X122544082Y-68307000D01*
X122567145Y-68298748D01*
X122590905Y-68292796D01*
X122615135Y-68289202D01*
X122639600Y-68288000D01*
X123740400Y-68288000D01*
X123764865Y-68289202D01*
X123764865Y-68289202D01*
G37*
D16*
X123190000Y-69088000D03*
D14*
G36*
X134178865Y-68289202D02*
X134203095Y-68292796D01*
X134226855Y-68298748D01*
X134249918Y-68307000D01*
X134272061Y-68317472D01*
X134293070Y-68330065D01*
X134312745Y-68344657D01*
X134330894Y-68361106D01*
X134347343Y-68379255D01*
X134361935Y-68398930D01*
X134374528Y-68419939D01*
X134385000Y-68442082D01*
X134393252Y-68465145D01*
X134399204Y-68488905D01*
X134402798Y-68513135D01*
X134404000Y-68537600D01*
X134404000Y-69638400D01*
X134402798Y-69662865D01*
X134399204Y-69687095D01*
X134393252Y-69710855D01*
X134385000Y-69733918D01*
X134374528Y-69756061D01*
X134361935Y-69777070D01*
X134347343Y-69796745D01*
X134330894Y-69814894D01*
X134312745Y-69831343D01*
X134293070Y-69845935D01*
X134272061Y-69858528D01*
X134249918Y-69869000D01*
X134226855Y-69877252D01*
X134203095Y-69883204D01*
X134178865Y-69886798D01*
X134154400Y-69888000D01*
X133053600Y-69888000D01*
X133029135Y-69886798D01*
X133004905Y-69883204D01*
X132981145Y-69877252D01*
X132958082Y-69869000D01*
X132935939Y-69858528D01*
X132914930Y-69845935D01*
X132895255Y-69831343D01*
X132877106Y-69814894D01*
X132860657Y-69796745D01*
X132846065Y-69777070D01*
X132833472Y-69756061D01*
X132823000Y-69733918D01*
X132814748Y-69710855D01*
X132808796Y-69687095D01*
X132805202Y-69662865D01*
X132804000Y-69638400D01*
X132804000Y-68537600D01*
X132805202Y-68513135D01*
X132808796Y-68488905D01*
X132814748Y-68465145D01*
X132823000Y-68442082D01*
X132833472Y-68419939D01*
X132846065Y-68398930D01*
X132860657Y-68379255D01*
X132877106Y-68361106D01*
X132895255Y-68344657D01*
X132914930Y-68330065D01*
X132935939Y-68317472D01*
X132958082Y-68307000D01*
X132981145Y-68298748D01*
X133004905Y-68292796D01*
X133029135Y-68289202D01*
X133053600Y-68288000D01*
X134154400Y-68288000D01*
X134178865Y-68289202D01*
X134178865Y-68289202D01*
G37*
D16*
X133604000Y-69088000D03*
X133604000Y-71628000D03*
X136404000Y-71628000D03*
X136404000Y-69088000D03*
X146818000Y-69088000D03*
X146818000Y-71628000D03*
X144018000Y-71628000D03*
D14*
G36*
X144592865Y-68289202D02*
X144617095Y-68292796D01*
X144640855Y-68298748D01*
X144663918Y-68307000D01*
X144686061Y-68317472D01*
X144707070Y-68330065D01*
X144726745Y-68344657D01*
X144744894Y-68361106D01*
X144761343Y-68379255D01*
X144775935Y-68398930D01*
X144788528Y-68419939D01*
X144799000Y-68442082D01*
X144807252Y-68465145D01*
X144813204Y-68488905D01*
X144816798Y-68513135D01*
X144818000Y-68537600D01*
X144818000Y-69638400D01*
X144816798Y-69662865D01*
X144813204Y-69687095D01*
X144807252Y-69710855D01*
X144799000Y-69733918D01*
X144788528Y-69756061D01*
X144775935Y-69777070D01*
X144761343Y-69796745D01*
X144744894Y-69814894D01*
X144726745Y-69831343D01*
X144707070Y-69845935D01*
X144686061Y-69858528D01*
X144663918Y-69869000D01*
X144640855Y-69877252D01*
X144617095Y-69883204D01*
X144592865Y-69886798D01*
X144568400Y-69888000D01*
X143467600Y-69888000D01*
X143443135Y-69886798D01*
X143418905Y-69883204D01*
X143395145Y-69877252D01*
X143372082Y-69869000D01*
X143349939Y-69858528D01*
X143328930Y-69845935D01*
X143309255Y-69831343D01*
X143291106Y-69814894D01*
X143274657Y-69796745D01*
X143260065Y-69777070D01*
X143247472Y-69756061D01*
X143237000Y-69733918D01*
X143228748Y-69710855D01*
X143222796Y-69687095D01*
X143219202Y-69662865D01*
X143218000Y-69638400D01*
X143218000Y-68537600D01*
X143219202Y-68513135D01*
X143222796Y-68488905D01*
X143228748Y-68465145D01*
X143237000Y-68442082D01*
X143247472Y-68419939D01*
X143260065Y-68398930D01*
X143274657Y-68379255D01*
X143291106Y-68361106D01*
X143309255Y-68344657D01*
X143328930Y-68330065D01*
X143349939Y-68317472D01*
X143372082Y-68307000D01*
X143395145Y-68298748D01*
X143418905Y-68292796D01*
X143443135Y-68289202D01*
X143467600Y-68288000D01*
X144568400Y-68288000D01*
X144592865Y-68289202D01*
X144592865Y-68289202D01*
G37*
D16*
X144018000Y-69088000D03*
D14*
G36*
X155006865Y-68289202D02*
X155031095Y-68292796D01*
X155054855Y-68298748D01*
X155077918Y-68307000D01*
X155100061Y-68317472D01*
X155121070Y-68330065D01*
X155140745Y-68344657D01*
X155158894Y-68361106D01*
X155175343Y-68379255D01*
X155189935Y-68398930D01*
X155202528Y-68419939D01*
X155213000Y-68442082D01*
X155221252Y-68465145D01*
X155227204Y-68488905D01*
X155230798Y-68513135D01*
X155232000Y-68537600D01*
X155232000Y-69638400D01*
X155230798Y-69662865D01*
X155227204Y-69687095D01*
X155221252Y-69710855D01*
X155213000Y-69733918D01*
X155202528Y-69756061D01*
X155189935Y-69777070D01*
X155175343Y-69796745D01*
X155158894Y-69814894D01*
X155140745Y-69831343D01*
X155121070Y-69845935D01*
X155100061Y-69858528D01*
X155077918Y-69869000D01*
X155054855Y-69877252D01*
X155031095Y-69883204D01*
X155006865Y-69886798D01*
X154982400Y-69888000D01*
X153881600Y-69888000D01*
X153857135Y-69886798D01*
X153832905Y-69883204D01*
X153809145Y-69877252D01*
X153786082Y-69869000D01*
X153763939Y-69858528D01*
X153742930Y-69845935D01*
X153723255Y-69831343D01*
X153705106Y-69814894D01*
X153688657Y-69796745D01*
X153674065Y-69777070D01*
X153661472Y-69756061D01*
X153651000Y-69733918D01*
X153642748Y-69710855D01*
X153636796Y-69687095D01*
X153633202Y-69662865D01*
X153632000Y-69638400D01*
X153632000Y-68537600D01*
X153633202Y-68513135D01*
X153636796Y-68488905D01*
X153642748Y-68465145D01*
X153651000Y-68442082D01*
X153661472Y-68419939D01*
X153674065Y-68398930D01*
X153688657Y-68379255D01*
X153705106Y-68361106D01*
X153723255Y-68344657D01*
X153742930Y-68330065D01*
X153763939Y-68317472D01*
X153786082Y-68307000D01*
X153809145Y-68298748D01*
X153832905Y-68292796D01*
X153857135Y-68289202D01*
X153881600Y-68288000D01*
X154982400Y-68288000D01*
X155006865Y-68289202D01*
X155006865Y-68289202D01*
G37*
D16*
X154432000Y-69088000D03*
X154432000Y-71628000D03*
X157232000Y-71628000D03*
X157232000Y-69088000D03*
D17*
X138684000Y-88138000D03*
D18*
X120904000Y-80518000D03*
X136144000Y-88138000D03*
X123444000Y-80518000D03*
X133604000Y-88138000D03*
X125984000Y-80518000D03*
X131064000Y-88138000D03*
X128524000Y-80518000D03*
X128524000Y-88138000D03*
X131064000Y-80518000D03*
X125984000Y-88138000D03*
X133604000Y-80518000D03*
X123444000Y-88138000D03*
X136144000Y-80518000D03*
X120904000Y-88138000D03*
X138684000Y-80518000D03*
D19*
X118364000Y-79248000D03*
X119380000Y-78232000D03*
X108712000Y-76708000D03*
X140208000Y-77216000D03*
X131820000Y-77210000D03*
X132334000Y-82804000D03*
X133604000Y-85090000D03*
X131576653Y-85856653D03*
D20*
X152382000Y-78232000D02*
X153906000Y-76708000D01*
X116586000Y-78232000D02*
X115062000Y-76708000D01*
X104376000Y-78232000D02*
X102852000Y-76708000D01*
X116586000Y-78232000D02*
X104376000Y-78232000D01*
X125736000Y-76448000D02*
X125476000Y-76708000D01*
X146564000Y-76194000D02*
X146050000Y-76708000D01*
X127000000Y-78232000D02*
X124950000Y-78232000D01*
X135636000Y-76708000D02*
X136652000Y-76708000D01*
X138176000Y-78232000D02*
X137160000Y-78232000D01*
X126492000Y-76708000D02*
X128016000Y-78232000D01*
X125476000Y-76708000D02*
X126492000Y-76708000D01*
X128016000Y-78232000D02*
X127000000Y-78232000D01*
X137160000Y-78232000D02*
X128016000Y-78232000D01*
X148249000Y-78232000D02*
X148336000Y-78232000D01*
X146725000Y-76708000D02*
X148249000Y-78232000D01*
X148336000Y-78232000D02*
X152382000Y-78232000D01*
X146050000Y-76708000D02*
X146725000Y-76708000D01*
X145524000Y-78232000D02*
X148336000Y-78232000D01*
X100838000Y-70612000D02*
X100838000Y-75692000D01*
X102362000Y-69088000D02*
X100838000Y-70612000D01*
X101854000Y-76708000D02*
X102852000Y-76708000D01*
X100838000Y-75692000D02*
X101854000Y-76708000D01*
X124950000Y-78232000D02*
X121666000Y-78232000D01*
X141478000Y-77216000D02*
X142494000Y-78232000D01*
X142240000Y-69088000D02*
X141478000Y-69850000D01*
X143764000Y-69088000D02*
X142240000Y-69088000D01*
X141478000Y-69850000D02*
X141478000Y-77216000D01*
X145524000Y-78232000D02*
X142494000Y-78232000D01*
X137922000Y-77978000D02*
X138176000Y-78232000D01*
X136652000Y-76708000D02*
X137922000Y-77978000D01*
X142494000Y-78232000D02*
X140208000Y-78232000D01*
X140208000Y-78232000D02*
X139446000Y-78232000D01*
X140208000Y-78232000D02*
X138176000Y-78232000D01*
X138684000Y-78994000D02*
X138684000Y-80518000D01*
X139446000Y-78232000D02*
X138684000Y-78994000D01*
X118364000Y-79248000D02*
X117348000Y-78232000D01*
X117348000Y-78232000D02*
X116840000Y-78232000D01*
X116840000Y-78232000D02*
X116586000Y-78232000D01*
X121412000Y-69088000D02*
X123190000Y-69088000D01*
X120904000Y-69596000D02*
X121412000Y-69088000D01*
X120904000Y-77470000D02*
X120904000Y-69596000D01*
X121666000Y-78232000D02*
X120904000Y-77470000D01*
X119634000Y-79248000D02*
X118364000Y-79248000D01*
X120650000Y-78232000D02*
X119634000Y-79248000D01*
X121666000Y-78232000D02*
X120650000Y-78232000D01*
X105961999Y-68288001D02*
X105961999Y-68282001D01*
X105162000Y-69088000D02*
X105961999Y-68288001D01*
X105961999Y-68282001D02*
X106934000Y-67310000D01*
X113798000Y-67310000D02*
X115576000Y-69088000D01*
X106934000Y-67310000D02*
X113798000Y-67310000D01*
X115316000Y-69088000D02*
X115576000Y-69088000D01*
X112776000Y-71628000D02*
X115316000Y-69088000D01*
X116375999Y-68288001D02*
X116375999Y-68282001D01*
X115576000Y-69088000D02*
X116375999Y-68288001D01*
X116375999Y-68282001D02*
X117348000Y-67310000D01*
X123958000Y-67310000D02*
X125736000Y-69088000D01*
X117348000Y-67310000D02*
X123958000Y-67310000D01*
X155454000Y-67310000D02*
X157232000Y-69088000D01*
X147363999Y-68282001D02*
X148336000Y-67310000D01*
X148336000Y-67310000D02*
X155454000Y-67310000D01*
X146564000Y-69088000D02*
X147363999Y-68288001D01*
X144786000Y-67310000D02*
X146564000Y-69088000D01*
X133096000Y-71628000D02*
X135636000Y-69088000D01*
X136695999Y-68288001D02*
X136695999Y-68282001D01*
X137668000Y-67310000D02*
X144786000Y-67310000D01*
X136695999Y-68282001D02*
X137668000Y-67310000D01*
X147363999Y-68288001D02*
X147363999Y-68282001D01*
X135896000Y-69088000D02*
X136695999Y-68288001D01*
X135636000Y-69088000D02*
X135896000Y-69088000D01*
X156972000Y-69088000D02*
X157232000Y-69088000D01*
X154432000Y-71628000D02*
X156972000Y-69088000D01*
X115576000Y-69088000D02*
X119126000Y-72638000D01*
X119126000Y-72638000D02*
X119126000Y-77216000D01*
X119126000Y-77216000D02*
X119380000Y-77470000D01*
X119380000Y-77470000D02*
X119380000Y-77978000D01*
X119380000Y-77978000D02*
X119380000Y-78232000D01*
X136144000Y-82804000D02*
X136144000Y-80518000D01*
X134874000Y-92202000D02*
X134874000Y-84074000D01*
X134874000Y-84074000D02*
X136144000Y-82804000D01*
X134112000Y-92964000D02*
X134874000Y-92202000D01*
X130556000Y-92401106D02*
X131118894Y-92964000D01*
X131118894Y-92964000D02*
X134112000Y-92964000D01*
X130556000Y-91694000D02*
X130556000Y-92401106D01*
X125984000Y-80918000D02*
X125984000Y-80518000D01*
X128124000Y-83058000D02*
X125984000Y-80918000D01*
X133096000Y-91694000D02*
X133096000Y-90932000D01*
X131318000Y-83058000D02*
X128124000Y-83058000D01*
X133096000Y-90932000D02*
X132334000Y-90170000D01*
X132334000Y-84074000D02*
X131318000Y-83058000D01*
X132334000Y-90170000D02*
X132334000Y-84074000D01*
X108966000Y-69333000D02*
X107941000Y-70358000D01*
X103632000Y-70358000D02*
X107941000Y-70358000D01*
X102362000Y-71628000D02*
X103632000Y-70358000D01*
X111261000Y-69088000D02*
X110744000Y-69605000D01*
X112776000Y-69088000D02*
X111261000Y-69088000D01*
X110744000Y-69605000D02*
X110744000Y-70866000D01*
X110227000Y-71383000D02*
X108966000Y-71383000D01*
X110744000Y-70866000D02*
X110227000Y-71383000D01*
X113012000Y-74192000D02*
X115576000Y-71628000D01*
X113012000Y-76708000D02*
X113012000Y-74192000D01*
X104902000Y-71888000D02*
X105162000Y-71628000D01*
X104902000Y-76708000D02*
X104902000Y-71888000D01*
X104902000Y-76708000D02*
X105577000Y-76708000D01*
X105577000Y-76708000D02*
X108712000Y-76708000D01*
X131415372Y-70768628D02*
X133096000Y-69088000D01*
X130163372Y-70768628D02*
X131415372Y-70768628D01*
X129540000Y-71392000D02*
X130163372Y-70768628D01*
X128270000Y-69342000D02*
X129540000Y-69342000D01*
X127254000Y-70358000D02*
X128270000Y-69342000D01*
X124206000Y-70358000D02*
X127254000Y-70358000D01*
X122936000Y-71628000D02*
X124206000Y-70358000D01*
X133586000Y-73938000D02*
X135896000Y-71628000D01*
X133586000Y-76708000D02*
X133586000Y-73938000D01*
X139192000Y-71628000D02*
X140208000Y-72644000D01*
X140208000Y-72644000D02*
X140208000Y-77216000D01*
X136404000Y-71628000D02*
X139192000Y-71628000D01*
X124936001Y-72427999D02*
X124930001Y-72427999D01*
X125736000Y-71628000D02*
X124936001Y-72427999D01*
X123426000Y-73932000D02*
X123426000Y-76708000D01*
X124930001Y-72427999D02*
X123426000Y-73932000D01*
X125990000Y-71628000D02*
X131572000Y-77210000D01*
X131572000Y-77210000D02*
X131820000Y-77210000D01*
X132334000Y-82804000D02*
X133604000Y-84074000D01*
X133604000Y-84074000D02*
X133604000Y-85090000D01*
X150114000Y-69342000D02*
X148844000Y-69342000D01*
X148844000Y-69342000D02*
X147828000Y-70358000D01*
X145034000Y-70358000D02*
X143764000Y-71628000D01*
X147828000Y-70358000D02*
X145034000Y-70358000D01*
X152418000Y-69088000D02*
X151892000Y-69614000D01*
X153670000Y-69088000D02*
X152418000Y-69088000D01*
X151892000Y-69614000D02*
X150114000Y-71392000D01*
X144000000Y-74192000D02*
X144000000Y-76708000D01*
X146564000Y-71628000D02*
X144000000Y-74192000D01*
X131576653Y-85856653D02*
X129027347Y-85856653D01*
X128524000Y-86360000D02*
X128524000Y-88138000D01*
X129027347Y-85856653D02*
X128524000Y-86360000D01*
X156470000Y-76194000D02*
X155956000Y-76708000D01*
X156470000Y-71628000D02*
X156470000Y-76194000D01*
D21*
G36*
X142476930Y-79003493D02*
X142226776Y-79173497D01*
X142197432Y-79198471D01*
X142165498Y-79220011D01*
X142105876Y-79276391D01*
X141615826Y-79794605D01*
X141592533Y-79825292D01*
X141565964Y-79853193D01*
X141519840Y-79921061D01*
X141152501Y-80532416D01*
X141136342Y-80567388D01*
X141116383Y-80600344D01*
X141085909Y-80676534D01*
X140858418Y-81352509D01*
X140850144Y-81390143D01*
X140837730Y-81426608D01*
X140824327Y-81507564D01*
X140747299Y-82216621D01*
X140747299Y-82375379D01*
X140768000Y-82469531D01*
X140768001Y-92598621D01*
X139296314Y-93649826D01*
X139188119Y-93722120D01*
X139142303Y-93790688D01*
X139085839Y-93850791D01*
X139064585Y-93907001D01*
X139031195Y-93956973D01*
X139015106Y-94037859D01*
X138985941Y-94114991D01*
X138990000Y-94245048D01*
X138990001Y-97237326D01*
X138927042Y-97735699D01*
X138758697Y-98160889D01*
X138489899Y-98530859D01*
X138137541Y-98822355D01*
X137723756Y-99017067D01*
X137274553Y-99102757D01*
X136818149Y-99074043D01*
X136383228Y-98932728D01*
X135997110Y-98687691D01*
X135684065Y-98354332D01*
X135463756Y-97953590D01*
X135344414Y-97488783D01*
X135330000Y-97259686D01*
X135330000Y-96936887D01*
X135425000Y-96936887D01*
X135425000Y-97627113D01*
X135689138Y-98264799D01*
X136177201Y-98752862D01*
X136814887Y-99017000D01*
X137505113Y-99017000D01*
X138142799Y-98752862D01*
X138630862Y-98264799D01*
X138895000Y-97627113D01*
X138895000Y-96936887D01*
X138630862Y-96299201D01*
X138142799Y-95811138D01*
X137505113Y-95547000D01*
X136814887Y-95547000D01*
X136177201Y-95811138D01*
X135689138Y-96299201D01*
X135425000Y-96936887D01*
X135330000Y-96936887D01*
X135330000Y-95573926D01*
X135343909Y-95504000D01*
X135288805Y-95226972D01*
X135131881Y-94992119D01*
X134897028Y-94835195D01*
X134689926Y-94794000D01*
X134689925Y-94794000D01*
X134620000Y-94780091D01*
X134550074Y-94794000D01*
X125037925Y-94794000D01*
X124968000Y-94780091D01*
X124898074Y-94794000D01*
X124690972Y-94835195D01*
X124456119Y-94992119D01*
X124299195Y-95226972D01*
X124244091Y-95504000D01*
X124258000Y-95573926D01*
X124258001Y-97237326D01*
X124195042Y-97735699D01*
X124026697Y-98160889D01*
X123757899Y-98530859D01*
X123405541Y-98822355D01*
X122991756Y-99017067D01*
X122542553Y-99102757D01*
X122086149Y-99074043D01*
X121651228Y-98932728D01*
X121265110Y-98687691D01*
X120952065Y-98354332D01*
X120731756Y-97953590D01*
X120612414Y-97488783D01*
X120598000Y-97259686D01*
X120598000Y-96936887D01*
X120693000Y-96936887D01*
X120693000Y-97627113D01*
X120957138Y-98264799D01*
X121445201Y-98752862D01*
X122082887Y-99017000D01*
X122773113Y-99017000D01*
X123410799Y-98752862D01*
X123898862Y-98264799D01*
X124163000Y-97627113D01*
X124163000Y-96936887D01*
X123898862Y-96299201D01*
X123410799Y-95811138D01*
X122773113Y-95547000D01*
X122082887Y-95547000D01*
X121445201Y-95811138D01*
X120957138Y-96299201D01*
X120693000Y-96936887D01*
X120598000Y-96936887D01*
X120598000Y-94245047D01*
X120602059Y-94114990D01*
X120572894Y-94037856D01*
X120556805Y-93956972D01*
X120523417Y-93907004D01*
X120502162Y-93850790D01*
X120445694Y-93790684D01*
X120399880Y-93722119D01*
X120291688Y-93649827D01*
X118820000Y-92598622D01*
X118820000Y-91194000D01*
X125598560Y-91194000D01*
X125598560Y-92194000D01*
X125647843Y-92441765D01*
X125788191Y-92651809D01*
X125998235Y-92792157D01*
X126246000Y-92841440D01*
X127246000Y-92841440D01*
X127493765Y-92792157D01*
X127581817Y-92733322D01*
X127714126Y-92788119D01*
X127889000Y-92661954D01*
X127889000Y-92216322D01*
X127893440Y-92194000D01*
X127893440Y-91194000D01*
X127889000Y-91171678D01*
X127889000Y-90726046D01*
X127714126Y-90599881D01*
X127581817Y-90654678D01*
X127493765Y-90595843D01*
X127246000Y-90546560D01*
X126246000Y-90546560D01*
X125998235Y-90595843D01*
X125788191Y-90736191D01*
X125647843Y-90946235D01*
X125598560Y-91194000D01*
X118820000Y-91194000D01*
X118820000Y-88265000D01*
X119469000Y-88265000D01*
X119469000Y-88665000D01*
X119626834Y-89204483D01*
X119979104Y-89642500D01*
X120472181Y-89912367D01*
X120554961Y-89929904D01*
X120777000Y-89807915D01*
X120777000Y-88265000D01*
X121031000Y-88265000D01*
X121031000Y-89807915D01*
X121253039Y-89929904D01*
X121335819Y-89912367D01*
X121828896Y-89642500D01*
X122174000Y-89213393D01*
X122519104Y-89642500D01*
X123012181Y-89912367D01*
X123094961Y-89929904D01*
X123317000Y-89807915D01*
X123317000Y-88265000D01*
X123571000Y-88265000D01*
X123571000Y-89807915D01*
X123793039Y-89929904D01*
X123875819Y-89912367D01*
X124368896Y-89642500D01*
X124714000Y-89213393D01*
X125059104Y-89642500D01*
X125552181Y-89912367D01*
X125634961Y-89929904D01*
X125857000Y-89807915D01*
X125857000Y-88265000D01*
X123571000Y-88265000D01*
X123317000Y-88265000D01*
X121031000Y-88265000D01*
X120777000Y-88265000D01*
X119469000Y-88265000D01*
X118820000Y-88265000D01*
X118820000Y-87611000D01*
X119469000Y-87611000D01*
X119469000Y-88011000D01*
X120777000Y-88011000D01*
X120777000Y-86468085D01*
X121031000Y-86468085D01*
X121031000Y-88011000D01*
X123317000Y-88011000D01*
X123317000Y-86468085D01*
X123571000Y-86468085D01*
X123571000Y-88011000D01*
X125857000Y-88011000D01*
X125857000Y-86468085D01*
X125634961Y-86346096D01*
X125552181Y-86363633D01*
X125059104Y-86633500D01*
X124714000Y-87062607D01*
X124368896Y-86633500D01*
X123875819Y-86363633D01*
X123793039Y-86346096D01*
X123571000Y-86468085D01*
X123317000Y-86468085D01*
X123094961Y-86346096D01*
X123012181Y-86363633D01*
X122519104Y-86633500D01*
X122174000Y-87062607D01*
X121828896Y-86633500D01*
X121335819Y-86363633D01*
X121253039Y-86346096D01*
X121031000Y-86468085D01*
X120777000Y-86468085D01*
X120554961Y-86346096D01*
X120472181Y-86363633D01*
X119979104Y-86633500D01*
X119626834Y-87071517D01*
X119469000Y-87611000D01*
X118820000Y-87611000D01*
X118820000Y-82472856D01*
X118842422Y-82357502D01*
X118844713Y-82275476D01*
X118839564Y-82091153D01*
X118838340Y-82082215D01*
X118838843Y-82073211D01*
X118829982Y-81991633D01*
X118713494Y-81287983D01*
X118703132Y-81250871D01*
X118696973Y-81212844D01*
X118670800Y-81135072D01*
X118405930Y-80472850D01*
X118387843Y-80438834D01*
X118373660Y-80403011D01*
X118331397Y-80332673D01*
X118297639Y-80283000D01*
X118569874Y-80283000D01*
X118950280Y-80125431D01*
X119067711Y-80008000D01*
X119469000Y-80008000D01*
X119469000Y-81059333D01*
X119552260Y-81477909D01*
X119869424Y-81952577D01*
X120344092Y-82269740D01*
X120904000Y-82381113D01*
X121463909Y-82269740D01*
X121938577Y-81952577D01*
X122174000Y-81600241D01*
X122409424Y-81952577D01*
X122884092Y-82269740D01*
X123444000Y-82381113D01*
X124003909Y-82269740D01*
X124478577Y-81952577D01*
X124714000Y-81600241D01*
X124949424Y-81952577D01*
X125424092Y-82269740D01*
X125984000Y-82381113D01*
X126307886Y-82316688D01*
X127533670Y-83542472D01*
X127576071Y-83605929D01*
X127827463Y-83773904D01*
X128049148Y-83818000D01*
X128049152Y-83818000D01*
X128123999Y-83832888D01*
X128198846Y-83818000D01*
X131003199Y-83818000D01*
X131574001Y-84388803D01*
X131574001Y-84821653D01*
X131370779Y-84821653D01*
X130990373Y-84979222D01*
X130872942Y-85096653D01*
X129102193Y-85096653D01*
X129027346Y-85081765D01*
X128952499Y-85096653D01*
X128952495Y-85096653D01*
X128730810Y-85140749D01*
X128479418Y-85308724D01*
X128437018Y-85372181D01*
X128039529Y-85769669D01*
X127976071Y-85812071D01*
X127808096Y-86063464D01*
X127764000Y-86285149D01*
X127764000Y-86285153D01*
X127749112Y-86360000D01*
X127764000Y-86434847D01*
X127764000Y-86519957D01*
X127489423Y-86703424D01*
X127251501Y-87059499D01*
X126908896Y-86633500D01*
X126415819Y-86363633D01*
X126333039Y-86346096D01*
X126111000Y-86468085D01*
X126111000Y-88011000D01*
X126131000Y-88011000D01*
X126131000Y-88265000D01*
X126111000Y-88265000D01*
X126111000Y-89807915D01*
X126333039Y-89929904D01*
X126415819Y-89912367D01*
X126908896Y-89642500D01*
X127251501Y-89216501D01*
X127489424Y-89572577D01*
X127964092Y-89889740D01*
X128524000Y-90001113D01*
X129083909Y-89889740D01*
X129558577Y-89572577D01*
X129794000Y-89220241D01*
X130029424Y-89572577D01*
X130504092Y-89889740D01*
X131064000Y-90001113D01*
X131574000Y-89899668D01*
X131574000Y-90095153D01*
X131559112Y-90170000D01*
X131574000Y-90244847D01*
X131574000Y-90244851D01*
X131618096Y-90466536D01*
X131683907Y-90565029D01*
X131383145Y-90624854D01*
X131191000Y-90753241D01*
X130998855Y-90624854D01*
X130667783Y-90559000D01*
X130444217Y-90559000D01*
X130113145Y-90624854D01*
X129921000Y-90753241D01*
X129728855Y-90624854D01*
X129397783Y-90559000D01*
X129174217Y-90559000D01*
X128843145Y-90624854D01*
X128639090Y-90761199D01*
X128576209Y-90706873D01*
X128317874Y-90599881D01*
X128143000Y-90726046D01*
X128143000Y-91567000D01*
X128154027Y-91567000D01*
X128128765Y-91694000D01*
X128154027Y-91821000D01*
X128143000Y-91821000D01*
X128143000Y-92661954D01*
X128317874Y-92788119D01*
X128576209Y-92681127D01*
X128639090Y-92626801D01*
X128843145Y-92763146D01*
X129174217Y-92829000D01*
X129397783Y-92829000D01*
X129728855Y-92763146D01*
X129838547Y-92689852D01*
X129840097Y-92697643D01*
X130008072Y-92949035D01*
X130071527Y-92991434D01*
X130528566Y-93448475D01*
X130570965Y-93511929D01*
X130634418Y-93554327D01*
X130634420Y-93554329D01*
X130751868Y-93632805D01*
X130822357Y-93679904D01*
X131044042Y-93724000D01*
X131044046Y-93724000D01*
X131118893Y-93738888D01*
X131193740Y-93724000D01*
X134037153Y-93724000D01*
X134112000Y-93738888D01*
X134186847Y-93724000D01*
X134186852Y-93724000D01*
X134408537Y-93679904D01*
X134659929Y-93511929D01*
X134702331Y-93448470D01*
X135358473Y-92792329D01*
X135421929Y-92749929D01*
X135487491Y-92651809D01*
X135589904Y-92498538D01*
X135601197Y-92441765D01*
X135634000Y-92276852D01*
X135634000Y-92276848D01*
X135648888Y-92202000D01*
X135634000Y-92127152D01*
X135634000Y-89899667D01*
X136144000Y-90001113D01*
X136703909Y-89889740D01*
X137178577Y-89572577D01*
X137259215Y-89451894D01*
X137285843Y-89585765D01*
X137426191Y-89795809D01*
X137636235Y-89936157D01*
X137884000Y-89985440D01*
X139484000Y-89985440D01*
X139731765Y-89936157D01*
X139941809Y-89795809D01*
X140082157Y-89585765D01*
X140131440Y-89338000D01*
X140131440Y-86938000D01*
X140082157Y-86690235D01*
X139941809Y-86480191D01*
X139731765Y-86339843D01*
X139484000Y-86290560D01*
X137884000Y-86290560D01*
X137636235Y-86339843D01*
X137426191Y-86480191D01*
X137285843Y-86690235D01*
X137259215Y-86824107D01*
X137178576Y-86703423D01*
X136703908Y-86386260D01*
X136144000Y-86274887D01*
X135634000Y-86376332D01*
X135634000Y-84388801D01*
X136628473Y-83394329D01*
X136691929Y-83351929D01*
X136859904Y-83100537D01*
X136904000Y-82878852D01*
X136904000Y-82878848D01*
X136918888Y-82804001D01*
X136904000Y-82729154D01*
X136904000Y-82136043D01*
X137178577Y-81952577D01*
X137414000Y-81600241D01*
X137649424Y-81952577D01*
X138124092Y-82269740D01*
X138684000Y-82381113D01*
X139243909Y-82269740D01*
X139718577Y-81952577D01*
X140035740Y-81477909D01*
X140119000Y-81059332D01*
X140119000Y-79976667D01*
X140035740Y-79558091D01*
X139718576Y-79083423D01*
X139689084Y-79063717D01*
X139760802Y-78992000D01*
X142419153Y-78992000D01*
X142476930Y-79003493D01*
X142476930Y-79003493D01*
G37*
X142476930Y-79003493D02*
X142226776Y-79173497D01*
X142197432Y-79198471D01*
X142165498Y-79220011D01*
X142105876Y-79276391D01*
X141615826Y-79794605D01*
X141592533Y-79825292D01*
X141565964Y-79853193D01*
X141519840Y-79921061D01*
X141152501Y-80532416D01*
X141136342Y-80567388D01*
X141116383Y-80600344D01*
X141085909Y-80676534D01*
X140858418Y-81352509D01*
X140850144Y-81390143D01*
X140837730Y-81426608D01*
X140824327Y-81507564D01*
X140747299Y-82216621D01*
X140747299Y-82375379D01*
X140768000Y-82469531D01*
X140768001Y-92598621D01*
X139296314Y-93649826D01*
X139188119Y-93722120D01*
X139142303Y-93790688D01*
X139085839Y-93850791D01*
X139064585Y-93907001D01*
X139031195Y-93956973D01*
X139015106Y-94037859D01*
X138985941Y-94114991D01*
X138990000Y-94245048D01*
X138990001Y-97237326D01*
X138927042Y-97735699D01*
X138758697Y-98160889D01*
X138489899Y-98530859D01*
X138137541Y-98822355D01*
X137723756Y-99017067D01*
X137274553Y-99102757D01*
X136818149Y-99074043D01*
X136383228Y-98932728D01*
X135997110Y-98687691D01*
X135684065Y-98354332D01*
X135463756Y-97953590D01*
X135344414Y-97488783D01*
X135330000Y-97259686D01*
X135330000Y-96936887D01*
X135425000Y-96936887D01*
X135425000Y-97627113D01*
X135689138Y-98264799D01*
X136177201Y-98752862D01*
X136814887Y-99017000D01*
X137505113Y-99017000D01*
X138142799Y-98752862D01*
X138630862Y-98264799D01*
X138895000Y-97627113D01*
X138895000Y-96936887D01*
X138630862Y-96299201D01*
X138142799Y-95811138D01*
X137505113Y-95547000D01*
X136814887Y-95547000D01*
X136177201Y-95811138D01*
X135689138Y-96299201D01*
X135425000Y-96936887D01*
X135330000Y-96936887D01*
X135330000Y-95573926D01*
X135343909Y-95504000D01*
X135288805Y-95226972D01*
X135131881Y-94992119D01*
X134897028Y-94835195D01*
X134689926Y-94794000D01*
X134689925Y-94794000D01*
X134620000Y-94780091D01*
X134550074Y-94794000D01*
X125037925Y-94794000D01*
X124968000Y-94780091D01*
X124898074Y-94794000D01*
X124690972Y-94835195D01*
X124456119Y-94992119D01*
X124299195Y-95226972D01*
X124244091Y-95504000D01*
X124258000Y-95573926D01*
X124258001Y-97237326D01*
X124195042Y-97735699D01*
X124026697Y-98160889D01*
X123757899Y-98530859D01*
X123405541Y-98822355D01*
X122991756Y-99017067D01*
X122542553Y-99102757D01*
X122086149Y-99074043D01*
X121651228Y-98932728D01*
X121265110Y-98687691D01*
X120952065Y-98354332D01*
X120731756Y-97953590D01*
X120612414Y-97488783D01*
X120598000Y-97259686D01*
X120598000Y-96936887D01*
X120693000Y-96936887D01*
X120693000Y-97627113D01*
X120957138Y-98264799D01*
X121445201Y-98752862D01*
X122082887Y-99017000D01*
X122773113Y-99017000D01*
X123410799Y-98752862D01*
X123898862Y-98264799D01*
X124163000Y-97627113D01*
X124163000Y-96936887D01*
X123898862Y-96299201D01*
X123410799Y-95811138D01*
X122773113Y-95547000D01*
X122082887Y-95547000D01*
X121445201Y-95811138D01*
X120957138Y-96299201D01*
X120693000Y-96936887D01*
X120598000Y-96936887D01*
X120598000Y-94245047D01*
X120602059Y-94114990D01*
X120572894Y-94037856D01*
X120556805Y-93956972D01*
X120523417Y-93907004D01*
X120502162Y-93850790D01*
X120445694Y-93790684D01*
X120399880Y-93722119D01*
X120291688Y-93649827D01*
X118820000Y-92598622D01*
X118820000Y-91194000D01*
X125598560Y-91194000D01*
X125598560Y-92194000D01*
X125647843Y-92441765D01*
X125788191Y-92651809D01*
X125998235Y-92792157D01*
X126246000Y-92841440D01*
X127246000Y-92841440D01*
X127493765Y-92792157D01*
X127581817Y-92733322D01*
X127714126Y-92788119D01*
X127889000Y-92661954D01*
X127889000Y-92216322D01*
X127893440Y-92194000D01*
X127893440Y-91194000D01*
X127889000Y-91171678D01*
X127889000Y-90726046D01*
X127714126Y-90599881D01*
X127581817Y-90654678D01*
X127493765Y-90595843D01*
X127246000Y-90546560D01*
X126246000Y-90546560D01*
X125998235Y-90595843D01*
X125788191Y-90736191D01*
X125647843Y-90946235D01*
X125598560Y-91194000D01*
X118820000Y-91194000D01*
X118820000Y-88265000D01*
X119469000Y-88265000D01*
X119469000Y-88665000D01*
X119626834Y-89204483D01*
X119979104Y-89642500D01*
X120472181Y-89912367D01*
X120554961Y-89929904D01*
X120777000Y-89807915D01*
X120777000Y-88265000D01*
X121031000Y-88265000D01*
X121031000Y-89807915D01*
X121253039Y-89929904D01*
X121335819Y-89912367D01*
X121828896Y-89642500D01*
X122174000Y-89213393D01*
X122519104Y-89642500D01*
X123012181Y-89912367D01*
X123094961Y-89929904D01*
X123317000Y-89807915D01*
X123317000Y-88265000D01*
X123571000Y-88265000D01*
X123571000Y-89807915D01*
X123793039Y-89929904D01*
X123875819Y-89912367D01*
X124368896Y-89642500D01*
X124714000Y-89213393D01*
X125059104Y-89642500D01*
X125552181Y-89912367D01*
X125634961Y-89929904D01*
X125857000Y-89807915D01*
X125857000Y-88265000D01*
X123571000Y-88265000D01*
X123317000Y-88265000D01*
X121031000Y-88265000D01*
X120777000Y-88265000D01*
X119469000Y-88265000D01*
X118820000Y-88265000D01*
X118820000Y-87611000D01*
X119469000Y-87611000D01*
X119469000Y-88011000D01*
X120777000Y-88011000D01*
X120777000Y-86468085D01*
X121031000Y-86468085D01*
X121031000Y-88011000D01*
X123317000Y-88011000D01*
X123317000Y-86468085D01*
X123571000Y-86468085D01*
X123571000Y-88011000D01*
X125857000Y-88011000D01*
X125857000Y-86468085D01*
X125634961Y-86346096D01*
X125552181Y-86363633D01*
X125059104Y-86633500D01*
X124714000Y-87062607D01*
X124368896Y-86633500D01*
X123875819Y-86363633D01*
X123793039Y-86346096D01*
X123571000Y-86468085D01*
X123317000Y-86468085D01*
X123094961Y-86346096D01*
X123012181Y-86363633D01*
X122519104Y-86633500D01*
X122174000Y-87062607D01*
X121828896Y-86633500D01*
X121335819Y-86363633D01*
X121253039Y-86346096D01*
X121031000Y-86468085D01*
X120777000Y-86468085D01*
X120554961Y-86346096D01*
X120472181Y-86363633D01*
X119979104Y-86633500D01*
X119626834Y-87071517D01*
X119469000Y-87611000D01*
X118820000Y-87611000D01*
X118820000Y-82472856D01*
X118842422Y-82357502D01*
X118844713Y-82275476D01*
X118839564Y-82091153D01*
X118838340Y-82082215D01*
X118838843Y-82073211D01*
X118829982Y-81991633D01*
X118713494Y-81287983D01*
X118703132Y-81250871D01*
X118696973Y-81212844D01*
X118670800Y-81135072D01*
X118405930Y-80472850D01*
X118387843Y-80438834D01*
X118373660Y-80403011D01*
X118331397Y-80332673D01*
X118297639Y-80283000D01*
X118569874Y-80283000D01*
X118950280Y-80125431D01*
X119067711Y-80008000D01*
X119469000Y-80008000D01*
X119469000Y-81059333D01*
X119552260Y-81477909D01*
X119869424Y-81952577D01*
X120344092Y-82269740D01*
X120904000Y-82381113D01*
X121463909Y-82269740D01*
X121938577Y-81952577D01*
X122174000Y-81600241D01*
X122409424Y-81952577D01*
X122884092Y-82269740D01*
X123444000Y-82381113D01*
X124003909Y-82269740D01*
X124478577Y-81952577D01*
X124714000Y-81600241D01*
X124949424Y-81952577D01*
X125424092Y-82269740D01*
X125984000Y-82381113D01*
X126307886Y-82316688D01*
X127533670Y-83542472D01*
X127576071Y-83605929D01*
X127827463Y-83773904D01*
X128049148Y-83818000D01*
X128049152Y-83818000D01*
X128123999Y-83832888D01*
X128198846Y-83818000D01*
X131003199Y-83818000D01*
X131574001Y-84388803D01*
X131574001Y-84821653D01*
X131370779Y-84821653D01*
X130990373Y-84979222D01*
X130872942Y-85096653D01*
X129102193Y-85096653D01*
X129027346Y-85081765D01*
X128952499Y-85096653D01*
X128952495Y-85096653D01*
X128730810Y-85140749D01*
X128479418Y-85308724D01*
X128437018Y-85372181D01*
X128039529Y-85769669D01*
X127976071Y-85812071D01*
X127808096Y-86063464D01*
X127764000Y-86285149D01*
X127764000Y-86285153D01*
X127749112Y-86360000D01*
X127764000Y-86434847D01*
X127764000Y-86519957D01*
X127489423Y-86703424D01*
X127251501Y-87059499D01*
X126908896Y-86633500D01*
X126415819Y-86363633D01*
X126333039Y-86346096D01*
X126111000Y-86468085D01*
X126111000Y-88011000D01*
X126131000Y-88011000D01*
X126131000Y-88265000D01*
X126111000Y-88265000D01*
X126111000Y-89807915D01*
X126333039Y-89929904D01*
X126415819Y-89912367D01*
X126908896Y-89642500D01*
X127251501Y-89216501D01*
X127489424Y-89572577D01*
X127964092Y-89889740D01*
X128524000Y-90001113D01*
X129083909Y-89889740D01*
X129558577Y-89572577D01*
X129794000Y-89220241D01*
X130029424Y-89572577D01*
X130504092Y-89889740D01*
X131064000Y-90001113D01*
X131574000Y-89899668D01*
X131574000Y-90095153D01*
X131559112Y-90170000D01*
X131574000Y-90244847D01*
X131574000Y-90244851D01*
X131618096Y-90466536D01*
X131683907Y-90565029D01*
X131383145Y-90624854D01*
X131191000Y-90753241D01*
X130998855Y-90624854D01*
X130667783Y-90559000D01*
X130444217Y-90559000D01*
X130113145Y-90624854D01*
X129921000Y-90753241D01*
X129728855Y-90624854D01*
X129397783Y-90559000D01*
X129174217Y-90559000D01*
X128843145Y-90624854D01*
X128639090Y-90761199D01*
X128576209Y-90706873D01*
X128317874Y-90599881D01*
X128143000Y-90726046D01*
X128143000Y-91567000D01*
X128154027Y-91567000D01*
X128128765Y-91694000D01*
X128154027Y-91821000D01*
X128143000Y-91821000D01*
X128143000Y-92661954D01*
X128317874Y-92788119D01*
X128576209Y-92681127D01*
X128639090Y-92626801D01*
X128843145Y-92763146D01*
X129174217Y-92829000D01*
X129397783Y-92829000D01*
X129728855Y-92763146D01*
X129838547Y-92689852D01*
X129840097Y-92697643D01*
X130008072Y-92949035D01*
X130071527Y-92991434D01*
X130528566Y-93448475D01*
X130570965Y-93511929D01*
X130634418Y-93554327D01*
X130634420Y-93554329D01*
X130751868Y-93632805D01*
X130822357Y-93679904D01*
X131044042Y-93724000D01*
X131044046Y-93724000D01*
X131118893Y-93738888D01*
X131193740Y-93724000D01*
X134037153Y-93724000D01*
X134112000Y-93738888D01*
X134186847Y-93724000D01*
X134186852Y-93724000D01*
X134408537Y-93679904D01*
X134659929Y-93511929D01*
X134702331Y-93448470D01*
X135358473Y-92792329D01*
X135421929Y-92749929D01*
X135487491Y-92651809D01*
X135589904Y-92498538D01*
X135601197Y-92441765D01*
X135634000Y-92276852D01*
X135634000Y-92276848D01*
X135648888Y-92202000D01*
X135634000Y-92127152D01*
X135634000Y-89899667D01*
X136144000Y-90001113D01*
X136703909Y-89889740D01*
X137178577Y-89572577D01*
X137259215Y-89451894D01*
X137285843Y-89585765D01*
X137426191Y-89795809D01*
X137636235Y-89936157D01*
X137884000Y-89985440D01*
X139484000Y-89985440D01*
X139731765Y-89936157D01*
X139941809Y-89795809D01*
X140082157Y-89585765D01*
X140131440Y-89338000D01*
X140131440Y-86938000D01*
X140082157Y-86690235D01*
X139941809Y-86480191D01*
X139731765Y-86339843D01*
X139484000Y-86290560D01*
X137884000Y-86290560D01*
X137636235Y-86339843D01*
X137426191Y-86480191D01*
X137285843Y-86690235D01*
X137259215Y-86824107D01*
X137178576Y-86703423D01*
X136703908Y-86386260D01*
X136144000Y-86274887D01*
X135634000Y-86376332D01*
X135634000Y-84388801D01*
X136628473Y-83394329D01*
X136691929Y-83351929D01*
X136859904Y-83100537D01*
X136904000Y-82878852D01*
X136904000Y-82878848D01*
X136918888Y-82804001D01*
X136904000Y-82729154D01*
X136904000Y-82136043D01*
X137178577Y-81952577D01*
X137414000Y-81600241D01*
X137649424Y-81952577D01*
X138124092Y-82269740D01*
X138684000Y-82381113D01*
X139243909Y-82269740D01*
X139718577Y-81952577D01*
X140035740Y-81477909D01*
X140119000Y-81059332D01*
X140119000Y-79976667D01*
X140035740Y-79558091D01*
X139718576Y-79083423D01*
X139689084Y-79063717D01*
X139760802Y-78992000D01*
X142419153Y-78992000D01*
X142476930Y-79003493D01*
G36*
X159881009Y-65286090D02*
X160220352Y-65440381D01*
X160502752Y-65683712D01*
X160705506Y-65996523D01*
X160819348Y-66377184D01*
X160834001Y-66574363D01*
X160834000Y-76795773D01*
X160817751Y-76848922D01*
X160816423Y-76857802D01*
X160749669Y-77323922D01*
X160598343Y-77656746D01*
X160359687Y-77933720D01*
X160052885Y-78132579D01*
X159678252Y-78244618D01*
X159457530Y-78261021D01*
X159353016Y-78284000D01*
X153404802Y-78284000D01*
X153633362Y-78055440D01*
X154231001Y-78055440D01*
X154574436Y-77987127D01*
X154865586Y-77792586D01*
X154931000Y-77694687D01*
X154996414Y-77792586D01*
X155287564Y-77987127D01*
X155630999Y-78055440D01*
X156281001Y-78055440D01*
X156624436Y-77987127D01*
X156915586Y-77792586D01*
X157110127Y-77501436D01*
X157178440Y-77158001D01*
X157178440Y-76501709D01*
X157185904Y-76490538D01*
X157209115Y-76373847D01*
X157230000Y-76268852D01*
X157230000Y-76268848D01*
X157244888Y-76194000D01*
X157230000Y-76119152D01*
X157230000Y-73063000D01*
X157517439Y-73063000D01*
X158044862Y-72844534D01*
X158448534Y-72440862D01*
X158667000Y-71913439D01*
X158667000Y-71342561D01*
X158448534Y-70815138D01*
X158044862Y-70411466D01*
X157931417Y-70364475D01*
X157986005Y-70341864D01*
X158060139Y-70095745D01*
X157232000Y-69267605D01*
X156403861Y-70095745D01*
X156477995Y-70341864D01*
X156536448Y-70362874D01*
X156419138Y-70411466D01*
X156015466Y-70815138D01*
X155879070Y-71144427D01*
X155828951Y-71219436D01*
X155685864Y-70873995D01*
X155439745Y-70799861D01*
X154611605Y-71628000D01*
X155439745Y-72456139D01*
X155685864Y-72382005D01*
X155710000Y-72314856D01*
X155710001Y-75360560D01*
X155630999Y-75360560D01*
X155287564Y-75428873D01*
X154996414Y-75623414D01*
X154931000Y-75721313D01*
X154865586Y-75623414D01*
X154574436Y-75428873D01*
X154231001Y-75360560D01*
X153580999Y-75360560D01*
X153237564Y-75428873D01*
X152946414Y-75623414D01*
X152751873Y-75914564D01*
X152683560Y-76257999D01*
X152683560Y-76855638D01*
X152067199Y-77472000D01*
X148563803Y-77472000D01*
X147330080Y-76238279D01*
X147338888Y-76194000D01*
X147279904Y-75897463D01*
X147111929Y-75646071D01*
X146860537Y-75478096D01*
X146763096Y-75458714D01*
X146718436Y-75428873D01*
X146375001Y-75360560D01*
X145724999Y-75360560D01*
X145381564Y-75428873D01*
X145090414Y-75623414D01*
X145025000Y-75721313D01*
X144959586Y-75623414D01*
X144760000Y-75490054D01*
X144760000Y-74506801D01*
X146300093Y-72966709D01*
X146532561Y-73063000D01*
X147103439Y-73063000D01*
X147630862Y-72844534D01*
X147839651Y-72635745D01*
X153603861Y-72635745D01*
X153677995Y-72881864D01*
X154215223Y-73074965D01*
X154785454Y-73047778D01*
X155186005Y-72881864D01*
X155260139Y-72635745D01*
X154432000Y-71807605D01*
X153603861Y-72635745D01*
X147839651Y-72635745D01*
X148034534Y-72440862D01*
X148253000Y-71913439D01*
X148253000Y-71342561D01*
X148137994Y-71064912D01*
X148375929Y-70905929D01*
X148418331Y-70842470D01*
X149001296Y-70259505D01*
X149029414Y-70301586D01*
X149127313Y-70367000D01*
X149029414Y-70432414D01*
X148834873Y-70723564D01*
X148766560Y-71066999D01*
X148766560Y-71717001D01*
X148834873Y-72060436D01*
X149029414Y-72351586D01*
X149320564Y-72546127D01*
X149663999Y-72614440D01*
X150564001Y-72614440D01*
X150907436Y-72546127D01*
X151198586Y-72351586D01*
X151393127Y-72060436D01*
X151461440Y-71717001D01*
X151461440Y-71411223D01*
X152985035Y-71411223D01*
X153012222Y-71981454D01*
X153178136Y-72382005D01*
X153424255Y-72456139D01*
X154252395Y-71628000D01*
X153424255Y-70799861D01*
X153178136Y-70873995D01*
X152985035Y-71411223D01*
X151461440Y-71411223D01*
X151461440Y-71119361D01*
X152482329Y-70098473D01*
X152482330Y-70098471D01*
X152732802Y-69848000D01*
X153026252Y-69848000D01*
X153052843Y-69981682D01*
X153247297Y-70272703D01*
X153538318Y-70467157D01*
X153643664Y-70488112D01*
X153603861Y-70620255D01*
X154432000Y-71448395D01*
X155260139Y-70620255D01*
X155220336Y-70488112D01*
X155325682Y-70467157D01*
X155616703Y-70272703D01*
X155811157Y-69981682D01*
X155879440Y-69638400D01*
X155879440Y-69603732D01*
X155978136Y-69842005D01*
X156224255Y-69916139D01*
X157052395Y-69088000D01*
X157411605Y-69088000D01*
X158239745Y-69916139D01*
X158485864Y-69842005D01*
X158678965Y-69304777D01*
X158651778Y-68734546D01*
X158485864Y-68333995D01*
X158239745Y-68259861D01*
X157411605Y-69088000D01*
X157052395Y-69088000D01*
X156224255Y-68259861D01*
X155978136Y-68333995D01*
X155879440Y-68608578D01*
X155879440Y-68537600D01*
X155811157Y-68194318D01*
X155734943Y-68080255D01*
X156403861Y-68080255D01*
X157232000Y-68908395D01*
X158060139Y-68080255D01*
X157986005Y-67834136D01*
X157448777Y-67641035D01*
X156878546Y-67668222D01*
X156477995Y-67834136D01*
X156403861Y-68080255D01*
X155734943Y-68080255D01*
X155616703Y-67903297D01*
X155325682Y-67708843D01*
X154982400Y-67640560D01*
X153881600Y-67640560D01*
X153538318Y-67708843D01*
X153247297Y-67903297D01*
X153052843Y-68194318D01*
X153026252Y-68328000D01*
X152492846Y-68328000D01*
X152417999Y-68313112D01*
X152343152Y-68328000D01*
X152343148Y-68328000D01*
X152121463Y-68372096D01*
X152106021Y-68382414D01*
X151933526Y-68497671D01*
X151933524Y-68497673D01*
X151870071Y-68540071D01*
X151827672Y-68603525D01*
X151453602Y-68977596D01*
X151393127Y-68673564D01*
X151198586Y-68382414D01*
X150907436Y-68187873D01*
X150564001Y-68119560D01*
X149663999Y-68119560D01*
X149320564Y-68187873D01*
X149029414Y-68382414D01*
X148898728Y-68577998D01*
X148844000Y-68567112D01*
X148769153Y-68582000D01*
X148769148Y-68582000D01*
X148547463Y-68626096D01*
X148296071Y-68794071D01*
X148253671Y-68857527D01*
X148244098Y-68867100D01*
X148237778Y-68734546D01*
X148071864Y-68333995D01*
X147825745Y-68259861D01*
X146997605Y-69088000D01*
X147011748Y-69102142D01*
X146832143Y-69281748D01*
X146818000Y-69267605D01*
X146803858Y-69281748D01*
X146624252Y-69102142D01*
X146638395Y-69088000D01*
X145810255Y-68259861D01*
X145564136Y-68333995D01*
X145465440Y-68608578D01*
X145465440Y-68537600D01*
X145397157Y-68194318D01*
X145320943Y-68080255D01*
X145989861Y-68080255D01*
X146818000Y-68908395D01*
X147646139Y-68080255D01*
X147572005Y-67834136D01*
X147034777Y-67641035D01*
X146464546Y-67668222D01*
X146063995Y-67834136D01*
X145989861Y-68080255D01*
X145320943Y-68080255D01*
X145202703Y-67903297D01*
X144911682Y-67708843D01*
X144568400Y-67640560D01*
X143467600Y-67640560D01*
X143124318Y-67708843D01*
X142833297Y-67903297D01*
X142638843Y-68194318D01*
X142612252Y-68328000D01*
X142314848Y-68328000D01*
X142240000Y-68313112D01*
X142165152Y-68328000D01*
X142165148Y-68328000D01*
X141991605Y-68362520D01*
X141943462Y-68372096D01*
X141756418Y-68497076D01*
X141692071Y-68540071D01*
X141649671Y-68603527D01*
X140993530Y-69259669D01*
X140930071Y-69302071D01*
X140762096Y-69553464D01*
X140718000Y-69775149D01*
X140718000Y-69775153D01*
X140703112Y-69850000D01*
X140718000Y-69924847D01*
X140718000Y-72070728D01*
X140692473Y-72053671D01*
X139782331Y-71143530D01*
X139739929Y-71080071D01*
X139488537Y-70912096D01*
X139266852Y-70868000D01*
X139266847Y-70868000D01*
X139192000Y-70853112D01*
X139117153Y-70868000D01*
X137642430Y-70868000D01*
X137620534Y-70815138D01*
X137216862Y-70411466D01*
X137103417Y-70364475D01*
X137158005Y-70341864D01*
X137232139Y-70095745D01*
X136404000Y-69267605D01*
X135575861Y-70095745D01*
X135649995Y-70341864D01*
X135708448Y-70362874D01*
X135591138Y-70411466D01*
X135187466Y-70815138D01*
X135010475Y-71242431D01*
X134857864Y-70873995D01*
X134611745Y-70799861D01*
X133783605Y-71628000D01*
X133797748Y-71642142D01*
X133618142Y-71821748D01*
X133604000Y-71807605D01*
X132775861Y-72635745D01*
X132849995Y-72881864D01*
X133377668Y-73071531D01*
X133101528Y-73347671D01*
X133038072Y-73390071D01*
X132995672Y-73453527D01*
X132995671Y-73453528D01*
X132870097Y-73641463D01*
X132811112Y-73938000D01*
X132826001Y-74012852D01*
X132826000Y-75490054D01*
X132626414Y-75623414D01*
X132431873Y-75914564D01*
X132363560Y-76257999D01*
X132363560Y-76314874D01*
X132025874Y-76175000D01*
X131614126Y-76175000D01*
X131612483Y-76175681D01*
X127403103Y-71966302D01*
X127425000Y-71913439D01*
X127425000Y-71342561D01*
X127331745Y-71117424D01*
X127550537Y-71073904D01*
X127801929Y-70905929D01*
X127844331Y-70842470D01*
X128427296Y-70259505D01*
X128455414Y-70301586D01*
X128553313Y-70367000D01*
X128455414Y-70432414D01*
X128260873Y-70723564D01*
X128192560Y-71066999D01*
X128192560Y-71717001D01*
X128260873Y-72060436D01*
X128455414Y-72351586D01*
X128746564Y-72546127D01*
X129089999Y-72614440D01*
X129990001Y-72614440D01*
X130333436Y-72546127D01*
X130624586Y-72351586D01*
X130819127Y-72060436D01*
X130887440Y-71717001D01*
X130887440Y-71528628D01*
X131340525Y-71528628D01*
X131415372Y-71543516D01*
X131490219Y-71528628D01*
X131490224Y-71528628D01*
X131711909Y-71484532D01*
X131963301Y-71316557D01*
X132005703Y-71253098D01*
X132330681Y-70928120D01*
X132157035Y-71411223D01*
X132184222Y-71981454D01*
X132350136Y-72382005D01*
X132596255Y-72456139D01*
X133424395Y-71628000D01*
X133410252Y-71613858D01*
X133589858Y-71434252D01*
X133604000Y-71448395D01*
X134432139Y-70620255D01*
X134392336Y-70488112D01*
X134497682Y-70467157D01*
X134788703Y-70272703D01*
X134983157Y-69981682D01*
X135051440Y-69638400D01*
X135051440Y-69603732D01*
X135150136Y-69842005D01*
X135396255Y-69916139D01*
X136224395Y-69088000D01*
X136583605Y-69088000D01*
X137411745Y-69916139D01*
X137657864Y-69842005D01*
X137850965Y-69304777D01*
X137823778Y-68734546D01*
X137657864Y-68333995D01*
X137411745Y-68259861D01*
X136583605Y-69088000D01*
X136224395Y-69088000D01*
X135396255Y-68259861D01*
X135150136Y-68333995D01*
X135051440Y-68608578D01*
X135051440Y-68537600D01*
X134983157Y-68194318D01*
X134906943Y-68080255D01*
X135575861Y-68080255D01*
X136404000Y-68908395D01*
X137232139Y-68080255D01*
X137158005Y-67834136D01*
X136620777Y-67641035D01*
X136050546Y-67668222D01*
X135649995Y-67834136D01*
X135575861Y-68080255D01*
X134906943Y-68080255D01*
X134788703Y-67903297D01*
X134497682Y-67708843D01*
X134154400Y-67640560D01*
X133053600Y-67640560D01*
X132710318Y-67708843D01*
X132419297Y-67903297D01*
X132224843Y-68194318D01*
X132156560Y-68537600D01*
X132156560Y-68952638D01*
X131100571Y-70008628D01*
X130819487Y-70008628D01*
X130887440Y-69667001D01*
X130887440Y-69016999D01*
X130819127Y-68673564D01*
X130624586Y-68382414D01*
X130333436Y-68187873D01*
X129990001Y-68119560D01*
X129089999Y-68119560D01*
X128746564Y-68187873D01*
X128455414Y-68382414D01*
X128324728Y-68577998D01*
X128270000Y-68567112D01*
X128195153Y-68582000D01*
X128195148Y-68582000D01*
X127973463Y-68626096D01*
X127722071Y-68794071D01*
X127679671Y-68857527D01*
X127427657Y-69109542D01*
X127409778Y-68734546D01*
X127243864Y-68333995D01*
X126997745Y-68259861D01*
X126169605Y-69088000D01*
X126183748Y-69102142D01*
X126004143Y-69281748D01*
X125990000Y-69267605D01*
X125975858Y-69281748D01*
X125796252Y-69102142D01*
X125810395Y-69088000D01*
X124982255Y-68259861D01*
X124736136Y-68333995D01*
X124637440Y-68608578D01*
X124637440Y-68537600D01*
X124569157Y-68194318D01*
X124492943Y-68080255D01*
X125161861Y-68080255D01*
X125990000Y-68908395D01*
X126818139Y-68080255D01*
X126744005Y-67834136D01*
X126206777Y-67641035D01*
X125636546Y-67668222D01*
X125235995Y-67834136D01*
X125161861Y-68080255D01*
X124492943Y-68080255D01*
X124374703Y-67903297D01*
X124083682Y-67708843D01*
X123740400Y-67640560D01*
X122639600Y-67640560D01*
X122296318Y-67708843D01*
X122005297Y-67903297D01*
X121810843Y-68194318D01*
X121784252Y-68328000D01*
X121486846Y-68328000D01*
X121411999Y-68313112D01*
X121337152Y-68328000D01*
X121337148Y-68328000D01*
X121115463Y-68372096D01*
X121100021Y-68382414D01*
X120927526Y-68497671D01*
X120927524Y-68497673D01*
X120864071Y-68540071D01*
X120821672Y-68603525D01*
X120419527Y-69005672D01*
X120356072Y-69048071D01*
X120313672Y-69111527D01*
X120313671Y-69111528D01*
X120188097Y-69299463D01*
X120129112Y-69596000D01*
X120144001Y-69670852D01*
X120144000Y-77395153D01*
X120129112Y-77470000D01*
X120144000Y-77544847D01*
X120144000Y-77544851D01*
X120163525Y-77643009D01*
X120102071Y-77684071D01*
X120059672Y-77747526D01*
X119319199Y-78488000D01*
X119067711Y-78488000D01*
X118950280Y-78370569D01*
X118569874Y-78213000D01*
X118403802Y-78213000D01*
X117938331Y-77747530D01*
X117895929Y-77684071D01*
X117644537Y-77516096D01*
X117422852Y-77472000D01*
X117422847Y-77472000D01*
X117348000Y-77457112D01*
X117273153Y-77472000D01*
X116900803Y-77472000D01*
X116284440Y-76855638D01*
X116284440Y-76257999D01*
X116216127Y-75914564D01*
X116021586Y-75623414D01*
X115730436Y-75428873D01*
X115387001Y-75360560D01*
X114736999Y-75360560D01*
X114393564Y-75428873D01*
X114102414Y-75623414D01*
X114037000Y-75721313D01*
X113971586Y-75623414D01*
X113772000Y-75490054D01*
X113772000Y-74506801D01*
X115237698Y-73041103D01*
X115290561Y-73063000D01*
X115861439Y-73063000D01*
X116388862Y-72844534D01*
X116792534Y-72440862D01*
X117011000Y-71913439D01*
X117011000Y-71342561D01*
X116792534Y-70815138D01*
X116388862Y-70411466D01*
X116275417Y-70364475D01*
X116330005Y-70341864D01*
X116404139Y-70095745D01*
X115576000Y-69267605D01*
X114747861Y-70095745D01*
X114821995Y-70341864D01*
X114880448Y-70362874D01*
X114763138Y-70411466D01*
X114359466Y-70815138D01*
X114182475Y-71242431D01*
X114029864Y-70873995D01*
X113783745Y-70799861D01*
X112955605Y-71628000D01*
X112969748Y-71642142D01*
X112790142Y-71821748D01*
X112776000Y-71807605D01*
X111947861Y-72635745D01*
X112021995Y-72881864D01*
X112559223Y-73074965D01*
X113079016Y-73050183D01*
X112527528Y-73601671D01*
X112464072Y-73644071D01*
X112421672Y-73707527D01*
X112421671Y-73707528D01*
X112296097Y-73895463D01*
X112237112Y-74192000D01*
X112252001Y-74266852D01*
X112252000Y-75490054D01*
X112052414Y-75623414D01*
X111857873Y-75914564D01*
X111789560Y-76257999D01*
X111789560Y-77158001D01*
X111852018Y-77472000D01*
X109411711Y-77472000D01*
X109589431Y-77294280D01*
X109747000Y-76913874D01*
X109747000Y-76502126D01*
X109589431Y-76121720D01*
X109298280Y-75830569D01*
X108917874Y-75673000D01*
X108506126Y-75673000D01*
X108125720Y-75830569D01*
X108008289Y-75948000D01*
X106062778Y-75948000D01*
X106056127Y-75914564D01*
X105861586Y-75623414D01*
X105662000Y-75490054D01*
X105662000Y-72974126D01*
X105974862Y-72844534D01*
X106378534Y-72440862D01*
X106597000Y-71913439D01*
X106597000Y-71342561D01*
X106503984Y-71118000D01*
X107618560Y-71118000D01*
X107618560Y-71708001D01*
X107686873Y-72051436D01*
X107881414Y-72342586D01*
X108172564Y-72537127D01*
X108515999Y-72605440D01*
X109416001Y-72605440D01*
X109759436Y-72537127D01*
X110050586Y-72342586D01*
X110180216Y-72148582D01*
X110227000Y-72157888D01*
X110301847Y-72143000D01*
X110301852Y-72143000D01*
X110523537Y-72098904D01*
X110774929Y-71930929D01*
X110817330Y-71867471D01*
X111228475Y-71456328D01*
X111291929Y-71413929D01*
X111334327Y-71350476D01*
X111334329Y-71350474D01*
X111370129Y-71296895D01*
X111329035Y-71411223D01*
X111356222Y-71981454D01*
X111522136Y-72382005D01*
X111768255Y-72456139D01*
X112596395Y-71628000D01*
X111768255Y-70799861D01*
X111522136Y-70873995D01*
X111511303Y-70904134D01*
X111518888Y-70866001D01*
X111504000Y-70791154D01*
X111504000Y-70142054D01*
X111591297Y-70272703D01*
X111882318Y-70467157D01*
X111987664Y-70488112D01*
X111947861Y-70620255D01*
X112776000Y-71448395D01*
X113604139Y-70620255D01*
X113564336Y-70488112D01*
X113669682Y-70467157D01*
X113960703Y-70272703D01*
X114155157Y-69981682D01*
X114223440Y-69638400D01*
X114223440Y-69603732D01*
X114322136Y-69842005D01*
X114568255Y-69916139D01*
X115396395Y-69088000D01*
X115755605Y-69088000D01*
X116583745Y-69916139D01*
X116829864Y-69842005D01*
X117022965Y-69304777D01*
X116995778Y-68734546D01*
X116829864Y-68333995D01*
X116583745Y-68259861D01*
X115755605Y-69088000D01*
X115396395Y-69088000D01*
X114568255Y-68259861D01*
X114322136Y-68333995D01*
X114223440Y-68608578D01*
X114223440Y-68537600D01*
X114155157Y-68194318D01*
X114078943Y-68080255D01*
X114747861Y-68080255D01*
X115576000Y-68908395D01*
X116404139Y-68080255D01*
X116330005Y-67834136D01*
X115792777Y-67641035D01*
X115222546Y-67668222D01*
X114821995Y-67834136D01*
X114747861Y-68080255D01*
X114078943Y-68080255D01*
X113960703Y-67903297D01*
X113669682Y-67708843D01*
X113326400Y-67640560D01*
X112225600Y-67640560D01*
X111882318Y-67708843D01*
X111591297Y-67903297D01*
X111396843Y-68194318D01*
X111370252Y-68328000D01*
X111335846Y-68328000D01*
X111260999Y-68313112D01*
X111186152Y-68328000D01*
X111186148Y-68328000D01*
X110964463Y-68372096D01*
X110949021Y-68382414D01*
X110776526Y-68497671D01*
X110776524Y-68497673D01*
X110713071Y-68540071D01*
X110670672Y-68603525D01*
X110305602Y-68968596D01*
X110245127Y-68664564D01*
X110050586Y-68373414D01*
X109759436Y-68178873D01*
X109416001Y-68110560D01*
X108515999Y-68110560D01*
X108172564Y-68178873D01*
X107881414Y-68373414D01*
X107686873Y-68664564D01*
X107618560Y-69007999D01*
X107618560Y-69598000D01*
X106503569Y-69598000D01*
X106608965Y-69304777D01*
X106581778Y-68734546D01*
X106415864Y-68333995D01*
X106169745Y-68259861D01*
X105341605Y-69088000D01*
X105355748Y-69102142D01*
X105176143Y-69281748D01*
X105162000Y-69267605D01*
X105147858Y-69281748D01*
X104968252Y-69102142D01*
X104982395Y-69088000D01*
X104154255Y-68259861D01*
X103908136Y-68333995D01*
X103809440Y-68608578D01*
X103809440Y-68537600D01*
X103741157Y-68194318D01*
X103664943Y-68080255D01*
X104333861Y-68080255D01*
X105162000Y-68908395D01*
X105990139Y-68080255D01*
X105916005Y-67834136D01*
X105378777Y-67641035D01*
X104808546Y-67668222D01*
X104407995Y-67834136D01*
X104333861Y-68080255D01*
X103664943Y-68080255D01*
X103546703Y-67903297D01*
X103255682Y-67708843D01*
X102912400Y-67640560D01*
X101811600Y-67640560D01*
X101468318Y-67708843D01*
X101177297Y-67903297D01*
X100982843Y-68194318D01*
X100914560Y-68537600D01*
X100914560Y-69460638D01*
X100353530Y-70021669D01*
X100290071Y-70064071D01*
X100122096Y-70315464D01*
X100078000Y-70537149D01*
X100078000Y-70537153D01*
X100063112Y-70612000D01*
X100078000Y-70686847D01*
X100078001Y-75617148D01*
X100063112Y-75692000D01*
X100122097Y-75988537D01*
X100246688Y-76175000D01*
X100290072Y-76239929D01*
X100353528Y-76282329D01*
X101263670Y-77192472D01*
X101306071Y-77255929D01*
X101557463Y-77423904D01*
X101687600Y-77449790D01*
X101697873Y-77501436D01*
X101892414Y-77792586D01*
X102183564Y-77987127D01*
X102526999Y-78055440D01*
X103124638Y-78055440D01*
X103353198Y-78284000D01*
X100242227Y-78284000D01*
X100189078Y-78267751D01*
X100180198Y-78266423D01*
X99714078Y-78199669D01*
X99381254Y-78048343D01*
X99104280Y-77809687D01*
X98905421Y-77502885D01*
X98793382Y-77128252D01*
X98776979Y-76907530D01*
X98754000Y-76803016D01*
X98754000Y-66598581D01*
X98814090Y-66178991D01*
X98968381Y-65839648D01*
X99211712Y-65557248D01*
X99524523Y-65354494D01*
X99905184Y-65240652D01*
X100102350Y-65226000D01*
X159461419Y-65226000D01*
X159881009Y-65286090D01*
X159881009Y-65286090D01*
G37*
X159881009Y-65286090D02*
X160220352Y-65440381D01*
X160502752Y-65683712D01*
X160705506Y-65996523D01*
X160819348Y-66377184D01*
X160834001Y-66574363D01*
X160834000Y-76795773D01*
X160817751Y-76848922D01*
X160816423Y-76857802D01*
X160749669Y-77323922D01*
X160598343Y-77656746D01*
X160359687Y-77933720D01*
X160052885Y-78132579D01*
X159678252Y-78244618D01*
X159457530Y-78261021D01*
X159353016Y-78284000D01*
X153404802Y-78284000D01*
X153633362Y-78055440D01*
X154231001Y-78055440D01*
X154574436Y-77987127D01*
X154865586Y-77792586D01*
X154931000Y-77694687D01*
X154996414Y-77792586D01*
X155287564Y-77987127D01*
X155630999Y-78055440D01*
X156281001Y-78055440D01*
X156624436Y-77987127D01*
X156915586Y-77792586D01*
X157110127Y-77501436D01*
X157178440Y-77158001D01*
X157178440Y-76501709D01*
X157185904Y-76490538D01*
X157209115Y-76373847D01*
X157230000Y-76268852D01*
X157230000Y-76268848D01*
X157244888Y-76194000D01*
X157230000Y-76119152D01*
X157230000Y-73063000D01*
X157517439Y-73063000D01*
X158044862Y-72844534D01*
X158448534Y-72440862D01*
X158667000Y-71913439D01*
X158667000Y-71342561D01*
X158448534Y-70815138D01*
X158044862Y-70411466D01*
X157931417Y-70364475D01*
X157986005Y-70341864D01*
X158060139Y-70095745D01*
X157232000Y-69267605D01*
X156403861Y-70095745D01*
X156477995Y-70341864D01*
X156536448Y-70362874D01*
X156419138Y-70411466D01*
X156015466Y-70815138D01*
X155879070Y-71144427D01*
X155828951Y-71219436D01*
X155685864Y-70873995D01*
X155439745Y-70799861D01*
X154611605Y-71628000D01*
X155439745Y-72456139D01*
X155685864Y-72382005D01*
X155710000Y-72314856D01*
X155710001Y-75360560D01*
X155630999Y-75360560D01*
X155287564Y-75428873D01*
X154996414Y-75623414D01*
X154931000Y-75721313D01*
X154865586Y-75623414D01*
X154574436Y-75428873D01*
X154231001Y-75360560D01*
X153580999Y-75360560D01*
X153237564Y-75428873D01*
X152946414Y-75623414D01*
X152751873Y-75914564D01*
X152683560Y-76257999D01*
X152683560Y-76855638D01*
X152067199Y-77472000D01*
X148563803Y-77472000D01*
X147330080Y-76238279D01*
X147338888Y-76194000D01*
X147279904Y-75897463D01*
X147111929Y-75646071D01*
X146860537Y-75478096D01*
X146763096Y-75458714D01*
X146718436Y-75428873D01*
X146375001Y-75360560D01*
X145724999Y-75360560D01*
X145381564Y-75428873D01*
X145090414Y-75623414D01*
X145025000Y-75721313D01*
X144959586Y-75623414D01*
X144760000Y-75490054D01*
X144760000Y-74506801D01*
X146300093Y-72966709D01*
X146532561Y-73063000D01*
X147103439Y-73063000D01*
X147630862Y-72844534D01*
X147839651Y-72635745D01*
X153603861Y-72635745D01*
X153677995Y-72881864D01*
X154215223Y-73074965D01*
X154785454Y-73047778D01*
X155186005Y-72881864D01*
X155260139Y-72635745D01*
X154432000Y-71807605D01*
X153603861Y-72635745D01*
X147839651Y-72635745D01*
X148034534Y-72440862D01*
X148253000Y-71913439D01*
X148253000Y-71342561D01*
X148137994Y-71064912D01*
X148375929Y-70905929D01*
X148418331Y-70842470D01*
X149001296Y-70259505D01*
X149029414Y-70301586D01*
X149127313Y-70367000D01*
X149029414Y-70432414D01*
X148834873Y-70723564D01*
X148766560Y-71066999D01*
X148766560Y-71717001D01*
X148834873Y-72060436D01*
X149029414Y-72351586D01*
X149320564Y-72546127D01*
X149663999Y-72614440D01*
X150564001Y-72614440D01*
X150907436Y-72546127D01*
X151198586Y-72351586D01*
X151393127Y-72060436D01*
X151461440Y-71717001D01*
X151461440Y-71411223D01*
X152985035Y-71411223D01*
X153012222Y-71981454D01*
X153178136Y-72382005D01*
X153424255Y-72456139D01*
X154252395Y-71628000D01*
X153424255Y-70799861D01*
X153178136Y-70873995D01*
X152985035Y-71411223D01*
X151461440Y-71411223D01*
X151461440Y-71119361D01*
X152482329Y-70098473D01*
X152482330Y-70098471D01*
X152732802Y-69848000D01*
X153026252Y-69848000D01*
X153052843Y-69981682D01*
X153247297Y-70272703D01*
X153538318Y-70467157D01*
X153643664Y-70488112D01*
X153603861Y-70620255D01*
X154432000Y-71448395D01*
X155260139Y-70620255D01*
X155220336Y-70488112D01*
X155325682Y-70467157D01*
X155616703Y-70272703D01*
X155811157Y-69981682D01*
X155879440Y-69638400D01*
X155879440Y-69603732D01*
X155978136Y-69842005D01*
X156224255Y-69916139D01*
X157052395Y-69088000D01*
X157411605Y-69088000D01*
X158239745Y-69916139D01*
X158485864Y-69842005D01*
X158678965Y-69304777D01*
X158651778Y-68734546D01*
X158485864Y-68333995D01*
X158239745Y-68259861D01*
X157411605Y-69088000D01*
X157052395Y-69088000D01*
X156224255Y-68259861D01*
X155978136Y-68333995D01*
X155879440Y-68608578D01*
X155879440Y-68537600D01*
X155811157Y-68194318D01*
X155734943Y-68080255D01*
X156403861Y-68080255D01*
X157232000Y-68908395D01*
X158060139Y-68080255D01*
X157986005Y-67834136D01*
X157448777Y-67641035D01*
X156878546Y-67668222D01*
X156477995Y-67834136D01*
X156403861Y-68080255D01*
X155734943Y-68080255D01*
X155616703Y-67903297D01*
X155325682Y-67708843D01*
X154982400Y-67640560D01*
X153881600Y-67640560D01*
X153538318Y-67708843D01*
X153247297Y-67903297D01*
X153052843Y-68194318D01*
X153026252Y-68328000D01*
X152492846Y-68328000D01*
X152417999Y-68313112D01*
X152343152Y-68328000D01*
X152343148Y-68328000D01*
X152121463Y-68372096D01*
X152106021Y-68382414D01*
X151933526Y-68497671D01*
X151933524Y-68497673D01*
X151870071Y-68540071D01*
X151827672Y-68603525D01*
X151453602Y-68977596D01*
X151393127Y-68673564D01*
X151198586Y-68382414D01*
X150907436Y-68187873D01*
X150564001Y-68119560D01*
X149663999Y-68119560D01*
X149320564Y-68187873D01*
X149029414Y-68382414D01*
X148898728Y-68577998D01*
X148844000Y-68567112D01*
X148769153Y-68582000D01*
X148769148Y-68582000D01*
X148547463Y-68626096D01*
X148296071Y-68794071D01*
X148253671Y-68857527D01*
X148244098Y-68867100D01*
X148237778Y-68734546D01*
X148071864Y-68333995D01*
X147825745Y-68259861D01*
X146997605Y-69088000D01*
X147011748Y-69102142D01*
X146832143Y-69281748D01*
X146818000Y-69267605D01*
X146803858Y-69281748D01*
X146624252Y-69102142D01*
X146638395Y-69088000D01*
X145810255Y-68259861D01*
X145564136Y-68333995D01*
X145465440Y-68608578D01*
X145465440Y-68537600D01*
X145397157Y-68194318D01*
X145320943Y-68080255D01*
X145989861Y-68080255D01*
X146818000Y-68908395D01*
X147646139Y-68080255D01*
X147572005Y-67834136D01*
X147034777Y-67641035D01*
X146464546Y-67668222D01*
X146063995Y-67834136D01*
X145989861Y-68080255D01*
X145320943Y-68080255D01*
X145202703Y-67903297D01*
X144911682Y-67708843D01*
X144568400Y-67640560D01*
X143467600Y-67640560D01*
X143124318Y-67708843D01*
X142833297Y-67903297D01*
X142638843Y-68194318D01*
X142612252Y-68328000D01*
X142314848Y-68328000D01*
X142240000Y-68313112D01*
X142165152Y-68328000D01*
X142165148Y-68328000D01*
X141991605Y-68362520D01*
X141943462Y-68372096D01*
X141756418Y-68497076D01*
X141692071Y-68540071D01*
X141649671Y-68603527D01*
X140993530Y-69259669D01*
X140930071Y-69302071D01*
X140762096Y-69553464D01*
X140718000Y-69775149D01*
X140718000Y-69775153D01*
X140703112Y-69850000D01*
X140718000Y-69924847D01*
X140718000Y-72070728D01*
X140692473Y-72053671D01*
X139782331Y-71143530D01*
X139739929Y-71080071D01*
X139488537Y-70912096D01*
X139266852Y-70868000D01*
X139266847Y-70868000D01*
X139192000Y-70853112D01*
X139117153Y-70868000D01*
X137642430Y-70868000D01*
X137620534Y-70815138D01*
X137216862Y-70411466D01*
X137103417Y-70364475D01*
X137158005Y-70341864D01*
X137232139Y-70095745D01*
X136404000Y-69267605D01*
X135575861Y-70095745D01*
X135649995Y-70341864D01*
X135708448Y-70362874D01*
X135591138Y-70411466D01*
X135187466Y-70815138D01*
X135010475Y-71242431D01*
X134857864Y-70873995D01*
X134611745Y-70799861D01*
X133783605Y-71628000D01*
X133797748Y-71642142D01*
X133618142Y-71821748D01*
X133604000Y-71807605D01*
X132775861Y-72635745D01*
X132849995Y-72881864D01*
X133377668Y-73071531D01*
X133101528Y-73347671D01*
X133038072Y-73390071D01*
X132995672Y-73453527D01*
X132995671Y-73453528D01*
X132870097Y-73641463D01*
X132811112Y-73938000D01*
X132826001Y-74012852D01*
X132826000Y-75490054D01*
X132626414Y-75623414D01*
X132431873Y-75914564D01*
X132363560Y-76257999D01*
X132363560Y-76314874D01*
X132025874Y-76175000D01*
X131614126Y-76175000D01*
X131612483Y-76175681D01*
X127403103Y-71966302D01*
X127425000Y-71913439D01*
X127425000Y-71342561D01*
X127331745Y-71117424D01*
X127550537Y-71073904D01*
X127801929Y-70905929D01*
X127844331Y-70842470D01*
X128427296Y-70259505D01*
X128455414Y-70301586D01*
X128553313Y-70367000D01*
X128455414Y-70432414D01*
X128260873Y-70723564D01*
X128192560Y-71066999D01*
X128192560Y-71717001D01*
X128260873Y-72060436D01*
X128455414Y-72351586D01*
X128746564Y-72546127D01*
X129089999Y-72614440D01*
X129990001Y-72614440D01*
X130333436Y-72546127D01*
X130624586Y-72351586D01*
X130819127Y-72060436D01*
X130887440Y-71717001D01*
X130887440Y-71528628D01*
X131340525Y-71528628D01*
X131415372Y-71543516D01*
X131490219Y-71528628D01*
X131490224Y-71528628D01*
X131711909Y-71484532D01*
X131963301Y-71316557D01*
X132005703Y-71253098D01*
X132330681Y-70928120D01*
X132157035Y-71411223D01*
X132184222Y-71981454D01*
X132350136Y-72382005D01*
X132596255Y-72456139D01*
X133424395Y-71628000D01*
X133410252Y-71613858D01*
X133589858Y-71434252D01*
X133604000Y-71448395D01*
X134432139Y-70620255D01*
X134392336Y-70488112D01*
X134497682Y-70467157D01*
X134788703Y-70272703D01*
X134983157Y-69981682D01*
X135051440Y-69638400D01*
X135051440Y-69603732D01*
X135150136Y-69842005D01*
X135396255Y-69916139D01*
X136224395Y-69088000D01*
X136583605Y-69088000D01*
X137411745Y-69916139D01*
X137657864Y-69842005D01*
X137850965Y-69304777D01*
X137823778Y-68734546D01*
X137657864Y-68333995D01*
X137411745Y-68259861D01*
X136583605Y-69088000D01*
X136224395Y-69088000D01*
X135396255Y-68259861D01*
X135150136Y-68333995D01*
X135051440Y-68608578D01*
X135051440Y-68537600D01*
X134983157Y-68194318D01*
X134906943Y-68080255D01*
X135575861Y-68080255D01*
X136404000Y-68908395D01*
X137232139Y-68080255D01*
X137158005Y-67834136D01*
X136620777Y-67641035D01*
X136050546Y-67668222D01*
X135649995Y-67834136D01*
X135575861Y-68080255D01*
X134906943Y-68080255D01*
X134788703Y-67903297D01*
X134497682Y-67708843D01*
X134154400Y-67640560D01*
X133053600Y-67640560D01*
X132710318Y-67708843D01*
X132419297Y-67903297D01*
X132224843Y-68194318D01*
X132156560Y-68537600D01*
X132156560Y-68952638D01*
X131100571Y-70008628D01*
X130819487Y-70008628D01*
X130887440Y-69667001D01*
X130887440Y-69016999D01*
X130819127Y-68673564D01*
X130624586Y-68382414D01*
X130333436Y-68187873D01*
X129990001Y-68119560D01*
X129089999Y-68119560D01*
X128746564Y-68187873D01*
X128455414Y-68382414D01*
X128324728Y-68577998D01*
X128270000Y-68567112D01*
X128195153Y-68582000D01*
X128195148Y-68582000D01*
X127973463Y-68626096D01*
X127722071Y-68794071D01*
X127679671Y-68857527D01*
X127427657Y-69109542D01*
X127409778Y-68734546D01*
X127243864Y-68333995D01*
X126997745Y-68259861D01*
X126169605Y-69088000D01*
X126183748Y-69102142D01*
X126004143Y-69281748D01*
X125990000Y-69267605D01*
X125975858Y-69281748D01*
X125796252Y-69102142D01*
X125810395Y-69088000D01*
X124982255Y-68259861D01*
X124736136Y-68333995D01*
X124637440Y-68608578D01*
X124637440Y-68537600D01*
X124569157Y-68194318D01*
X124492943Y-68080255D01*
X125161861Y-68080255D01*
X125990000Y-68908395D01*
X126818139Y-68080255D01*
X126744005Y-67834136D01*
X126206777Y-67641035D01*
X125636546Y-67668222D01*
X125235995Y-67834136D01*
X125161861Y-68080255D01*
X124492943Y-68080255D01*
X124374703Y-67903297D01*
X124083682Y-67708843D01*
X123740400Y-67640560D01*
X122639600Y-67640560D01*
X122296318Y-67708843D01*
X122005297Y-67903297D01*
X121810843Y-68194318D01*
X121784252Y-68328000D01*
X121486846Y-68328000D01*
X121411999Y-68313112D01*
X121337152Y-68328000D01*
X121337148Y-68328000D01*
X121115463Y-68372096D01*
X121100021Y-68382414D01*
X120927526Y-68497671D01*
X120927524Y-68497673D01*
X120864071Y-68540071D01*
X120821672Y-68603525D01*
X120419527Y-69005672D01*
X120356072Y-69048071D01*
X120313672Y-69111527D01*
X120313671Y-69111528D01*
X120188097Y-69299463D01*
X120129112Y-69596000D01*
X120144001Y-69670852D01*
X120144000Y-77395153D01*
X120129112Y-77470000D01*
X120144000Y-77544847D01*
X120144000Y-77544851D01*
X120163525Y-77643009D01*
X120102071Y-77684071D01*
X120059672Y-77747526D01*
X119319199Y-78488000D01*
X119067711Y-78488000D01*
X118950280Y-78370569D01*
X118569874Y-78213000D01*
X118403802Y-78213000D01*
X117938331Y-77747530D01*
X117895929Y-77684071D01*
X117644537Y-77516096D01*
X117422852Y-77472000D01*
X117422847Y-77472000D01*
X117348000Y-77457112D01*
X117273153Y-77472000D01*
X116900803Y-77472000D01*
X116284440Y-76855638D01*
X116284440Y-76257999D01*
X116216127Y-75914564D01*
X116021586Y-75623414D01*
X115730436Y-75428873D01*
X115387001Y-75360560D01*
X114736999Y-75360560D01*
X114393564Y-75428873D01*
X114102414Y-75623414D01*
X114037000Y-75721313D01*
X113971586Y-75623414D01*
X113772000Y-75490054D01*
X113772000Y-74506801D01*
X115237698Y-73041103D01*
X115290561Y-73063000D01*
X115861439Y-73063000D01*
X116388862Y-72844534D01*
X116792534Y-72440862D01*
X117011000Y-71913439D01*
X117011000Y-71342561D01*
X116792534Y-70815138D01*
X116388862Y-70411466D01*
X116275417Y-70364475D01*
X116330005Y-70341864D01*
X116404139Y-70095745D01*
X115576000Y-69267605D01*
X114747861Y-70095745D01*
X114821995Y-70341864D01*
X114880448Y-70362874D01*
X114763138Y-70411466D01*
X114359466Y-70815138D01*
X114182475Y-71242431D01*
X114029864Y-70873995D01*
X113783745Y-70799861D01*
X112955605Y-71628000D01*
X112969748Y-71642142D01*
X112790142Y-71821748D01*
X112776000Y-71807605D01*
X111947861Y-72635745D01*
X112021995Y-72881864D01*
X112559223Y-73074965D01*
X113079016Y-73050183D01*
X112527528Y-73601671D01*
X112464072Y-73644071D01*
X112421672Y-73707527D01*
X112421671Y-73707528D01*
X112296097Y-73895463D01*
X112237112Y-74192000D01*
X112252001Y-74266852D01*
X112252000Y-75490054D01*
X112052414Y-75623414D01*
X111857873Y-75914564D01*
X111789560Y-76257999D01*
X111789560Y-77158001D01*
X111852018Y-77472000D01*
X109411711Y-77472000D01*
X109589431Y-77294280D01*
X109747000Y-76913874D01*
X109747000Y-76502126D01*
X109589431Y-76121720D01*
X109298280Y-75830569D01*
X108917874Y-75673000D01*
X108506126Y-75673000D01*
X108125720Y-75830569D01*
X108008289Y-75948000D01*
X106062778Y-75948000D01*
X106056127Y-75914564D01*
X105861586Y-75623414D01*
X105662000Y-75490054D01*
X105662000Y-72974126D01*
X105974862Y-72844534D01*
X106378534Y-72440862D01*
X106597000Y-71913439D01*
X106597000Y-71342561D01*
X106503984Y-71118000D01*
X107618560Y-71118000D01*
X107618560Y-71708001D01*
X107686873Y-72051436D01*
X107881414Y-72342586D01*
X108172564Y-72537127D01*
X108515999Y-72605440D01*
X109416001Y-72605440D01*
X109759436Y-72537127D01*
X110050586Y-72342586D01*
X110180216Y-72148582D01*
X110227000Y-72157888D01*
X110301847Y-72143000D01*
X110301852Y-72143000D01*
X110523537Y-72098904D01*
X110774929Y-71930929D01*
X110817330Y-71867471D01*
X111228475Y-71456328D01*
X111291929Y-71413929D01*
X111334327Y-71350476D01*
X111334329Y-71350474D01*
X111370129Y-71296895D01*
X111329035Y-71411223D01*
X111356222Y-71981454D01*
X111522136Y-72382005D01*
X111768255Y-72456139D01*
X112596395Y-71628000D01*
X111768255Y-70799861D01*
X111522136Y-70873995D01*
X111511303Y-70904134D01*
X111518888Y-70866001D01*
X111504000Y-70791154D01*
X111504000Y-70142054D01*
X111591297Y-70272703D01*
X111882318Y-70467157D01*
X111987664Y-70488112D01*
X111947861Y-70620255D01*
X112776000Y-71448395D01*
X113604139Y-70620255D01*
X113564336Y-70488112D01*
X113669682Y-70467157D01*
X113960703Y-70272703D01*
X114155157Y-69981682D01*
X114223440Y-69638400D01*
X114223440Y-69603732D01*
X114322136Y-69842005D01*
X114568255Y-69916139D01*
X115396395Y-69088000D01*
X115755605Y-69088000D01*
X116583745Y-69916139D01*
X116829864Y-69842005D01*
X117022965Y-69304777D01*
X116995778Y-68734546D01*
X116829864Y-68333995D01*
X116583745Y-68259861D01*
X115755605Y-69088000D01*
X115396395Y-69088000D01*
X114568255Y-68259861D01*
X114322136Y-68333995D01*
X114223440Y-68608578D01*
X114223440Y-68537600D01*
X114155157Y-68194318D01*
X114078943Y-68080255D01*
X114747861Y-68080255D01*
X115576000Y-68908395D01*
X116404139Y-68080255D01*
X116330005Y-67834136D01*
X115792777Y-67641035D01*
X115222546Y-67668222D01*
X114821995Y-67834136D01*
X114747861Y-68080255D01*
X114078943Y-68080255D01*
X113960703Y-67903297D01*
X113669682Y-67708843D01*
X113326400Y-67640560D01*
X112225600Y-67640560D01*
X111882318Y-67708843D01*
X111591297Y-67903297D01*
X111396843Y-68194318D01*
X111370252Y-68328000D01*
X111335846Y-68328000D01*
X111260999Y-68313112D01*
X111186152Y-68328000D01*
X111186148Y-68328000D01*
X110964463Y-68372096D01*
X110949021Y-68382414D01*
X110776526Y-68497671D01*
X110776524Y-68497673D01*
X110713071Y-68540071D01*
X110670672Y-68603525D01*
X110305602Y-68968596D01*
X110245127Y-68664564D01*
X110050586Y-68373414D01*
X109759436Y-68178873D01*
X109416001Y-68110560D01*
X108515999Y-68110560D01*
X108172564Y-68178873D01*
X107881414Y-68373414D01*
X107686873Y-68664564D01*
X107618560Y-69007999D01*
X107618560Y-69598000D01*
X106503569Y-69598000D01*
X106608965Y-69304777D01*
X106581778Y-68734546D01*
X106415864Y-68333995D01*
X106169745Y-68259861D01*
X105341605Y-69088000D01*
X105355748Y-69102142D01*
X105176143Y-69281748D01*
X105162000Y-69267605D01*
X105147858Y-69281748D01*
X104968252Y-69102142D01*
X104982395Y-69088000D01*
X104154255Y-68259861D01*
X103908136Y-68333995D01*
X103809440Y-68608578D01*
X103809440Y-68537600D01*
X103741157Y-68194318D01*
X103664943Y-68080255D01*
X104333861Y-68080255D01*
X105162000Y-68908395D01*
X105990139Y-68080255D01*
X105916005Y-67834136D01*
X105378777Y-67641035D01*
X104808546Y-67668222D01*
X104407995Y-67834136D01*
X104333861Y-68080255D01*
X103664943Y-68080255D01*
X103546703Y-67903297D01*
X103255682Y-67708843D01*
X102912400Y-67640560D01*
X101811600Y-67640560D01*
X101468318Y-67708843D01*
X101177297Y-67903297D01*
X100982843Y-68194318D01*
X100914560Y-68537600D01*
X100914560Y-69460638D01*
X100353530Y-70021669D01*
X100290071Y-70064071D01*
X100122096Y-70315464D01*
X100078000Y-70537149D01*
X100078000Y-70537153D01*
X100063112Y-70612000D01*
X100078000Y-70686847D01*
X100078001Y-75617148D01*
X100063112Y-75692000D01*
X100122097Y-75988537D01*
X100246688Y-76175000D01*
X100290072Y-76239929D01*
X100353528Y-76282329D01*
X101263670Y-77192472D01*
X101306071Y-77255929D01*
X101557463Y-77423904D01*
X101687600Y-77449790D01*
X101697873Y-77501436D01*
X101892414Y-77792586D01*
X102183564Y-77987127D01*
X102526999Y-78055440D01*
X103124638Y-78055440D01*
X103353198Y-78284000D01*
X100242227Y-78284000D01*
X100189078Y-78267751D01*
X100180198Y-78266423D01*
X99714078Y-78199669D01*
X99381254Y-78048343D01*
X99104280Y-77809687D01*
X98905421Y-77502885D01*
X98793382Y-77128252D01*
X98776979Y-76907530D01*
X98754000Y-76803016D01*
X98754000Y-66598581D01*
X98814090Y-66178991D01*
X98968381Y-65839648D01*
X99211712Y-65557248D01*
X99524523Y-65354494D01*
X99905184Y-65240652D01*
X100102350Y-65226000D01*
X159461419Y-65226000D01*
X159881009Y-65286090D01*
M02*
