%TF.GenerationSoftware,KiCad,Pcbnew,(5.0.1-3-g963ef8bb5)*%
%TF.CreationDate,2018-11-27T10:46:30+01:00*%
%TF.ProjectId,sensores,73656E736F7265732E6B696361645F70,rev?*%
%TF.SameCoordinates,Original*%
%TF.FileFunction,Profile,NP*%
%FSLAX46Y46*%
G04 Gerber Fmt 4.6, Leading zero omitted, Abs format (unit mm)*
G04 Created by KiCad (PCBNEW (5.0.1-3-g963ef8bb5)) date 2018 November 27, Tuesday 10:46:30*
%MOMM*%
%LPD*%
G01*
G04 APERTURE LIST*
%ADD10C,0.150000*%
%ADD11C,0.200000*%
G04 APERTURE END LIST*
D10*
X134620000Y-95504000D02*
X134620000Y-97282000D01*
X124968000Y-95504000D02*
X124968000Y-97282000D01*
X124968000Y-95504000D02*
X134620000Y-95504000D01*
X139700000Y-97282000D02*
G75*
G02X134620000Y-97282000I-2540000J0D01*
G01*
X124968000Y-97282000D02*
G75*
G02X119888000Y-97282000I-2540000J0D01*
G01*
X141478000Y-82296000D02*
X141478000Y-92964000D01*
X118110000Y-82296000D02*
X118110000Y-92964000D01*
X100076000Y-78994000D02*
X114808000Y-78994000D01*
X98044000Y-66548000D02*
X98044000Y-76962000D01*
X159512000Y-64516000D02*
X100076000Y-64516000D01*
X161544000Y-76962000D02*
X161544000Y-66548000D01*
X144780000Y-78994000D02*
X159512000Y-78994000D01*
D11*
X141478000Y-82296000D02*
G75*
G02X144780000Y-78994000I3302000J0D01*
G01*
X114808000Y-78994000D02*
G75*
G02X118110000Y-82296000I0J-3302000D01*
G01*
X100076000Y-78994000D02*
G75*
G02X98044000Y-76962000I0J2032000D01*
G01*
X161544000Y-76962000D02*
G75*
G02X159512000Y-78994000I-2032000J0D01*
G01*
D10*
X159512000Y-64516000D02*
G75*
G02X161544000Y-66548000I0J-2032000D01*
G01*
X98044000Y-66548000D02*
G75*
G02X100076000Y-64516000I2032000J0D01*
G01*
X118110000Y-92964000D02*
X119888000Y-94234000D01*
X139700000Y-94234000D02*
X141478000Y-92964000D01*
X139700000Y-94234000D02*
X139700000Y-97282000D01*
X119888000Y-94234000D02*
X119888000Y-97282000D01*
M02*
