%TF.GenerationSoftware,KiCad,Pcbnew,(5.0.1-3-g963ef8bb5)*%
%TF.CreationDate,2018-11-27T10:46:30+01:00*%
%TF.ProjectId,sensores,73656E736F7265732E6B696361645F70,rev?*%
%TF.SameCoordinates,Original*%
%TF.FileFunction,Legend,Top*%
%TF.FilePolarity,Positive*%
%FSLAX46Y46*%
G04 Gerber Fmt 4.6, Leading zero omitted, Abs format (unit mm)*
G04 Created by KiCad (PCBNEW (5.0.1-3-g963ef8bb5)) date 2018 November 27, Tuesday 10:46:30*
%MOMM*%
%LPD*%
G01*
G04 APERTURE LIST*
%ADD10C,0.150000*%
%ADD11C,0.200000*%
%ADD12C,0.120000*%
G04 APERTURE END LIST*
D10*
X134620000Y-95504000D02*
X134620000Y-97282000D01*
X124968000Y-95504000D02*
X124968000Y-97282000D01*
X124968000Y-95504000D02*
X134620000Y-95504000D01*
X139700000Y-97282000D02*
G75*
G02X134620000Y-97282000I-2540000J0D01*
G01*
X124968000Y-97282000D02*
G75*
G02X119888000Y-97282000I-2540000J0D01*
G01*
X141478000Y-82296000D02*
X141478000Y-92964000D01*
X118110000Y-82296000D02*
X118110000Y-92964000D01*
X100076000Y-78994000D02*
X114808000Y-78994000D01*
X98044000Y-66548000D02*
X98044000Y-76962000D01*
X159512000Y-64516000D02*
X100076000Y-64516000D01*
X161544000Y-76962000D02*
X161544000Y-66548000D01*
X144780000Y-78994000D02*
X159512000Y-78994000D01*
D11*
X141478000Y-82296000D02*
G75*
G02X144780000Y-78994000I3302000J0D01*
G01*
X114808000Y-78994000D02*
G75*
G02X118110000Y-82296000I0J-3302000D01*
G01*
X100076000Y-78994000D02*
G75*
G02X98044000Y-76962000I0J2032000D01*
G01*
X161544000Y-76962000D02*
G75*
G02X159512000Y-78994000I-2032000J0D01*
G01*
D10*
X159512000Y-64516000D02*
G75*
G02X161544000Y-66548000I0J-2032000D01*
G01*
X98044000Y-66548000D02*
G75*
G02X100076000Y-64516000I2032000J0D01*
G01*
X118110000Y-92964000D02*
X119888000Y-94234000D01*
X139700000Y-94234000D02*
X141478000Y-92964000D01*
X139700000Y-94234000D02*
X139700000Y-97282000D01*
X119888000Y-94234000D02*
X119888000Y-97282000D01*
D12*
X107362000Y-73988000D02*
X107362000Y-66788000D01*
X100162000Y-73988000D02*
X107362000Y-73988000D01*
X100162000Y-69088000D02*
X100162000Y-73988000D01*
X107362000Y-66788000D02*
X102362000Y-66788000D01*
X117776000Y-66788000D02*
X112776000Y-66788000D01*
X110576000Y-69088000D02*
X110576000Y-73988000D01*
X110576000Y-73988000D02*
X117776000Y-73988000D01*
X117776000Y-73988000D02*
X117776000Y-66788000D01*
X128190000Y-73988000D02*
X128190000Y-66788000D01*
X120990000Y-73988000D02*
X128190000Y-73988000D01*
X120990000Y-69088000D02*
X120990000Y-73988000D01*
X128190000Y-66788000D02*
X123190000Y-66788000D01*
X138604000Y-66788000D02*
X133604000Y-66788000D01*
X131404000Y-69088000D02*
X131404000Y-73988000D01*
X131404000Y-73988000D02*
X138604000Y-73988000D01*
X138604000Y-73988000D02*
X138604000Y-66788000D01*
X149018000Y-73988000D02*
X149018000Y-66788000D01*
X141818000Y-73988000D02*
X149018000Y-73988000D01*
X141818000Y-69088000D02*
X141818000Y-73988000D01*
X149018000Y-66788000D02*
X144018000Y-66788000D01*
X159432000Y-66788000D02*
X154432000Y-66788000D01*
X152232000Y-69088000D02*
X152232000Y-73988000D01*
X152232000Y-73988000D02*
X159432000Y-73988000D01*
X159432000Y-73988000D02*
X159432000Y-66788000D01*
D10*
X103000095Y-66492761D02*
X103142952Y-66540380D01*
X103381047Y-66540380D01*
X103476285Y-66492761D01*
X103523904Y-66445142D01*
X103571523Y-66349904D01*
X103571523Y-66254666D01*
X103523904Y-66159428D01*
X103476285Y-66111809D01*
X103381047Y-66064190D01*
X103190571Y-66016571D01*
X103095333Y-65968952D01*
X103047714Y-65921333D01*
X103000095Y-65826095D01*
X103000095Y-65730857D01*
X103047714Y-65635619D01*
X103095333Y-65588000D01*
X103190571Y-65540380D01*
X103428666Y-65540380D01*
X103571523Y-65588000D01*
X104523904Y-66540380D02*
X103952476Y-66540380D01*
X104238190Y-66540380D02*
X104238190Y-65540380D01*
X104142952Y-65683238D01*
X104047714Y-65778476D01*
X103952476Y-65826095D01*
X113414095Y-66492761D02*
X113556952Y-66540380D01*
X113795047Y-66540380D01*
X113890285Y-66492761D01*
X113937904Y-66445142D01*
X113985523Y-66349904D01*
X113985523Y-66254666D01*
X113937904Y-66159428D01*
X113890285Y-66111809D01*
X113795047Y-66064190D01*
X113604571Y-66016571D01*
X113509333Y-65968952D01*
X113461714Y-65921333D01*
X113414095Y-65826095D01*
X113414095Y-65730857D01*
X113461714Y-65635619D01*
X113509333Y-65588000D01*
X113604571Y-65540380D01*
X113842666Y-65540380D01*
X113985523Y-65588000D01*
X114366476Y-65635619D02*
X114414095Y-65588000D01*
X114509333Y-65540380D01*
X114747428Y-65540380D01*
X114842666Y-65588000D01*
X114890285Y-65635619D01*
X114937904Y-65730857D01*
X114937904Y-65826095D01*
X114890285Y-65968952D01*
X114318857Y-66540380D01*
X114937904Y-66540380D01*
X123828095Y-66492761D02*
X123970952Y-66540380D01*
X124209047Y-66540380D01*
X124304285Y-66492761D01*
X124351904Y-66445142D01*
X124399523Y-66349904D01*
X124399523Y-66254666D01*
X124351904Y-66159428D01*
X124304285Y-66111809D01*
X124209047Y-66064190D01*
X124018571Y-66016571D01*
X123923333Y-65968952D01*
X123875714Y-65921333D01*
X123828095Y-65826095D01*
X123828095Y-65730857D01*
X123875714Y-65635619D01*
X123923333Y-65588000D01*
X124018571Y-65540380D01*
X124256666Y-65540380D01*
X124399523Y-65588000D01*
X124732857Y-65540380D02*
X125351904Y-65540380D01*
X125018571Y-65921333D01*
X125161428Y-65921333D01*
X125256666Y-65968952D01*
X125304285Y-66016571D01*
X125351904Y-66111809D01*
X125351904Y-66349904D01*
X125304285Y-66445142D01*
X125256666Y-66492761D01*
X125161428Y-66540380D01*
X124875714Y-66540380D01*
X124780476Y-66492761D01*
X124732857Y-66445142D01*
X134242095Y-66492761D02*
X134384952Y-66540380D01*
X134623047Y-66540380D01*
X134718285Y-66492761D01*
X134765904Y-66445142D01*
X134813523Y-66349904D01*
X134813523Y-66254666D01*
X134765904Y-66159428D01*
X134718285Y-66111809D01*
X134623047Y-66064190D01*
X134432571Y-66016571D01*
X134337333Y-65968952D01*
X134289714Y-65921333D01*
X134242095Y-65826095D01*
X134242095Y-65730857D01*
X134289714Y-65635619D01*
X134337333Y-65588000D01*
X134432571Y-65540380D01*
X134670666Y-65540380D01*
X134813523Y-65588000D01*
X135670666Y-65873714D02*
X135670666Y-66540380D01*
X135432571Y-65492761D02*
X135194476Y-66207047D01*
X135813523Y-66207047D01*
X144656095Y-66492761D02*
X144798952Y-66540380D01*
X145037047Y-66540380D01*
X145132285Y-66492761D01*
X145179904Y-66445142D01*
X145227523Y-66349904D01*
X145227523Y-66254666D01*
X145179904Y-66159428D01*
X145132285Y-66111809D01*
X145037047Y-66064190D01*
X144846571Y-66016571D01*
X144751333Y-65968952D01*
X144703714Y-65921333D01*
X144656095Y-65826095D01*
X144656095Y-65730857D01*
X144703714Y-65635619D01*
X144751333Y-65588000D01*
X144846571Y-65540380D01*
X145084666Y-65540380D01*
X145227523Y-65588000D01*
X146132285Y-65540380D02*
X145656095Y-65540380D01*
X145608476Y-66016571D01*
X145656095Y-65968952D01*
X145751333Y-65921333D01*
X145989428Y-65921333D01*
X146084666Y-65968952D01*
X146132285Y-66016571D01*
X146179904Y-66111809D01*
X146179904Y-66349904D01*
X146132285Y-66445142D01*
X146084666Y-66492761D01*
X145989428Y-66540380D01*
X145751333Y-66540380D01*
X145656095Y-66492761D01*
X145608476Y-66445142D01*
X155070095Y-66492761D02*
X155212952Y-66540380D01*
X155451047Y-66540380D01*
X155546285Y-66492761D01*
X155593904Y-66445142D01*
X155641523Y-66349904D01*
X155641523Y-66254666D01*
X155593904Y-66159428D01*
X155546285Y-66111809D01*
X155451047Y-66064190D01*
X155260571Y-66016571D01*
X155165333Y-65968952D01*
X155117714Y-65921333D01*
X155070095Y-65826095D01*
X155070095Y-65730857D01*
X155117714Y-65635619D01*
X155165333Y-65588000D01*
X155260571Y-65540380D01*
X155498666Y-65540380D01*
X155641523Y-65588000D01*
X156498666Y-65540380D02*
X156308190Y-65540380D01*
X156212952Y-65588000D01*
X156165333Y-65635619D01*
X156070095Y-65778476D01*
X156022476Y-65968952D01*
X156022476Y-66349904D01*
X156070095Y-66445142D01*
X156117714Y-66492761D01*
X156212952Y-66540380D01*
X156403428Y-66540380D01*
X156498666Y-66492761D01*
X156546285Y-66445142D01*
X156593904Y-66349904D01*
X156593904Y-66111809D01*
X156546285Y-66016571D01*
X156498666Y-65968952D01*
X156403428Y-65921333D01*
X156212952Y-65921333D01*
X156117714Y-65968952D01*
X156070095Y-66016571D01*
X156022476Y-66111809D01*
M02*
