  0
SECTION
  2
HEADER
  9
$ANGBASE
  50
0.0
  9
$ANGDIR
  70
  1
  9
$MEASUREMENT
  70
0
  0
ENDSEC
  0
SECTION
  2
TABLES
  0
TABLE
  2
LTYPE
  70
4
  0
LTYPE
  5
40F
  2
CONTINUOUS
  70
0
  3
Solid line
  72
65
  73
0
  40
0.0
  0
LTYPE
  5
410
  2
DASHDOT
 70
0
  3
Dash Dot ____ _ ____ _
 72
65
 73
4
 40
2.0
 49
1.25
 49
-0.25
 49
0.25
 49
-0.25
  0
LTYPE
  5
411
  2
DASHED
 70
0
  3
Dashed __ __ __ __ __
 72
65
 73
2
 40
0.75
 49
0.5
 49
-0.25
  0
LTYPE
  5
43B
  2
DOTTED
 70
0
  3
Dotted .  .  .  .
 72
65
 73
2
 40
0.2
 49
0.0
 49
-0.2
  0
ENDTAB
  0
TABLE
  2
STYLE
  70
4
  0
STYLE
  2
KICAD
  70
0
  40
0
  41
1
  42
1
  50
0
  71
0
  3
isocp.shx
  0
STYLE
  2
KICADB
  70
0
  40
0
  41
1
  42
1
  50
0
  71
0
  3
isocp.shx
  0
STYLE
  2
KICADI
  70
0
  40
0
  41
1
  42
1
  50
15
  71
0
  3
isocp.shx
  0
STYLE
  2
KICADBI
  70
0
  40
0
  41
1
  42
1
  50
15
  71
0
  3
isocp.shx
  0
ENDTAB
  0
TABLE
  2
LAYER
  70
30
  0
LAYER
  2
BLACK
  70
0
  62
7
  6
CONTINUOUS
  0
LAYER
  2
GRAY1
  70
0
  62
251
  6
CONTINUOUS
  0
LAYER
  2
GRAY2
  70
0
  62
8
  6
CONTINUOUS
  0
LAYER
  2
GRAY3
  70
0
  62
9
  6
CONTINUOUS
  0
LAYER
  2
WHITE
  70
0
  62
7
  6
CONTINUOUS
  0
LAYER
  2
LYELLOW
  70
0
  62
51
  6
CONTINUOUS
  0
LAYER
  2
BLUE1
  70
0
  62
178
  6
CONTINUOUS
  0
LAYER
  2
GREEN1
  70
0
  62
98
  6
CONTINUOUS
  0
LAYER
  2
CYAN1
  70
0
  62
138
  6
CONTINUOUS
  0
LAYER
  2
RED1
  70
0
  62
18
  6
CONTINUOUS
  0
LAYER
  2
MAGENTA1
  70
0
  62
228
  6
CONTINUOUS
  0
LAYER
  2
BROWN1
  70
0
  62
58
  6
CONTINUOUS
  0
LAYER
  2
BLUE2
  70
0
  62
5
  6
CONTINUOUS
  0
LAYER
  2
GREEN2
  70
0
  62
3
  6
CONTINUOUS
  0
LAYER
  2
CYAN2
  70
0
  62
4
  6
CONTINUOUS
  0
LAYER
  2
RED2
  70
0
  62
1
  6
CONTINUOUS
  0
LAYER
  2
MAGENTA2
  70
0
  62
6
  6
CONTINUOUS
  0
LAYER
  2
BROWN2
  70
0
  62
54
  6
CONTINUOUS
  0
LAYER
  2
BLUE3
  70
0
  62
171
  6
CONTINUOUS
  0
LAYER
  2
GREEN3
  70
0
  62
91
  6
CONTINUOUS
  0
LAYER
  2
CYAN3
  70
0
  62
131
  6
CONTINUOUS
  0
LAYER
  2
RED3
  70
0
  62
11
  6
CONTINUOUS
  0
LAYER
  2
MAGENTA3
  70
0
  62
221
  6
CONTINUOUS
  0
LAYER
  2
YELLOW3
  70
0
  62
2
  6
CONTINUOUS
  0
LAYER
  2
BLUE4
  70
0
  62
5
  6
CONTINUOUS
  0
LAYER
  2
GREEN4
  70
0
  62
3
  6
CONTINUOUS
  0
LAYER
  2
CYAN4
  70
0
  62
4
  6
CONTINUOUS
  0
LAYER
  2
RED4
  70
0
  62
1
  6
CONTINUOUS
  0
LAYER
  2
MAGENTA4
  70
0
  62
6
  6
CONTINUOUS
  0
LAYER
  2
YELLOW4
  70
0
  62
2
  6
CONTINUOUS
  0
ENDTAB
  0
ENDSEC
  0
SECTION
  2
ENTITIES
0
LINE
8
BLACK
6
CONTINUOUS
10
61.0033
20
100.075
11
63.0066
21
100.075
0
LINE
8
BLACK
6
CONTINUOUS
10
63.0066
20
100.075
11
63.0099
21
100.074
0
LINE
8
BLACK
6
CONTINUOUS
10
63.0099
20
100.074
11
63.8921
21
99.9957
0
LINE
8
BLACK
6
CONTINUOUS
10
63.8921
20
99.9957
11
63.8921
21
99.9957
0
LINE
8
BLACK
6
CONTINUOUS
10
63.8921
20
99.9957
11
63.8921
21
99.9957
0
LINE
8
BLACK
6
CONTINUOUS
10
63.8921
20
99.9957
11
63.9006
21
99.9944
0
LINE
8
BLACK
6
CONTINUOUS
10
63.9006
20
99.9944
11
63.9029
21
99.9937
0
LINE
8
BLACK
6
CONTINUOUS
10
63.9029
20
99.9937
11
63.9052
21
99.9933
0
LINE
8
BLACK
6
CONTINUOUS
10
63.9052
20
99.9933
11
64.7626
21
99.7588
0
LINE
8
BLACK
6
CONTINUOUS
10
64.7626
20
99.7588
11
64.7627
21
99.7588
0
LINE
8
BLACK
6
CONTINUOUS
10
64.7627
20
99.7588
11
64.7627
21
99.7587
0
LINE
8
BLACK
6
CONTINUOUS
10
64.7627
20
99.7587
11
64.7708
21
99.756
0
LINE
8
BLACK
6
CONTINUOUS
10
64.7708
20
99.756
11
64.7729
21
99.7549
0
LINE
8
BLACK
6
CONTINUOUS
10
64.7729
20
99.7549
11
64.7751
21
99.7541
0
LINE
8
BLACK
6
CONTINUOUS
10
64.7751
20
99.7541
11
65.5775
21
99.3714
0
LINE
8
BLACK
6
CONTINUOUS
10
65.5775
20
99.3714
11
65.5775
21
99.3714
0
LINE
8
BLACK
6
CONTINUOUS
10
65.5775
20
99.3714
11
65.5775
21
99.3714
0
LINE
8
BLACK
6
CONTINUOUS
10
65.5775
20
99.3714
11
65.5851
21
99.3672
0
LINE
8
BLACK
6
CONTINUOUS
10
65.5851
20
99.3672
11
65.5869
21
99.3658
0
LINE
8
BLACK
6
CONTINUOUS
10
65.5869
20
99.3658
11
65.589
21
99.3646
0
LINE
8
BLACK
6
CONTINUOUS
10
65.589
20
99.3646
11
66.3109
21
98.8459
0
LINE
8
BLACK
6
CONTINUOUS
10
66.3109
20
98.8459
11
66.3176
21
98.8404
0
LINE
8
BLACK
6
CONTINUOUS
10
66.3176
20
98.8404
11
66.3192
21
98.8387
0
LINE
8
BLACK
6
CONTINUOUS
10
66.3192
20
98.8387
11
66.321
21
98.8372
0
LINE
8
BLACK
6
CONTINUOUS
10
66.321
20
98.8372
11
66.9396
21
98.1988
0
LINE
8
BLACK
6
CONTINUOUS
10
66.9396
20
98.1988
11
66.9452
21
98.1923
0
LINE
8
BLACK
6
CONTINUOUS
10
66.9452
20
98.1923
11
66.9465
21
98.1903
0
LINE
8
BLACK
6
CONTINUOUS
10
66.9465
20
98.1903
11
66.948
21
98.1884
0
LINE
8
BLACK
6
CONTINUOUS
10
66.948
20
98.1884
11
67.4438
21
97.4506
0
LINE
8
BLACK
6
CONTINUOUS
10
67.4438
20
97.4506
11
67.4482
21
97.4432
0
LINE
8
BLACK
6
CONTINUOUS
10
67.4482
20
97.4432
11
67.4491
21
97.441
0
LINE
8
BLACK
6
CONTINUOUS
10
67.4491
20
97.441
11
67.4502
21
97.4389
0
LINE
8
BLACK
6
CONTINUOUS
10
67.4502
20
97.4389
11
67.8075
21
96.6249
0
LINE
8
BLACK
6
CONTINUOUS
10
67.8075
20
96.6249
11
67.8105
21
96.6169
0
LINE
8
BLACK
6
CONTINUOUS
10
67.8105
20
96.6169
11
67.811
21
96.6145
0
LINE
8
BLACK
6
CONTINUOUS
10
67.811
20
96.6145
11
67.8118
21
96.6123
0
LINE
8
BLACK
6
CONTINUOUS
10
67.8118
20
96.6123
11
68.0193
21
95.7479
0
LINE
8
BLACK
6
CONTINUOUS
10
68.0193
20
95.7479
11
68.0208
21
95.7394
0
LINE
8
BLACK
6
CONTINUOUS
10
68.0208
20
95.7394
11
68.0209
21
95.7377
0
LINE
8
BLACK
6
CONTINUOUS
10
68.0209
20
95.7377
11
68.0212
21
95.7359
0
LINE
8
BLACK
6
CONTINUOUS
10
68.0212
20
95.7359
11
68.0733
21
95.0253
0
LINE
8
BLACK
6
CONTINUOUS
10
68.0733
20
95.0253
11
100.056
21
47.2506
0
LINE
8
BLACK
6
CONTINUOUS
10
100.056
20
47.2506
11
100.058
21
47.249
0
LINE
8
BLACK
6
CONTINUOUS
10
100.058
20
47.249
11
100.064
21
47.2397
0
LINE
8
BLACK
6
CONTINUOUS
10
100.064
20
47.2397
11
100.066
21
47.2363
0
LINE
8
BLACK
6
CONTINUOUS
10
100.066
20
47.2363
11
100.067
21
47.234
0
LINE
8
BLACK
6
CONTINUOUS
10
100.067
20
47.234
11
100.072
21
47.226
0
LINE
8
BLACK
6
CONTINUOUS
10
100.072
20
47.226
11
100.072
21
47.222
0
LINE
8
BLACK
6
CONTINUOUS
10
100.072
20
47.222
11
100.074
21
47.2182
0
LINE
8
BLACK
6
CONTINUOUS
10
100.074
20
47.2182
11
100.075
21
47.209
0
LINE
8
BLACK
6
CONTINUOUS
10
100.075
20
47.209
11
100.075
21
47.2066
0
LINE
8
BLACK
6
CONTINUOUS
10
100.075
20
47.2066
11
100.075
21
47.2025
0
LINE
8
BLACK
6
CONTINUOUS
10
100.075
20
47.2025
11
100.076
21
47.1918
0
LINE
8
BLACK
6
CONTINUOUS
10
100.076
20
47.1918
11
100.075
21
47.1893
0
LINE
8
BLACK
6
CONTINUOUS
10
100.075
20
47.1893
11
100.075
21
9.00326
0
LINE
8
BLACK
6
CONTINUOUS
10
100.075
20
9.00326
11
100.076
21
8.99336
0
LINE
8
BLACK
6
CONTINUOUS
10
100.076
20
8.99336
11
100.073
21
8.98375
0
LINE
8
BLACK
6
CONTINUOUS
10
100.073
20
8.98375
11
100.072
21
8.97395
0
LINE
8
BLACK
6
CONTINUOUS
10
100.072
20
8.97395
11
100.07
21
8.97105
0
LINE
8
BLACK
6
CONTINUOUS
10
100.07
20
8.97105
11
100.069
21
8.96781
0
LINE
8
BLACK
6
CONTINUOUS
10
100.069
20
8.96781
11
100.063
21
8.95967
0
LINE
8
BLACK
6
CONTINUOUS
10
100.063
20
8.95967
11
100.058
21
8.95105
0
LINE
8
BLACK
6
CONTINUOUS
10
100.058
20
8.95105
11
100.051
21
8.94466
0
LINE
8
BLACK
6
CONTINUOUS
10
100.051
20
8.94466
11
95.0553
21
3.94928
0
LINE
8
BLACK
6
CONTINUOUS
10
95.0553
20
3.94928
11
95.049
21
3.94166
0
LINE
8
BLACK
6
CONTINUOUS
10
95.049
20
3.94166
11
95.0403
21
3.93668
0
LINE
8
BLACK
6
CONTINUOUS
10
95.0403
20
3.93668
11
95.0322
21
3.93098
0
LINE
8
BLACK
6
CONTINUOUS
10
95.0322
20
3.93098
11
95.029
21
3.93011
0
LINE
8
BLACK
6
CONTINUOUS
10
95.029
20
3.93011
11
95.026
21
3.92844
0
LINE
8
BLACK
6
CONTINUOUS
10
95.026
20
3.92844
11
95.0162
21
3.92671
0
LINE
8
BLACK
6
CONTINUOUS
10
95.0162
20
3.92671
11
95.0066
21
3.92413
0
LINE
8
BLACK
6
CONTINUOUS
10
95.0066
20
3.92413
11
94.9967
21
3.925
0
LINE
8
BLACK
6
CONTINUOUS
10
94.9967
20
3.925
11
69.0311
21
3.925
0
LINE
8
BLACK
6
CONTINUOUS
10
69.0311
20
3.925
11
65.0553
21
-0.050719
0
LINE
8
BLACK
6
CONTINUOUS
10
65.0553
20
-0.050719
11
65.049
21
-0.058339
0
LINE
8
BLACK
6
CONTINUOUS
10
65.049
20
-0.058339
11
65.0403
21
-0.063319
0
LINE
8
BLACK
6
CONTINUOUS
10
65.0403
20
-0.063319
11
65.0322
21
-0.06902
0
LINE
8
BLACK
6
CONTINUOUS
10
65.0322
20
-0.06902
11
65.029
21
-0.069886
0
LINE
8
BLACK
6
CONTINUOUS
10
65.029
20
-0.069886
11
65.026
21
-0.071563
0
LINE
8
BLACK
6
CONTINUOUS
10
65.026
20
-0.071563
11
65.0162
21
-0.073292
0
LINE
8
BLACK
6
CONTINUOUS
10
65.0162
20
-0.073292
11
65.0066
21
-0.075866
0
LINE
8
BLACK
6
CONTINUOUS
10
65.0066
20
-0.075866
11
64.9967
21
-0.075
0
LINE
8
BLACK
6
CONTINUOUS
10
64.9967
20
-0.075
11
35.0033
21
-0.075
0
LINE
8
BLACK
6
CONTINUOUS
10
35.0033
20
-0.075
11
34.9934
21
-0.075866
0
LINE
8
BLACK
6
CONTINUOUS
10
34.9934
20
-0.075866
11
34.9838
21
-0.073291
0
LINE
8
BLACK
6
CONTINUOUS
10
34.9838
20
-0.073291
11
34.974
21
-0.071563
0
LINE
8
BLACK
6
CONTINUOUS
10
34.974
20
-0.071563
11
34.971
21
-0.069887
0
LINE
8
BLACK
6
CONTINUOUS
10
34.971
20
-0.069887
11
34.9678
21
-0.06902
0
LINE
8
BLACK
6
CONTINUOUS
10
34.9678
20
-0.06902
11
34.9597
21
-0.063316
0
LINE
8
BLACK
6
CONTINUOUS
10
34.9597
20
-0.063316
11
34.951
21
-0.058339
0
LINE
8
BLACK
6
CONTINUOUS
10
34.951
20
-0.058339
11
34.9447
21
-0.050726
0
LINE
8
BLACK
6
CONTINUOUS
10
34.9447
20
-0.050726
11
30.9689
21
3.925
0
LINE
8
BLACK
6
CONTINUOUS
10
30.9689
20
3.925
11
5.00326
21
3.925
0
LINE
8
BLACK
6
CONTINUOUS
10
5.00326
20
3.925
11
4.99336
21
3.92413
0
LINE
8
BLACK
6
CONTINUOUS
10
4.99336
20
3.92413
11
4.98375
21
3.92671
0
LINE
8
BLACK
6
CONTINUOUS
10
4.98375
20
3.92671
11
4.97395
21
3.92844
0
LINE
8
BLACK
6
CONTINUOUS
10
4.97395
20
3.92844
11
4.97105
21
3.93011
0
LINE
8
BLACK
6
CONTINUOUS
10
4.97105
20
3.93011
11
4.96781
21
3.93098
0
LINE
8
BLACK
6
CONTINUOUS
10
4.96781
20
3.93098
11
4.95967
21
3.93668
0
LINE
8
BLACK
6
CONTINUOUS
10
4.95967
20
3.93668
11
4.95105
21
3.94166
0
LINE
8
BLACK
6
CONTINUOUS
10
4.95105
20
3.94166
11
4.94466
21
3.94927
0
LINE
8
BLACK
6
CONTINUOUS
10
4.94466
20
3.94927
11
-0.050725
21
8.94466
0
LINE
8
BLACK
6
CONTINUOUS
10
-0.050725
20
8.94466
11
-0.058338
21
8.95105
0
LINE
8
BLACK
6
CONTINUOUS
10
-0.058338
20
8.95105
11
-0.063313
21
8.95967
0
LINE
8
BLACK
6
CONTINUOUS
10
-0.063313
20
8.95967
11
-0.06902
21
8.96782
0
LINE
8
BLACK
6
CONTINUOUS
10
-0.06902
20
8.96782
11
-0.069887
21
8.97105
0
LINE
8
BLACK
6
CONTINUOUS
10
-0.069887
20
8.97105
11
-0.071562
21
8.97395
0
LINE
8
BLACK
6
CONTINUOUS
10
-0.071562
20
8.97395
11
-0.073289
21
8.98375
0
LINE
8
BLACK
6
CONTINUOUS
10
-0.073289
20
8.98375
11
-0.075866
21
8.99336
0
LINE
8
BLACK
6
CONTINUOUS
10
-0.075866
20
8.99336
11
-0.074999
21
9.00327
0
LINE
8
BLACK
6
CONTINUOUS
10
-0.074999
20
9.00327
11
-0.075
21
47.1893
0
LINE
8
BLACK
6
CONTINUOUS
10
-0.075
20
47.1893
11
-0.07571
21
47.1918
0
LINE
8
BLACK
6
CONTINUOUS
10
-0.07571
20
47.1918
11
-0.075
21
47.2025
0
LINE
8
BLACK
6
CONTINUOUS
10
-0.075
20
47.2025
11
-0.075
21
47.2066
0
LINE
8
BLACK
6
CONTINUOUS
10
-0.075
20
47.2066
11
-0.074564
21
47.209
0
LINE
8
BLACK
6
CONTINUOUS
10
-0.074564
20
47.209
11
-0.073957
21
47.2182
0
LINE
8
BLACK
6
CONTINUOUS
10
-0.073957
20
47.2182
11
-0.072283
21
47.222
0
LINE
8
BLACK
6
CONTINUOUS
10
-0.072283
20
47.222
11
-0.071563
21
47.226
0
LINE
8
BLACK
6
CONTINUOUS
10
-0.071563
20
47.226
11
-0.066979
21
47.234
0
LINE
8
BLACK
6
CONTINUOUS
10
-0.066979
20
47.234
11
-0.06597
21
47.2363
0
LINE
8
BLACK
6
CONTINUOUS
10
-0.06597
20
47.2363
11
-0.063705
21
47.2397
0
LINE
8
BLACK
6
CONTINUOUS
10
-0.063705
20
47.2397
11
-0.058339
21
47.249
0
LINE
8
BLACK
6
CONTINUOUS
10
-0.058339
20
47.249
11
-0.056385
21
47.2506
0
LINE
8
BLACK
6
CONTINUOUS
10
-0.056385
20
47.2506
11
31.927
21
95.0258
0
LINE
8
BLACK
6
CONTINUOUS
10
31.927
20
95.0258
11
32.0043
21
95.8921
0
LINE
8
BLACK
6
CONTINUOUS
10
32.0043
20
95.8921
11
32.0056
21
95.9006
0
LINE
8
BLACK
6
CONTINUOUS
10
32.0056
20
95.9006
11
32.0063
21
95.9029
0
LINE
8
BLACK
6
CONTINUOUS
10
32.0063
20
95.9029
11
32.0067
21
95.9052
0
LINE
8
BLACK
6
CONTINUOUS
10
32.0067
20
95.9052
11
32.2412
21
96.7626
0
LINE
8
BLACK
6
CONTINUOUS
10
32.2412
20
96.7626
11
32.244
21
96.7708
0
LINE
8
BLACK
6
CONTINUOUS
10
32.244
20
96.7708
11
32.2451
21
96.7729
0
LINE
8
BLACK
6
CONTINUOUS
10
32.2451
20
96.7729
11
32.2459
21
96.7751
0
LINE
8
BLACK
6
CONTINUOUS
10
32.2459
20
96.7751
11
32.6286
21
97.5775
0
LINE
8
BLACK
6
CONTINUOUS
10
32.6286
20
97.5775
11
32.6286
21
97.5775
0
LINE
8
BLACK
6
CONTINUOUS
10
32.6286
20
97.5775
11
32.6286
21
97.5775
0
LINE
8
BLACK
6
CONTINUOUS
10
32.6286
20
97.5775
11
32.6328
21
97.5851
0
LINE
8
BLACK
6
CONTINUOUS
10
32.6328
20
97.5851
11
32.6342
21
97.5869
0
LINE
8
BLACK
6
CONTINUOUS
10
32.6342
20
97.5869
11
32.6354
21
97.589
0
LINE
8
BLACK
6
CONTINUOUS
10
32.6354
20
97.589
11
33.1541
21
98.3109
0
LINE
8
BLACK
6
CONTINUOUS
10
33.1541
20
98.3109
11
33.1596
21
98.3176
0
LINE
8
BLACK
6
CONTINUOUS
10
33.1596
20
98.3176
11
33.1613
21
98.3192
0
LINE
8
BLACK
6
CONTINUOUS
10
33.1613
20
98.3192
11
33.1628
21
98.321
0
LINE
8
BLACK
6
CONTINUOUS
10
33.1628
20
98.321
11
33.8012
21
98.9396
0
LINE
8
BLACK
6
CONTINUOUS
10
33.8012
20
98.9396
11
33.8077
21
98.9452
0
LINE
8
BLACK
6
CONTINUOUS
10
33.8077
20
98.9452
11
33.8097
21
98.9465
0
LINE
8
BLACK
6
CONTINUOUS
10
33.8097
20
98.9465
11
33.8116
21
98.948
0
LINE
8
BLACK
6
CONTINUOUS
10
33.8116
20
98.948
11
34.5494
21
99.4438
0
LINE
8
BLACK
6
CONTINUOUS
10
34.5494
20
99.4438
11
34.5568
21
99.4482
0
LINE
8
BLACK
6
CONTINUOUS
10
34.5568
20
99.4482
11
34.559
21
99.4491
0
LINE
8
BLACK
6
CONTINUOUS
10
34.559
20
99.4491
11
34.5611
21
99.4502
0
LINE
8
BLACK
6
CONTINUOUS
10
34.5611
20
99.4502
11
35.3751
21
99.8075
0
LINE
8
BLACK
6
CONTINUOUS
10
35.3751
20
99.8075
11
35.3831
21
99.8105
0
LINE
8
BLACK
6
CONTINUOUS
10
35.3831
20
99.8105
11
35.3855
21
99.811
0
LINE
8
BLACK
6
CONTINUOUS
10
35.3855
20
99.811
11
35.3877
21
99.8118
0
LINE
8
BLACK
6
CONTINUOUS
10
35.3877
20
99.8118
11
36.2521
21
100.019
0
LINE
8
BLACK
6
CONTINUOUS
10
36.2521
20
100.019
11
36.2606
21
100.021
0
LINE
8
BLACK
6
CONTINUOUS
10
36.2606
20
100.021
11
36.2623
21
100.021
0
LINE
8
BLACK
6
CONTINUOUS
10
36.2623
20
100.021
11
36.2641
21
100.021
0
LINE
8
BLACK
6
CONTINUOUS
10
36.2641
20
100.021
11
36.9907
21
100.075
0
LINE
8
BLACK
6
CONTINUOUS
10
36.9907
20
100.075
11
36.9934
21
100.075
0
LINE
8
BLACK
6
CONTINUOUS
10
36.9934
20
100.075
11
38.9967
21
100.075
0
LINE
8
BLACK
6
CONTINUOUS
10
38.9967
20
100.075
11
39.0066
21
100.076
0
LINE
8
BLACK
6
CONTINUOUS
10
39.0066
20
100.076
11
39.0162
21
100.073
0
LINE
8
BLACK
6
CONTINUOUS
10
39.0162
20
100.073
11
39.026
21
100.072
0
LINE
8
BLACK
6
CONTINUOUS
10
39.026
20
100.072
11
39.029
21
100.07
0
LINE
8
BLACK
6
CONTINUOUS
10
39.029
20
100.07
11
39.0322
21
100.069
0
LINE
8
BLACK
6
CONTINUOUS
10
39.0322
20
100.069
11
39.0403
21
100.063
0
LINE
8
BLACK
6
CONTINUOUS
10
39.0403
20
100.063
11
39.049
21
100.058
0
LINE
8
BLACK
6
CONTINUOUS
10
39.049
20
100.058
11
39.0553
21
100.051
0
LINE
8
BLACK
6
CONTINUOUS
10
39.0553
20
100.051
11
41.0311
21
98.075
0
LINE
8
BLACK
6
CONTINUOUS
10
41.0311
20
98.075
11
58.9689
21
98.075
0
LINE
8
BLACK
6
CONTINUOUS
10
58.9689
20
98.075
11
60.9447
21
100.051
0
LINE
8
BLACK
6
CONTINUOUS
10
60.9447
20
100.051
11
60.951
21
100.058
0
LINE
8
BLACK
6
CONTINUOUS
10
60.951
20
100.058
11
60.9597
21
100.063
0
LINE
8
BLACK
6
CONTINUOUS
10
60.9597
20
100.063
11
60.9678
21
100.069
0
LINE
8
BLACK
6
CONTINUOUS
10
60.9678
20
100.069
11
60.971
21
100.07
0
LINE
8
BLACK
6
CONTINUOUS
10
60.971
20
100.07
11
60.974
21
100.072
0
LINE
8
BLACK
6
CONTINUOUS
10
60.974
20
100.072
11
60.9838
21
100.073
0
LINE
8
BLACK
6
CONTINUOUS
10
60.9838
20
100.073
11
60.9934
21
100.076
0
LINE
8
BLACK
6
CONTINUOUS
10
60.9934
20
100.076
11
61.0033
21
100.075
0
LINE
8
BLACK
6
CONTINUOUS
10
37.0028
20
99.925
11
36.2812
21
99.872
0
LINE
8
BLACK
6
CONTINUOUS
10
36.2812
20
99.872
11
35.4292
21
99.6675
0
LINE
8
BLACK
6
CONTINUOUS
10
35.4292
20
99.6675
11
34.6275
21
99.3155
0
LINE
8
BLACK
6
CONTINUOUS
10
34.6275
20
99.3155
11
33.9008
21
98.8272
0
LINE
8
BLACK
6
CONTINUOUS
10
33.9008
20
98.8272
11
33.272
21
98.2179
0
LINE
8
BLACK
6
CONTINUOUS
10
33.272
20
98.2179
11
32.7611
21
97.5069
0
LINE
8
BLACK
6
CONTINUOUS
10
32.7611
20
97.5069
11
32.3842
21
96.7166
0
LINE
8
BLACK
6
CONTINUOUS
10
32.3842
20
96.7166
11
32.1531
21
95.8721
0
LINE
8
BLACK
6
CONTINUOUS
10
32.1531
20
95.8721
11
32.0748
21
94.9941
0
LINE
8
BLACK
6
CONTINUOUS
10
32.0748
20
94.9941
11
32.074
21
94.9818
0
LINE
8
BLACK
6
CONTINUOUS
10
32.074
20
94.9818
11
32.066
21
94.9637
0
LINE
8
BLACK
6
CONTINUOUS
10
32.066
20
94.9637
11
0.075
21
47.1772
0
LINE
8
BLACK
6
CONTINUOUS
10
0.075
20
47.1772
11
0.075
21
9.03106
0
LINE
8
BLACK
6
CONTINUOUS
10
0.075
20
9.03106
11
5.03107
21
4.075
0
LINE
8
BLACK
6
CONTINUOUS
10
5.03107
20
4.075
11
30.9967
21
4.075
0
LINE
8
BLACK
6
CONTINUOUS
10
30.9967
20
4.075
11
31.0066
21
4.07587
0
LINE
8
BLACK
6
CONTINUOUS
10
31.0066
20
4.07587
11
31.0162
21
4.07329
0
LINE
8
BLACK
6
CONTINUOUS
10
31.0162
20
4.07329
11
31.026
21
4.07156
0
LINE
8
BLACK
6
CONTINUOUS
10
31.026
20
4.07156
11
31.029
21
4.06989
0
LINE
8
BLACK
6
CONTINUOUS
10
31.029
20
4.06989
11
31.0322
21
4.06902
0
LINE
8
BLACK
6
CONTINUOUS
10
31.0322
20
4.06902
11
31.0403
21
4.06332
0
LINE
8
BLACK
6
CONTINUOUS
10
31.0403
20
4.06332
11
31.049
21
4.05834
0
LINE
8
BLACK
6
CONTINUOUS
10
31.049
20
4.05834
11
31.0553
21
4.05072
0
LINE
8
BLACK
6
CONTINUOUS
10
31.0553
20
4.05072
11
35.0311
21
0.075
0
LINE
8
BLACK
6
CONTINUOUS
10
35.0311
20
0.075
11
64.9689
21
0.075
0
LINE
8
BLACK
6
CONTINUOUS
10
64.9689
20
0.075
11
68.9447
21
4.05073
0
LINE
8
BLACK
6
CONTINUOUS
10
68.9447
20
4.05073
11
68.951
21
4.05834
0
LINE
8
BLACK
6
CONTINUOUS
10
68.951
20
4.05834
11
68.9597
21
4.06332
0
LINE
8
BLACK
6
CONTINUOUS
10
68.9597
20
4.06332
11
68.9678
21
4.06902
0
LINE
8
BLACK
6
CONTINUOUS
10
68.9678
20
4.06902
11
68.971
21
4.06989
0
LINE
8
BLACK
6
CONTINUOUS
10
68.971
20
4.06989
11
68.974
21
4.07156
0
LINE
8
BLACK
6
CONTINUOUS
10
68.974
20
4.07156
11
68.9838
21
4.07329
0
LINE
8
BLACK
6
CONTINUOUS
10
68.9838
20
4.07329
11
68.9934
21
4.07587
0
LINE
8
BLACK
6
CONTINUOUS
10
68.9934
20
4.07587
11
69.0033
21
4.075
0
LINE
8
BLACK
6
CONTINUOUS
10
69.0033
20
4.075
11
94.9689
21
4.075
0
LINE
8
BLACK
6
CONTINUOUS
10
94.9689
20
4.075
11
99.925
21
9.03107
0
LINE
8
BLACK
6
CONTINUOUS
10
99.925
20
9.03107
11
99.925
21
47.1772
0
LINE
8
BLACK
6
CONTINUOUS
10
99.925
20
47.1772
11
67.934
21
94.9637
0
LINE
8
BLACK
6
CONTINUOUS
10
67.934
20
94.9637
11
67.926
21
94.9818
0
LINE
8
BLACK
6
CONTINUOUS
10
67.926
20
94.9818
11
67.9252
21
94.9945
0
LINE
8
BLACK
6
CONTINUOUS
10
67.9252
20
94.9945
11
67.872
21
95.7188
0
LINE
8
BLACK
6
CONTINUOUS
10
67.872
20
95.7188
11
67.6675
21
96.5708
0
LINE
8
BLACK
6
CONTINUOUS
10
67.6675
20
96.5708
11
67.3155
21
97.3725
0
LINE
8
BLACK
6
CONTINUOUS
10
67.3155
20
97.3725
11
66.8272
21
98.0992
0
LINE
8
BLACK
6
CONTINUOUS
10
66.8272
20
98.0992
11
66.2179
21
98.728
0
LINE
8
BLACK
6
CONTINUOUS
10
66.2179
20
98.728
11
65.5069
21
99.2389
0
LINE
8
BLACK
6
CONTINUOUS
10
65.5069
20
99.2389
11
64.7166
21
99.6158
0
LINE
8
BLACK
6
CONTINUOUS
10
64.7166
20
99.6158
11
63.8721
21
99.8469
0
LINE
8
BLACK
6
CONTINUOUS
10
63.8721
20
99.8469
11
62.9967
21
99.925
0
LINE
8
BLACK
6
CONTINUOUS
10
62.9967
20
99.925
11
61.0311
21
99.925
0
LINE
8
BLACK
6
CONTINUOUS
10
61.0311
20
99.925
11
59.0553
21
97.9493
0
LINE
8
BLACK
6
CONTINUOUS
10
59.0553
20
97.9493
11
59.049
21
97.9417
0
LINE
8
BLACK
6
CONTINUOUS
10
59.049
20
97.9417
11
59.0403
21
97.9367
0
LINE
8
BLACK
6
CONTINUOUS
10
59.0403
20
97.9367
11
59.0322
21
97.931
0
LINE
8
BLACK
6
CONTINUOUS
10
59.0322
20
97.931
11
59.029
21
97.9301
0
LINE
8
BLACK
6
CONTINUOUS
10
59.029
20
97.9301
11
59.026
21
97.9284
0
LINE
8
BLACK
6
CONTINUOUS
10
59.026
20
97.9284
11
59.0162
21
97.9267
0
LINE
8
BLACK
6
CONTINUOUS
10
59.0162
20
97.9267
11
59.0066
21
97.9241
0
LINE
8
BLACK
6
CONTINUOUS
10
59.0066
20
97.9241
11
58.9967
21
97.925
0
LINE
8
BLACK
6
CONTINUOUS
10
58.9967
20
97.925
11
41.0033
21
97.925
0
LINE
8
BLACK
6
CONTINUOUS
10
41.0033
20
97.925
11
40.9934
21
97.9241
0
LINE
8
BLACK
6
CONTINUOUS
10
40.9934
20
97.9241
11
40.9838
21
97.9267
0
LINE
8
BLACK
6
CONTINUOUS
10
40.9838
20
97.9267
11
40.974
21
97.9284
0
LINE
8
BLACK
6
CONTINUOUS
10
40.974
20
97.9284
11
40.971
21
97.9301
0
LINE
8
BLACK
6
CONTINUOUS
10
40.971
20
97.9301
11
40.9678
21
97.931
0
LINE
8
BLACK
6
CONTINUOUS
10
40.9678
20
97.931
11
40.9597
21
97.9367
0
LINE
8
BLACK
6
CONTINUOUS
10
40.9597
20
97.9367
11
40.951
21
97.9417
0
LINE
8
BLACK
6
CONTINUOUS
10
40.951
20
97.9417
11
40.9447
21
97.9493
0
LINE
8
BLACK
6
CONTINUOUS
10
40.9447
20
97.9493
11
38.9689
21
99.925
0
LINE
8
BLACK
6
CONTINUOUS
10
38.9689
20
99.925
11
37.0028
21
99.925
0
LINE
8
BLACK
6
CONTINUOUS
10
33.9154
20
6.23187
11
33.5975
21
5.9651
0
LINE
8
BLACK
6
CONTINUOUS
10
33.5975
20
5.9651
11
33.2075
21
5.82315
0
LINE
8
BLACK
6
CONTINUOUS
10
33.2075
20
5.82315
11
32.7925
21
5.82315
0
LINE
8
BLACK
6
CONTINUOUS
10
32.7925
20
5.82315
11
32.4025
21
5.9651
0
LINE
8
BLACK
6
CONTINUOUS
10
32.4025
20
5.9651
11
32.0846
21
6.23187
0
LINE
8
BLACK
6
CONTINUOUS
10
32.0846
20
6.23187
11
31.8771
21
6.59129
0
LINE
8
BLACK
6
CONTINUOUS
10
31.8771
20
6.59129
11
31.805
21
7
0
LINE
8
BLACK
6
CONTINUOUS
10
31.805
20
7
11
31.8771
21
7.40871
0
LINE
8
BLACK
6
CONTINUOUS
10
31.8771
20
7.40871
11
32.0846
21
7.76813
0
LINE
8
BLACK
6
CONTINUOUS
10
32.0846
20
7.76813
11
32.4025
21
8.0349
0
LINE
8
BLACK
6
CONTINUOUS
10
32.4025
20
8.0349
11
32.7925
21
8.17685
0
LINE
8
BLACK
6
CONTINUOUS
10
32.7925
20
8.17685
11
33.2075
21
8.17685
0
LINE
8
BLACK
6
CONTINUOUS
10
33.2075
20
8.17685
11
33.5975
21
8.0349
0
LINE
8
BLACK
6
CONTINUOUS
10
33.5975
20
8.0349
11
33.9154
21
7.76813
0
LINE
8
BLACK
6
CONTINUOUS
10
33.9154
20
7.76813
11
34.1229
21
7.40871
0
LINE
8
BLACK
6
CONTINUOUS
10
34.1229
20
7.40871
11
34.195
21
7
0
LINE
8
BLACK
6
CONTINUOUS
10
34.195
20
7
11
34.1229
21
6.59129
0
LINE
8
BLACK
6
CONTINUOUS
10
34.1229
20
6.59129
11
33.9154
21
6.23187
0
LINE
8
BLACK
6
CONTINUOUS
10
33.7852
20
7.65886
11
33.5125
21
7.88768
0
LINE
8
BLACK
6
CONTINUOUS
10
33.5125
20
7.88768
11
33.178
21
8.00943
0
LINE
8
BLACK
6
CONTINUOUS
10
33.178
20
8.00943
11
32.822
21
8.00943
0
LINE
8
BLACK
6
CONTINUOUS
10
32.822
20
8.00943
11
32.4875
21
7.88768
0
LINE
8
BLACK
6
CONTINUOUS
10
32.4875
20
7.88768
11
32.2148
21
7.65886
0
LINE
8
BLACK
6
CONTINUOUS
10
32.2148
20
7.65886
11
32.0368
21
7.35057
0
LINE
8
BLACK
6
CONTINUOUS
10
32.0368
20
7.35057
11
31.975
21
7
0
LINE
8
BLACK
6
CONTINUOUS
10
31.975
20
7
11
32.0368
21
6.64943
0
LINE
8
BLACK
6
CONTINUOUS
10
32.0368
20
6.64943
11
32.2148
21
6.34114
0
LINE
8
BLACK
6
CONTINUOUS
10
32.2148
20
6.34114
11
32.4875
21
6.11232
0
LINE
8
BLACK
6
CONTINUOUS
10
32.4875
20
6.11232
11
32.822
21
5.99057
0
LINE
8
BLACK
6
CONTINUOUS
10
32.822
20
5.99057
11
33.178
21
5.99057
0
LINE
8
BLACK
6
CONTINUOUS
10
33.178
20
5.99057
11
33.5125
21
6.11232
0
LINE
8
BLACK
6
CONTINUOUS
10
33.5125
20
6.11232
11
33.7852
21
6.34114
0
LINE
8
BLACK
6
CONTINUOUS
10
33.7852
20
6.34114
11
33.9632
21
6.64943
0
LINE
8
BLACK
6
CONTINUOUS
10
33.9632
20
6.64943
11
34.025
21
7
0
LINE
8
BLACK
6
CONTINUOUS
10
34.025
20
7
11
33.9632
21
7.35057
0
LINE
8
BLACK
6
CONTINUOUS
10
33.9632
20
7.35057
11
33.7852
21
7.65886
0
LINE
8
BLACK
6
CONTINUOUS
10
67.9154
20
6.23187
11
67.5975
21
5.9651
0
LINE
8
BLACK
6
CONTINUOUS
10
67.5975
20
5.9651
11
67.2075
21
5.82315
0
LINE
8
BLACK
6
CONTINUOUS
10
67.2075
20
5.82315
11
66.7925
21
5.82315
0
LINE
8
BLACK
6
CONTINUOUS
10
66.7925
20
5.82315
11
66.4025
21
5.9651
0
LINE
8
BLACK
6
CONTINUOUS
10
66.4025
20
5.9651
11
66.0846
21
6.23187
0
LINE
8
BLACK
6
CONTINUOUS
10
66.0846
20
6.23187
11
65.8771
21
6.59129
0
LINE
8
BLACK
6
CONTINUOUS
10
65.8771
20
6.59129
11
65.805
21
7
0
LINE
8
BLACK
6
CONTINUOUS
10
65.805
20
7
11
65.8771
21
7.40871
0
LINE
8
BLACK
6
CONTINUOUS
10
65.8771
20
7.40871
11
66.0846
21
7.76813
0
LINE
8
BLACK
6
CONTINUOUS
10
66.0846
20
7.76813
11
66.4025
21
8.0349
0
LINE
8
BLACK
6
CONTINUOUS
10
66.4025
20
8.0349
11
66.7925
21
8.17685
0
LINE
8
BLACK
6
CONTINUOUS
10
66.7925
20
8.17685
11
67.2075
21
8.17685
0
LINE
8
BLACK
6
CONTINUOUS
10
67.2075
20
8.17685
11
67.5975
21
8.0349
0
LINE
8
BLACK
6
CONTINUOUS
10
67.5975
20
8.0349
11
67.9154
21
7.76813
0
LINE
8
BLACK
6
CONTINUOUS
10
67.9154
20
7.76813
11
68.1229
21
7.40871
0
LINE
8
BLACK
6
CONTINUOUS
10
68.1229
20
7.40871
11
68.195
21
7
0
LINE
8
BLACK
6
CONTINUOUS
10
68.195
20
7
11
68.1229
21
6.59129
0
LINE
8
BLACK
6
CONTINUOUS
10
68.1229
20
6.59129
11
67.9154
21
6.23187
0
LINE
8
BLACK
6
CONTINUOUS
10
67.7852
20
7.65886
11
67.5125
21
7.88768
0
LINE
8
BLACK
6
CONTINUOUS
10
67.5125
20
7.88768
11
67.178
21
8.00943
0
LINE
8
BLACK
6
CONTINUOUS
10
67.178
20
8.00943
11
66.822
21
8.00943
0
LINE
8
BLACK
6
CONTINUOUS
10
66.822
20
8.00943
11
66.4875
21
7.88768
0
LINE
8
BLACK
6
CONTINUOUS
10
66.4875
20
7.88768
11
66.2148
21
7.65886
0
LINE
8
BLACK
6
CONTINUOUS
10
66.2148
20
7.65886
11
66.0368
21
7.35057
0
LINE
8
BLACK
6
CONTINUOUS
10
66.0368
20
7.35057
11
65.975
21
7
0
LINE
8
BLACK
6
CONTINUOUS
10
65.975
20
7
11
66.0368
21
6.64943
0
LINE
8
BLACK
6
CONTINUOUS
10
66.0368
20
6.64943
11
66.2148
21
6.34114
0
LINE
8
BLACK
6
CONTINUOUS
10
66.2148
20
6.34114
11
66.4875
21
6.11232
0
LINE
8
BLACK
6
CONTINUOUS
10
66.4875
20
6.11232
11
66.822
21
5.99057
0
LINE
8
BLACK
6
CONTINUOUS
10
66.822
20
5.99057
11
67.178
21
5.99057
0
LINE
8
BLACK
6
CONTINUOUS
10
67.178
20
5.99057
11
67.5125
21
6.11232
0
LINE
8
BLACK
6
CONTINUOUS
10
67.5125
20
6.11232
11
67.7852
21
6.34114
0
LINE
8
BLACK
6
CONTINUOUS
10
67.7852
20
6.34114
11
67.9632
21
6.64943
0
LINE
8
BLACK
6
CONTINUOUS
10
67.9632
20
6.64943
11
68.025
21
7
0
LINE
8
BLACK
6
CONTINUOUS
10
68.025
20
7
11
67.9632
21
7.35057
0
LINE
8
BLACK
6
CONTINUOUS
10
67.9632
20
7.35057
11
67.7852
21
7.65886
0
LINE
8
BLACK
6
CONTINUOUS
10
90.9154
20
6.23187
11
90.5975
21
5.9651
0
LINE
8
BLACK
6
CONTINUOUS
10
90.5975
20
5.9651
11
90.2075
21
5.82315
0
LINE
8
BLACK
6
CONTINUOUS
10
90.2075
20
5.82315
11
89.7925
21
5.82315
0
LINE
8
BLACK
6
CONTINUOUS
10
89.7925
20
5.82315
11
89.4025
21
5.9651
0
LINE
8
BLACK
6
CONTINUOUS
10
89.4025
20
5.9651
11
89.0846
21
6.23187
0
LINE
8
BLACK
6
CONTINUOUS
10
89.0846
20
6.23187
11
88.8771
21
6.59129
0
LINE
8
BLACK
6
CONTINUOUS
10
88.8771
20
6.59129
11
88.805
21
7
0
LINE
8
BLACK
6
CONTINUOUS
10
88.805
20
7
11
88.8771
21
7.40871
0
LINE
8
BLACK
6
CONTINUOUS
10
88.8771
20
7.40871
11
89.0846
21
7.76813
0
LINE
8
BLACK
6
CONTINUOUS
10
89.0846
20
7.76813
11
89.4025
21
8.0349
0
LINE
8
BLACK
6
CONTINUOUS
10
89.4025
20
8.0349
11
89.7925
21
8.17685
0
LINE
8
BLACK
6
CONTINUOUS
10
89.7925
20
8.17685
11
90.2075
21
8.17685
0
LINE
8
BLACK
6
CONTINUOUS
10
90.2075
20
8.17685
11
90.5975
21
8.0349
0
LINE
8
BLACK
6
CONTINUOUS
10
90.5975
20
8.0349
11
90.9154
21
7.76813
0
LINE
8
BLACK
6
CONTINUOUS
10
90.9154
20
7.76813
11
91.1229
21
7.40871
0
LINE
8
BLACK
6
CONTINUOUS
10
91.1229
20
7.40871
11
91.195
21
7
0
LINE
8
BLACK
6
CONTINUOUS
10
91.195
20
7
11
91.1229
21
6.59129
0
LINE
8
BLACK
6
CONTINUOUS
10
91.1229
20
6.59129
11
90.9154
21
6.23187
0
LINE
8
BLACK
6
CONTINUOUS
10
90.7852
20
7.65886
11
90.5125
21
7.88768
0
LINE
8
BLACK
6
CONTINUOUS
10
90.5125
20
7.88768
11
90.178
21
8.00943
0
LINE
8
BLACK
6
CONTINUOUS
10
90.178
20
8.00943
11
89.822
21
8.00943
0
LINE
8
BLACK
6
CONTINUOUS
10
89.822
20
8.00943
11
89.4875
21
7.88768
0
LINE
8
BLACK
6
CONTINUOUS
10
89.4875
20
7.88768
11
89.2148
21
7.65886
0
LINE
8
BLACK
6
CONTINUOUS
10
89.2148
20
7.65886
11
89.0368
21
7.35057
0
LINE
8
BLACK
6
CONTINUOUS
10
89.0368
20
7.35057
11
88.975
21
7
0
LINE
8
BLACK
6
CONTINUOUS
10
88.975
20
7
11
89.0368
21
6.64943
0
LINE
8
BLACK
6
CONTINUOUS
10
89.0368
20
6.64943
11
89.2148
21
6.34114
0
LINE
8
BLACK
6
CONTINUOUS
10
89.2148
20
6.34114
11
89.4875
21
6.11232
0
LINE
8
BLACK
6
CONTINUOUS
10
89.4875
20
6.11232
11
89.822
21
5.99057
0
LINE
8
BLACK
6
CONTINUOUS
10
89.822
20
5.99057
11
90.178
21
5.99057
0
LINE
8
BLACK
6
CONTINUOUS
10
90.178
20
5.99057
11
90.5125
21
6.11232
0
LINE
8
BLACK
6
CONTINUOUS
10
90.5125
20
6.11232
11
90.7852
21
6.34114
0
LINE
8
BLACK
6
CONTINUOUS
10
90.7852
20
6.34114
11
90.9632
21
6.64943
0
LINE
8
BLACK
6
CONTINUOUS
10
90.9632
20
6.64943
11
91.025
21
7
0
LINE
8
BLACK
6
CONTINUOUS
10
91.025
20
7
11
90.9632
21
7.35057
0
LINE
8
BLACK
6
CONTINUOUS
10
90.9632
20
7.35057
11
90.7852
21
7.65886
0
LINE
8
BLACK
6
CONTINUOUS
10
10.9154
20
6.23187
11
10.5975
21
5.9651
0
LINE
8
BLACK
6
CONTINUOUS
10
10.5975
20
5.9651
11
10.2075
21
5.82315
0
LINE
8
BLACK
6
CONTINUOUS
10
10.2075
20
5.82315
11
9.79249
21
5.82315
0
LINE
8
BLACK
6
CONTINUOUS
10
9.79249
20
5.82315
11
9.4025
21
5.9651
0
LINE
8
BLACK
6
CONTINUOUS
10
9.4025
20
5.9651
11
9.08458
21
6.23187
0
LINE
8
BLACK
6
CONTINUOUS
10
9.08458
20
6.23187
11
8.87707
21
6.59129
0
LINE
8
BLACK
6
CONTINUOUS
10
8.87707
20
6.59129
11
8.805
21
7
0
LINE
8
BLACK
6
CONTINUOUS
10
8.805
20
7
11
8.87707
21
7.40871
0
LINE
8
BLACK
6
CONTINUOUS
10
8.87707
20
7.40871
11
9.08458
21
7.76813
0
LINE
8
BLACK
6
CONTINUOUS
10
9.08458
20
7.76813
11
9.4025
21
8.0349
0
LINE
8
BLACK
6
CONTINUOUS
10
9.4025
20
8.0349
11
9.79249
21
8.17685
0
LINE
8
BLACK
6
CONTINUOUS
10
9.79249
20
8.17685
11
10.2075
21
8.17685
0
LINE
8
BLACK
6
CONTINUOUS
10
10.2075
20
8.17685
11
10.5975
21
8.0349
0
LINE
8
BLACK
6
CONTINUOUS
10
10.5975
20
8.0349
11
10.9154
21
7.76813
0
LINE
8
BLACK
6
CONTINUOUS
10
10.9154
20
7.76813
11
11.1229
21
7.40871
0
LINE
8
BLACK
6
CONTINUOUS
10
11.1229
20
7.40871
11
11.195
21
7
0
LINE
8
BLACK
6
CONTINUOUS
10
11.195
20
7
11
11.1229
21
6.59129
0
LINE
8
BLACK
6
CONTINUOUS
10
11.1229
20
6.59129
11
10.9154
21
6.23187
0
LINE
8
BLACK
6
CONTINUOUS
10
10.7852
20
7.65886
11
10.5125
21
7.88768
0
LINE
8
BLACK
6
CONTINUOUS
10
10.5125
20
7.88768
11
10.178
21
8.00943
0
LINE
8
BLACK
6
CONTINUOUS
10
10.178
20
8.00943
11
9.82201
21
8.00943
0
LINE
8
BLACK
6
CONTINUOUS
10
9.82201
20
8.00943
11
9.4875
21
7.88768
0
LINE
8
BLACK
6
CONTINUOUS
10
9.4875
20
7.88768
11
9.2148
21
7.65886
0
LINE
8
BLACK
6
CONTINUOUS
10
9.2148
20
7.65886
11
9.03681
21
7.35057
0
LINE
8
BLACK
6
CONTINUOUS
10
9.03681
20
7.35057
11
8.975
21
7
0
LINE
8
BLACK
6
CONTINUOUS
10
8.975
20
7
11
9.03681
21
6.64943
0
LINE
8
BLACK
6
CONTINUOUS
10
9.03681
20
6.64943
11
9.2148
21
6.34114
0
LINE
8
BLACK
6
CONTINUOUS
10
9.2148
20
6.34114
11
9.4875
21
6.11232
0
LINE
8
BLACK
6
CONTINUOUS
10
9.4875
20
6.11232
11
9.82201
21
5.99057
0
LINE
8
BLACK
6
CONTINUOUS
10
9.82201
20
5.99057
11
10.178
21
5.99057
0
LINE
8
BLACK
6
CONTINUOUS
10
10.178
20
5.99057
11
10.5125
21
6.11232
0
LINE
8
BLACK
6
CONTINUOUS
10
10.5125
20
6.11232
11
10.7852
21
6.34114
0
LINE
8
BLACK
6
CONTINUOUS
10
10.7852
20
6.34114
11
10.9632
21
6.64943
0
LINE
8
BLACK
6
CONTINUOUS
10
10.9632
20
6.64943
11
11.025
21
7
0
LINE
8
BLACK
6
CONTINUOUS
10
11.025
20
7
11
10.9632
21
7.35057
0
LINE
8
BLACK
6
CONTINUOUS
10
10.9632
20
7.35057
11
10.7852
21
7.65886
0
LINE
8
BLACK
6
CONTINUOUS
10
96.9154
20
10.7319
11
96.5975
21
10.4651
0
LINE
8
BLACK
6
CONTINUOUS
10
96.5975
20
10.4651
11
96.2075
21
10.3232
0
LINE
8
BLACK
6
CONTINUOUS
10
96.2075
20
10.3232
11
95.7925
21
10.3232
0
LINE
8
BLACK
6
CONTINUOUS
10
95.7925
20
10.3232
11
95.4025
21
10.4651
0
LINE
8
BLACK
6
CONTINUOUS
10
95.4025
20
10.4651
11
95.0846
21
10.7319
0
LINE
8
BLACK
6
CONTINUOUS
10
95.0846
20
10.7319
11
94.8771
21
11.0913
0
LINE
8
BLACK
6
CONTINUOUS
10
94.8771
20
11.0913
11
94.805
21
11.5
0
LINE
8
BLACK
6
CONTINUOUS
10
94.805
20
11.5
11
94.8771
21
11.9087
0
LINE
8
BLACK
6
CONTINUOUS
10
94.8771
20
11.9087
11
95.0846
21
12.2681
0
LINE
8
BLACK
6
CONTINUOUS
10
95.0846
20
12.2681
11
95.4025
21
12.5349
0
LINE
8
BLACK
6
CONTINUOUS
10
95.4025
20
12.5349
11
95.7925
21
12.6768
0
LINE
8
BLACK
6
CONTINUOUS
10
95.7925
20
12.6768
11
96.2075
21
12.6768
0
LINE
8
BLACK
6
CONTINUOUS
10
96.2075
20
12.6768
11
96.5975
21
12.5349
0
LINE
8
BLACK
6
CONTINUOUS
10
96.5975
20
12.5349
11
96.9154
21
12.2681
0
LINE
8
BLACK
6
CONTINUOUS
10
96.9154
20
12.2681
11
97.1229
21
11.9087
0
LINE
8
BLACK
6
CONTINUOUS
10
97.1229
20
11.9087
11
97.195
21
11.5
0
LINE
8
BLACK
6
CONTINUOUS
10
97.195
20
11.5
11
97.1229
21
11.0913
0
LINE
8
BLACK
6
CONTINUOUS
10
97.1229
20
11.0913
11
96.9154
21
10.7319
0
LINE
8
BLACK
6
CONTINUOUS
10
96.7852
20
12.1589
11
96.5125
21
12.3877
0
LINE
8
BLACK
6
CONTINUOUS
10
96.5125
20
12.3877
11
96.178
21
12.5094
0
LINE
8
BLACK
6
CONTINUOUS
10
96.178
20
12.5094
11
95.822
21
12.5094
0
LINE
8
BLACK
6
CONTINUOUS
10
95.822
20
12.5094
11
95.4875
21
12.3877
0
LINE
8
BLACK
6
CONTINUOUS
10
95.4875
20
12.3877
11
95.2148
21
12.1589
0
LINE
8
BLACK
6
CONTINUOUS
10
95.2148
20
12.1589
11
95.0368
21
11.8506
0
LINE
8
BLACK
6
CONTINUOUS
10
95.0368
20
11.8506
11
94.975
21
11.5
0
LINE
8
BLACK
6
CONTINUOUS
10
94.975
20
11.5
11
95.0368
21
11.1494
0
LINE
8
BLACK
6
CONTINUOUS
10
95.0368
20
11.1494
11
95.2148
21
10.8411
0
LINE
8
BLACK
6
CONTINUOUS
10
95.2148
20
10.8411
11
95.4875
21
10.6123
0
LINE
8
BLACK
6
CONTINUOUS
10
95.4875
20
10.6123
11
95.822
21
10.4906
0
LINE
8
BLACK
6
CONTINUOUS
10
95.822
20
10.4906
11
96.178
21
10.4906
0
LINE
8
BLACK
6
CONTINUOUS
10
96.178
20
10.4906
11
96.5125
21
10.6123
0
LINE
8
BLACK
6
CONTINUOUS
10
96.5125
20
10.6123
11
96.7852
21
10.8411
0
LINE
8
BLACK
6
CONTINUOUS
10
96.7852
20
10.8411
11
96.9632
21
11.1494
0
LINE
8
BLACK
6
CONTINUOUS
10
96.9632
20
11.1494
11
97.025
21
11.5
0
LINE
8
BLACK
6
CONTINUOUS
10
97.025
20
11.5
11
96.9632
21
11.8506
0
LINE
8
BLACK
6
CONTINUOUS
10
96.9632
20
11.8506
11
96.7852
21
12.1589
0
LINE
8
BLACK
6
CONTINUOUS
10
4.91542
20
10.7319
11
4.5975
21
10.4651
0
LINE
8
BLACK
6
CONTINUOUS
10
4.5975
20
10.4651
11
4.20751
21
10.3232
0
LINE
8
BLACK
6
CONTINUOUS
10
4.20751
20
10.3232
11
3.79249
21
10.3232
0
LINE
8
BLACK
6
CONTINUOUS
10
3.79249
20
10.3232
11
3.4025
21
10.4651
0
LINE
8
BLACK
6
CONTINUOUS
10
3.4025
20
10.4651
11
3.08458
21
10.7319
0
LINE
8
BLACK
6
CONTINUOUS
10
3.08458
20
10.7319
11
2.87707
21
11.0913
0
LINE
8
BLACK
6
CONTINUOUS
10
2.87707
20
11.0913
11
2.805
21
11.5
0
LINE
8
BLACK
6
CONTINUOUS
10
2.805
20
11.5
11
2.87707
21
11.9087
0
LINE
8
BLACK
6
CONTINUOUS
10
2.87707
20
11.9087
11
3.08458
21
12.2681
0
LINE
8
BLACK
6
CONTINUOUS
10
3.08458
20
12.2681
11
3.4025
21
12.5349
0
LINE
8
BLACK
6
CONTINUOUS
10
3.4025
20
12.5349
11
3.79249
21
12.6768
0
LINE
8
BLACK
6
CONTINUOUS
10
3.79249
20
12.6768
11
4.20751
21
12.6768
0
LINE
8
BLACK
6
CONTINUOUS
10
4.20751
20
12.6768
11
4.5975
21
12.5349
0
LINE
8
BLACK
6
CONTINUOUS
10
4.5975
20
12.5349
11
4.91542
21
12.2681
0
LINE
8
BLACK
6
CONTINUOUS
10
4.91542
20
12.2681
11
5.12293
21
11.9087
0
LINE
8
BLACK
6
CONTINUOUS
10
5.12293
20
11.9087
11
5.195
21
11.5
0
LINE
8
BLACK
6
CONTINUOUS
10
5.195
20
11.5
11
5.12293
21
11.0913
0
LINE
8
BLACK
6
CONTINUOUS
10
5.12293
20
11.0913
11
4.91542
21
10.7319
0
LINE
8
BLACK
6
CONTINUOUS
10
4.7852
20
12.1589
11
4.5125
21
12.3877
0
LINE
8
BLACK
6
CONTINUOUS
10
4.5125
20
12.3877
11
4.17799
21
12.5094
0
LINE
8
BLACK
6
CONTINUOUS
10
4.17799
20
12.5094
11
3.82201
21
12.5094
0
LINE
8
BLACK
6
CONTINUOUS
10
3.82201
20
12.5094
11
3.4875
21
12.3877
0
LINE
8
BLACK
6
CONTINUOUS
10
3.4875
20
12.3877
11
3.2148
21
12.1589
0
LINE
8
BLACK
6
CONTINUOUS
10
3.2148
20
12.1589
11
3.03681
21
11.8506
0
LINE
8
BLACK
6
CONTINUOUS
10
3.03681
20
11.8506
11
2.975
21
11.5
0
LINE
8
BLACK
6
CONTINUOUS
10
2.975
20
11.5
11
3.03681
21
11.1494
0
LINE
8
BLACK
6
CONTINUOUS
10
3.03681
20
11.1494
11
3.2148
21
10.8411
0
LINE
8
BLACK
6
CONTINUOUS
10
3.2148
20
10.8411
11
3.4875
21
10.6123
0
LINE
8
BLACK
6
CONTINUOUS
10
3.4875
20
10.6123
11
3.82201
21
10.4906
0
LINE
8
BLACK
6
CONTINUOUS
10
3.82201
20
10.4906
11
4.17799
21
10.4906
0
LINE
8
BLACK
6
CONTINUOUS
10
4.17799
20
10.4906
11
4.5125
21
10.6123
0
LINE
8
BLACK
6
CONTINUOUS
10
4.5125
20
10.6123
11
4.7852
21
10.8411
0
LINE
8
BLACK
6
CONTINUOUS
10
4.7852
20
10.8411
11
4.96319
21
11.1494
0
LINE
8
BLACK
6
CONTINUOUS
10
4.96319
20
11.1494
11
5.025
21
11.5
0
LINE
8
BLACK
6
CONTINUOUS
10
5.025
20
11.5
11
4.96319
21
11.8506
0
LINE
8
BLACK
6
CONTINUOUS
10
4.96319
20
11.8506
11
4.7852
21
12.1589
0
LINE
8
BLACK
6
CONTINUOUS
10
96.9154
20
28.7319
11
96.5975
21
28.4651
0
LINE
8
BLACK
6
CONTINUOUS
10
96.5975
20
28.4651
11
96.2075
21
28.3232
0
LINE
8
BLACK
6
CONTINUOUS
10
96.2075
20
28.3232
11
95.7925
21
28.3232
0
LINE
8
BLACK
6
CONTINUOUS
10
95.7925
20
28.3232
11
95.4025
21
28.4651
0
LINE
8
BLACK
6
CONTINUOUS
10
95.4025
20
28.4651
11
95.0846
21
28.7319
0
LINE
8
BLACK
6
CONTINUOUS
10
95.0846
20
28.7319
11
94.8771
21
29.0913
0
LINE
8
BLACK
6
CONTINUOUS
10
94.8771
20
29.0913
11
94.805
21
29.5
0
LINE
8
BLACK
6
CONTINUOUS
10
94.805
20
29.5
11
94.8771
21
29.9087
0
LINE
8
BLACK
6
CONTINUOUS
10
94.8771
20
29.9087
11
95.0846
21
30.2681
0
LINE
8
BLACK
6
CONTINUOUS
10
95.0846
20
30.2681
11
95.4025
21
30.5349
0
LINE
8
BLACK
6
CONTINUOUS
10
95.4025
20
30.5349
11
95.7925
21
30.6768
0
LINE
8
BLACK
6
CONTINUOUS
10
95.7925
20
30.6768
11
96.2075
21
30.6768
0
LINE
8
BLACK
6
CONTINUOUS
10
96.2075
20
30.6768
11
96.5975
21
30.5349
0
LINE
8
BLACK
6
CONTINUOUS
10
96.5975
20
30.5349
11
96.9154
21
30.2681
0
LINE
8
BLACK
6
CONTINUOUS
10
96.9154
20
30.2681
11
97.1229
21
29.9087
0
LINE
8
BLACK
6
CONTINUOUS
10
97.1229
20
29.9087
11
97.195
21
29.5
0
LINE
8
BLACK
6
CONTINUOUS
10
97.195
20
29.5
11
97.1229
21
29.0913
0
LINE
8
BLACK
6
CONTINUOUS
10
97.1229
20
29.0913
11
96.9154
21
28.7319
0
LINE
8
BLACK
6
CONTINUOUS
10
96.7852
20
30.1589
11
96.5125
21
30.3877
0
LINE
8
BLACK
6
CONTINUOUS
10
96.5125
20
30.3877
11
96.178
21
30.5094
0
LINE
8
BLACK
6
CONTINUOUS
10
96.178
20
30.5094
11
95.822
21
30.5094
0
LINE
8
BLACK
6
CONTINUOUS
10
95.822
20
30.5094
11
95.4875
21
30.3877
0
LINE
8
BLACK
6
CONTINUOUS
10
95.4875
20
30.3877
11
95.2148
21
30.1589
0
LINE
8
BLACK
6
CONTINUOUS
10
95.2148
20
30.1589
11
95.0368
21
29.8506
0
LINE
8
BLACK
6
CONTINUOUS
10
95.0368
20
29.8506
11
94.975
21
29.5
0
LINE
8
BLACK
6
CONTINUOUS
10
94.975
20
29.5
11
95.0368
21
29.1494
0
LINE
8
BLACK
6
CONTINUOUS
10
95.0368
20
29.1494
11
95.2148
21
28.8411
0
LINE
8
BLACK
6
CONTINUOUS
10
95.2148
20
28.8411
11
95.4875
21
28.6123
0
LINE
8
BLACK
6
CONTINUOUS
10
95.4875
20
28.6123
11
95.822
21
28.4906
0
LINE
8
BLACK
6
CONTINUOUS
10
95.822
20
28.4906
11
96.178
21
28.4906
0
LINE
8
BLACK
6
CONTINUOUS
10
96.178
20
28.4906
11
96.5125
21
28.6123
0
LINE
8
BLACK
6
CONTINUOUS
10
96.5125
20
28.6123
11
96.7852
21
28.8411
0
LINE
8
BLACK
6
CONTINUOUS
10
96.7852
20
28.8411
11
96.9632
21
29.1494
0
LINE
8
BLACK
6
CONTINUOUS
10
96.9632
20
29.1494
11
97.025
21
29.5
0
LINE
8
BLACK
6
CONTINUOUS
10
97.025
20
29.5
11
96.9632
21
29.8506
0
LINE
8
BLACK
6
CONTINUOUS
10
96.9632
20
29.8506
11
96.7852
21
30.1589
0
LINE
8
BLACK
6
CONTINUOUS
10
4.91542
20
28.7319
11
4.5975
21
28.4651
0
LINE
8
BLACK
6
CONTINUOUS
10
4.5975
20
28.4651
11
4.20751
21
28.3232
0
LINE
8
BLACK
6
CONTINUOUS
10
4.20751
20
28.3232
11
3.79249
21
28.3232
0
LINE
8
BLACK
6
CONTINUOUS
10
3.79249
20
28.3232
11
3.4025
21
28.4651
0
LINE
8
BLACK
6
CONTINUOUS
10
3.4025
20
28.4651
11
3.08458
21
28.7319
0
LINE
8
BLACK
6
CONTINUOUS
10
3.08458
20
28.7319
11
2.87707
21
29.0913
0
LINE
8
BLACK
6
CONTINUOUS
10
2.87707
20
29.0913
11
2.805
21
29.5
0
LINE
8
BLACK
6
CONTINUOUS
10
2.805
20
29.5
11
2.87707
21
29.9087
0
LINE
8
BLACK
6
CONTINUOUS
10
2.87707
20
29.9087
11
3.08458
21
30.2681
0
LINE
8
BLACK
6
CONTINUOUS
10
3.08458
20
30.2681
11
3.4025
21
30.5349
0
LINE
8
BLACK
6
CONTINUOUS
10
3.4025
20
30.5349
11
3.79249
21
30.6768
0
LINE
8
BLACK
6
CONTINUOUS
10
3.79249
20
30.6768
11
4.20751
21
30.6768
0
LINE
8
BLACK
6
CONTINUOUS
10
4.20751
20
30.6768
11
4.5975
21
30.5349
0
LINE
8
BLACK
6
CONTINUOUS
10
4.5975
20
30.5349
11
4.91542
21
30.2681
0
LINE
8
BLACK
6
CONTINUOUS
10
4.91542
20
30.2681
11
5.12293
21
29.9087
0
LINE
8
BLACK
6
CONTINUOUS
10
5.12293
20
29.9087
11
5.195
21
29.5
0
LINE
8
BLACK
6
CONTINUOUS
10
5.195
20
29.5
11
5.12293
21
29.0913
0
LINE
8
BLACK
6
CONTINUOUS
10
5.12293
20
29.0913
11
4.91542
21
28.7319
0
LINE
8
BLACK
6
CONTINUOUS
10
4.7852
20
30.1589
11
4.5125
21
30.3877
0
LINE
8
BLACK
6
CONTINUOUS
10
4.5125
20
30.3877
11
4.17799
21
30.5094
0
LINE
8
BLACK
6
CONTINUOUS
10
4.17799
20
30.5094
11
3.82201
21
30.5094
0
LINE
8
BLACK
6
CONTINUOUS
10
3.82201
20
30.5094
11
3.4875
21
30.3877
0
LINE
8
BLACK
6
CONTINUOUS
10
3.4875
20
30.3877
11
3.2148
21
30.1589
0
LINE
8
BLACK
6
CONTINUOUS
10
3.2148
20
30.1589
11
3.03681
21
29.8506
0
LINE
8
BLACK
6
CONTINUOUS
10
3.03681
20
29.8506
11
2.975
21
29.5
0
LINE
8
BLACK
6
CONTINUOUS
10
2.975
20
29.5
11
3.03681
21
29.1494
0
LINE
8
BLACK
6
CONTINUOUS
10
3.03681
20
29.1494
11
3.2148
21
28.8411
0
LINE
8
BLACK
6
CONTINUOUS
10
3.2148
20
28.8411
11
3.4875
21
28.6123
0
LINE
8
BLACK
6
CONTINUOUS
10
3.4875
20
28.6123
11
3.82201
21
28.4906
0
LINE
8
BLACK
6
CONTINUOUS
10
3.82201
20
28.4906
11
4.17799
21
28.4906
0
LINE
8
BLACK
6
CONTINUOUS
10
4.17799
20
28.4906
11
4.5125
21
28.6123
0
LINE
8
BLACK
6
CONTINUOUS
10
4.5125
20
28.6123
11
4.7852
21
28.8411
0
LINE
8
BLACK
6
CONTINUOUS
10
4.7852
20
28.8411
11
4.96319
21
29.1494
0
LINE
8
BLACK
6
CONTINUOUS
10
4.96319
20
29.1494
11
5.025
21
29.5
0
LINE
8
BLACK
6
CONTINUOUS
10
5.025
20
29.5
11
4.96319
21
29.8506
0
LINE
8
BLACK
6
CONTINUOUS
10
4.96319
20
29.8506
11
4.7852
21
30.1589
0
LINE
8
BLACK
6
CONTINUOUS
10
33.9154
20
30.2319
11
33.5975
21
29.9651
0
LINE
8
BLACK
6
CONTINUOUS
10
33.5975
20
29.9651
11
33.2075
21
29.8232
0
LINE
8
BLACK
6
CONTINUOUS
10
33.2075
20
29.8232
11
32.7925
21
29.8232
0
LINE
8
BLACK
6
CONTINUOUS
10
32.7925
20
29.8232
11
32.4025
21
29.9651
0
LINE
8
BLACK
6
CONTINUOUS
10
32.4025
20
29.9651
11
32.0846
21
30.2319
0
LINE
8
BLACK
6
CONTINUOUS
10
32.0846
20
30.2319
11
31.8771
21
30.5913
0
LINE
8
BLACK
6
CONTINUOUS
10
31.8771
20
30.5913
11
31.805
21
31
0
LINE
8
BLACK
6
CONTINUOUS
10
31.805
20
31
11
31.8771
21
31.4087
0
LINE
8
BLACK
6
CONTINUOUS
10
31.8771
20
31.4087
11
32.0846
21
31.7681
0
LINE
8
BLACK
6
CONTINUOUS
10
32.0846
20
31.7681
11
32.4025
21
32.0349
0
LINE
8
BLACK
6
CONTINUOUS
10
32.4025
20
32.0349
11
32.7925
21
32.1768
0
LINE
8
BLACK
6
CONTINUOUS
10
32.7925
20
32.1768
11
33.2075
21
32.1768
0
LINE
8
BLACK
6
CONTINUOUS
10
33.2075
20
32.1768
11
33.5975
21
32.0349
0
LINE
8
BLACK
6
CONTINUOUS
10
33.5975
20
32.0349
11
33.9154
21
31.7681
0
LINE
8
BLACK
6
CONTINUOUS
10
33.9154
20
31.7681
11
34.1229
21
31.4087
0
LINE
8
BLACK
6
CONTINUOUS
10
34.1229
20
31.4087
11
34.195
21
31
0
LINE
8
BLACK
6
CONTINUOUS
10
34.195
20
31
11
34.1229
21
30.5913
0
LINE
8
BLACK
6
CONTINUOUS
10
34.1229
20
30.5913
11
33.9154
21
30.2319
0
LINE
8
BLACK
6
CONTINUOUS
10
33.7852
20
31.6589
11
33.5125
21
31.8877
0
LINE
8
BLACK
6
CONTINUOUS
10
33.5125
20
31.8877
11
33.178
21
32.0094
0
LINE
8
BLACK
6
CONTINUOUS
10
33.178
20
32.0094
11
32.822
21
32.0094
0
LINE
8
BLACK
6
CONTINUOUS
10
32.822
20
32.0094
11
32.4875
21
31.8877
0
LINE
8
BLACK
6
CONTINUOUS
10
32.4875
20
31.8877
11
32.2148
21
31.6589
0
LINE
8
BLACK
6
CONTINUOUS
10
32.2148
20
31.6589
11
32.0368
21
31.3506
0
LINE
8
BLACK
6
CONTINUOUS
10
32.0368
20
31.3506
11
31.975
21
31
0
LINE
8
BLACK
6
CONTINUOUS
10
31.975
20
31
11
32.0368
21
30.6494
0
LINE
8
BLACK
6
CONTINUOUS
10
32.0368
20
30.6494
11
32.2148
21
30.3411
0
LINE
8
BLACK
6
CONTINUOUS
10
32.2148
20
30.3411
11
32.4875
21
30.1123
0
LINE
8
BLACK
6
CONTINUOUS
10
32.4875
20
30.1123
11
32.822
21
29.9906
0
LINE
8
BLACK
6
CONTINUOUS
10
32.822
20
29.9906
11
33.178
21
29.9906
0
LINE
8
BLACK
6
CONTINUOUS
10
33.178
20
29.9906
11
33.5125
21
30.1123
0
LINE
8
BLACK
6
CONTINUOUS
10
33.5125
20
30.1123
11
33.7852
21
30.3411
0
LINE
8
BLACK
6
CONTINUOUS
10
33.7852
20
30.3411
11
33.9632
21
30.6494
0
LINE
8
BLACK
6
CONTINUOUS
10
33.9632
20
30.6494
11
34.025
21
31
0
LINE
8
BLACK
6
CONTINUOUS
10
34.025
20
31
11
33.9632
21
31.3506
0
LINE
8
BLACK
6
CONTINUOUS
10
33.9632
20
31.3506
11
33.7852
21
31.6589
0
LINE
8
BLACK
6
CONTINUOUS
10
67.9154
20
30.2319
11
67.5975
21
29.9651
0
LINE
8
BLACK
6
CONTINUOUS
10
67.5975
20
29.9651
11
67.2075
21
29.8232
0
LINE
8
BLACK
6
CONTINUOUS
10
67.2075
20
29.8232
11
66.7925
21
29.8232
0
LINE
8
BLACK
6
CONTINUOUS
10
66.7925
20
29.8232
11
66.4025
21
29.9651
0
LINE
8
BLACK
6
CONTINUOUS
10
66.4025
20
29.9651
11
66.0846
21
30.2319
0
LINE
8
BLACK
6
CONTINUOUS
10
66.0846
20
30.2319
11
65.8771
21
30.5913
0
LINE
8
BLACK
6
CONTINUOUS
10
65.8771
20
30.5913
11
65.805
21
31
0
LINE
8
BLACK
6
CONTINUOUS
10
65.805
20
31
11
65.8771
21
31.4087
0
LINE
8
BLACK
6
CONTINUOUS
10
65.8771
20
31.4087
11
66.0846
21
31.7681
0
LINE
8
BLACK
6
CONTINUOUS
10
66.0846
20
31.7681
11
66.4025
21
32.0349
0
LINE
8
BLACK
6
CONTINUOUS
10
66.4025
20
32.0349
11
66.7925
21
32.1768
0
LINE
8
BLACK
6
CONTINUOUS
10
66.7925
20
32.1768
11
67.2075
21
32.1768
0
LINE
8
BLACK
6
CONTINUOUS
10
67.2075
20
32.1768
11
67.5975
21
32.0349
0
LINE
8
BLACK
6
CONTINUOUS
10
67.5975
20
32.0349
11
67.9154
21
31.7681
0
LINE
8
BLACK
6
CONTINUOUS
10
67.9154
20
31.7681
11
68.1229
21
31.4087
0
LINE
8
BLACK
6
CONTINUOUS
10
68.1229
20
31.4087
11
68.195
21
31
0
LINE
8
BLACK
6
CONTINUOUS
10
68.195
20
31
11
68.1229
21
30.5913
0
LINE
8
BLACK
6
CONTINUOUS
10
68.1229
20
30.5913
11
67.9154
21
30.2319
0
LINE
8
BLACK
6
CONTINUOUS
10
67.7852
20
31.6589
11
67.5125
21
31.8877
0
LINE
8
BLACK
6
CONTINUOUS
10
67.5125
20
31.8877
11
67.178
21
32.0094
0
LINE
8
BLACK
6
CONTINUOUS
10
67.178
20
32.0094
11
66.822
21
32.0094
0
LINE
8
BLACK
6
CONTINUOUS
10
66.822
20
32.0094
11
66.4875
21
31.8877
0
LINE
8
BLACK
6
CONTINUOUS
10
66.4875
20
31.8877
11
66.2148
21
31.6589
0
LINE
8
BLACK
6
CONTINUOUS
10
66.2148
20
31.6589
11
66.0368
21
31.3506
0
LINE
8
BLACK
6
CONTINUOUS
10
66.0368
20
31.3506
11
65.975
21
31
0
LINE
8
BLACK
6
CONTINUOUS
10
65.975
20
31
11
66.0368
21
30.6494
0
LINE
8
BLACK
6
CONTINUOUS
10
66.0368
20
30.6494
11
66.2148
21
30.3411
0
LINE
8
BLACK
6
CONTINUOUS
10
66.2148
20
30.3411
11
66.4875
21
30.1123
0
LINE
8
BLACK
6
CONTINUOUS
10
66.4875
20
30.1123
11
66.822
21
29.9906
0
LINE
8
BLACK
6
CONTINUOUS
10
66.822
20
29.9906
11
67.178
21
29.9906
0
LINE
8
BLACK
6
CONTINUOUS
10
67.178
20
29.9906
11
67.5125
21
30.1123
0
LINE
8
BLACK
6
CONTINUOUS
10
67.5125
20
30.1123
11
67.7852
21
30.3411
0
LINE
8
BLACK
6
CONTINUOUS
10
67.7852
20
30.3411
11
67.9632
21
30.6494
0
LINE
8
BLACK
6
CONTINUOUS
10
67.9632
20
30.6494
11
68.025
21
31
0
LINE
8
BLACK
6
CONTINUOUS
10
68.025
20
31
11
67.9632
21
31.3506
0
LINE
8
BLACK
6
CONTINUOUS
10
67.9632
20
31.3506
11
67.7852
21
31.6589
0
LINE
8
BLACK
6
CONTINUOUS
10
18.9154
20
56.2319
11
18.5975
21
55.9651
0
LINE
8
BLACK
6
CONTINUOUS
10
18.5975
20
55.9651
11
18.2075
21
55.8232
0
LINE
8
BLACK
6
CONTINUOUS
10
18.2075
20
55.8232
11
17.7925
21
55.8232
0
LINE
8
BLACK
6
CONTINUOUS
10
17.7925
20
55.8232
11
17.4025
21
55.9651
0
LINE
8
BLACK
6
CONTINUOUS
10
17.4025
20
55.9651
11
17.0846
21
56.2319
0
LINE
8
BLACK
6
CONTINUOUS
10
17.0846
20
56.2319
11
16.8771
21
56.5913
0
LINE
8
BLACK
6
CONTINUOUS
10
16.8771
20
56.5913
11
16.805
21
57
0
LINE
8
BLACK
6
CONTINUOUS
10
16.805
20
57
11
16.8771
21
57.4087
0
LINE
8
BLACK
6
CONTINUOUS
10
16.8771
20
57.4087
11
17.0846
21
57.7681
0
LINE
8
BLACK
6
CONTINUOUS
10
17.0846
20
57.7681
11
17.4025
21
58.0349
0
LINE
8
BLACK
6
CONTINUOUS
10
17.4025
20
58.0349
11
17.7925
21
58.1768
0
LINE
8
BLACK
6
CONTINUOUS
10
17.7925
20
58.1768
11
18.2075
21
58.1768
0
LINE
8
BLACK
6
CONTINUOUS
10
18.2075
20
58.1768
11
18.5975
21
58.0349
0
LINE
8
BLACK
6
CONTINUOUS
10
18.5975
20
58.0349
11
18.9154
21
57.7681
0
LINE
8
BLACK
6
CONTINUOUS
10
18.9154
20
57.7681
11
19.1229
21
57.4087
0
LINE
8
BLACK
6
CONTINUOUS
10
19.1229
20
57.4087
11
19.195
21
57
0
LINE
8
BLACK
6
CONTINUOUS
10
19.195
20
57
11
19.1229
21
56.5913
0
LINE
8
BLACK
6
CONTINUOUS
10
19.1229
20
56.5913
11
18.9154
21
56.2319
0
LINE
8
BLACK
6
CONTINUOUS
10
18.7852
20
57.6589
11
18.5125
21
57.8877
0
LINE
8
BLACK
6
CONTINUOUS
10
18.5125
20
57.8877
11
18.178
21
58.0094
0
LINE
8
BLACK
6
CONTINUOUS
10
18.178
20
58.0094
11
17.822
21
58.0094
0
LINE
8
BLACK
6
CONTINUOUS
10
17.822
20
58.0094
11
17.4875
21
57.8877
0
LINE
8
BLACK
6
CONTINUOUS
10
17.4875
20
57.8877
11
17.2148
21
57.6589
0
LINE
8
BLACK
6
CONTINUOUS
10
17.2148
20
57.6589
11
17.0368
21
57.3506
0
LINE
8
BLACK
6
CONTINUOUS
10
17.0368
20
57.3506
11
16.975
21
57
0
LINE
8
BLACK
6
CONTINUOUS
10
16.975
20
57
11
17.0368
21
56.6494
0
LINE
8
BLACK
6
CONTINUOUS
10
17.0368
20
56.6494
11
17.2148
21
56.3411
0
LINE
8
BLACK
6
CONTINUOUS
10
17.2148
20
56.3411
11
17.4875
21
56.1123
0
LINE
8
BLACK
6
CONTINUOUS
10
17.4875
20
56.1123
11
17.822
21
55.9906
0
LINE
8
BLACK
6
CONTINUOUS
10
17.822
20
55.9906
11
18.178
21
55.9906
0
LINE
8
BLACK
6
CONTINUOUS
10
18.178
20
55.9906
11
18.5125
21
56.1123
0
LINE
8
BLACK
6
CONTINUOUS
10
18.5125
20
56.1123
11
18.7852
21
56.3411
0
LINE
8
BLACK
6
CONTINUOUS
10
18.7852
20
56.3411
11
18.9632
21
56.6494
0
LINE
8
BLACK
6
CONTINUOUS
10
18.9632
20
56.6494
11
19.025
21
57
0
LINE
8
BLACK
6
CONTINUOUS
10
19.025
20
57
11
18.9632
21
57.3506
0
LINE
8
BLACK
6
CONTINUOUS
10
18.9632
20
57.3506
11
18.7852
21
57.6589
0
LINE
8
BLACK
6
CONTINUOUS
10
82.9154
20
56.2319
11
82.5975
21
55.9651
0
LINE
8
BLACK
6
CONTINUOUS
10
82.5975
20
55.9651
11
82.2075
21
55.8232
0
LINE
8
BLACK
6
CONTINUOUS
10
82.2075
20
55.8232
11
81.7925
21
55.8232
0
LINE
8
BLACK
6
CONTINUOUS
10
81.7925
20
55.8232
11
81.4025
21
55.9651
0
LINE
8
BLACK
6
CONTINUOUS
10
81.4025
20
55.9651
11
81.0846
21
56.2319
0
LINE
8
BLACK
6
CONTINUOUS
10
81.0846
20
56.2319
11
80.8771
21
56.5913
0
LINE
8
BLACK
6
CONTINUOUS
10
80.8771
20
56.5913
11
80.805
21
57
0
LINE
8
BLACK
6
CONTINUOUS
10
80.805
20
57
11
80.8771
21
57.4087
0
LINE
8
BLACK
6
CONTINUOUS
10
80.8771
20
57.4087
11
81.0846
21
57.7681
0
LINE
8
BLACK
6
CONTINUOUS
10
81.0846
20
57.7681
11
81.4025
21
58.0349
0
LINE
8
BLACK
6
CONTINUOUS
10
81.4025
20
58.0349
11
81.7925
21
58.1768
0
LINE
8
BLACK
6
CONTINUOUS
10
81.7925
20
58.1768
11
82.2075
21
58.1768
0
LINE
8
BLACK
6
CONTINUOUS
10
82.2075
20
58.1768
11
82.5975
21
58.0349
0
LINE
8
BLACK
6
CONTINUOUS
10
82.5975
20
58.0349
11
82.9154
21
57.7681
0
LINE
8
BLACK
6
CONTINUOUS
10
82.9154
20
57.7681
11
83.1229
21
57.4087
0
LINE
8
BLACK
6
CONTINUOUS
10
83.1229
20
57.4087
11
83.195
21
57
0
LINE
8
BLACK
6
CONTINUOUS
10
83.195
20
57
11
83.1229
21
56.5913
0
LINE
8
BLACK
6
CONTINUOUS
10
83.1229
20
56.5913
11
82.9154
21
56.2319
0
LINE
8
BLACK
6
CONTINUOUS
10
82.7852
20
57.6589
11
82.5125
21
57.8877
0
LINE
8
BLACK
6
CONTINUOUS
10
82.5125
20
57.8877
11
82.178
21
58.0094
0
LINE
8
BLACK
6
CONTINUOUS
10
82.178
20
58.0094
11
81.822
21
58.0094
0
LINE
8
BLACK
6
CONTINUOUS
10
81.822
20
58.0094
11
81.4875
21
57.8877
0
LINE
8
BLACK
6
CONTINUOUS
10
81.4875
20
57.8877
11
81.2148
21
57.6589
0
LINE
8
BLACK
6
CONTINUOUS
10
81.2148
20
57.6589
11
81.0368
21
57.3506
0
LINE
8
BLACK
6
CONTINUOUS
10
81.0368
20
57.3506
11
80.975
21
57
0
LINE
8
BLACK
6
CONTINUOUS
10
80.975
20
57
11
81.0368
21
56.6494
0
LINE
8
BLACK
6
CONTINUOUS
10
81.0368
20
56.6494
11
81.2148
21
56.3411
0
LINE
8
BLACK
6
CONTINUOUS
10
81.2148
20
56.3411
11
81.4875
21
56.1123
0
LINE
8
BLACK
6
CONTINUOUS
10
81.4875
20
56.1123
11
81.822
21
55.9906
0
LINE
8
BLACK
6
CONTINUOUS
10
81.822
20
55.9906
11
82.178
21
55.9906
0
LINE
8
BLACK
6
CONTINUOUS
10
82.178
20
55.9906
11
82.5125
21
56.1123
0
LINE
8
BLACK
6
CONTINUOUS
10
82.5125
20
56.1123
11
82.7852
21
56.3411
0
LINE
8
BLACK
6
CONTINUOUS
10
82.7852
20
56.3411
11
82.9632
21
56.6494
0
LINE
8
BLACK
6
CONTINUOUS
10
82.9632
20
56.6494
11
83.025
21
57
0
LINE
8
BLACK
6
CONTINUOUS
10
83.025
20
57
11
82.9632
21
57.3506
0
LINE
8
BLACK
6
CONTINUOUS
10
82.9632
20
57.3506
11
82.7852
21
57.6589
0
LINE
8
BLACK
6
CONTINUOUS
10
69.9154
20
77.2319
11
69.5975
21
76.9651
0
LINE
8
BLACK
6
CONTINUOUS
10
69.5975
20
76.9651
11
69.2075
21
76.8232
0
LINE
8
BLACK
6
CONTINUOUS
10
69.2075
20
76.8232
11
68.7925
21
76.8232
0
LINE
8
BLACK
6
CONTINUOUS
10
68.7925
20
76.8232
11
68.4025
21
76.9651
0
LINE
8
BLACK
6
CONTINUOUS
10
68.4025
20
76.9651
11
68.0846
21
77.2319
0
LINE
8
BLACK
6
CONTINUOUS
10
68.0846
20
77.2319
11
67.8771
21
77.5913
0
LINE
8
BLACK
6
CONTINUOUS
10
67.8771
20
77.5913
11
67.805
21
78
0
LINE
8
BLACK
6
CONTINUOUS
10
67.805
20
78
11
67.8771
21
78.4087
0
LINE
8
BLACK
6
CONTINUOUS
10
67.8771
20
78.4087
11
68.0846
21
78.7681
0
LINE
8
BLACK
6
CONTINUOUS
10
68.0846
20
78.7681
11
68.4025
21
79.0349
0
LINE
8
BLACK
6
CONTINUOUS
10
68.4025
20
79.0349
11
68.7925
21
79.1768
0
LINE
8
BLACK
6
CONTINUOUS
10
68.7925
20
79.1768
11
69.2075
21
79.1768
0
LINE
8
BLACK
6
CONTINUOUS
10
69.2075
20
79.1768
11
69.5975
21
79.0349
0
LINE
8
BLACK
6
CONTINUOUS
10
69.5975
20
79.0349
11
69.9154
21
78.7681
0
LINE
8
BLACK
6
CONTINUOUS
10
69.9154
20
78.7681
11
70.1229
21
78.4087
0
LINE
8
BLACK
6
CONTINUOUS
10
70.1229
20
78.4087
11
70.195
21
78
0
LINE
8
BLACK
6
CONTINUOUS
10
70.195
20
78
11
70.1229
21
77.5913
0
LINE
8
BLACK
6
CONTINUOUS
10
70.1229
20
77.5913
11
69.9154
21
77.2319
0
LINE
8
BLACK
6
CONTINUOUS
10
69.7852
20
78.6589
11
69.5125
21
78.8877
0
LINE
8
BLACK
6
CONTINUOUS
10
69.5125
20
78.8877
11
69.178
21
79.0094
0
LINE
8
BLACK
6
CONTINUOUS
10
69.178
20
79.0094
11
68.822
21
79.0094
0
LINE
8
BLACK
6
CONTINUOUS
10
68.822
20
79.0094
11
68.4875
21
78.8877
0
LINE
8
BLACK
6
CONTINUOUS
10
68.4875
20
78.8877
11
68.2148
21
78.6589
0
LINE
8
BLACK
6
CONTINUOUS
10
68.2148
20
78.6589
11
68.0368
21
78.3506
0
LINE
8
BLACK
6
CONTINUOUS
10
68.0368
20
78.3506
11
67.975
21
78
0
LINE
8
BLACK
6
CONTINUOUS
10
67.975
20
78
11
68.0368
21
77.6494
0
LINE
8
BLACK
6
CONTINUOUS
10
68.0368
20
77.6494
11
68.2148
21
77.3411
0
LINE
8
BLACK
6
CONTINUOUS
10
68.2148
20
77.3411
11
68.4875
21
77.1123
0
LINE
8
BLACK
6
CONTINUOUS
10
68.4875
20
77.1123
11
68.822
21
76.9906
0
LINE
8
BLACK
6
CONTINUOUS
10
68.822
20
76.9906
11
69.178
21
76.9906
0
LINE
8
BLACK
6
CONTINUOUS
10
69.178
20
76.9906
11
69.5125
21
77.1123
0
LINE
8
BLACK
6
CONTINUOUS
10
69.5125
20
77.1123
11
69.7852
21
77.3411
0
LINE
8
BLACK
6
CONTINUOUS
10
69.7852
20
77.3411
11
69.9632
21
77.6494
0
LINE
8
BLACK
6
CONTINUOUS
10
69.9632
20
77.6494
11
70.025
21
78
0
LINE
8
BLACK
6
CONTINUOUS
10
70.025
20
78
11
69.9632
21
78.3506
0
LINE
8
BLACK
6
CONTINUOUS
10
69.9632
20
78.3506
11
69.7852
21
78.6589
0
LINE
8
BLACK
6
CONTINUOUS
10
31.9154
20
77.2319
11
31.5975
21
76.9651
0
LINE
8
BLACK
6
CONTINUOUS
10
31.5975
20
76.9651
11
31.2075
21
76.8232
0
LINE
8
BLACK
6
CONTINUOUS
10
31.2075
20
76.8232
11
30.7925
21
76.8232
0
LINE
8
BLACK
6
CONTINUOUS
10
30.7925
20
76.8232
11
30.4025
21
76.9651
0
LINE
8
BLACK
6
CONTINUOUS
10
30.4025
20
76.9651
11
30.0846
21
77.2319
0
LINE
8
BLACK
6
CONTINUOUS
10
30.0846
20
77.2319
11
29.8771
21
77.5913
0
LINE
8
BLACK
6
CONTINUOUS
10
29.8771
20
77.5913
11
29.805
21
78
0
LINE
8
BLACK
6
CONTINUOUS
10
29.805
20
78
11
29.8771
21
78.4087
0
LINE
8
BLACK
6
CONTINUOUS
10
29.8771
20
78.4087
11
30.0846
21
78.7681
0
LINE
8
BLACK
6
CONTINUOUS
10
30.0846
20
78.7681
11
30.4025
21
79.0349
0
LINE
8
BLACK
6
CONTINUOUS
10
30.4025
20
79.0349
11
30.7925
21
79.1768
0
LINE
8
BLACK
6
CONTINUOUS
10
30.7925
20
79.1768
11
31.2075
21
79.1768
0
LINE
8
BLACK
6
CONTINUOUS
10
31.2075
20
79.1768
11
31.5975
21
79.0349
0
LINE
8
BLACK
6
CONTINUOUS
10
31.5975
20
79.0349
11
31.9154
21
78.7681
0
LINE
8
BLACK
6
CONTINUOUS
10
31.9154
20
78.7681
11
32.1229
21
78.4087
0
LINE
8
BLACK
6
CONTINUOUS
10
32.1229
20
78.4087
11
32.195
21
78
0
LINE
8
BLACK
6
CONTINUOUS
10
32.195
20
78
11
32.1229
21
77.5913
0
LINE
8
BLACK
6
CONTINUOUS
10
32.1229
20
77.5913
11
31.9154
21
77.2319
0
LINE
8
BLACK
6
CONTINUOUS
10
31.7852
20
78.6589
11
31.5125
21
78.8877
0
LINE
8
BLACK
6
CONTINUOUS
10
31.5125
20
78.8877
11
31.178
21
79.0094
0
LINE
8
BLACK
6
CONTINUOUS
10
31.178
20
79.0094
11
30.822
21
79.0094
0
LINE
8
BLACK
6
CONTINUOUS
10
30.822
20
79.0094
11
30.4875
21
78.8877
0
LINE
8
BLACK
6
CONTINUOUS
10
30.4875
20
78.8877
11
30.2148
21
78.6589
0
LINE
8
BLACK
6
CONTINUOUS
10
30.2148
20
78.6589
11
30.0368
21
78.3506
0
LINE
8
BLACK
6
CONTINUOUS
10
30.0368
20
78.3506
11
29.975
21
78
0
LINE
8
BLACK
6
CONTINUOUS
10
29.975
20
78
11
30.0368
21
77.6494
0
LINE
8
BLACK
6
CONTINUOUS
10
30.0368
20
77.6494
11
30.2148
21
77.3411
0
LINE
8
BLACK
6
CONTINUOUS
10
30.2148
20
77.3411
11
30.4875
21
77.1123
0
LINE
8
BLACK
6
CONTINUOUS
10
30.4875
20
77.1123
11
30.822
21
76.9906
0
LINE
8
BLACK
6
CONTINUOUS
10
30.822
20
76.9906
11
31.178
21
76.9906
0
LINE
8
BLACK
6
CONTINUOUS
10
31.178
20
76.9906
11
31.5125
21
77.1123
0
LINE
8
BLACK
6
CONTINUOUS
10
31.5125
20
77.1123
11
31.7852
21
77.3411
0
LINE
8
BLACK
6
CONTINUOUS
10
31.7852
20
77.3411
11
31.9632
21
77.6494
0
LINE
8
BLACK
6
CONTINUOUS
10
31.9632
20
77.6494
11
32.025
21
78
0
LINE
8
BLACK
6
CONTINUOUS
10
32.025
20
78
11
31.9632
21
78.3506
0
LINE
8
BLACK
6
CONTINUOUS
10
31.9632
20
78.3506
11
31.7852
21
78.6589
0
LINE
8
BLACK
6
CONTINUOUS
10
63.9154
20
94.1819
11
63.5975
21
93.9151
0
LINE
8
BLACK
6
CONTINUOUS
10
63.5975
20
93.9151
11
63.2075
21
93.7732
0
LINE
8
BLACK
6
CONTINUOUS
10
63.2075
20
93.7732
11
62.7925
21
93.7732
0
LINE
8
BLACK
6
CONTINUOUS
10
62.7925
20
93.7732
11
62.4025
21
93.9151
0
LINE
8
BLACK
6
CONTINUOUS
10
62.4025
20
93.9151
11
62.0846
21
94.1819
0
LINE
8
BLACK
6
CONTINUOUS
10
62.0846
20
94.1819
11
61.8771
21
94.5413
0
LINE
8
BLACK
6
CONTINUOUS
10
61.8771
20
94.5413
11
61.805
21
94.95
0
LINE
8
BLACK
6
CONTINUOUS
10
61.805
20
94.95
11
61.8771
21
95.3587
0
LINE
8
BLACK
6
CONTINUOUS
10
61.8771
20
95.3587
11
62.0846
21
95.7181
0
LINE
8
BLACK
6
CONTINUOUS
10
62.0846
20
95.7181
11
62.4025
21
95.9849
0
LINE
8
BLACK
6
CONTINUOUS
10
62.4025
20
95.9849
11
62.7925
21
96.1268
0
LINE
8
BLACK
6
CONTINUOUS
10
62.7925
20
96.1268
11
63.2075
21
96.1268
0
LINE
8
BLACK
6
CONTINUOUS
10
63.2075
20
96.1268
11
63.5975
21
95.9849
0
LINE
8
BLACK
6
CONTINUOUS
10
63.5975
20
95.9849
11
63.9154
21
95.7181
0
LINE
8
BLACK
6
CONTINUOUS
10
63.9154
20
95.7181
11
64.1229
21
95.3587
0
LINE
8
BLACK
6
CONTINUOUS
10
64.1229
20
95.3587
11
64.195
21
94.95
0
LINE
8
BLACK
6
CONTINUOUS
10
64.195
20
94.95
11
64.1229
21
94.5413
0
LINE
8
BLACK
6
CONTINUOUS
10
64.1229
20
94.5413
11
63.9154
21
94.1819
0
LINE
8
BLACK
6
CONTINUOUS
10
63.7852
20
95.6089
11
63.5125
21
95.8377
0
LINE
8
BLACK
6
CONTINUOUS
10
63.5125
20
95.8377
11
63.178
21
95.9594
0
LINE
8
BLACK
6
CONTINUOUS
10
63.178
20
95.9594
11
62.822
21
95.9594
0
LINE
8
BLACK
6
CONTINUOUS
10
62.822
20
95.9594
11
62.4875
21
95.8377
0
LINE
8
BLACK
6
CONTINUOUS
10
62.4875
20
95.8377
11
62.2148
21
95.6089
0
LINE
8
BLACK
6
CONTINUOUS
10
62.2148
20
95.6089
11
62.0368
21
95.3006
0
LINE
8
BLACK
6
CONTINUOUS
10
62.0368
20
95.3006
11
61.975
21
94.95
0
LINE
8
BLACK
6
CONTINUOUS
10
61.975
20
94.95
11
62.0368
21
94.5994
0
LINE
8
BLACK
6
CONTINUOUS
10
62.0368
20
94.5994
11
62.2148
21
94.2911
0
LINE
8
BLACK
6
CONTINUOUS
10
62.2148
20
94.2911
11
62.4875
21
94.0623
0
LINE
8
BLACK
6
CONTINUOUS
10
62.4875
20
94.0623
11
62.822
21
93.9406
0
LINE
8
BLACK
6
CONTINUOUS
10
62.822
20
93.9406
11
63.178
21
93.9406
0
LINE
8
BLACK
6
CONTINUOUS
10
63.178
20
93.9406
11
63.5125
21
94.0623
0
LINE
8
BLACK
6
CONTINUOUS
10
63.5125
20
94.0623
11
63.7852
21
94.2911
0
LINE
8
BLACK
6
CONTINUOUS
10
63.7852
20
94.2911
11
63.9632
21
94.5994
0
LINE
8
BLACK
6
CONTINUOUS
10
63.9632
20
94.5994
11
64.025
21
94.95
0
LINE
8
BLACK
6
CONTINUOUS
10
64.025
20
94.95
11
63.9632
21
95.3006
0
LINE
8
BLACK
6
CONTINUOUS
10
63.9632
20
95.3006
11
63.7852
21
95.6089
0
LINE
8
BLACK
6
CONTINUOUS
10
37.9154
20
94.2319
11
37.5975
21
93.9651
0
LINE
8
BLACK
6
CONTINUOUS
10
37.5975
20
93.9651
11
37.2075
21
93.8232
0
LINE
8
BLACK
6
CONTINUOUS
10
37.2075
20
93.8232
11
36.7925
21
93.8232
0
LINE
8
BLACK
6
CONTINUOUS
10
36.7925
20
93.8232
11
36.4025
21
93.9651
0
LINE
8
BLACK
6
CONTINUOUS
10
36.4025
20
93.9651
11
36.0846
21
94.2319
0
LINE
8
BLACK
6
CONTINUOUS
10
36.0846
20
94.2319
11
35.8771
21
94.5913
0
LINE
8
BLACK
6
CONTINUOUS
10
35.8771
20
94.5913
11
35.805
21
95
0
LINE
8
BLACK
6
CONTINUOUS
10
35.805
20
95
11
35.8771
21
95.4087
0
LINE
8
BLACK
6
CONTINUOUS
10
35.8771
20
95.4087
11
36.0846
21
95.7681
0
LINE
8
BLACK
6
CONTINUOUS
10
36.0846
20
95.7681
11
36.4025
21
96.0349
0
LINE
8
BLACK
6
CONTINUOUS
10
36.4025
20
96.0349
11
36.7925
21
96.1768
0
LINE
8
BLACK
6
CONTINUOUS
10
36.7925
20
96.1768
11
37.2075
21
96.1768
0
LINE
8
BLACK
6
CONTINUOUS
10
37.2075
20
96.1768
11
37.5975
21
96.0349
0
LINE
8
BLACK
6
CONTINUOUS
10
37.5975
20
96.0349
11
37.9154
21
95.7681
0
LINE
8
BLACK
6
CONTINUOUS
10
37.9154
20
95.7681
11
38.1229
21
95.4087
0
LINE
8
BLACK
6
CONTINUOUS
10
38.1229
20
95.4087
11
38.195
21
95
0
LINE
8
BLACK
6
CONTINUOUS
10
38.195
20
95
11
38.1229
21
94.5913
0
LINE
8
BLACK
6
CONTINUOUS
10
38.1229
20
94.5913
11
37.9154
21
94.2319
0
LINE
8
BLACK
6
CONTINUOUS
10
37.7852
20
95.6589
11
37.5125
21
95.8877
0
LINE
8
BLACK
6
CONTINUOUS
10
37.5125
20
95.8877
11
37.178
21
96.0094
0
LINE
8
BLACK
6
CONTINUOUS
10
37.178
20
96.0094
11
36.822
21
96.0094
0
LINE
8
BLACK
6
CONTINUOUS
10
36.822
20
96.0094
11
36.4875
21
95.8877
0
LINE
8
BLACK
6
CONTINUOUS
10
36.4875
20
95.8877
11
36.2148
21
95.6589
0
LINE
8
BLACK
6
CONTINUOUS
10
36.2148
20
95.6589
11
36.0368
21
95.3506
0
LINE
8
BLACK
6
CONTINUOUS
10
36.0368
20
95.3506
11
35.975
21
95
0
LINE
8
BLACK
6
CONTINUOUS
10
35.975
20
95
11
36.0368
21
94.6494
0
LINE
8
BLACK
6
CONTINUOUS
10
36.0368
20
94.6494
11
36.2148
21
94.3411
0
LINE
8
BLACK
6
CONTINUOUS
10
36.2148
20
94.3411
11
36.4875
21
94.1123
0
LINE
8
BLACK
6
CONTINUOUS
10
36.4875
20
94.1123
11
36.822
21
93.9906
0
LINE
8
BLACK
6
CONTINUOUS
10
36.822
20
93.9906
11
37.178
21
93.9906
0
LINE
8
BLACK
6
CONTINUOUS
10
37.178
20
93.9906
11
37.5125
21
94.1123
0
LINE
8
BLACK
6
CONTINUOUS
10
37.5125
20
94.1123
11
37.7852
21
94.3411
0
LINE
8
BLACK
6
CONTINUOUS
10
37.7852
20
94.3411
11
37.9632
21
94.6494
0
LINE
8
BLACK
6
CONTINUOUS
10
37.9632
20
94.6494
11
38.025
21
95
0
LINE
8
BLACK
6
CONTINUOUS
10
38.025
20
95
11
37.9632
21
95.3506
0
LINE
8
BLACK
6
CONTINUOUS
10
37.9632
20
95.3506
11
37.7852
21
95.6589
  0
ENDSEC
  0
EOF
