  0
SECTION
  2
HEADER
  9
$ANGBASE
  50
0.0
  9
$ANGDIR
  70
  1
  9
$MEASUREMENT
  70
0
  0
ENDSEC
  0
SECTION
  2
TABLES
  0
TABLE
  2
LTYPE
  70
4
  0
LTYPE
  5
40F
  2
CONTINUOUS
  70
0
  3
Solid line
  72
65
  73
0
  40
0.0
  0
LTYPE
  5
410
  2
DASHDOT
 70
0
  3
Dash Dot ____ _ ____ _
 72
65
 73
4
 40
2.0
 49
1.25
 49
-0.25
 49
0.25
 49
-0.25
  0
LTYPE
  5
411
  2
DASHED
 70
0
  3
Dashed __ __ __ __ __
 72
65
 73
2
 40
0.75
 49
0.5
 49
-0.25
  0
LTYPE
  5
43B
  2
DOTTED
 70
0
  3
Dotted .  .  .  .
 72
65
 73
2
 40
0.2
 49
0.0
 49
-0.2
  0
ENDTAB
  0
TABLE
  2
STYLE
  70
4
  0
STYLE
  2
KICAD
  70
0
  40
0
  41
1
  42
1
  50
0
  71
0
  3
isocp.shx
  0
STYLE
  2
KICADB
  70
0
  40
0
  41
1
  42
1
  50
0
  71
0
  3
isocp.shx
  0
STYLE
  2
KICADI
  70
0
  40
0
  41
1
  42
1
  50
15
  71
0
  3
isocp.shx
  0
STYLE
  2
KICADBI
  70
0
  40
0
  41
1
  42
1
  50
15
  71
0
  3
isocp.shx
  0
ENDTAB
  0
TABLE
  2
LAYER
  70
30
  0
LAYER
  2
BLACK
  70
0
  62
7
  6
CONTINUOUS
  0
LAYER
  2
GRAY1
  70
0
  62
251
  6
CONTINUOUS
  0
LAYER
  2
GRAY2
  70
0
  62
8
  6
CONTINUOUS
  0
LAYER
  2
GRAY3
  70
0
  62
9
  6
CONTINUOUS
  0
LAYER
  2
WHITE
  70
0
  62
7
  6
CONTINUOUS
  0
LAYER
  2
LYELLOW
  70
0
  62
51
  6
CONTINUOUS
  0
LAYER
  2
BLUE1
  70
0
  62
178
  6
CONTINUOUS
  0
LAYER
  2
GREEN1
  70
0
  62
98
  6
CONTINUOUS
  0
LAYER
  2
CYAN1
  70
0
  62
138
  6
CONTINUOUS
  0
LAYER
  2
RED1
  70
0
  62
18
  6
CONTINUOUS
  0
LAYER
  2
MAGENTA1
  70
0
  62
228
  6
CONTINUOUS
  0
LAYER
  2
BROWN1
  70
0
  62
58
  6
CONTINUOUS
  0
LAYER
  2
BLUE2
  70
0
  62
5
  6
CONTINUOUS
  0
LAYER
  2
GREEN2
  70
0
  62
3
  6
CONTINUOUS
  0
LAYER
  2
CYAN2
  70
0
  62
4
  6
CONTINUOUS
  0
LAYER
  2
RED2
  70
0
  62
1
  6
CONTINUOUS
  0
LAYER
  2
MAGENTA2
  70
0
  62
6
  6
CONTINUOUS
  0
LAYER
  2
BROWN2
  70
0
  62
54
  6
CONTINUOUS
  0
LAYER
  2
BLUE3
  70
0
  62
171
  6
CONTINUOUS
  0
LAYER
  2
GREEN3
  70
0
  62
91
  6
CONTINUOUS
  0
LAYER
  2
CYAN3
  70
0
  62
131
  6
CONTINUOUS
  0
LAYER
  2
RED3
  70
0
  62
11
  6
CONTINUOUS
  0
LAYER
  2
MAGENTA3
  70
0
  62
221
  6
CONTINUOUS
  0
LAYER
  2
YELLOW3
  70
0
  62
2
  6
CONTINUOUS
  0
LAYER
  2
BLUE4
  70
0
  62
5
  6
CONTINUOUS
  0
LAYER
  2
GREEN4
  70
0
  62
3
  6
CONTINUOUS
  0
LAYER
  2
CYAN4
  70
0
  62
4
  6
CONTINUOUS
  0
LAYER
  2
RED4
  70
0
  62
1
  6
CONTINUOUS
  0
LAYER
  2
MAGENTA4
  70
0
  62
6
  6
CONTINUOUS
  0
LAYER
  2
YELLOW4
  70
0
  62
2
  6
CONTINUOUS
  0
ENDTAB
  0
ENDSEC
  0
SECTION
  2
ENTITIES
0
LINE
8
BLACK
6
CONTINUOUS
10
159.524
20
-64.4419
11
160.093
21
-64.5234
0
LINE
8
BLACK
6
CONTINUOUS
10
160.093
20
-64.5234
11
160.094
21
-64.5236
0
LINE
8
BLACK
6
CONTINUOUS
10
160.094
20
-64.5236
11
160.104
21
-64.5266
0
LINE
8
BLACK
6
CONTINUOUS
10
160.104
20
-64.5266
11
160.113
21
-64.5294
0
LINE
8
BLACK
6
CONTINUOUS
10
160.113
20
-64.5294
11
160.638
21
-64.7679
0
LINE
8
BLACK
6
CONTINUOUS
10
160.638
20
-64.7679
11
160.639
21
-64.7682
0
LINE
8
BLACK
6
CONTINUOUS
10
160.639
20
-64.7682
11
160.647
21
-64.7739
0
LINE
8
BLACK
6
CONTINUOUS
10
160.647
20
-64.7739
11
160.656
21
-64.7793
0
LINE
8
BLACK
6
CONTINUOUS
10
160.656
20
-64.7793
11
161.092
21
-65.1554
0
LINE
8
BLACK
6
CONTINUOUS
10
161.092
20
-65.1554
11
161.093
21
-65.156
0
LINE
8
BLACK
6
CONTINUOUS
10
161.093
20
-65.156
11
161.099
21
-65.1638
0
LINE
8
BLACK
6
CONTINUOUS
10
161.099
20
-65.1638
11
161.106
21
-65.1714
0
LINE
8
BLACK
6
CONTINUOUS
10
161.106
20
-65.1714
11
161.42
21
-65.6549
0
LINE
8
BLACK
6
CONTINUOUS
10
161.42
20
-65.6549
11
161.42
21
-65.6557
0
LINE
8
BLACK
6
CONTINUOUS
10
161.42
20
-65.6557
11
161.424
21
-65.665
0
LINE
8
BLACK
6
CONTINUOUS
10
161.424
20
-65.665
11
161.428
21
-65.6742
0
LINE
8
BLACK
6
CONTINUOUS
10
161.428
20
-65.6742
11
161.594
21
-66.2262
0
LINE
8
BLACK
6
CONTINUOUS
10
161.594
20
-66.2262
11
161.594
21
-66.227
0
LINE
8
BLACK
6
CONTINUOUS
10
161.594
20
-66.227
11
161.595
21
-66.2346
0
LINE
8
BLACK
6
CONTINUOUS
10
161.595
20
-66.2346
11
161.596
21
-66.2421
0
LINE
8
BLACK
6
CONTINUOUS
10
161.596
20
-66.2421
11
161.619
21
-66.5387
0
LINE
8
BLACK
6
CONTINUOUS
10
161.619
20
-66.5387
11
161.619
21
-66.5414
0
LINE
8
BLACK
6
CONTINUOUS
10
161.619
20
-66.5414
11
161.619
21
-76.8961
0
LINE
8
BLACK
6
CONTINUOUS
10
161.619
20
-76.8961
11
161.62
21
-76.8967
0
LINE
8
BLACK
6
CONTINUOUS
10
161.62
20
-76.8967
11
161.635
21
-76.9206
0
LINE
8
BLACK
6
CONTINUOUS
10
161.635
20
-76.9206
11
161.643
21
-76.9478
0
LINE
8
BLACK
6
CONTINUOUS
10
161.643
20
-76.9478
11
161.643
21
-76.9762
0
LINE
8
BLACK
6
CONTINUOUS
10
161.643
20
-76.9762
11
161.561
21
-77.5465
0
LINE
8
BLACK
6
CONTINUOUS
10
161.561
20
-77.5465
11
161.561
21
-77.5465
0
LINE
8
BLACK
6
CONTINUOUS
10
161.561
20
-77.5465
11
161.561
21
-77.5465
0
LINE
8
BLACK
6
CONTINUOUS
10
161.561
20
-77.5465
11
161.561
21
-77.5477
0
LINE
8
BLACK
6
CONTINUOUS
10
161.561
20
-77.5477
11
161.557
21
-77.5607
0
LINE
8
BLACK
6
CONTINUOUS
10
161.557
20
-77.5607
11
161.553
21
-77.5737
0
LINE
8
BLACK
6
CONTINUOUS
10
161.553
20
-77.5737
11
161.315
21
-78.0982
0
LINE
8
BLACK
6
CONTINUOUS
10
161.315
20
-78.0982
11
161.315
21
-78.0982
0
LINE
8
BLACK
6
CONTINUOUS
10
161.315
20
-78.0982
11
161.315
21
-78.0982
0
LINE
8
BLACK
6
CONTINUOUS
10
161.315
20
-78.0982
11
161.314
21
-78.0993
0
LINE
8
BLACK
6
CONTINUOUS
10
161.314
20
-78.0993
11
161.307
21
-78.1106
0
LINE
8
BLACK
6
CONTINUOUS
10
161.307
20
-78.1106
11
161.3
21
-78.1221
0
LINE
8
BLACK
6
CONTINUOUS
10
161.3
20
-78.1221
11
160.924
21
-78.5585
0
LINE
8
BLACK
6
CONTINUOUS
10
160.924
20
-78.5585
11
160.923
21
-78.5594
0
LINE
8
BLACK
6
CONTINUOUS
10
160.923
20
-78.5594
11
160.912
21
-78.5682
0
LINE
8
BLACK
6
CONTINUOUS
10
160.912
20
-78.5682
11
160.902
21
-78.5772
0
LINE
8
BLACK
6
CONTINUOUS
10
160.902
20
-78.5772
11
160.419
21
-78.8905
0
LINE
8
BLACK
6
CONTINUOUS
10
160.419
20
-78.8905
11
160.418
21
-78.8912
0
LINE
8
BLACK
6
CONTINUOUS
10
160.418
20
-78.8912
11
160.405
21
-78.8967
0
LINE
8
BLACK
6
CONTINUOUS
10
160.405
20
-78.8967
11
160.393
21
-78.9024
0
LINE
8
BLACK
6
CONTINUOUS
10
160.393
20
-78.9024
11
159.841
21
-79.0675
0
LINE
8
BLACK
6
CONTINUOUS
10
159.841
20
-79.0675
11
159.84
21
-79.0678
0
LINE
8
BLACK
6
CONTINUOUS
10
159.84
20
-79.0678
11
159.83
21
-79.0692
0
LINE
8
BLACK
6
CONTINUOUS
10
159.83
20
-79.0692
11
159.82
21
-79.0714
0
LINE
8
BLACK
6
CONTINUOUS
10
159.82
20
-79.0714
11
159.519
21
-79.0937
0
LINE
8
BLACK
6
CONTINUOUS
10
159.519
20
-79.0937
11
159.518
21
-79.0938
0
LINE
8
BLACK
6
CONTINUOUS
10
159.518
20
-79.0938
11
159.49
21
-79.0915
0
LINE
8
BLACK
6
CONTINUOUS
10
159.49
20
-79.0915
11
159.463
21
-79.0814
0
LINE
8
BLACK
6
CONTINUOUS
10
159.463
20
-79.0814
11
159.447
21
-79.069
0
LINE
8
BLACK
6
CONTINUOUS
10
159.447
20
-79.069
11
144.846
21
-79.069
0
LINE
8
BLACK
6
CONTINUOUS
10
144.846
20
-79.069
11
144.843
21
-79.0719
0
LINE
8
BLACK
6
CONTINUOUS
10
144.843
20
-79.0719
11
144.824
21
-79.0836
0
LINE
8
BLACK
6
CONTINUOUS
10
144.824
20
-79.0836
11
144.804
21
-79.091
0
LINE
8
BLACK
6
CONTINUOUS
10
144.804
20
-79.091
11
144.783
21
-79.094
0
LINE
8
BLACK
6
CONTINUOUS
10
144.783
20
-79.094
11
144.605
21
-79.0989
0
LINE
8
BLACK
6
CONTINUOUS
10
144.605
20
-79.0989
11
143.919
21
-79.2125
0
LINE
8
BLACK
6
CONTINUOUS
10
143.919
20
-79.2125
11
143.277
21
-79.4693
0
LINE
8
BLACK
6
CONTINUOUS
10
143.277
20
-79.4693
11
142.705
21
-79.858
0
LINE
8
BLACK
6
CONTINUOUS
10
142.705
20
-79.858
11
142.23
21
-80.3604
0
LINE
8
BLACK
6
CONTINUOUS
10
142.23
20
-80.3604
11
141.874
21
-80.9532
0
LINE
8
BLACK
6
CONTINUOUS
10
141.874
20
-80.9532
11
141.653
21
-81.6085
0
LINE
8
BLACK
6
CONTINUOUS
10
141.653
20
-81.6085
11
141.577
21
-82.3068
0
LINE
8
BLACK
6
CONTINUOUS
10
141.577
20
-82.3068
11
141.576
21
-82.3178
0
LINE
8
BLACK
6
CONTINUOUS
10
141.576
20
-82.3178
11
141.569
21
-82.3383
0
LINE
8
BLACK
6
CONTINUOUS
10
141.569
20
-82.3383
11
141.557
21
-82.3567
0
LINE
8
BLACK
6
CONTINUOUS
10
141.557
20
-82.3567
11
141.553
21
-82.3614
0
LINE
8
BLACK
6
CONTINUOUS
10
141.553
20
-82.3614
11
141.553
21
-92.9538
0
LINE
8
BLACK
6
CONTINUOUS
10
141.553
20
-92.9538
11
141.554
21
-92.9567
0
LINE
8
BLACK
6
CONTINUOUS
10
141.554
20
-92.9567
11
141.553
21
-92.9669
0
LINE
8
BLACK
6
CONTINUOUS
10
141.553
20
-92.9669
11
141.553
21
-92.9706
0
LINE
8
BLACK
6
CONTINUOUS
10
141.553
20
-92.9706
11
141.552
21
-92.9735
0
LINE
8
BLACK
6
CONTINUOUS
10
141.552
20
-92.9735
11
141.552
21
-92.983
0
LINE
8
BLACK
6
CONTINUOUS
10
141.552
20
-92.983
11
141.55
21
-92.9864
0
LINE
8
BLACK
6
CONTINUOUS
10
141.55
20
-92.9864
11
141.55
21
-92.99
0
LINE
8
BLACK
6
CONTINUOUS
10
141.55
20
-92.99
11
141.545
21
-92.9984
0
LINE
8
BLACK
6
CONTINUOUS
10
141.545
20
-92.9984
11
141.541
21
-93.0071
0
LINE
8
BLACK
6
CONTINUOUS
10
141.541
20
-93.0071
11
141.538
21
-93.0097
0
LINE
8
BLACK
6
CONTINUOUS
10
141.538
20
-93.0097
11
141.536
21
-93.013
0
LINE
8
BLACK
6
CONTINUOUS
10
141.536
20
-93.013
11
141.529
21
-93.0191
0
LINE
8
BLACK
6
CONTINUOUS
10
141.529
20
-93.0191
11
141.527
21
-93.0212
0
LINE
8
BLACK
6
CONTINUOUS
10
141.527
20
-93.0212
11
141.524
21
-93.0233
0
LINE
8
BLACK
6
CONTINUOUS
10
141.524
20
-93.0233
11
141.516
21
-93.03
0
LINE
8
BLACK
6
CONTINUOUS
10
141.516
20
-93.03
11
141.513
21
-93.031
0
LINE
8
BLACK
6
CONTINUOUS
10
141.513
20
-93.031
11
139.775
21
-94.2726
0
LINE
8
BLACK
6
CONTINUOUS
10
139.775
20
-94.2726
11
139.775
21
-97.2886
0
LINE
8
BLACK
6
CONTINUOUS
10
139.775
20
-97.2886
11
139.774
21
-97.2932
0
LINE
8
BLACK
6
CONTINUOUS
10
139.774
20
-97.2932
11
139.695
21
-97.9231
0
LINE
8
BLACK
6
CONTINUOUS
10
139.695
20
-97.9231
11
139.693
21
-97.9323
0
LINE
8
BLACK
6
CONTINUOUS
10
139.693
20
-97.9323
11
139.691
21
-97.9367
0
LINE
8
BLACK
6
CONTINUOUS
10
139.691
20
-97.9367
11
139.69
21
-97.9413
0
LINE
8
BLACK
6
CONTINUOUS
10
139.69
20
-97.9413
11
139.456
21
-98.5333
0
LINE
8
BLACK
6
CONTINUOUS
10
139.456
20
-98.5333
11
139.456
21
-98.5333
0
LINE
8
BLACK
6
CONTINUOUS
10
139.456
20
-98.5333
11
139.456
21
-98.5333
0
LINE
8
BLACK
6
CONTINUOUS
10
139.456
20
-98.5333
11
139.452
21
-98.5418
0
LINE
8
BLACK
6
CONTINUOUS
10
139.452
20
-98.5418
11
139.449
21
-98.5456
0
LINE
8
BLACK
6
CONTINUOUS
10
139.449
20
-98.5456
11
139.446
21
-98.5497
0
LINE
8
BLACK
6
CONTINUOUS
10
139.446
20
-98.5497
11
139.072
21
-99.0648
0
LINE
8
BLACK
6
CONTINUOUS
10
139.072
20
-99.0648
11
139.066
21
-99.0721
0
LINE
8
BLACK
6
CONTINUOUS
10
139.066
20
-99.0721
11
139.063
21
-99.0751
0
LINE
8
BLACK
6
CONTINUOUS
10
139.063
20
-99.0751
11
139.059
21
-99.0785
0
LINE
8
BLACK
6
CONTINUOUS
10
139.059
20
-99.0785
11
138.569
21
-99.4844
0
LINE
8
BLACK
6
CONTINUOUS
10
138.569
20
-99.4844
11
138.569
21
-99.4844
0
LINE
8
BLACK
6
CONTINUOUS
10
138.569
20
-99.4844
11
138.569
21
-99.4844
0
LINE
8
BLACK
6
CONTINUOUS
10
138.569
20
-99.4844
11
138.561
21
-99.4899
0
LINE
8
BLACK
6
CONTINUOUS
10
138.561
20
-99.4899
11
138.557
21
-99.4919
0
LINE
8
BLACK
6
CONTINUOUS
10
138.557
20
-99.4919
11
138.553
21
-99.4945
0
LINE
8
BLACK
6
CONTINUOUS
10
138.553
20
-99.4945
11
137.977
21
-99.7655
0
LINE
8
BLACK
6
CONTINUOUS
10
137.977
20
-99.7655
11
137.977
21
-99.7655
0
LINE
8
BLACK
6
CONTINUOUS
10
137.977
20
-99.7655
11
137.977
21
-99.7655
0
LINE
8
BLACK
6
CONTINUOUS
10
137.977
20
-99.7655
11
137.968
21
-99.769
0
LINE
8
BLACK
6
CONTINUOUS
10
137.968
20
-99.769
11
137.963
21
-99.7699
0
LINE
8
BLACK
6
CONTINUOUS
10
137.963
20
-99.7699
11
137.959
21
-99.7714
0
LINE
8
BLACK
6
CONTINUOUS
10
137.959
20
-99.7714
11
137.334
21
-99.8907
0
LINE
8
BLACK
6
CONTINUOUS
10
137.334
20
-99.8907
11
137.324
21
-99.8918
0
LINE
8
BLACK
6
CONTINUOUS
10
137.324
20
-99.8918
11
137.319
21
-99.8915
0
LINE
8
BLACK
6
CONTINUOUS
10
137.319
20
-99.8915
11
137.315
21
-99.8918
0
LINE
8
BLACK
6
CONTINUOUS
10
137.315
20
-99.8918
11
136.679
21
-99.8519
0
LINE
8
BLACK
6
CONTINUOUS
10
136.679
20
-99.8519
11
136.67
21
-99.8507
0
LINE
8
BLACK
6
CONTINUOUS
10
136.67
20
-99.8507
11
136.666
21
-99.8492
0
LINE
8
BLACK
6
CONTINUOUS
10
136.666
20
-99.8492
11
136.661
21
-99.8483
0
LINE
8
BLACK
6
CONTINUOUS
10
136.661
20
-99.8483
11
136.055
21
-99.6516
0
LINE
8
BLACK
6
CONTINUOUS
10
136.055
20
-99.6516
11
136.055
21
-99.6516
0
LINE
8
BLACK
6
CONTINUOUS
10
136.055
20
-99.6516
11
136.055
21
-99.6516
0
LINE
8
BLACK
6
CONTINUOUS
10
136.055
20
-99.6516
11
136.047
21
-99.6481
0
LINE
8
BLACK
6
CONTINUOUS
10
136.047
20
-99.6481
11
136.043
21
-99.6456
0
LINE
8
BLACK
6
CONTINUOUS
10
136.043
20
-99.6456
11
136.038
21
-99.6436
0
LINE
8
BLACK
6
CONTINUOUS
10
136.038
20
-99.6436
11
135.501
21
-99.3024
0
LINE
8
BLACK
6
CONTINUOUS
10
135.501
20
-99.3024
11
135.493
21
-99.2969
0
LINE
8
BLACK
6
CONTINUOUS
10
135.493
20
-99.2969
11
135.49
21
-99.2934
0
LINE
8
BLACK
6
CONTINUOUS
10
135.49
20
-99.2934
11
135.486
21
-99.2904
0
LINE
8
BLACK
6
CONTINUOUS
10
135.486
20
-99.2904
11
135.05
21
-98.8263
0
LINE
8
BLACK
6
CONTINUOUS
10
135.05
20
-98.8263
11
135.044
21
-98.8191
0
LINE
8
BLACK
6
CONTINUOUS
10
135.044
20
-98.8191
11
135.042
21
-98.8149
0
LINE
8
BLACK
6
CONTINUOUS
10
135.042
20
-98.8149
11
135.039
21
-98.8111
0
LINE
8
BLACK
6
CONTINUOUS
10
135.039
20
-98.8111
11
134.733
21
-98.2532
0
LINE
8
BLACK
6
CONTINUOUS
10
134.733
20
-98.2532
11
134.733
21
-98.2532
0
LINE
8
BLACK
6
CONTINUOUS
10
134.733
20
-98.2532
11
134.733
21
-98.2532
0
LINE
8
BLACK
6
CONTINUOUS
10
134.733
20
-98.2532
11
134.729
21
-98.2446
0
LINE
8
BLACK
6
CONTINUOUS
10
134.729
20
-98.2446
11
134.727
21
-98.2401
0
LINE
8
BLACK
6
CONTINUOUS
10
134.727
20
-98.2401
11
134.726
21
-98.2357
0
LINE
8
BLACK
6
CONTINUOUS
10
134.726
20
-98.2357
11
134.567
21
-97.619
0
LINE
8
BLACK
6
CONTINUOUS
10
134.567
20
-97.619
11
134.566
21
-97.6097
0
LINE
8
BLACK
6
CONTINUOUS
10
134.566
20
-97.6097
11
134.566
21
-97.6074
0
LINE
8
BLACK
6
CONTINUOUS
10
134.566
20
-97.6074
11
134.565
21
-97.6051
0
LINE
8
BLACK
6
CONTINUOUS
10
134.565
20
-97.6051
11
134.545
21
-97.2909
0
LINE
8
BLACK
6
CONTINUOUS
10
134.545
20
-97.2909
11
134.545
21
-97.2886
0
LINE
8
BLACK
6
CONTINUOUS
10
134.545
20
-97.2886
11
134.545
21
-95.579
0
LINE
8
BLACK
6
CONTINUOUS
10
134.545
20
-95.579
11
125.043
21
-95.579
0
LINE
8
BLACK
6
CONTINUOUS
10
125.043
20
-95.579
11
125.043
21
-97.2886
0
LINE
8
BLACK
6
CONTINUOUS
10
125.043
20
-97.2886
11
125.042
21
-97.2932
0
LINE
8
BLACK
6
CONTINUOUS
10
125.042
20
-97.2932
11
124.963
21
-97.9231
0
LINE
8
BLACK
6
CONTINUOUS
10
124.963
20
-97.9231
11
124.961
21
-97.9323
0
LINE
8
BLACK
6
CONTINUOUS
10
124.961
20
-97.9323
11
124.959
21
-97.9367
0
LINE
8
BLACK
6
CONTINUOUS
10
124.959
20
-97.9367
11
124.958
21
-97.9413
0
LINE
8
BLACK
6
CONTINUOUS
10
124.958
20
-97.9413
11
124.724
21
-98.5333
0
LINE
8
BLACK
6
CONTINUOUS
10
124.724
20
-98.5333
11
124.724
21
-98.5333
0
LINE
8
BLACK
6
CONTINUOUS
10
124.724
20
-98.5333
11
124.724
21
-98.5333
0
LINE
8
BLACK
6
CONTINUOUS
10
124.724
20
-98.5333
11
124.72
21
-98.5418
0
LINE
8
BLACK
6
CONTINUOUS
10
124.72
20
-98.5418
11
124.717
21
-98.5456
0
LINE
8
BLACK
6
CONTINUOUS
10
124.717
20
-98.5456
11
124.714
21
-98.5497
0
LINE
8
BLACK
6
CONTINUOUS
10
124.714
20
-98.5497
11
124.34
21
-99.0648
0
LINE
8
BLACK
6
CONTINUOUS
10
124.34
20
-99.0648
11
124.334
21
-99.0721
0
LINE
8
BLACK
6
CONTINUOUS
10
124.334
20
-99.0721
11
124.331
21
-99.0751
0
LINE
8
BLACK
6
CONTINUOUS
10
124.331
20
-99.0751
11
124.327
21
-99.0785
0
LINE
8
BLACK
6
CONTINUOUS
10
124.327
20
-99.0785
11
123.837
21
-99.4844
0
LINE
8
BLACK
6
CONTINUOUS
10
123.837
20
-99.4844
11
123.837
21
-99.4844
0
LINE
8
BLACK
6
CONTINUOUS
10
123.837
20
-99.4844
11
123.837
21
-99.4844
0
LINE
8
BLACK
6
CONTINUOUS
10
123.837
20
-99.4844
11
123.829
21
-99.4899
0
LINE
8
BLACK
6
CONTINUOUS
10
123.829
20
-99.4899
11
123.825
21
-99.4919
0
LINE
8
BLACK
6
CONTINUOUS
10
123.825
20
-99.4919
11
123.821
21
-99.4945
0
LINE
8
BLACK
6
CONTINUOUS
10
123.821
20
-99.4945
11
123.245
21
-99.7655
0
LINE
8
BLACK
6
CONTINUOUS
10
123.245
20
-99.7655
11
123.245
21
-99.7655
0
LINE
8
BLACK
6
CONTINUOUS
10
123.245
20
-99.7655
11
123.245
21
-99.7655
0
LINE
8
BLACK
6
CONTINUOUS
10
123.245
20
-99.7655
11
123.236
21
-99.769
0
LINE
8
BLACK
6
CONTINUOUS
10
123.236
20
-99.769
11
123.231
21
-99.7699
0
LINE
8
BLACK
6
CONTINUOUS
10
123.231
20
-99.7699
11
123.227
21
-99.7714
0
LINE
8
BLACK
6
CONTINUOUS
10
123.227
20
-99.7714
11
122.602
21
-99.8907
0
LINE
8
BLACK
6
CONTINUOUS
10
122.602
20
-99.8907
11
122.592
21
-99.8918
0
LINE
8
BLACK
6
CONTINUOUS
10
122.592
20
-99.8918
11
122.587
21
-99.8915
0
LINE
8
BLACK
6
CONTINUOUS
10
122.587
20
-99.8915
11
122.583
21
-99.8918
0
LINE
8
BLACK
6
CONTINUOUS
10
122.583
20
-99.8918
11
121.947
21
-99.8519
0
LINE
8
BLACK
6
CONTINUOUS
10
121.947
20
-99.8519
11
121.938
21
-99.8507
0
LINE
8
BLACK
6
CONTINUOUS
10
121.938
20
-99.8507
11
121.934
21
-99.8492
0
LINE
8
BLACK
6
CONTINUOUS
10
121.934
20
-99.8492
11
121.929
21
-99.8483
0
LINE
8
BLACK
6
CONTINUOUS
10
121.929
20
-99.8483
11
121.323
21
-99.6516
0
LINE
8
BLACK
6
CONTINUOUS
10
121.323
20
-99.6516
11
121.323
21
-99.6516
0
LINE
8
BLACK
6
CONTINUOUS
10
121.323
20
-99.6516
11
121.323
21
-99.6516
0
LINE
8
BLACK
6
CONTINUOUS
10
121.323
20
-99.6516
11
121.315
21
-99.6481
0
LINE
8
BLACK
6
CONTINUOUS
10
121.315
20
-99.6481
11
121.311
21
-99.6456
0
LINE
8
BLACK
6
CONTINUOUS
10
121.311
20
-99.6456
11
121.306
21
-99.6436
0
LINE
8
BLACK
6
CONTINUOUS
10
121.306
20
-99.6436
11
120.769
21
-99.3024
0
LINE
8
BLACK
6
CONTINUOUS
10
120.769
20
-99.3024
11
120.761
21
-99.2969
0
LINE
8
BLACK
6
CONTINUOUS
10
120.761
20
-99.2969
11
120.758
21
-99.2934
0
LINE
8
BLACK
6
CONTINUOUS
10
120.758
20
-99.2934
11
120.754
21
-99.2904
0
LINE
8
BLACK
6
CONTINUOUS
10
120.754
20
-99.2904
11
120.318
21
-98.8263
0
LINE
8
BLACK
6
CONTINUOUS
10
120.318
20
-98.8263
11
120.312
21
-98.8191
0
LINE
8
BLACK
6
CONTINUOUS
10
120.312
20
-98.8191
11
120.31
21
-98.8149
0
LINE
8
BLACK
6
CONTINUOUS
10
120.31
20
-98.8149
11
120.307
21
-98.8111
0
LINE
8
BLACK
6
CONTINUOUS
10
120.307
20
-98.8111
11
120.001
21
-98.2532
0
LINE
8
BLACK
6
CONTINUOUS
10
120.001
20
-98.2532
11
120.001
21
-98.2532
0
LINE
8
BLACK
6
CONTINUOUS
10
120.001
20
-98.2532
11
120.001
21
-98.2532
0
LINE
8
BLACK
6
CONTINUOUS
10
120.001
20
-98.2532
11
119.997
21
-98.2446
0
LINE
8
BLACK
6
CONTINUOUS
10
119.997
20
-98.2446
11
119.995
21
-98.2401
0
LINE
8
BLACK
6
CONTINUOUS
10
119.995
20
-98.2401
11
119.994
21
-98.2357
0
LINE
8
BLACK
6
CONTINUOUS
10
119.994
20
-98.2357
11
119.835
21
-97.619
0
LINE
8
BLACK
6
CONTINUOUS
10
119.835
20
-97.619
11
119.834
21
-97.6097
0
LINE
8
BLACK
6
CONTINUOUS
10
119.834
20
-97.6097
11
119.834
21
-97.6074
0
LINE
8
BLACK
6
CONTINUOUS
10
119.834
20
-97.6074
11
119.833
21
-97.6051
0
LINE
8
BLACK
6
CONTINUOUS
10
119.833
20
-97.6051
11
119.813
21
-97.2909
0
LINE
8
BLACK
6
CONTINUOUS
10
119.813
20
-97.2909
11
119.813
21
-97.2886
0
LINE
8
BLACK
6
CONTINUOUS
10
119.813
20
-97.2886
11
119.813
21
-94.2726
0
LINE
8
BLACK
6
CONTINUOUS
10
119.813
20
-94.2726
11
118.075
21
-93.031
0
LINE
8
BLACK
6
CONTINUOUS
10
118.075
20
-93.031
11
118.072
21
-93.03
0
LINE
8
BLACK
6
CONTINUOUS
10
118.072
20
-93.03
11
118.064
21
-93.0233
0
LINE
8
BLACK
6
CONTINUOUS
10
118.064
20
-93.0233
11
118.061
21
-93.0212
0
LINE
8
BLACK
6
CONTINUOUS
10
118.061
20
-93.0212
11
118.059
21
-93.0191
0
LINE
8
BLACK
6
CONTINUOUS
10
118.059
20
-93.0191
11
118.052
21
-93.013
0
LINE
8
BLACK
6
CONTINUOUS
10
118.052
20
-93.013
11
118.05
21
-93.0097
0
LINE
8
BLACK
6
CONTINUOUS
10
118.05
20
-93.0097
11
118.047
21
-93.0071
0
LINE
8
BLACK
6
CONTINUOUS
10
118.047
20
-93.0071
11
118.043
21
-92.9984
0
LINE
8
BLACK
6
CONTINUOUS
10
118.043
20
-92.9984
11
118.038
21
-92.99
0
LINE
8
BLACK
6
CONTINUOUS
10
118.038
20
-92.99
11
118.038
21
-92.9864
0
LINE
8
BLACK
6
CONTINUOUS
10
118.038
20
-92.9864
11
118.036
21
-92.983
0
LINE
8
BLACK
6
CONTINUOUS
10
118.036
20
-92.983
11
118.036
21
-92.9734
0
LINE
8
BLACK
6
CONTINUOUS
10
118.036
20
-92.9734
11
118.035
21
-92.9706
0
LINE
8
BLACK
6
CONTINUOUS
10
118.035
20
-92.9706
11
118.035
21
-92.9669
0
LINE
8
BLACK
6
CONTINUOUS
10
118.035
20
-92.9669
11
118.034
21
-92.9567
0
LINE
8
BLACK
6
CONTINUOUS
10
118.034
20
-92.9567
11
118.035
21
-92.9538
0
LINE
8
BLACK
6
CONTINUOUS
10
118.035
20
-92.9538
11
118.035
21
-82.3616
0
LINE
8
BLACK
6
CONTINUOUS
10
118.035
20
-82.3616
11
118.032
21
-82.3587
0
LINE
8
BLACK
6
CONTINUOUS
10
118.032
20
-82.3587
11
118.02
21
-82.3405
0
LINE
8
BLACK
6
CONTINUOUS
10
118.02
20
-82.3405
11
118.013
21
-82.3202
0
LINE
8
BLACK
6
CONTINUOUS
10
118.013
20
-82.3202
11
118.01
21
-82.2988
0
LINE
8
BLACK
6
CONTINUOUS
10
118.01
20
-82.2988
11
118.005
21
-82.1213
0
LINE
8
BLACK
6
CONTINUOUS
10
118.005
20
-82.1213
11
117.891
21
-81.4351
0
LINE
8
BLACK
6
CONTINUOUS
10
117.891
20
-81.4351
11
117.635
21
-80.793
0
LINE
8
BLACK
6
CONTINUOUS
10
117.635
20
-80.793
11
117.246
21
-80.2211
0
LINE
8
BLACK
6
CONTINUOUS
10
117.246
20
-80.2211
11
116.744
21
-79.746
0
LINE
8
BLACK
6
CONTINUOUS
10
116.744
20
-79.746
11
116.151
21
-79.3898
0
LINE
8
BLACK
6
CONTINUOUS
10
116.151
20
-79.3898
11
115.495
21
-79.1693
0
LINE
8
BLACK
6
CONTINUOUS
10
115.495
20
-79.1693
11
114.797
21
-79.0934
0
LINE
8
BLACK
6
CONTINUOUS
10
114.797
20
-79.0934
11
114.786
21
-79.0916
0
LINE
8
BLACK
6
CONTINUOUS
10
114.786
20
-79.0916
11
114.766
21
-79.0846
0
LINE
8
BLACK
6
CONTINUOUS
10
114.766
20
-79.0846
11
114.747
21
-79.0734
0
LINE
8
BLACK
6
CONTINUOUS
10
114.747
20
-79.0734
11
114.743
21
-79.069
0
LINE
8
BLACK
6
CONTINUOUS
10
114.743
20
-79.069
11
100.142
21
-79.069
0
LINE
8
BLACK
6
CONTINUOUS
10
100.142
20
-79.069
11
100.141
21
-79.0698
0
LINE
8
BLACK
6
CONTINUOUS
10
100.141
20
-79.0698
11
100.117
21
-79.085
0
LINE
8
BLACK
6
CONTINUOUS
10
100.117
20
-79.085
11
100.09
21
-79.093
0
LINE
8
BLACK
6
CONTINUOUS
10
100.09
20
-79.093
11
100.062
21
-79.093
0
LINE
8
BLACK
6
CONTINUOUS
10
100.062
20
-79.093
11
99.4915
21
-79.0113
0
LINE
8
BLACK
6
CONTINUOUS
10
99.4915
20
-79.0113
11
99.4915
21
-79.0113
0
LINE
8
BLACK
6
CONTINUOUS
10
99.4915
20
-79.0113
11
99.4915
21
-79.0113
0
LINE
8
BLACK
6
CONTINUOUS
10
99.4915
20
-79.0113
11
99.4903
21
-79.0111
0
LINE
8
BLACK
6
CONTINUOUS
10
99.4903
20
-79.0111
11
99.4773
21
-79.0072
0
LINE
8
BLACK
6
CONTINUOUS
10
99.4773
20
-79.0072
11
99.4643
21
-79.0034
0
LINE
8
BLACK
6
CONTINUOUS
10
99.4643
20
-79.0034
11
98.9398
21
-78.7649
0
LINE
8
BLACK
6
CONTINUOUS
10
98.9398
20
-78.7649
11
98.9398
21
-78.7649
0
LINE
8
BLACK
6
CONTINUOUS
10
98.9398
20
-78.7649
11
98.9398
21
-78.7649
0
LINE
8
BLACK
6
CONTINUOUS
10
98.9398
20
-78.7649
11
98.9387
21
-78.7644
0
LINE
8
BLACK
6
CONTINUOUS
10
98.9387
20
-78.7644
11
98.9274
21
-78.757
0
LINE
8
BLACK
6
CONTINUOUS
10
98.9274
20
-78.757
11
98.9159
21
-78.7496
0
LINE
8
BLACK
6
CONTINUOUS
10
98.9159
20
-78.7496
11
98.4795
21
-78.3735
0
LINE
8
BLACK
6
CONTINUOUS
10
98.4795
20
-78.3735
11
98.4786
21
-78.3727
0
LINE
8
BLACK
6
CONTINUOUS
10
98.4786
20
-78.3727
11
98.4698
21
-78.3624
0
LINE
8
BLACK
6
CONTINUOUS
10
98.4698
20
-78.3624
11
98.4608
21
-78.3522
0
LINE
8
BLACK
6
CONTINUOUS
10
98.4608
20
-78.3522
11
98.1475
21
-77.8687
0
LINE
8
BLACK
6
CONTINUOUS
10
98.1475
20
-77.8687
11
98.1468
21
-77.8677
0
LINE
8
BLACK
6
CONTINUOUS
10
98.1468
20
-77.8677
11
98.1413
21
-77.8553
0
LINE
8
BLACK
6
CONTINUOUS
10
98.1413
20
-77.8553
11
98.1356
21
-77.843
0
LINE
8
BLACK
6
CONTINUOUS
10
98.1356
20
-77.843
11
97.9705
21
-77.291
0
LINE
8
BLACK
6
CONTINUOUS
10
97.9705
20
-77.291
11
97.9702
21
-77.2898
0
LINE
8
BLACK
6
CONTINUOUS
10
97.9702
20
-77.2898
11
97.9688
21
-77.2797
0
LINE
8
BLACK
6
CONTINUOUS
10
97.9688
20
-77.2797
11
97.9666
21
-77.2698
0
LINE
8
BLACK
6
CONTINUOUS
10
97.9666
20
-77.2698
11
97.9443
21
-76.9694
0
LINE
8
BLACK
6
CONTINUOUS
10
97.9443
20
-76.9694
11
97.9442
21
-76.9682
0
LINE
8
BLACK
6
CONTINUOUS
10
97.9442
20
-76.9682
11
97.9465
21
-76.9399
0
LINE
8
BLACK
6
CONTINUOUS
10
97.9465
20
-76.9399
11
97.9566
21
-76.9134
0
LINE
8
BLACK
6
CONTINUOUS
10
97.9566
20
-76.9134
11
97.969
21
-76.8971
0
LINE
8
BLACK
6
CONTINUOUS
10
97.969
20
-76.8971
11
97.969
21
-66.5414
0
LINE
8
BLACK
6
CONTINUOUS
10
97.969
20
-66.5414
11
97.9699
21
-66.5362
0
LINE
8
BLACK
6
CONTINUOUS
10
97.9699
20
-66.5362
11
98.0514
21
-65.9671
0
LINE
8
BLACK
6
CONTINUOUS
10
98.0514
20
-65.9671
11
98.0516
21
-65.9661
0
LINE
8
BLACK
6
CONTINUOUS
10
98.0516
20
-65.9661
11
98.0546
21
-65.9564
0
LINE
8
BLACK
6
CONTINUOUS
10
98.0546
20
-65.9564
11
98.0574
21
-65.9466
0
LINE
8
BLACK
6
CONTINUOUS
10
98.0574
20
-65.9466
11
98.2959
21
-65.4222
0
LINE
8
BLACK
6
CONTINUOUS
10
98.2959
20
-65.4222
11
98.2962
21
-65.4213
0
LINE
8
BLACK
6
CONTINUOUS
10
98.2962
20
-65.4213
11
98.3019
21
-65.4128
0
LINE
8
BLACK
6
CONTINUOUS
10
98.3019
20
-65.4128
11
98.3073
21
-65.4043
0
LINE
8
BLACK
6
CONTINUOUS
10
98.3073
20
-65.4043
11
98.6834
21
-64.9678
0
LINE
8
BLACK
6
CONTINUOUS
10
98.6834
20
-64.9678
11
98.684
21
-64.9671
0
LINE
8
BLACK
6
CONTINUOUS
10
98.684
20
-64.9671
11
98.6918
21
-64.9605
0
LINE
8
BLACK
6
CONTINUOUS
10
98.6918
20
-64.9605
11
98.6994
21
-64.9538
0
LINE
8
BLACK
6
CONTINUOUS
10
98.6994
20
-64.9538
11
99.1829
21
-64.6405
0
LINE
8
BLACK
6
CONTINUOUS
10
99.1829
20
-64.6405
11
99.1837
21
-64.64
0
LINE
8
BLACK
6
CONTINUOUS
10
99.1837
20
-64.64
11
99.193
21
-64.6358
0
LINE
8
BLACK
6
CONTINUOUS
10
99.193
20
-64.6358
11
99.2022
21
-64.6315
0
LINE
8
BLACK
6
CONTINUOUS
10
99.2022
20
-64.6315
11
99.7542
21
-64.4665
0
LINE
8
BLACK
6
CONTINUOUS
10
99.7542
20
-64.4665
11
99.755
21
-64.4662
0
LINE
8
BLACK
6
CONTINUOUS
10
99.755
20
-64.4662
11
99.7626
21
-64.4652
0
LINE
8
BLACK
6
CONTINUOUS
10
99.7626
20
-64.4652
11
99.7701
21
-64.4635
0
LINE
8
BLACK
6
CONTINUOUS
10
99.7701
20
-64.4635
11
100.067
21
-64.4415
0
LINE
8
BLACK
6
CONTINUOUS
10
100.067
20
-64.4415
11
100.069
21
-64.441
0
LINE
8
BLACK
6
CONTINUOUS
10
100.069
20
-64.441
11
159.519
21
-64.441
0
LINE
8
BLACK
6
CONTINUOUS
10
159.519
20
-64.441
11
159.524
21
-64.4419
0
LINE
8
BLACK
6
CONTINUOUS
10
100.079
20
-64.591
11
99.7893
21
-64.6125
0
LINE
8
BLACK
6
CONTINUOUS
10
99.7893
20
-64.6125
11
99.2555
21
-64.7722
0
LINE
8
BLACK
6
CONTINUOUS
10
99.2555
20
-64.7722
11
98.79
21
-65.0739
0
LINE
8
BLACK
6
CONTINUOUS
10
98.79
20
-65.0739
11
98.428
21
-65.494
0
LINE
8
BLACK
6
CONTINUOUS
10
98.428
20
-65.494
11
98.1984
21
-65.9989
0
LINE
8
BLACK
6
CONTINUOUS
10
98.1984
20
-65.9989
11
98.119
21
-66.5533
0
LINE
8
BLACK
6
CONTINUOUS
10
98.119
20
-66.5533
11
98.119
21
-76.897
0
LINE
8
BLACK
6
CONTINUOUS
10
98.119
20
-76.897
11
98.124
21
-76.902
0
LINE
8
BLACK
6
CONTINUOUS
10
98.124
20
-76.902
11
98.1376
21
-76.9269
0
LINE
8
BLACK
6
CONTINUOUS
10
98.1376
20
-76.9269
11
98.1437
21
-76.9546
0
LINE
8
BLACK
6
CONTINUOUS
10
98.1437
20
-76.9546
11
98.1652
21
-77.2441
0
LINE
8
BLACK
6
CONTINUOUS
10
98.1652
20
-77.2441
11
98.3231
21
-77.772
0
LINE
8
BLACK
6
CONTINUOUS
10
98.3231
20
-77.772
11
98.6209
21
-78.2314
0
LINE
8
BLACK
6
CONTINUOUS
10
98.6209
20
-78.2314
11
99.0356
21
-78.5888
0
LINE
8
BLACK
6
CONTINUOUS
10
99.0356
20
-78.5888
11
99.534
21
-78.8154
0
LINE
8
BLACK
6
CONTINUOUS
10
99.534
20
-78.8154
11
100.09
21
-78.895
0
LINE
8
BLACK
6
CONTINUOUS
10
100.09
20
-78.895
11
100.091
21
-78.8952
0
LINE
8
BLACK
6
CONTINUOUS
10
100.091
20
-78.8952
11
100.118
21
-78.9035
0
LINE
8
BLACK
6
CONTINUOUS
10
100.118
20
-78.9035
11
100.142
21
-78.919
0
LINE
8
BLACK
6
CONTINUOUS
10
100.142
20
-78.919
11
114.742
21
-78.919
0
LINE
8
BLACK
6
CONTINUOUS
10
114.742
20
-78.919
11
114.756
21
-78.9083
0
LINE
8
BLACK
6
CONTINUOUS
10
114.756
20
-78.9083
11
114.776
21
-78.8992
0
LINE
8
BLACK
6
CONTINUOUS
10
114.776
20
-78.8992
11
114.797
21
-78.8946
0
LINE
8
BLACK
6
CONTINUOUS
10
114.797
20
-78.8946
11
114.819
21
-78.8946
0
LINE
8
BLACK
6
CONTINUOUS
10
114.819
20
-78.8946
11
115.528
21
-78.9716
0
LINE
8
BLACK
6
CONTINUOUS
10
115.528
20
-78.9716
11
115.539
21
-78.9734
0
LINE
8
BLACK
6
CONTINUOUS
10
115.539
20
-78.9734
11
115.544
21
-78.9751
0
LINE
8
BLACK
6
CONTINUOUS
10
115.544
20
-78.9751
11
115.549
21
-78.9763
0
LINE
8
BLACK
6
CONTINUOUS
10
115.549
20
-78.9763
11
116.225
21
-79.2037
0
LINE
8
BLACK
6
CONTINUOUS
10
116.225
20
-79.2037
11
116.235
21
-79.2079
0
LINE
8
BLACK
6
CONTINUOUS
10
116.235
20
-79.2079
11
116.24
21
-79.2106
0
LINE
8
BLACK
6
CONTINUOUS
10
116.24
20
-79.2106
11
116.245
21
-79.2128
0
LINE
8
BLACK
6
CONTINUOUS
10
116.245
20
-79.2128
11
116.856
21
-79.5801
0
LINE
8
BLACK
6
CONTINUOUS
10
116.856
20
-79.5801
11
116.865
21
-79.5864
0
LINE
8
BLACK
6
CONTINUOUS
10
116.865
20
-79.5864
11
116.869
21
-79.59
0
LINE
8
BLACK
6
CONTINUOUS
10
116.869
20
-79.59
11
116.873
21
-79.5932
0
LINE
8
BLACK
6
CONTINUOUS
10
116.873
20
-79.5932
11
117.391
21
-80.0833
0
LINE
8
BLACK
6
CONTINUOUS
10
117.391
20
-80.0833
11
117.399
21
-80.0914
0
LINE
8
BLACK
6
CONTINUOUS
10
117.399
20
-80.0914
11
117.402
21
-80.0957
0
LINE
8
BLACK
6
CONTINUOUS
10
117.402
20
-80.0957
11
117.405
21
-80.0997
0
LINE
8
BLACK
6
CONTINUOUS
10
117.405
20
-80.0997
11
117.806
21
-80.6896
0
LINE
8
BLACK
6
CONTINUOUS
10
117.806
20
-80.6896
11
117.812
21
-80.6992
0
LINE
8
BLACK
6
CONTINUOUS
10
117.812
20
-80.6992
11
117.814
21
-80.704
0
LINE
8
BLACK
6
CONTINUOUS
10
117.814
20
-80.704
11
117.816
21
-80.7087
0
LINE
8
BLACK
6
CONTINUOUS
10
117.816
20
-80.7087
11
118.081
21
-81.3709
0
LINE
8
BLACK
6
CONTINUOUS
10
118.081
20
-81.3709
11
118.085
21
-81.3815
0
LINE
8
BLACK
6
CONTINUOUS
10
118.085
20
-81.3815
11
118.086
21
-81.3867
0
LINE
8
BLACK
6
CONTINUOUS
10
118.086
20
-81.3867
11
118.087
21
-81.3917
0
LINE
8
BLACK
6
CONTINUOUS
10
118.087
20
-81.3917
11
118.204
21
-82.0953
0
LINE
8
BLACK
6
CONTINUOUS
10
118.204
20
-82.0953
11
118.205
21
-82.1064
0
LINE
8
BLACK
6
CONTINUOUS
10
118.205
20
-82.1064
11
118.205
21
-82.1077
0
LINE
8
BLACK
6
CONTINUOUS
10
118.205
20
-82.1077
11
118.205
21
-82.1089
0
LINE
8
BLACK
6
CONTINUOUS
10
118.205
20
-82.1089
11
118.21
21
-82.2932
0
LINE
8
BLACK
6
CONTINUOUS
10
118.21
20
-82.2932
11
118.21
21
-82.3044
0
LINE
8
BLACK
6
CONTINUOUS
10
118.21
20
-82.3044
11
118.206
21
-82.3256
0
LINE
8
BLACK
6
CONTINUOUS
10
118.206
20
-82.3256
11
118.197
21
-82.3454
0
LINE
8
BLACK
6
CONTINUOUS
10
118.197
20
-82.3454
11
118.185
21
-82.362
0
LINE
8
BLACK
6
CONTINUOUS
10
118.185
20
-82.362
11
118.185
21
-92.9254
0
LINE
8
BLACK
6
CONTINUOUS
10
118.185
20
-92.9254
11
119.923
21
-94.167
0
LINE
8
BLACK
6
CONTINUOUS
10
119.923
20
-94.167
11
119.926
21
-94.168
0
LINE
8
BLACK
6
CONTINUOUS
10
119.926
20
-94.168
11
119.934
21
-94.1747
0
LINE
8
BLACK
6
CONTINUOUS
10
119.934
20
-94.1747
11
119.937
21
-94.1768
0
LINE
8
BLACK
6
CONTINUOUS
10
119.937
20
-94.1768
11
119.939
21
-94.1789
0
LINE
8
BLACK
6
CONTINUOUS
10
119.939
20
-94.1789
11
119.946
21
-94.185
0
LINE
8
BLACK
6
CONTINUOUS
10
119.946
20
-94.185
11
119.948
21
-94.1883
0
LINE
8
BLACK
6
CONTINUOUS
10
119.948
20
-94.1883
11
119.951
21
-94.1909
0
LINE
8
BLACK
6
CONTINUOUS
10
119.951
20
-94.1909
11
119.955
21
-94.1996
0
LINE
8
BLACK
6
CONTINUOUS
10
119.955
20
-94.1996
11
119.96
21
-94.208
0
LINE
8
BLACK
6
CONTINUOUS
10
119.96
20
-94.208
11
119.96
21
-94.2116
0
LINE
8
BLACK
6
CONTINUOUS
10
119.96
20
-94.2116
11
119.962
21
-94.215
0
LINE
8
BLACK
6
CONTINUOUS
10
119.962
20
-94.215
11
119.962
21
-94.2245
0
LINE
8
BLACK
6
CONTINUOUS
10
119.962
20
-94.2245
11
119.963
21
-94.2274
0
LINE
8
BLACK
6
CONTINUOUS
10
119.963
20
-94.2274
11
119.963
21
-94.2311
0
LINE
8
BLACK
6
CONTINUOUS
10
119.963
20
-94.2311
11
119.964
21
-94.2413
0
LINE
8
BLACK
6
CONTINUOUS
10
119.964
20
-94.2413
11
119.963
21
-94.2442
0
LINE
8
BLACK
6
CONTINUOUS
10
119.963
20
-94.2442
11
119.963
21
-97.2796
0
LINE
8
BLACK
6
CONTINUOUS
10
119.963
20
-97.2796
11
119.982
21
-97.5886
0
LINE
8
BLACK
6
CONTINUOUS
10
119.982
20
-97.5886
11
120.137
21
-98.1892
0
LINE
8
BLACK
6
CONTINUOUS
10
120.137
20
-98.1892
11
120.434
21
-98.7305
0
LINE
8
BLACK
6
CONTINUOUS
10
120.434
20
-98.7305
11
120.857
21
-99.1809
0
LINE
8
BLACK
6
CONTINUOUS
10
120.857
20
-99.1809
11
121.379
21
-99.5119
0
LINE
8
BLACK
6
CONTINUOUS
10
121.379
20
-99.5119
11
121.966
21
-99.7028
0
LINE
8
BLACK
6
CONTINUOUS
10
121.966
20
-99.7028
11
122.583
21
-99.7415
0
LINE
8
BLACK
6
CONTINUOUS
10
122.583
20
-99.7415
11
123.19
21
-99.6258
0
LINE
8
BLACK
6
CONTINUOUS
10
123.19
20
-99.6258
11
123.748
21
-99.3628
0
LINE
8
BLACK
6
CONTINUOUS
10
123.748
20
-99.3628
11
124.224
21
-98.969
0
LINE
8
BLACK
6
CONTINUOUS
10
124.224
20
-98.969
11
124.588
21
-98.4692
0
LINE
8
BLACK
6
CONTINUOUS
10
124.588
20
-98.4692
11
124.815
21
-97.8949
0
LINE
8
BLACK
6
CONTINUOUS
10
124.815
20
-97.8949
11
124.893
21
-97.2773
0
LINE
8
BLACK
6
CONTINUOUS
10
124.893
20
-97.2773
11
124.893
21
-95.4974
0
LINE
8
BLACK
6
CONTINUOUS
10
124.893
20
-95.4974
11
124.893
21
-95.4974
0
LINE
8
BLACK
6
CONTINUOUS
10
124.893
20
-95.4974
11
124.893
21
-95.4908
0
LINE
8
BLACK
6
CONTINUOUS
10
124.893
20
-95.4908
11
124.895
21
-95.4845
0
LINE
8
BLACK
6
CONTINUOUS
10
124.895
20
-95.4845
11
124.896
21
-95.478
0
LINE
8
BLACK
6
CONTINUOUS
10
124.896
20
-95.478
11
124.9
21
-95.4722
0
LINE
8
BLACK
6
CONTINUOUS
10
124.9
20
-95.4722
11
124.902
21
-95.4659
0
LINE
8
BLACK
6
CONTINUOUS
10
124.902
20
-95.4659
11
124.906
21
-95.4608
0
LINE
8
BLACK
6
CONTINUOUS
10
124.906
20
-95.4608
11
124.91
21
-95.455
0
LINE
8
BLACK
6
CONTINUOUS
10
124.91
20
-95.455
11
124.915
21
-95.4508
0
LINE
8
BLACK
6
CONTINUOUS
10
124.915
20
-95.4508
11
124.919
21
-95.4457
0
LINE
8
BLACK
6
CONTINUOUS
10
124.919
20
-95.4457
11
124.925
21
-95.4423
0
LINE
8
BLACK
6
CONTINUOUS
10
124.925
20
-95.4423
11
124.93
21
-95.438
0
LINE
8
BLACK
6
CONTINUOUS
10
124.93
20
-95.438
11
124.936
21
-95.4358
0
LINE
8
BLACK
6
CONTINUOUS
10
124.936
20
-95.4358
11
124.942
21
-95.4324
0
LINE
8
BLACK
6
CONTINUOUS
10
124.942
20
-95.4324
11
124.949
21
-95.4313
0
LINE
8
BLACK
6
CONTINUOUS
10
124.949
20
-95.4313
11
124.955
21
-95.429
0
LINE
8
BLACK
6
CONTINUOUS
10
124.955
20
-95.429
11
124.961
21
-95.429
0
LINE
8
BLACK
6
CONTINUOUS
10
124.961
20
-95.429
11
124.961
21
-95.429
0
LINE
8
BLACK
6
CONTINUOUS
10
124.961
20
-95.429
11
134.627
21
-95.429
0
LINE
8
BLACK
6
CONTINUOUS
10
134.627
20
-95.429
11
134.627
21
-95.429
0
LINE
8
BLACK
6
CONTINUOUS
10
134.627
20
-95.429
11
134.633
21
-95.429
0
LINE
8
BLACK
6
CONTINUOUS
10
134.633
20
-95.429
11
134.639
21
-95.4313
0
LINE
8
BLACK
6
CONTINUOUS
10
134.639
20
-95.4313
11
134.646
21
-95.4324
0
LINE
8
BLACK
6
CONTINUOUS
10
134.646
20
-95.4324
11
134.652
21
-95.4358
0
LINE
8
BLACK
6
CONTINUOUS
10
134.652
20
-95.4358
11
134.658
21
-95.438
0
LINE
8
BLACK
6
CONTINUOUS
10
134.658
20
-95.438
11
134.663
21
-95.4423
0
LINE
8
BLACK
6
CONTINUOUS
10
134.663
20
-95.4423
11
134.669
21
-95.4457
0
LINE
8
BLACK
6
CONTINUOUS
10
134.669
20
-95.4457
11
134.673
21
-95.4508
0
LINE
8
BLACK
6
CONTINUOUS
10
134.673
20
-95.4508
11
134.678
21
-95.455
0
LINE
8
BLACK
6
CONTINUOUS
10
134.678
20
-95.455
11
134.682
21
-95.4608
0
LINE
8
BLACK
6
CONTINUOUS
10
134.682
20
-95.4608
11
134.686
21
-95.4659
0
LINE
8
BLACK
6
CONTINUOUS
10
134.686
20
-95.4659
11
134.688
21
-95.4722
0
LINE
8
BLACK
6
CONTINUOUS
10
134.688
20
-95.4722
11
134.692
21
-95.478
0
LINE
8
BLACK
6
CONTINUOUS
10
134.692
20
-95.478
11
134.693
21
-95.4845
0
LINE
8
BLACK
6
CONTINUOUS
10
134.693
20
-95.4845
11
134.695
21
-95.4908
0
LINE
8
BLACK
6
CONTINUOUS
10
134.695
20
-95.4908
11
134.695
21
-95.4974
0
LINE
8
BLACK
6
CONTINUOUS
10
134.695
20
-95.4974
11
134.695
21
-95.4974
0
LINE
8
BLACK
6
CONTINUOUS
10
134.695
20
-95.4974
11
134.695
21
-97.2796
0
LINE
8
BLACK
6
CONTINUOUS
10
134.695
20
-97.2796
11
134.714
21
-97.5886
0
LINE
8
BLACK
6
CONTINUOUS
10
134.714
20
-97.5886
11
134.869
21
-98.1892
0
LINE
8
BLACK
6
CONTINUOUS
10
134.869
20
-98.1892
11
135.166
21
-98.7305
0
LINE
8
BLACK
6
CONTINUOUS
10
135.166
20
-98.7305
11
135.589
21
-99.1809
0
LINE
8
BLACK
6
CONTINUOUS
10
135.589
20
-99.1809
11
136.111
21
-99.5119
0
LINE
8
BLACK
6
CONTINUOUS
10
136.111
20
-99.5119
11
136.698
21
-99.7028
0
LINE
8
BLACK
6
CONTINUOUS
10
136.698
20
-99.7028
11
137.315
21
-99.7415
0
LINE
8
BLACK
6
CONTINUOUS
10
137.315
20
-99.7415
11
137.922
21
-99.6258
0
LINE
8
BLACK
6
CONTINUOUS
10
137.922
20
-99.6258
11
138.48
21
-99.3628
0
LINE
8
BLACK
6
CONTINUOUS
10
138.48
20
-99.3628
11
138.956
21
-98.969
0
LINE
8
BLACK
6
CONTINUOUS
10
138.956
20
-98.969
11
139.32
21
-98.4692
0
LINE
8
BLACK
6
CONTINUOUS
10
139.32
20
-98.4692
11
139.547
21
-97.8949
0
LINE
8
BLACK
6
CONTINUOUS
10
139.547
20
-97.8949
11
139.625
21
-97.2773
0
LINE
8
BLACK
6
CONTINUOUS
10
139.625
20
-97.2773
11
139.625
21
-94.2442
0
LINE
8
BLACK
6
CONTINUOUS
10
139.625
20
-94.2442
11
139.624
21
-94.2413
0
LINE
8
BLACK
6
CONTINUOUS
10
139.624
20
-94.2413
11
139.625
21
-94.2311
0
LINE
8
BLACK
6
CONTINUOUS
10
139.625
20
-94.2311
11
139.625
21
-94.2274
0
LINE
8
BLACK
6
CONTINUOUS
10
139.625
20
-94.2274
11
139.626
21
-94.2245
0
LINE
8
BLACK
6
CONTINUOUS
10
139.626
20
-94.2245
11
139.626
21
-94.215
0
LINE
8
BLACK
6
CONTINUOUS
10
139.626
20
-94.215
11
139.628
21
-94.2116
0
LINE
8
BLACK
6
CONTINUOUS
10
139.628
20
-94.2116
11
139.628
21
-94.208
0
LINE
8
BLACK
6
CONTINUOUS
10
139.628
20
-94.208
11
139.633
21
-94.1996
0
LINE
8
BLACK
6
CONTINUOUS
10
139.633
20
-94.1996
11
139.637
21
-94.1909
0
LINE
8
BLACK
6
CONTINUOUS
10
139.637
20
-94.1909
11
139.64
21
-94.1883
0
LINE
8
BLACK
6
CONTINUOUS
10
139.64
20
-94.1883
11
139.642
21
-94.185
0
LINE
8
BLACK
6
CONTINUOUS
10
139.642
20
-94.185
11
139.649
21
-94.1789
0
LINE
8
BLACK
6
CONTINUOUS
10
139.649
20
-94.1789
11
139.651
21
-94.1768
0
LINE
8
BLACK
6
CONTINUOUS
10
139.651
20
-94.1768
11
139.654
21
-94.1747
0
LINE
8
BLACK
6
CONTINUOUS
10
139.654
20
-94.1747
11
139.662
21
-94.168
0
LINE
8
BLACK
6
CONTINUOUS
10
139.662
20
-94.168
11
139.665
21
-94.167
0
LINE
8
BLACK
6
CONTINUOUS
10
139.665
20
-94.167
11
141.403
21
-92.9254
0
LINE
8
BLACK
6
CONTINUOUS
10
141.403
20
-92.9254
11
141.403
21
-82.3616
0
LINE
8
BLACK
6
CONTINUOUS
10
141.403
20
-82.3616
11
141.392
21
-82.3475
0
LINE
8
BLACK
6
CONTINUOUS
10
141.392
20
-82.3475
11
141.383
21
-82.3279
0
LINE
8
BLACK
6
CONTINUOUS
10
141.383
20
-82.3279
11
141.379
21
-82.3068
0
LINE
8
BLACK
6
CONTINUOUS
10
141.379
20
-82.3068
11
141.379
21
-82.2852
0
LINE
8
BLACK
6
CONTINUOUS
10
141.379
20
-82.2852
11
141.456
21
-81.5761
0
LINE
8
BLACK
6
CONTINUOUS
10
141.456
20
-81.5761
11
141.457
21
-81.5651
0
LINE
8
BLACK
6
CONTINUOUS
10
141.457
20
-81.5651
11
141.459
21
-81.5602
0
LINE
8
BLACK
6
CONTINUOUS
10
141.459
20
-81.5602
11
141.46
21
-81.555
0
LINE
8
BLACK
6
CONTINUOUS
10
141.46
20
-81.555
11
141.688
21
-80.8791
0
LINE
8
BLACK
6
CONTINUOUS
10
141.688
20
-80.8791
11
141.692
21
-80.8687
0
LINE
8
BLACK
6
CONTINUOUS
10
141.692
20
-80.8687
11
141.695
21
-80.8642
0
LINE
8
BLACK
6
CONTINUOUS
10
141.695
20
-80.8642
11
141.697
21
-80.8595
0
LINE
8
BLACK
6
CONTINUOUS
10
141.697
20
-80.8595
11
142.064
21
-80.2481
0
LINE
8
BLACK
6
CONTINUOUS
10
142.064
20
-80.2481
11
142.07
21
-80.2389
0
LINE
8
BLACK
6
CONTINUOUS
10
142.07
20
-80.2389
11
142.074
21
-80.2351
0
LINE
8
BLACK
6
CONTINUOUS
10
142.074
20
-80.2351
11
142.077
21
-80.2309
0
LINE
8
BLACK
6
CONTINUOUS
10
142.077
20
-80.2309
11
142.567
21
-79.7127
0
LINE
8
BLACK
6
CONTINUOUS
10
142.567
20
-79.7127
11
142.575
21
-79.705
0
LINE
8
BLACK
6
CONTINUOUS
10
142.575
20
-79.705
11
142.58
21
-79.7021
0
LINE
8
BLACK
6
CONTINUOUS
10
142.58
20
-79.7021
11
142.584
21
-79.6987
0
LINE
8
BLACK
6
CONTINUOUS
10
142.584
20
-79.6987
11
143.174
21
-79.2978
0
LINE
8
BLACK
6
CONTINUOUS
10
143.174
20
-79.2978
11
143.183
21
-79.292
0
LINE
8
BLACK
6
CONTINUOUS
10
143.183
20
-79.292
11
143.188
21
-79.2901
0
LINE
8
BLACK
6
CONTINUOUS
10
143.188
20
-79.2901
11
143.193
21
-79.2877
0
LINE
8
BLACK
6
CONTINUOUS
10
143.193
20
-79.2877
11
143.855
21
-79.0228
0
LINE
8
BLACK
6
CONTINUOUS
10
143.855
20
-79.0228
11
143.865
21
-79.0192
0
LINE
8
BLACK
6
CONTINUOUS
10
143.865
20
-79.0192
11
143.871
21
-79.0184
0
LINE
8
BLACK
6
CONTINUOUS
10
143.871
20
-79.0184
11
143.876
21
-79.017
0
LINE
8
BLACK
6
CONTINUOUS
10
143.876
20
-79.017
11
144.579
21
-78.9005
0
LINE
8
BLACK
6
CONTINUOUS
10
144.579
20
-78.9005
11
144.59
21
-78.8993
0
LINE
8
BLACK
6
CONTINUOUS
10
144.59
20
-78.8993
11
144.592
21
-78.8994
0
LINE
8
BLACK
6
CONTINUOUS
10
144.592
20
-78.8994
11
144.593
21
-78.8992
0
LINE
8
BLACK
6
CONTINUOUS
10
144.593
20
-78.8992
11
144.777
21
-78.894
0
LINE
8
BLACK
6
CONTINUOUS
10
144.777
20
-78.894
11
144.788
21
-78.8944
0
LINE
8
BLACK
6
CONTINUOUS
10
144.788
20
-78.8944
11
144.81
21
-78.8985
0
LINE
8
BLACK
6
CONTINUOUS
10
144.81
20
-78.8985
11
144.829
21
-78.9071
0
LINE
8
BLACK
6
CONTINUOUS
10
144.829
20
-78.9071
11
144.846
21
-78.919
0
LINE
8
BLACK
6
CONTINUOUS
10
144.846
20
-78.919
11
159.447
21
-78.919
0
LINE
8
BLACK
6
CONTINUOUS
10
159.447
20
-78.919
11
159.452
21
-78.914
0
LINE
8
BLACK
6
CONTINUOUS
10
159.452
20
-78.914
11
159.477
21
-78.9004
0
LINE
8
BLACK
6
CONTINUOUS
10
159.477
20
-78.9004
11
159.505
21
-78.8943
0
LINE
8
BLACK
6
CONTINUOUS
10
159.505
20
-78.8943
11
159.794
21
-78.8728
0
LINE
8
BLACK
6
CONTINUOUS
10
159.794
20
-78.8728
11
160.322
21
-78.7149
0
LINE
8
BLACK
6
CONTINUOUS
10
160.322
20
-78.7149
11
160.781
21
-78.4171
0
LINE
8
BLACK
6
CONTINUOUS
10
160.781
20
-78.4171
11
161.139
21
-78.0024
0
LINE
8
BLACK
6
CONTINUOUS
10
161.139
20
-78.0024
11
161.365
21
-77.504
0
LINE
8
BLACK
6
CONTINUOUS
10
161.365
20
-77.504
11
161.445
21
-76.9478
0
LINE
8
BLACK
6
CONTINUOUS
10
161.445
20
-76.9478
11
161.445
21
-76.9466
0
LINE
8
BLACK
6
CONTINUOUS
10
161.445
20
-76.9466
11
161.453
21
-76.9195
0
LINE
8
BLACK
6
CONTINUOUS
10
161.453
20
-76.9195
11
161.469
21
-76.8959
0
LINE
8
BLACK
6
CONTINUOUS
10
161.469
20
-76.8959
11
161.469
21
-66.5508
0
LINE
8
BLACK
6
CONTINUOUS
10
161.469
20
-66.5508
11
161.447
21
-66.2613
0
LINE
8
BLACK
6
CONTINUOUS
10
161.447
20
-66.2613
11
161.288
21
-65.7275
0
LINE
8
BLACK
6
CONTINUOUS
10
161.288
20
-65.7275
11
160.986
21
-65.262
0
LINE
8
BLACK
6
CONTINUOUS
10
160.986
20
-65.262
11
160.566
21
-64.9
0
LINE
8
BLACK
6
CONTINUOUS
10
160.566
20
-64.9
11
160.061
21
-64.6704
0
LINE
8
BLACK
6
CONTINUOUS
10
160.061
20
-64.6704
11
159.507
21
-64.591
0
LINE
8
BLACK
6
CONTINUOUS
10
159.507
20
-64.591
11
100.079
21
-64.591
  0
ENDSEC
  0
EOF
