M48
;DRILL file {KiCad (5.0.1-3-g963ef8bb5)} date 2018 November 27, Tuesday 12:15:44
;FORMAT={-:-/ absolute / inch / decimal}
FMAT,2
INCH,TZ
T1C0.0130
T2C0.0295
T3C0.0315
T4C0.0354
T5C0.0374
T6C0.0394
T7C0.0402
T8C0.0409
T9C0.0433
%
G90
G05
M72
T1
X6.475Y-4.03
X6.62Y-4.475
X6.765Y-4.48
X6.935Y-3.715
X6.945Y-3.95
X7.Y-5.15
X7.01Y-3.37
X7.01Y-3.66
X7.03Y-4.26
X7.035Y-5.105
X7.06Y-4.55
X7.1858Y-3.8992
X7.24Y-3.885
X7.43Y-3.875
X7.435Y-2.75
X7.5Y-3.35
X7.645Y-4.19
X7.695Y-4.285
X7.815Y-3.24
X7.86Y-5.295
X7.96Y-2.455
X8.02Y-5.245
X8.25Y-4.
X8.41Y-3.765
X8.44Y-3.575
X8.455Y-3.95
X8.74Y-4.065
X8.865Y-2.899
X8.895Y-3.985
X9.5Y-4.035
T2
X7.13Y-4.9363
X7.13Y-5.015
X7.13Y-4.6213
X7.13Y-4.7
T3
X7.605Y-3.615
X7.605Y-3.915
X7.705Y-3.615
X7.705Y-3.915
X7.805Y-3.615
X7.805Y-3.915
X7.905Y-3.615
X7.905Y-3.915
X8.005Y-3.615
X8.005Y-3.915
X8.105Y-3.615
X8.105Y-3.915
X8.205Y-3.615
X8.205Y-3.915
X8.305Y-3.615
X8.305Y-3.915
X7.18Y-3.47
X7.18Y-4.07
X7.28Y-3.47
X7.28Y-4.07
X7.38Y-3.47
X7.38Y-4.07
X7.48Y-3.47
X7.48Y-4.07
X7.58Y-3.47
X7.58Y-4.07
X7.68Y-3.47
X7.68Y-4.07
X7.78Y-3.47
X7.78Y-4.07
X7.88Y-3.47
X7.88Y-4.07
X7.98Y-3.47
X7.98Y-4.07
X8.08Y-3.47
X8.08Y-4.07
X8.18Y-3.47
X8.18Y-4.07
X8.28Y-3.47
X8.28Y-4.07
X8.38Y-3.47
X8.38Y-4.07
X8.48Y-3.47
X8.48Y-4.07
X8.58Y-3.47
X8.58Y-4.07
T4
X7.2289Y-2.0589
X7.2643Y-2.0943
X7.2996Y-2.1296
X7.335Y-2.165
X8.425Y-2.385
X8.525Y-2.385
X7.82Y-5.355
X7.82Y-5.4849
X7.9184Y-5.355
X7.9184Y-5.4849
X8.0169Y-5.355
X8.0169Y-5.4849
X7.334Y-2.39
X7.434Y-2.39
X8.52Y-2.165
X8.5554Y-2.1296
X8.5907Y-2.0943
X8.6261Y-2.0589
T5
X8.718Y-4.6831
X8.718Y-4.7816
X8.718Y-4.88
T6
X9.074Y-2.69
X9.1314Y-2.7719
X9.1887Y-2.8538
X8.81Y-4.24
X8.81Y-4.34
X8.81Y-4.44
X8.85Y-5.272
X8.95Y-5.272
X8.005Y-4.21
X8.105Y-4.21
X8.205Y-4.21
X7.824Y-2.354
X7.924Y-2.354
X8.024Y-2.354
X7.655Y-2.185
X7.755Y-2.185
X7.855Y-2.185
X7.955Y-2.185
X8.055Y-2.185
X8.155Y-2.185
X6.995Y-3.18
X7.095Y-3.18
X7.195Y-3.18
X7.295Y-3.18
X7.395Y-3.18
X7.495Y-3.18
X6.906Y-5.27
X7.006Y-5.27
X7.095Y-4.47
X7.195Y-4.47
X7.295Y-4.47
X6.6853Y-2.8538
X6.7426Y-2.7719
X6.8Y-2.69
X6.2207Y-3.5601
X6.3207Y-3.5601
X6.4207Y-3.5601
X6.5207Y-3.5601
X6.6207Y-3.5601
X6.7207Y-3.5601
X6.8207Y-3.5601
X6.9207Y-3.5601
X8.38Y-4.21
X8.48Y-4.21
X8.58Y-4.21
X6.2207Y-4.1651
X6.3207Y-4.1651
X6.4207Y-4.1651
X6.5207Y-4.1651
X6.6207Y-4.1651
X6.7207Y-4.1651
X6.8207Y-4.1651
X6.9207Y-4.1651
T7
X8.091Y-3.178
T8
X8.091Y-2.818
X8.691Y-2.818
X8.691Y-3.178
T9
X7.246Y-4.212
X7.546Y-4.212
X7.305Y-3.045
X7.605Y-3.045
X8.985Y-4.245
X8.985Y-4.4222
X9.2409Y-4.245
X9.2409Y-4.4222
X8.985Y-3.895
X8.985Y-4.0722
X9.2409Y-3.895
X9.2409Y-4.0722
T0
M30
